<?xml version="1.0" encoding="UTF-8"?>
<svg id="Layer_1" xmlns="http://www.w3.org/2000/svg" version="1.1" viewBox="0 0 180 110">
  <!-- Generator: Adobe Illustrator 29.8.1, SVG Export Plug-In . SVG Version: 2.1.1 Build 2)  -->
  <defs>
    <style>
      .st0 {
        fill: #231f20;
      }

      .st1 {
        fill: #57b054;
        fill-rule: evenodd;
      }
    </style>
  </defs>
  <path class="st0" d="M131.8,65.4v16.7h3.2v-20.2h-4.7v.3c1,.3,1.5,1.4,1.5,3.2M112,81.9c0,2.3-.3,4-.9,5.1-.8,1.4-2.2,2.3-4.3,2.7l-1.2-2.2c1.3-.3,2.2-.8,2.7-1.6.4-.7.6-1.8.6-3.4v-12c0-1.7-.5-2.7-1.4-3v-.3h4.5v14.7ZM162.4,77.8h0c0,1.7-.7,2.9-2,3.7-1,.6-2.2,1-3.4,1-1.9,0-3.4-.4-4.6-1.1v-3.1c1.3,1.2,2.8,1.8,4.6,1.8s1.2-.2,1.7-.5c.5-.3.7-.8.7-1.4s-.5-1.4-1.6-2c-1-.5-1.8-.9-2.5-1.2-1.9-1-2.8-2.2-2.8-3.8s0-.3,0-.5c.1-1.3.7-2.2,1.8-2.9.9-.6,2-.8,3.3-.8s3.1.3,4.1,1v2.8c-1.2-.9-2.5-1.4-4-1.4s-2.2.5-2.2,1.4.4,1.1,1.3,1.6c.6.3,1.5.8,2.7,1.4,1.9,1,2.9,2.4,2.8,4.1ZM150.1,64.3c0,1.1-.3,2.1-.8,3-.5.9-1.3,1.6-2.2,2.1l-.3-.4c1.2-.7,1.8-1.8,1.8-3.2s0-.3,0-.4h-.6c-1.1,0-1.6-.6-1.6-1.7s.2-.9.5-1.3c.3-.3.8-.5,1.2-.5s1,.2,1.4.7c.3.5.5,1.1.5,1.8ZM142.8,63.7c0,.5-.2,1-.5,1.3-.4.4-.8.5-1.3.5s-.9-.2-1.3-.5c-.4-.4-.5-.8-.5-1.3s.2-.9.5-1.3c.4-.4.8-.5,1.3-.5s1,.2,1.3.5c.4.4.5.8.5,1.3ZM142.5,82.1h-3.1v-11.6c0-1.7-.5-2.7-1.4-3v-.3h4.5v14.9ZM128.5,81.8c-.8.4-1.6.6-2.6.6s-2.1-.6-2.3-1.7c-1,1.1-2.4,1.7-4.2,1.7s-2-.3-2.8-1c-.7-.7-1.1-1.6-1.1-2.7v-.2c0-2.2,1.4-3.8,4.3-4.8,1-.3,2.2-.6,3.6-.8v-.7c0-1.9-.9-2.9-2.7-2.9s-3.3.7-4.5,2v-2.7c1.2-1.2,2.9-1.8,5-1.8s2.8.4,3.8,1.2c1,.9,1.5,2.1,1.5,3.7v7.5c0,.7.3,1,.9,1s.6,0,1-.3v1.8ZM123.5,78.9v-4.2c-3.2.5-4.8,1.7-4.8,3.4s.8,2,2.3,2,1.9-.4,2.6-1.2ZM112.3,63.7c0,.5-.2.9-.5,1.3-.4.4-.8.5-1.3.5s-.9-.2-1.3-.5c-.4-.4-.5-.8-.5-1.3s.2-.9.5-1.3c.4-.4.8-.5,1.3-.5s1,.2,1.3.5c.4.4.5.8.5,1.3ZM104,82.1h-3.1v-9.6c0-2.2-1-3.2-2.9-3.2s-2.8.8-3.7,2.4v10.4h-3.1v-11.6c0-1.7-.5-2.7-1.4-3v-.3h4.3v1.9c1.2-1.5,2.8-2.3,4.9-2.3s2.4.4,3.3,1.2c1.1,1,1.7,2.5,1.7,4.5v9.6ZM89,82.1h-3.5l-3-6.6h-9.2l-2.8,6.6h-3l9.3-21.9h2.5l9.7,21.9ZM81.4,73l-2.6-6c-.5-1.2-.9-2.1-1-2.6-.2.6-.5,1.5-.9,2.6l-2.4,6h7ZM58,80.4c0,.5-.2,1-.6,1.4-.4.4-.8.6-1.4.6s-1-.2-1.4-.6c-.4-.4-.6-.8-.6-1.4s.2-1,.6-1.3c.4-.4.8-.6,1.4-.6s1,.2,1.4.6c.4.4.6.8.6,1.3ZM51.8,67.8l-.9,2.7c-.6-.6-1.4-.8-2.3-.8-1.4,0-2.4.6-3,1.8-.5,1-.8,2.2-.8,3.7v6.9h-3.1v-11.6c0-1.7-.5-2.7-1.4-3v-.3h4.4v2.9c1-2.2,2.4-3.3,4.3-3.3s1.9.3,2.6,1ZM38.3,71.1c0,2.9-.9,5.4-2.8,7.4-2.1,2.4-5.1,3.5-8.9,3.5h-7.5v-17c0-1.4,0-2.4-.2-2.9-.2-.8-.6-1.3-1.3-1.6v-.3h9c3.8,0,6.7,1.2,8.9,3.5,1.9,2,2.8,4.5,2.8,7.4ZM34.8,71.1c0-2.4-.7-4.3-2.2-5.8-1.6-1.7-3.9-2.5-6.8-2.5h-3.2v16.7h3.2c2.9,0,5.2-.8,6.8-2.5,1.4-1.5,2.2-3.4,2.2-5.8Z"/>
  <path class="st1" d="M128.2,58.5s-.8-6.9-7.6-11.2c-6.8-4.4-8.2-.9-13-5.9,0,0,.1,21.7,20.3,18.6,0,0-12.3-3.3-14.8-10.5,0,0,6.4,8.1,15.1,9.1M132.2,6.8s-20.9,16.2-8.2,37.7c3.1,5.3,6.1,11.1,7.6,16.8h3.3c-.8-3.7-2.8-7.3-4.7-10.9-5-9.2-8.5-19.4-2.2-28.9,0,0-5.2,15.1,4.2,29,0,0,9.4-11.1,5.6-23.8-3.9-12.7-7.4-15.2-5.5-20.1Z"/>
  <path class="st1" d="M151.5,96c-.1-.5-.4-.8-1.1-.8s-1,.3-1.1.8h2.2ZM124.7,96c-.1-.5-.4-.8-1.1-.8s-1,.3-1.1.8h2.2ZM79.3,98.2v-2.7c-.3-.3-.6-.3-1-.3s-.8.2-1.1.5c-.3.4-.4.9-.4,1.3s0,1,.4,1.4c.3.3.6.5,1,.5h0c.5,0,.8-.2,1.1-.6ZM69.8,96c-.1-.5-.4-.8-1.1-.8s-1,.3-1.1.8h2.2ZM23.9,96l-.9-1.9c0,0,0-.1,0-.2,0,0,0,.1,0,.2l-.8,1.9h1.8ZM158.8,94.2c.4-.4.8-.6,1.4-.6s.9.1,1.3.5h.1c0,.1-.5,1.9-.5,1.9l-.4-.3c-.2-.2-.4-.3-.7-.3-.4,0-.7.2-.9.6-.2.4-.3.9-.3,1.3v3.1h-1.9v-4.9c0-.3,0-.8-.3-.9h-.2v-.7h2.4v.4ZM149.2,97.5c0,.3.2.6.4.8.3.3.6.4,1,.5h0s0,0,0,0c.1,0,.2,0,.3,0,.6,0,1.1-.2,1.6-.5l.4-.3.3,1.7h-.2c-.7.5-1.6.7-2.4.7s-1.8-.3-2.4-1c-.7-.7-1-1.5-1-2.5s.3-1.8.9-2.4c.6-.7,1.4-1,2.3-1s1.6.3,2.2.9c.6.7.8,1.6.8,2.4v.6h-4.2ZM140.2,95.3h-.9v-.7l2.8-2.7v1.8h1.8v1.6h-1.8v2.9c0,.4,0,.6.5.6h0c.4,0,.7-.1,1.1-.4l.5-.4v1.8h-.2c-.5.4-1,.5-1.6.5s-1.2-.2-1.7-.6c-.4-.4-.6-1-.6-1.6v-2.9ZM132.1,95.9v4.4h-1.9v-4.9c0-.3,0-.8-.3-.9h-.2v-.7h2.3v.3c.5-.3,1-.5,1.6-.5s1.1.2,1.5.6c.6.5.8,1.3.8,2v4.1h-1.9v-4.1c0-.6-.2-1-.8-1s-.9.3-1.2.7ZM122.4,97.5c0,.3.2.6.4.8.3.3.6.4,1,.5h0s0,0,0,0c.1,0,.2,0,.3,0,.6,0,1.1-.2,1.6-.5l.4-.3.3,1.7h-.2c-.7.5-1.6.7-2.4.7s-1.8-.3-2.4-1c-.7-.7-1-1.5-1-2.5s.3-1.8.9-2.4c.6-.7,1.4-1,2.3-1s1.6.3,2.2.9c.6.7.8,1.6.8,2.4v.6h-4.2ZM116.9,99.8c-.9.6-2,.8-3,.8s-2.7-.4-3.7-1.4c-1-.9-1.5-2.1-1.5-3.5s.5-2.5,1.5-3.5c1-1,2.3-1.4,3.7-1.4s2.1.2,3,.7h.1v2.3l-.5-.4c-.8-.6-1.7-.9-2.7-.9s-1.6.3-2.2.9c-.6.6-.9,1.4-.9,2.3s.3,1.6.9,2.3c.6.6,1.3.9,2.2.9s1.9-.3,2.7-.9l.5-.4v2.2h-.1ZM96.2,100c-.5.3-1.1.4-1.7.4-1,0-1.9-.3-2.6-1-.7-.7-1-1.5-1-2.5s.3-1.8,1-2.5c.7-.7,1.6-1,2.6-1s1.2.1,1.7.4h.2v2.1l-.5-.4c-.4-.3-.9-.4-1.3-.4s-.9.1-1.2.5c-.3.4-.5.8-.5,1.3s.1.9.5,1.3c.3.3.7.5,1.2.5s1,0,1.3-.4l.5-.4v2h-.2ZM87.4,92.1c0,.3-.1.5-.3.7-.2.2-.5.3-.7.3s-.5-.1-.7-.3c-.2-.2-.3-.5-.3-.7s.1-.5.3-.7c.2-.2.5-.3.7-.3s.5.1.7.3c.2.2.3.5.3.7ZM87.3,100.3h-1.9v-4.9c0-.3,0-.8-.3-.9h-.2v-.7h2.4v6.6ZM79.3,100c-.1,0-.3.2-.4.2-.4.2-.7.2-1.1.2-.9,0-1.6-.3-2.2-.9-.6-.7-.8-1.6-.8-2.5s.3-1.8,1-2.5c.7-.7,1.5-1,2.4-1h0c.4,0,.7,0,1.1.2v-1.2c0-.3,0-.8-.3-.9h-.2v-.7h2.4v7.7c0,.4,0,.8.1,1.2v.4c.1,0-1.9,0-1.9,0v-.3ZM67.6,97.5c0,.3.2.6.4.8.3.3.6.4,1,.5h0s0,0,0,0c.1,0,.2,0,.3,0,.6,0,1.1-.2,1.6-.5l.4-.3.3,1.7h-.2c-.7.5-1.6.7-2.4.7s-1.8-.3-2.4-1c-.7-.7-1-1.5-1-2.5s.3-1.8.9-2.4c.6-.7,1.4-1,2.3-1s1.6.3,2.2.9c.6.7.8,1.6.8,2.4v.6h-4.2ZM59.9,97l1.3-3.3h2l-2.9,6.7h-.8l-2.2-4.9c0-.2-.2-.5-.3-.7,0,0-.2-.3-.3-.3h-.2v-.7h2.1l1.4,3.3ZM51.5,94.2c.4-.4.8-.6,1.4-.6s.9.1,1.3.5h.1c0,.1-.5,1.9-.5,1.9l-.4-.3c-.2-.2-.4-.3-.7-.3-.4,0-.7.2-.9.6-.2.4-.3.9-.3,1.3v3.1h-1.9v-4.9c0-.3,0-.8-.3-.9h-.2v-.7h2.4v.4ZM43.7,99.9c-.5.3-1,.5-1.7.5-1.6,0-2.3-1.1-2.3-2.6v-2.5c0-.3,0-.8-.3-.9h-.2v-.7h2.4v4.1c0,.6.1,1,.8,1s.5,0,.7-.2c.2-.1.4-.3.5-.5v-4.3h1.9v5c0,.4,0,.8,0,1.2v.4c0,0-1.9,0-1.9,0v-.3ZM32.3,98.9l-1.7-3.4c0-.2-.5-.9-.7-1h-.2v-.7h2.2l1.4,3,1.4-3h2l-4.4,9.5h-2l2-4.3ZM24.6,97.7h-3.3l-1.1,2.6h-1.9l4-9.3h1.4l4.1,9.3h-2.1l-1.2-2.6Z"/>
</svg>