<?xml version="1.0" encoding="UTF-8"?>
<svg id="Layer_1" xmlns="http://www.w3.org/2000/svg" version="1.1" viewBox="0 0 180 110">
  <!-- Generator: Adobe Illustrator 29.8.1, SVG Export Plug-In . SVG Version: 2.1.1 Build 2)  -->
  <defs>
    <style>
      .st0 {
        fill: #767a7f;
      }

      .st1 {
        fill: #323335;
      }

      .st2 {
        fill: #d2b732;
      }

      .st3 {
        fill: #343f74;
        fill-rule: evenodd;
      }
    </style>
  </defs>
  <g>
    <path class="st1" d="M66.7,38.9v-9.8h1.6v9.8h-1.6Z"/>
    <path class="st1" d="M75.1,38.9l-2.8-8.2h0c0,1.2.1,2.4.1,3.4v4.8h-1.5v-9.8h2.3l2.7,7.8h0l2.8-7.8h2.3v9.8h-1.5v-4.9c0-.5,0-1.1,0-1.9,0-.8,0-1.3,0-1.4h0l-2.9,8.2h-1.4Z"/>
    <path class="st1" d="M87,38.9h-1.6v-8.4h-2.9v-1.4h7.4v1.4h-2.9v8.4Z"/>
    <path class="st1" d="M66.7,43h2.9c1.4,0,2.3.2,2.9.6s.9,1,.9,1.9-.1,1.1-.4,1.4c-.3.4-.7.6-1.3.7h0c.7.2,1.2.5,1.5.8.3.4.5.9.5,1.6s-.3,1.6-.9,2.1-1.5.7-2.6.7h-3.5v-9.8ZM68.3,47.1h1.5c.7,0,1.2-.1,1.5-.3.3-.2.5-.6.5-1.1s-.2-.8-.5-1c-.3-.2-.9-.3-1.6-.3h-1.4v2.7ZM68.3,48.4v3.1h1.7c.7,0,1.2-.1,1.5-.4.3-.3.5-.7.5-1.2s-.2-.9-.5-1.1c-.3-.2-.9-.4-1.6-.4h-1.6Z"/>
    <path class="st1" d="M80.8,52.8l-.2-1h0c-.2.3-.5.6-.9.8-.4.2-.9.3-1.4.3-.9,0-1.6-.2-2-.7-.4-.4-.7-1.1-.7-2v-4.9h1.6v4.6c0,.6.1,1,.3,1.3.2.3.6.4,1.1.4s1.2-.2,1.5-.6c.3-.4.5-1.1.5-2v-3.7h1.6v7.4h-1.2Z"/>
    <path class="st1" d="M89.3,50.7c0,.7-.3,1.3-.8,1.7-.5.4-1.3.6-2.3.6s-1.8-.2-2.4-.5v-1.4c.9.4,1.7.6,2.4.6s1.5-.3,1.5-.9,0-.3-.2-.5c-.1-.1-.3-.3-.5-.4-.2-.1-.6-.3-1-.5-.9-.3-1.4-.7-1.7-1-.3-.3-.5-.8-.5-1.3s.3-1.1.8-1.5c.5-.4,1.2-.5,2.1-.5s1.7.2,2.5.5l-.5,1.2c-.8-.3-1.5-.5-2-.5-.8,0-1.2.2-1.2.7s.1.4.3.6c.2.2.7.4,1.4.7.6.2,1.1.5,1.3.7.3.2.5.4.6.7s.2.6.2.9Z"/>
    <path class="st1" d="M90.9,43.4c0-.3,0-.5.2-.7.2-.2.4-.2.7-.2s.5,0,.6.2c.2.2.2.4.2.7s0,.5-.2.6c-.2.2-.4.2-.6.2s-.5,0-.7-.2c-.2-.2-.2-.4-.2-.6ZM92.6,52.8h-1.6v-7.4h1.6v7.4Z"/>
    <path class="st1" d="M101.4,52.8h-1.6v-4.6c0-.6-.1-1-.3-1.3s-.6-.4-1.1-.4-1.2.2-1.5.6-.5,1.1-.5,2v3.7h-1.6v-7.4h1.2l.2,1h0c.2-.4.5-.6,1-.8.4-.2.9-.3,1.4-.3,1.8,0,2.7.9,2.7,2.7v4.8Z"/>
    <path class="st1" d="M106.8,53c-1.2,0-2.1-.3-2.7-1-.7-.7-1-1.6-1-2.8s.3-2.2.9-2.9c.6-.7,1.4-1,2.5-1s1.8.3,2.3.9c.6.6.9,1.4.9,2.5v.9h-5c0,.7.2,1.3.6,1.7.4.4.9.6,1.6.6s.8,0,1.2-.1c.4,0,.8-.2,1.2-.4v1.3c-.4.2-.8.3-1.2.4-.4,0-.8.1-1.4.1ZM106.6,46.5c-.5,0-.9.2-1.2.5-.3.3-.5.8-.5,1.4h3.4c0-.6-.2-1.1-.4-1.4-.3-.3-.7-.5-1.2-.5Z"/>
    <path class="st1" d="M116.5,50.7c0,.7-.3,1.3-.8,1.7-.5.4-1.3.6-2.3.6s-1.8-.2-2.4-.5v-1.4c.9.4,1.7.6,2.4.6s1.5-.3,1.5-.9,0-.3-.2-.5c-.1-.1-.3-.3-.5-.4-.2-.1-.6-.3-1-.5-.9-.3-1.4-.7-1.7-1-.3-.3-.5-.8-.5-1.3s.3-1.1.8-1.5c.5-.4,1.2-.5,2.1-.5s1.7.2,2.5.5l-.5,1.2c-.8-.3-1.5-.5-2-.5-.8,0-1.2.2-1.2.7s.1.4.3.6c.2.2.7.4,1.4.7.6.2,1.1.5,1.3.7.3.2.5.4.6.7s.2.6.2.9Z"/>
    <path class="st1" d="M123.2,50.7c0,.7-.3,1.3-.8,1.7-.5.4-1.3.6-2.3.6s-1.8-.2-2.4-.5v-1.4c.9.4,1.7.6,2.4.6s1.5-.3,1.5-.9,0-.3-.2-.5c-.1-.1-.3-.3-.5-.4-.2-.1-.6-.3-1-.5-.9-.3-1.4-.7-1.7-1-.3-.3-.5-.8-.5-1.3s.3-1.1.8-1.5c.5-.4,1.2-.5,2.1-.5s1.7.2,2.5.5l-.5,1.2c-.8-.3-1.5-.5-2-.5-.8,0-1.2.2-1.2.7s.1.4.3.6c.2.2.7.4,1.4.7.6.2,1.1.5,1.3.7.3.2.5.4.6.7s.2.6.2.9Z"/>
    <path class="st1" d="M134.3,50.2c0,.9-.3,1.6-.9,2.1-.6.5-1.5.7-2.6.7s-2-.2-2.7-.5v-1.5c.4.2.9.4,1.4.5.5.1,1,.2,1.4.2.6,0,1.1-.1,1.4-.4.3-.2.5-.6.5-1s-.1-.7-.4-.9c-.3-.3-.9-.6-1.7-.9-.9-.4-1.5-.8-1.9-1.2-.4-.5-.6-1-.6-1.7s.3-1.5.9-1.9c.6-.5,1.4-.7,2.3-.7s1.9.2,2.8.6l-.5,1.3c-.9-.4-1.7-.6-2.3-.6s-.9.1-1.2.3-.4.5-.4.9,0,.5.2.7c.1.2.3.4.5.5.2.2.7.4,1.3.6.7.3,1.2.6,1.6.8.3.3.6.6.7.9.2.3.2.7.2,1.2Z"/>
    <path class="st1" d="M139.1,53c-1.1,0-2-.3-2.6-1-.6-.7-.9-1.6-.9-2.8s.3-2.2.9-2.9c.6-.7,1.5-1,2.7-1s1.5.1,2.1.4l-.5,1.3c-.7-.3-1.2-.4-1.7-.4-1.3,0-1.9.9-1.9,2.6s.2,1.5.5,1.9.8.6,1.4.6,1.4-.2,2-.5v1.4c-.3.2-.6.3-.9.4-.3,0-.7.1-1.2.1Z"/>
    <path class="st1" d="M149.4,52.8h-1.6v-4.6c0-.6-.1-1-.3-1.3s-.6-.4-1.1-.4-1.2.2-1.5.6c-.3.4-.5,1.1-.5,2v3.7h-1.6v-10.5h1.6v2.7c0,.4,0,.9,0,1.4h.1c.2-.4.5-.6.9-.8.4-.2.8-.3,1.3-.3,1.8,0,2.7.9,2.7,2.7v4.8Z"/>
    <path class="st1" d="M158.2,49.1c0,1.2-.3,2.2-.9,2.8-.6.7-1.5,1-2.6,1s-1.3-.2-1.8-.5c-.5-.3-.9-.8-1.2-1.4-.3-.6-.4-1.3-.4-2,0-1.2.3-2.1.9-2.8.6-.7,1.5-1,2.6-1s1.9.3,2.6,1c.6.7.9,1.6.9,2.8ZM152.8,49.1c0,1.7.6,2.6,1.9,2.6s1.9-.9,1.9-2.6-.6-2.5-1.9-2.5-1.1.2-1.4.7c-.3.4-.4,1.1-.4,1.9Z"/>
    <path class="st1" d="M166.6,49.1c0,1.2-.3,2.2-.9,2.8-.6.7-1.5,1-2.6,1s-1.3-.2-1.8-.5c-.5-.3-.9-.8-1.2-1.4-.3-.6-.4-1.3-.4-2,0-1.2.3-2.1.9-2.8.6-.7,1.5-1,2.6-1s1.9.3,2.6,1c.6.7.9,1.6.9,2.8ZM161.2,49.1c0,1.7.6,2.6,1.9,2.6s1.9-.9,1.9-2.6-.6-2.5-1.9-2.5-1.1.2-1.4.7c-.3.4-.4,1.1-.4,1.9Z"/>
    <path class="st1" d="M170,52.8h-1.6v-10.5h1.6v10.5Z"/>
    <path class="st1" d="M73.1,66.2c0,1.4-.4,2.4-1.1,3.1s-1.8,1.1-3.2,1.1h-2.3v-8.3h2.5c1.3,0,2.3.4,3,1.1.7.7,1.1,1.7,1.1,3ZM72.1,66.3c0-1.1-.3-1.9-.8-2.4s-1.4-.8-2.4-.8h-1.4v6.6h1.2c1.2,0,2-.3,2.6-.8.6-.6.9-1.4.9-2.5Z"/>
    <path class="st1" d="M75.7,64.2v4c0,.5.1.9.3,1.1s.6.4,1.1.4,1.1-.2,1.4-.5.5-.9.5-1.7v-3.3h.9v6.2h-.8v-.8h-.2c-.2.3-.5.5-.8.7s-.7.2-1.2.2c-.8,0-1.3-.2-1.7-.5s-.6-.9-.6-1.7v-4.1h1Z"/>
    <path class="st1" d="M84.9,64.1c.8,0,1.5.3,1.9.8s.7,1.3.7,2.4-.2,1.8-.7,2.4c-.5.6-1.1.8-1.9.8s-.8,0-1.1-.2-.6-.4-.8-.7h0l-.2.8h-.7v-8.8h.9v2.1c0,.5,0,.9,0,1.3h0c.4-.6,1.1-.9,2-.9ZM84.7,64.9c-.6,0-1.1.2-1.4.6s-.4,1-.4,1.9.1,1.5.4,1.9c.3.4.8.6,1.4.6s1-.2,1.3-.6.4-1,.4-1.8-.1-1.4-.4-1.8-.7-.6-1.3-.6Z"/>
    <path class="st1" d="M92.9,70.5l-.2-.9h0c-.3.4-.6.7-.9.8s-.7.2-1.2.2-1.1-.2-1.5-.5-.5-.8-.5-1.4c0-1.3,1-1.9,3-2h1.1v-.4c0-.5-.1-.8-.3-1.1s-.5-.3-1-.3-1.1.2-1.8.5l-.3-.7c.3-.2.6-.3,1-.4s.7-.1,1.1-.1c.7,0,1.3.2,1.6.5s.5.9.5,1.6v4.2h-.7ZM90.8,69.8c.6,0,1-.2,1.4-.5s.5-.8.5-1.4v-.6h-.9c-.7,0-1.3.2-1.6.4s-.5.5-.5,1,.1.6.3.8.5.3.9.3Z"/>
    <path class="st1" d="M95.5,62.6c0-.2,0-.4.2-.5s.2-.2.4-.2.3,0,.4.2.2.3.2.5,0,.4-.2.5-.2.2-.4.2-.3,0-.4-.2-.2-.3-.2-.5ZM96.5,70.5h-.9v-6.2h.9v6.2Z"/>
  </g>
  <rect class="st2" x="23.7" y="61.6" width="2.7" height="9.5"/>
  <polygon class="st2" points="38.8 61.6 38 61.6 36.1 61.6 34.2 67.6 34.1 67.6 34.1 67.6 32.2 61.6 30.3 61.6 29.5 61.6 28 61.6 28 71.1 30.6 71.1 30.4 63.8 30.5 63.8 33 71.1 34.1 71.1 35.3 71.1 37.8 63.8 37.9 63.8 37.7 71.1 40.3 71.1 40.3 61.6 38.8 61.6"/>
  <polygon class="st2" points="41.3 61.6 41.3 63.7 43.8 63.7 43.8 71.1 46.5 71.1 46.5 63.7 49.2 63.7 49.2 61.6 41.3 61.6"/>
  <path class="st2" d="M50.1,44.3l-4.8-15.3h-3.2l4.4,16.5c.6,4-2.8,3.6-2.8,3.6h-5.6v-1.6h-2s0,0,0,0h-2v1.6h-5.6s-3.4.4-2.8-3.6l4.3-16.5h-3.2l-4.8,15.3s-1.5,4,.7,6.5c2.2,2.5,4.6,2.5,5.6,2.5h5.8v5.7h3.9v-5.7h5.8c1,0,3.4,0,5.6-2.5,2.2-2.5.7-6.5.7-6.5"/>
  <path class="st2" d="M42,46.6c0,.2-.2.4-.4.4h-11c-.2,0-.4-.2-.4-.4v-.7c0-.2.2-.4.4-.4h11c.2,0,.4.2.4.4v.7Z"/>
  <rect class="st2" x="33.1" y="43.6" width="5.8" height="1.2"/>
  <path class="st2" d="M35.7,42.6s1.6-1.2,2.3-3.4c.7-2.2.3-3.6,3-4.8,0,0-.2.4,0,2.7.2,2.2,0,3.2-1.7,4.7,0,0-1.8,1.2-3.6.8"/>
  <path class="st2" d="M31.9,33.9s-1.2,2.6-.8,4.6c.4,2.1,1.1,4.1,3.7,3.9,0,0,1.2,0,1.5-1.5.2-1.4-.2-1.7-1.3-2.8-1.1-1.1-2.3-2-3.1-4.3"/>
  <path class="st2" d="M33.6,29.9s-1.3,1.5-.9,4.1c0,0,.2,1.5,1.8,2.7,1.6,1.2,2.4,2.3,2.4,3.4,0,0,.8-1.1,1-3.2.2-2.1-.9-3.7-1.4-4.2-.5-.6-2.5-2-2.9-2.9"/>
  <path class="st2" d="M38.5,28.6s-1.6,1.5-1.6,3c0,1.5,1,2.6,1.3,3.1.2.5.2,1,.2,1,0,0,1-.5,1.3-2,.3-1.5,0-2.1-.7-3.4-.7-1.3-.5-1.7-.5-1.7"/>
  <path class="st2" d="M36,23s-2,3.7-1.7,6c.3,2.3,2,2.6,2,2.6,0,0,1.5-1.1,1.2-3.9,0,0-.2-1-.6-2-.4-1-.9-2.2-.9-2.7"/>
  <rect class="st0" x="58" y="29" width=".4" height="42.1"/>
  <path class="st3" d="M19.1,82.2c0,2.6-2,4.8-4.6,4.8s-4.6-2.1-4.6-4.8,2-4.8,4.6-4.8,4.6,2.1,4.6,4.8"/>
  <path class="st3" d="M33.7,82.2c0,2.6-2,4.8-4.6,4.8s-4.6-2.1-4.6-4.8,2-4.8,4.6-4.8,4.6,2.1,4.6,4.8"/>
  <path class="st3" d="M48.2,82.2c0,2.6-2,4.8-4.6,4.8s-4.6-2.1-4.6-4.8,2-4.8,4.6-4.8,4.6,2.1,4.6,4.8"/>
  <path class="st3" d="M62.7,82.2c0,2.6-2,4.8-4.6,4.8s-4.6-2.1-4.6-4.8,2-4.8,4.6-4.8,4.6,2.1,4.6,4.8"/>
</svg>