<?xml version="1.0" encoding="UTF-8"?>
<svg id="Layer_1" xmlns="http://www.w3.org/2000/svg" version="1.1" viewBox="0 0 180 110">
  <!-- Generator: Adobe Illustrator 29.8.1, SVG Export Plug-In . SVG Version: 2.1.1 Build 2)  -->
  <defs>
    <style>
      .st0 {
        stroke: #b58051;
        stroke-miterlimit: 10;
        stroke-width: .2px;
      }

      .st0, .st1 {
        fill: #b58051;
      }
    </style>
  </defs>
  <g>
    <path class="st1" d="M57.3,84c-.3,0-.6,0-1,0-.3,0-.7,0-1,0-.3,0-.7,0-1,0-.3,0-.6,0-.9,0,0-.2,0-.3,0-.5s0-.3,0-.5c.8,0,1.6,0,2.3,0s1.5,0,2.3,0,1.6,0,2.3,0c.8,0,1.5,0,2.3,0,0,.2,0,.4,0,.5s0,.3,0,.5c-.3,0-.5,0-.9,0-.3,0-.6,0-1,0-.3,0-.7,0-1,0-.3,0-.7,0-1,0,0,1,0,2,0,3v2.5c0,.6,0,1.3,0,1.9,0,.6,0,1.2,0,1.8-.3,0-.6,0-.9,0s-.6,0-.9,0c0-.6,0-1.2,0-1.8,0-.6,0-1.3,0-1.9v-2.5c0-1,0-2,0-3Z"/>
    <path class="st1" d="M64.5,87.1c0-.6,0-1.3,0-1.9,0-.6,0-1.2,0-1.9.3,0,.6,0,.8,0,.3,0,.5,0,.8,0s.6,0,.8,0c.3,0,.5,0,.8,0,.4,0,.8,0,1.2.1.4,0,.7.2,1,.4.3.2.5.4.6.7.2.3.2.6.2,1.1s-.1.9-.3,1.2c-.2.3-.5.6-.8.8-.3.2-.6.4-1,.5-.3.1-.7.2-.9.2.1.1.3.3.5.6.2.3.4.5.7.9.2.3.5.6.8,1,.3.3.5.7.8,1,.2.3.5.6.7.9.2.3.4.5.5.6-.1,0-.3,0-.4,0h-.9c-.1,0-.3,0-.4,0-.1-.2-.4-.5-.7-.9-.3-.4-.6-.8-1-1.3-.4-.5-.7-.9-1.1-1.4-.4-.5-.7-.8-1-1.2h-.5v1.1c0,.6,0,1.3,0,1.9,0,.6,0,1.2,0,1.8-.2,0-.5,0-.7,0s-.5,0-.7,0c0-.6,0-1.2,0-1.8,0-.6,0-1.2,0-1.9v-2.5ZM65.7,87.9c.1,0,.3,0,.4,0,.2,0,.3,0,.5,0,.3,0,.6,0,.9-.1.3,0,.6-.2.9-.4.3-.2.5-.4.7-.7.2-.3.3-.6.3-1.1s0-.7-.2-.9c-.1-.2-.3-.4-.5-.6-.2-.1-.5-.2-.7-.3-.3,0-.5,0-.8,0s-.6,0-.8,0c-.2,0-.4,0-.6,0,0,.5,0,1.1,0,1.6,0,.5,0,1,0,1.6v.8Z"/>
    <path class="st1" d="M81.2,93.2c-.1,0-.3,0-.4,0h-.8c-.1,0-.2,0-.4,0,0-.2-.2-.5-.3-.8-.1-.3-.2-.6-.4-1-.1-.3-.3-.7-.4-1-.1-.4-.3-.7-.4-1-.3,0-.6,0-.9,0-.3,0-.6,0-1,0s-.6,0-.9,0c-.3,0-.6,0-.9,0-.3.7-.6,1.5-.8,2.1-.2.7-.4,1.2-.6,1.7-.2,0-.3,0-.5,0s-.4,0-.5,0c.8-1.7,1.5-3.4,2.3-5,.7-1.7,1.5-3.4,2.2-5.1h.3c.2.6.5,1.2.7,1.8.3.6.5,1.3.8,2,.3.7.6,1.3.8,2,.3.7.5,1.3.8,1.8.2.6.5,1.1.7,1.5.2.4.4.8.5,1ZM74.9,88.8c.2,0,.5,0,.8,0,.3,0,.5,0,.8,0s.5,0,.8,0c.3,0,.5,0,.8,0l-1.6-3.7-1.6,3.7Z"/>
    <path class="st1" d="M87.5,89.5c-1.2-1.3-2.5-2.7-3.7-4,0,.3,0,.6,0,1.1,0,.5,0,1.1,0,1.8s0,.5,0,.7c0,.3,0,.6,0,.9,0,.3,0,.7,0,1,0,.3,0,.6,0,.9,0,.3,0,.5,0,.8,0,.2,0,.4,0,.4-.2,0-.3,0-.5,0s-.4,0-.5,0c0,0,0-.3,0-.5,0-.3,0-.6,0-.9,0-.4,0-.8,0-1.2,0-.4,0-.8,0-1.3,0-.4,0-.8,0-1.2,0-.4,0-.8,0-1.1,0-.9,0-1.7,0-2.4,0-.7,0-1.2,0-1.5h.2c.6.6,1.2,1.3,1.9,2,.7.7,1.3,1.4,2,2.1.7.7,1.3,1.4,1.9,2,.6.6,1.1,1.2,1.5,1.6v-2c0-1,0-2,0-2.9,0-1,0-1.9,0-2.7.2,0,.4,0,.5,0s.3,0,.5,0c0,.2,0,.5,0,1,0,.4,0,.9,0,1.4,0,.5,0,1,0,1.4,0,.5,0,.8,0,1.1v.9c0,.3,0,.7,0,1,0,.4,0,.7,0,1.1,0,.4,0,.7,0,1,0,.3,0,.6,0,.8v.5h-.2c-1.1-1.3-2.3-2.6-3.5-3.9Z"/>
    <path class="st1" d="M93.3,88.3c0-.8.1-1.5.4-2.2.3-.6.6-1.2,1.1-1.6s1-.8,1.7-1c.7-.2,1.4-.3,2.2-.3s1.5.1,2.2.3c.7.2,1.2.6,1.7,1,.5.4.8,1,1.1,1.6.3.6.4,1.4.4,2.2s0,1.3-.3,1.8c-.2.6-.4,1-.8,1.5-.3.4-.7.8-1.2,1.1-.5.3-1,.5-1.6.6.5.4,1,.8,1.6,1.2.5.4,1.1.8,1.7,1.2-.3,0-.5,0-.7.2-.2.1-.4.2-.4.4-.5-.5-1.1-1-1.6-1.5-.5-.5-1.1-1-1.7-1.5,0,0-.1,0-.2,0h-.2c-.8,0-1.5-.1-2.2-.3-.7-.2-1.2-.5-1.7-1s-.8-1-1.1-1.6c-.3-.6-.4-1.4-.4-2.2ZM102.7,88.3c0-.8-.1-1.5-.3-2.1s-.5-1.1-.8-1.4c-.4-.4-.8-.7-1.3-.8-.5-.2-1-.3-1.6-.3s-1.1,0-1.6.3c-.5.2-.9.5-1.3.8-.4.4-.6.9-.8,1.4s-.3,1.3-.3,2.1.1,1.5.3,2.1c.2.6.5,1.1.8,1.4.4.4.8.7,1.3.8.5.2,1,.3,1.6.3s1.1,0,1.6-.3c.5-.2.9-.5,1.3-.8.4-.4.6-.9.8-1.4.2-.6.3-1.3.3-2.1Z"/>
    <path class="st1" d="M113.6,88c0-1.4,0-2.4,0-3.2,0-.7,0-1.2,0-1.5.1,0,.2,0,.3,0,0,0,.2,0,.3,0s.3,0,.4,0c0,.3,0,.7,0,1.2,0,.5,0,1,0,1.5,0,.5,0,1.1,0,1.6,0,.6,0,1.1,0,1.6,0,.6-.1,1.2-.3,1.7-.2.5-.5.9-.8,1.3-.3.4-.8.6-1.3.8-.5.2-1.1.3-1.7.3-1.4,0-2.5-.3-3.1-1-.7-.7-1-1.7-1-3.1s0-.9,0-1.2c0-.4,0-.7,0-1.1,0-.8,0-1.5,0-2.1,0-.6,0-1.2,0-1.6.1,0,.2,0,.4,0,.1,0,.3,0,.4,0s.2,0,.3,0c.1,0,.2,0,.3,0,0,.2,0,.5,0,.8,0,.3,0,.7,0,1.2,0,.4,0,.9,0,1.4,0,.5,0,1,0,1.6s0,.7,0,1c0,.4,0,.7.1,1,0,.3.2.6.3,1,.1.3.3.6.6.8.2.2.5.4.9.5.4.1.8.2,1.4.2s1,0,1.3-.2c.4-.2.7-.4.9-.6.2-.2.4-.5.5-.9.1-.3.2-.7.3-1,0-.4,0-.7.1-1.1,0-.4,0-.7,0-1Z"/>
    <path class="st1" d="M117.3,85.2c0-.6,0-1.2,0-1.9.1,0,.2,0,.4,0s.2,0,.3,0,.2,0,.3,0,.2,0,.4,0c0,.6,0,1.3,0,1.9,0,.6,0,1.2,0,1.9v2.5c0,.6,0,1.3,0,1.9,0,.6,0,1.2,0,1.8-.2,0-.5,0-.7,0s-.5,0-.7,0c0-.6,0-1.2,0-1.8,0-.6,0-1.2,0-1.9v-2.5c0-.6,0-1.3,0-1.9Z"/>
    <path class="st1" d="M121.3,85.2c0-.6,0-1.2,0-1.9.1,0,.2,0,.4,0,.1,0,.2,0,.3,0s.2,0,.3,0c.1,0,.2,0,.4,0,0,.6,0,1.3,0,1.9,0,.6,0,1.2,0,1.9,0,1.2,0,2.3,0,3.1,0,.9,0,1.7,0,2.4.7,0,1.3,0,2,0,.6,0,1.3,0,2-.2,0,.2,0,.3,0,.4s0,.2,0,.4c-.4,0-.9,0-1.3,0h-2.7c-.4,0-.9,0-1.3,0,0-.6,0-1.2,0-1.8,0-.6,0-1.2,0-1.9v-2.5c0-.6,0-1.3,0-1.9Z"/>
  </g>
  <g>
    <path class="st0" d="M61.9,98.3l.7,2,.8-2.2.8,2.2.8-2h.3l-1.1,2.8-.8-2.2-.8,2.2-1-2.8h.3Z"/>
    <path class="st0" d="M68.1,98.6h-1.1v.8h1.1v.3h-1.1v1h1.1v.3h-1.4v-2.7h1.4v.3Z"/>
    <path class="st0" d="M69.9,98.3v2.4h.7v.3h-1v-2.7h.3Z"/>
    <path class="st0" d="M72.3,98.3v2.4h.7v.3h-1v-2.7h.3Z"/>
    <path class="st0" d="M74.3,101v-2.8l2.1,2.2v-2.1h.3v2.8l-2.1-2.2v2.1h-.3Z"/>
    <path class="st0" d="M79.8,98.6h-1.1v.8h1.1v.3h-1.1v1h1.1v.3h-1.4v-2.7h1.4v.3Z"/>
    <path class="st0" d="M82.5,98.9c0,0,0-.2-.2-.2,0,0-.1,0-.3,0-.3,0-.5.2-.5.4s0,.2.1.2c0,0,.2.1.3.2h.3c.2.2.3.3.4.4s.2.3.2.5c0,.5-.4.8-.9.8s-.4,0-.6-.2c-.1-.1-.2-.3-.3-.5h.3c0,0,0,.2.2.3.1.1.3.1.4.1.4,0,.5-.3.5-.5s0-.2-.1-.3c0,0-.2-.1-.3-.2h-.2c-.1-.2-.2-.2-.4-.3-.1-.1-.2-.2-.2-.4,0-.4.3-.7.8-.7s.3,0,.4.1c.1,0,.2.2.3.3l-.2.2Z"/>
    <path class="st0" d="M85.5,98.9c0,0,0-.2-.2-.2,0,0-.1,0-.3,0-.3,0-.5.2-.5.4s0,.2.1.2c0,0,.2.1.3.2h.3c.2.2.3.3.4.4s.2.3.2.5c0,.5-.4.8-.9.8s-.4,0-.6-.2c-.1-.1-.2-.3-.3-.5h.3c0,0,0,.2.2.3.1.1.3.1.4.1.4,0,.5-.3.5-.5s0-.2-.1-.3c0,0-.2-.1-.3-.2h-.2c-.1-.2-.2-.2-.4-.3-.1-.1-.2-.2-.2-.4,0-.4.3-.7.8-.7s.3,0,.4.1c.1,0,.2.2.3.3l-.2.2Z"/>
    <path class="st0" d="M89.7,98.3c.2,0,.5,0,.7.1.2.1.3.3.3.6,0,.4-.3.7-.7.7l.9,1.2h-.4l-.8-1.2h0v1.2h-.3v-2.7h.4ZM89.5,99.6h.2c.4,0,.6-.2.6-.5s0-.3-.2-.4c-.1,0-.3,0-.4,0h-.2v1Z"/>
    <path class="st0" d="M93.6,98.6h-1.1v.8h1.1v.3h-1.1v1h1.1v.3h-1.4v-2.7h1.4v.3Z"/>
    <path class="st0" d="M96.3,98.9c0,0,0-.2-.2-.2,0,0-.1,0-.3,0-.3,0-.5.2-.5.4s0,.2.1.2c0,0,.2.1.3.2h.3c.2.2.3.3.4.4s.2.3.2.5c0,.5-.4.8-.9.8s-.4,0-.6-.2c-.1-.1-.2-.3-.3-.5h.3c0,0,0,.2.2.3.1.1.3.1.4.1.4,0,.5-.3.5-.5s0-.2-.1-.3c0,0-.2-.1-.3-.2h-.2c-.1-.2-.2-.2-.4-.3-.1-.1-.2-.2-.2-.4,0-.4.3-.7.8-.7s.3,0,.4.1c.1,0,.2.2.3.3l-.2.2Z"/>
    <path class="st0" d="M98.4,98.3v2.7h-.3v-2.7h.3Z"/>
    <path class="st0" d="M100,98.3h.5c.3,0,.7,0,1,.3.2.2.5.5.5,1s-.3.9-.5,1c-.2.2-.5.3-1,.3h-.5v-2.7ZM100.3,100.8h.3c.2,0,.5,0,.8-.2.2-.2.4-.4.4-.8,0-.6-.5-1.1-1.1-1.1h-.3v2.1Z"/>
    <path class="st0" d="M104.9,98.6h-1.1v.8h1.1v.3h-1.1v1h1.1v.3h-1.4v-2.7h1.4v.3Z"/>
    <path class="st0" d="M106.4,101v-2.8l2.1,2.2v-2.1h.3v2.8l-2.1-2.2v2.1h-.3Z"/>
    <path class="st0" d="M112.5,98.9c0,0-.2-.2-.4-.3-.1,0-.3-.1-.5-.1-.6,0-1.1.5-1.1,1.1s.6,1.1,1.1,1.1.4,0,.5-.1c.2,0,.3-.2.3-.2v.4c-.3.2-.6.3-.8.3-.8,0-1.4-.6-1.4-1.4s.6-1.4,1.4-1.4.5,0,.8.3v.4Z"/>
    <path class="st0" d="M115.4,98.6h-1.1v.8h1.1v.3h-1.1v1h1.1v.3h-1.4v-2.7h1.4v.3Z"/>
    <path class="st0" d="M118.1,98.9c0,0,0-.2-.2-.2,0,0-.1,0-.3,0-.3,0-.5.2-.5.4s0,.2.1.2c0,0,.2.1.3.2h.3c.2.2.3.3.4.4s.2.3.2.5c0,.5-.4.8-.9.8s-.4,0-.6-.2c-.1-.1-.2-.3-.3-.5h.3c0,0,0,.2.2.3.1.1.3.1.4.1.4,0,.5-.3.5-.5s0-.2-.1-.3c0,0-.2-.1-.3-.2h-.2c-.1-.2-.2-.2-.4-.3-.1-.1-.2-.2-.2-.4,0-.4.3-.7.8-.7s.3,0,.4.1c.1,0,.2.2.3.3l-.2.2Z"/>
  </g>
  <g>
    <path class="st1" d="M90.8,34.2l18-17.3c-1-1-2-2-3.2-2.9l-14.8,14.8v5.3Z"/>
    <path class="st1" d="M85.8,30.7l3.3,3.1V8.8c-1.1,0-2.2.2-3.3.4v21.5Z"/>
    <path class="st1" d="M90.8,26.5l3.4-3.4v-13.9c-1.1-.2-2.2-.3-3.4-.3v17.6Z"/>
    <path class="st1" d="M94.2,38.6l18-17.3c-.6-1.1-1.4-2.1-2.1-3.1l-18.5,17.8,2.7,2.6Z"/>
    <polygon class="st1" points="115.6 48 115.6 44.2 73.5 44.2 73.4 44.2 73.4 44.2 65 44.2 65 48 86.2 48 87.5 48 88 48 88 75.1 92.1 75.1 92.1 48 92.5 48 93.9 48 115.6 48"/>
    <path class="st1" d="M90.3,42.3l2.7-2.6-22.5-21.3c-.8,1-1.5,2-2.1,3.1l21.9,20.8Z"/>
    <path class="st1" d="M115,28.6l-14.4,13.9h5.8l9.2-8.8c0-1.7-.2-3.4-.6-5Z"/>
    <path class="st1" d="M92.6,42.4h5.4l16.4-15.8c-.4-1.3-.9-2.6-1.5-3.8l-20.3,19.5Z"/>
    <path class="st1" d="M96,21.4l8.3-8.3c-2.5-1.7-5.3-2.9-8.3-3.6v11.9Z"/>
    <polygon class="st1" points="115.6 42.4 115.6 36 108.9 42.4 115.6 42.4"/>
    <polygon class="st1" points="86.2 49.7 65 49.7 64.9 75.1 86.2 75.1 86.2 49.7"/>
    <polygon class="st1" points="93.9 49.7 93.9 75.2 115.5 75.2 115.5 49.7 93.9 49.7"/>
    <polygon class="st1" points="71.6 42.4 65 36.2 65 42.4 71.6 42.4"/>
    <path class="st1" d="M74.1,42.4h5.5l-14.1-13.3c-.3,1.5-.5,3.1-.5,4.7l9.1,8.6Z"/>
    <path class="st1" d="M71.5,17.1l12.6,11.9v-5l-9.9-9.4c-.9.8-1.8,1.6-2.6,2.5Z"/>
    <path class="st1" d="M84.1,21.7v-12.1c-3.1.8-6,2.1-8.6,4l8.6,8.1Z"/>
    <path class="st1" d="M82.1,42.4h5.8l-20.4-19.3c-.6,1.3-1.1,2.6-1.5,4l16.1,15.3Z"/>
  </g>
</svg>