<?xml version="1.0" encoding="UTF-8"?>
<svg id="Layer_1" xmlns="http://www.w3.org/2000/svg" version="1.1" viewBox="0 0 180 110">
  <!-- Generator: Adobe Illustrator 29.8.1, SVG Export Plug-In . SVG Version: 2.1.1 Build 2)  -->
  <defs>
    <style>
      .st0 {
        fill: #006d38;
      }
    </style>
  </defs>
  <polygon class="st0" points="92.4 64.7 92.9 64.7 96.6 69.3 96.6 64.7 97 64.7 97 70.9 96.8 70.9 92.8 66 92.8 70.8 92.4 70.8 92.4 64.7"/>
  <path class="st0" d="M100.6,70.2c-.4.3-.7.5-.8.6-.1,0-.3,0-.5,0-.3,0-.5,0-.7-.3s-.2-.4-.2-.7.2-.8.8-1.1c.3-.2.8-.4,1.5-.6h0c0-.5,0-.7-.1-.9,0-.2-.3-.3-.5-.4-.2,0-.4,0-.6,0-.2,0-.3.3-.3.7h-.3c0-.4.1-.7.3-.9.2-.1.5-.2,1-.2.7,0,1.1.2,1.3.6,0,.1,0,.4,0,.8v2.9h-.7v-.7h0ZM100.6,69.9v-1.6c-.4.2-.7.3-.9.4-.4.2-.7.5-.7.9s0,.4.1.5c.1.1.3.2.5.2s.5-.1.9-.4"/>
  <polygon class="st0" points="102.6 66.7 103.4 66.7 104.7 69.8 105.9 66.7 106.3 66.7 104.6 70.9 104.4 70.9 102.6 66.7"/>
  <path class="st0" d="M108.1,64.4c.1,0,.2,0,.3.1,0,0,.1.2.1.3s0,.2-.1.3c0,0-.2.1-.3.1s-.2,0-.3-.1-.1-.2-.1-.3,0-.2.1-.3c0,0,.2-.1.3-.1M108.4,66.5v4.3h-.7v-4.3h.7Z"/>
  <path class="st0" d="M110.7,69.3c-.2-.1-.4-.3-.6-.5s-.2-.5-.2-.7c0-.4.1-.8.4-1.1.3-.3.7-.4,1.2-.4s.7,0,1,.3h1.1v.3h-.8c.1.2.2.5.2.8s-.1.7-.4,1c-.3.3-.7.4-1.2.4s-.4,0-.6,0c-.1,0-.2.2-.2.3s0,.1,0,.2,0,0,0,.1c0,0,.1,0,.3,0h.6c.6,0,1,0,1.2,0,.3,0,.5.1.7.3.1.1.2.4.2.6s-.1.6-.5,1c-.5.4-1.1.6-1.9.6s-1.1-.1-1.5-.4c-.2-.1-.3-.3-.3-.5s0-.1,0-.2c0,0,.1-.2.3-.4,0,0,.2-.2.4-.5-.1,0-.2-.2-.3-.2,0,0,0-.1,0-.2s0-.2.1-.4c0-.1.3-.3.6-.6M110.6,70.8c-.1.1-.2.3-.3.4,0,.1,0,.2,0,.3s0,.3.2.4c.3.2.7.3,1.3.3s.9,0,1.2-.3.4-.4.4-.6,0-.2-.2-.3c-.1,0-.5,0-.9,0-.7,0-1.2,0-1.6,0M111.5,66.8c-.2,0-.4,0-.5.2-.1.2-.2.4-.2.8s0,.8.3,1.1c.1.2.3.3.6.3s.4,0,.6-.2.2-.4.2-.8,0-.8-.3-1.1c-.1-.2-.3-.3-.6-.3"/>
  <path class="st0" d="M116.5,70.2c-.4.3-.7.5-.8.6-.1,0-.3,0-.5,0-.3,0-.5,0-.7-.3s-.2-.4-.2-.7.2-.8.8-1.1c.3-.2.8-.4,1.5-.6h0c0-.5,0-.7-.1-.9,0-.2-.3-.3-.5-.4-.2,0-.4,0-.6,0-.2,0-.3.3-.3.7h-.3c0-.4.1-.7.3-.9.2-.1.5-.2,1-.2.7,0,1.1.2,1.3.6,0,.1,0,.4,0,.8v2.9h-.7v-.7h0ZM116.5,69.9v-1.6c-.4.2-.7.3-.9.4-.4.2-.7.5-.7.9s0,.4.1.5c.1.1.3.2.5.2s.5-.1.9-.4"/>
  <path class="st0" d="M119.5,65.3v1.4h1v.3h-1v2.7c0,.4.1.7.4.7s.4,0,.5-.3h.2c-.2.6-.5.9-1,.9s-.6-.1-.7-.4c0-.1,0-.3,0-.6v-2.8h-.6v-.3h.6v-1.4h.7Z"/>
  <path class="st0" d="M121.9,64.4c.1,0,.2,0,.3.1,0,0,.1.2.1.3s0,.2-.1.3c0,0-.2.1-.3.1s-.2,0-.3-.1c0,0-.1-.2-.1-.3s0-.2.1-.3c0,0,.2-.1.3-.1M122.3,66.5v4.3h-.7v-4.3h.7Z"/>
  <path class="st0" d="M124.6,67.4c.5-.6.9-.9,1.4-.9s.8.2,1,.7c0,.2,0,.4,0,.8v2.7h-.7v-2.6c0-.7-.2-1.1-.6-1.1s-.7.2-1.1.6v3.1h-.7v-4.3h.7v.9Z"/>
  <path class="st0" d="M129.1,69.3c-.2-.1-.4-.3-.6-.5s-.2-.5-.2-.7c0-.4.1-.8.4-1.1.3-.3.7-.4,1.2-.4s.7,0,1,.3h1.1v.3h-.8c.1.2.2.5.2.8s-.1.7-.4,1c-.3.3-.7.4-1.2.4s-.4,0-.6,0c-.1,0-.2.2-.2.3s0,.1,0,.2,0,0,0,.1c0,0,.1,0,.3,0h.6c.6,0,1,0,1.2,0,.3,0,.5.1.7.3.1.1.2.4.2.6s-.1.6-.5,1c-.5.4-1.1.6-1.9.6s-1.1-.1-1.5-.4c-.2-.1-.3-.3-.3-.5s0-.1,0-.2c0,0,.1-.2.3-.4,0,0,.2-.2.4-.5-.1,0-.2-.2-.3-.2,0,0,0-.1,0-.2s0-.2.1-.4c0-.1.3-.3.6-.6M129.1,70.8c-.1.1-.2.3-.3.4,0,.1,0,.2,0,.3s0,.3.2.4c.3.2.7.3,1.3.3s.9,0,1.2-.3.4-.4.4-.6,0-.2-.2-.3c-.1,0-.5,0-.9,0-.7,0-1.2,0-1.6,0M129.9,66.8c-.2,0-.4,0-.5.2-.1.2-.2.4-.2.8s0,.8.3,1.1c.1.2.3.3.6.3s.4,0,.6-.2c.1-.1.2-.4.2-.8s0-.8-.3-1.1c-.1-.2-.3-.3-.6-.3"/>
  <polygon class="st0" points="137.9 65.1 137.9 70.8 137.1 70.8 137.1 65.1 135 65.1 135 64.7 140 64.7 140 65.1 137.9 65.1"/>
  <path class="st0" d="M141.8,64.4v3c.2-.3.4-.5.6-.6.2-.2.5-.3.8-.3.5,0,.8.2,1,.8,0,.2,0,.5,0,1.1v2.4h-.7v-3c0-.3-.1-.4-.3-.6,0,0-.2,0-.4,0-.3,0-.7.2-1,.6v3.1h-.7v-6.4h.7,0Z"/>
  <path class="st0" d="M145.9,68.3c0,.5,0,.9.3,1.3.3.4.7.6,1.2.6s1-.3,1.2-1h.1c0,.5-.2.9-.5,1.2-.3.3-.7.5-1.1.5s-1-.2-1.4-.7c-.3-.4-.4-.9-.4-1.5s.1-1.2.5-1.6c.3-.4.8-.7,1.4-.7s.9.1,1.2.5c.3.3.4.7.4,1.2h-2.9ZM145.9,68h1.9c0-.2,0-.4,0-.5-.1-.3-.4-.5-.8-.5s-.5,0-.7.3c-.1.2-.2.4-.3.7"/>
  <polygon class="st0" points="156 64.7 157.5 69.4 159.1 64.7 159.5 64.7 157.3 70.9 157.1 70.9 155.8 67 154.4 70.9 154.2 70.9 151.9 64.7 152.9 64.7 154.5 69.4 155.9 64.7 156 64.7"/>
  <path class="st0" d="M161.6,66.5c.6,0,1.1.2,1.5.7.3.4.5.9.5,1.4s0,.7-.2,1.1c-.2.4-.4.7-.7.9s-.6.3-1,.3c-.6,0-1.1-.2-1.5-.7-.3-.4-.4-.9-.4-1.4s0-.7.3-1.1.4-.7.7-.8c.3-.2.6-.3,1-.3M161.5,66.8c-.4,0-.7.2-.9.6,0,.2-.1.5-.1.9s0,1,.3,1.4c.2.5.6.8,1,.8.7,0,1-.5,1-1.6s-.1-1.3-.5-1.7c-.2-.3-.5-.4-.8-.4"/>
  <path class="st0" d="M165.4,66.6v.9c.3-.6.7-.9,1-.9s.5.2.6.6l-.3.2c0-.2-.2-.3-.3-.3s-.2,0-.3,0c0,0-.2,0-.3.1-.1.1-.3.3-.4.6v2.9h-.7v-4.2h.8Z"/>
  <polygon class="st0" points="168.7 64.4 168.7 70.8 168 70.8 168 64.4 168.7 64.4"/>
  <path class="st0" d="M172.8,70.4c-.4.4-.8.6-1.2.6s-.9-.2-1.3-.6c-.3-.4-.4-.8-.4-1.4s.2-1.1.5-1.6c.4-.5.9-.7,1.5-.7s.7,0,.9.3v-2.5h.7v6.6h-.7v-.6h0ZM172.8,70v-2.1c0-.4-.2-.8-.5-.9-.1,0-.3-.1-.4-.1-.2,0-.5,0-.7.3-.3.3-.4.8-.4,1.4s0,.9.3,1.2c.2.4.6.6,1,.6s.5-.1.8-.4"/>
  <path class="st0" d="M153.3,56c-.8-.9-2.5-2.3-1.1-3.3,1.3-.9,3.5-1.1,4.2-2.8,1.2-2.7-1.5-4.5-4.1-4.6-2.4-.2-5.2.1-7.7,0v16.4h3v-15.4h3.2c1.1,0,2.4,1.1,2.6,2.1.5,2.7-1.3,3-3,4.4-1.7,1.4-1.1,2.7,0,4.2,1.3,1.6,3.1,3.2,4.4,4.8h3.5s-3.5-3.9-5-5.6"/>
  <path class="st0" d="M81.6,56.1l-8-11h-.7c0,0,0,16.4,0,16.4h1.3v-10.9c1,.8,5.8,8.6,6.4,8.6.2,0,.3,0,.4-.2l6.1-8.6v11.1h2.9v-16.5h-.7l-7.7,11.1h0Z"/>
  <polygon class="st0" points="123.1 57 110.8 45.1 110.2 45.1 110.2 61.6 111.5 61.6 111.5 49.5 124 61.6 124.5 61.7 124.5 45.2 123.1 45.2 123.1 57"/>
  <path class="st0" d="M58.9,59.9c-.1-.1-.6-.9-.6-1.1v-13.6h-2.9v13.6c0,1.3,1.9,2.8,3.3,2.8h7.7v-1.1h-6.2c-.3,0-1.1-.4-1.3-.6"/>
  <rect class="st0" x="66" y="52.6" width="3" height="1.5"/>
  <polygon class="st0" points="100.5 45.1 99.7 45.1 98.6 47.7 92.4 61.6 93.8 61.6 99.2 49.3 104.7 61.6 107.8 61.6 100.8 45.8 100.5 45.1"/>
  <polygon class="st0" points="47 45.1 46.2 45.1 45 47.7 38.9 61.6 40.3 61.6 45.7 49.3 51.2 61.6 54.3 61.6 47.3 45.8 47 45.1"/>
  <polygon class="st0" points="134.9 45.1 134.1 45.1 133 47.7 126.8 61.6 128.3 61.6 133.7 49.3 139.1 61.6 142.2 61.6 135.2 45.8 134.9 45.1"/>
  <polygon class="st0" points="166.7 45.8 166.4 45.1 165.6 45.1 164.4 47.7 158.3 61.6 159.7 61.6 165.1 49.3 170.6 61.6 173.7 61.6 166.7 45.8"/>
  <path class="st0" d="M18.8,37.5c3.5,1.8,5.9,5.4,5.9,9.6v12.5l-4.1-1.2-1.7,13.8,12.4-10.8v-11.1c0-5.6-5.1-10.5-12.5-12.9"/>
  <path class="st0" d="M12.9,59.6v-12.5c0-4.2,2.4-7.8,5.9-9.6-7.4,2.4-12.5,7.3-12.5,12.9v11.1l12.6,10.8-1.5-13.8-4.5,1.2Z"/>
</svg>