<?xml version="1.0" encoding="UTF-8"?>
<svg id="Layer_1" xmlns="http://www.w3.org/2000/svg" version="1.1" viewBox="0 0 180 110">
  <!-- Generator: Adobe Illustrator 29.8.1, SVG Export Plug-In . SVG Version: 2.1.1 Build 2)  -->
  <defs>
    <style>
      .st0 {
        fill: #bcaf59;
      }

      .st1 {
        fill: #037675;
      }

      .st2 {
        isolation: isolate;
      }
    </style>
  </defs>
  <path class="st1" d="M82.7,58.3c0,.3,0,.4,0,.6s0,.3.1.4c-.4.2-.8.4-1.2.5-.5.1-.9.1-1.3,0-.6,0-1.2-.2-1.6-.5-.4-.3-.8-.6-1.1-1.1-.3-.4-.6-.8-.8-1.4-.2-.5-.5-1.1-.8-1.6-.3-.6-.6-1.1-1-1.7-.4-.6-.8-1.1-1.5-1.5-.4,1.2-.7,2.4-1,3.6s-.4,2.4-.5,3.5,0,2.2,0,3.2c.1,1,.4,1.9.8,2.7-.9.3-1.7.4-2.5.2-.8-.1-1.4-.5-1.9-1s-.9-1.1-1.1-1.9c-.2-.8-.3-1.6,0-2.5.4-1.9.8-3.6,1.3-5.2.6-1.5,1.1-3,1.8-4.3-.6-.1-1.1-.1-1.5,0s-.6.4-.6.6c0,.1,0,.3-.1.4-.1.3-.4.6-.8.7-.4.3-.7.3-1.1.2s-.6-.3-.7-.6,0-.6,0-.9c.2-.4.5-.8.9-1.1.4-.3.8-.6,1.3-.7.5-.1,1.1-.3,1.6-.3s1.1,0,1.7.1c.6-1,1.3-2,2.1-3,.8-1.1,1.7-2,2.7-2.9,1-.9,2.1-1.6,3.3-2.2,1.2-.6,2.5-1,3.9-1.1h.2c.3,0,.6,0,.9,0,.4,0,.6.2.8.4.2.2.4.5.5.8s0,.8,0,1.4c-.6,2.8-1.1,5.3-1.5,7.5-.2.9-.4,1.8-.6,2.7-.2.9-.4,1.7-.5,2.4-.1.7-.3,1.5-.5,2.3-.1.5-.1.8-.1,1.1M74.3,50.4c.8.6,1.5,1.3,1.9,2,.5.7.8,1.3,1.2,2,.3.6.6,1.2.8,1.8.2.6.5,1,.8,1.3h0c.2-1.1.4-1.9.5-2.6.1-.8.3-1.5.5-2.5.2-.9.4-1.9.6-2.9.5-2.3,1-4.9,1.5-7.8,0-.4,0-.6-.2-.7-.6,0-1.2.3-1.8.8-.6.5-1.3,1.2-2,2s-1.3,1.9-2,3c-.6,1.1-1.2,2.4-1.8,3.7"/>
  <path class="st1" d="M94.3,55.3c-.4,1-.8,1.8-1.3,2.4-.5.6-1,1.1-1.5,1.3s-1,.5-1.5.6c-.5,0-.9.1-1.3.1-.8,0-1.5-.2-2.1-.7-.6-.5-.9-1.2-.9-2.2v-.7c0-.3,0-.5,0-.8l2.5-12.5c0-.5,0-.7-.4-.7h0c0,.3-.1.4-.2.5-.1,0-.3.1-.4.1s-.3,0-.4-.1c0,0-.1-.2,0-.4,0-.2.1-.4.4-.6.2-.1.5-.3.8-.4.3-.1.6-.2.9-.2.4,0,.6,0,1,0s.6,0,.9,0c.4,0,.6.2.8.4.2.2.4.5.5.8s0,.8,0,1.4l-2.5,12.4c0,.4,0,.6,0,.8s.1.4.2.5c.1.1.3.2.4.2.2,0,.4,0,.6,0s.5,0,.8-.2.5-.3.7-.6c.2-.2.4-.5.6-.8.1-.3.3-.6.4-.9h1,0Z"/>
  <path class="st1" d="M120.4,61.2c.2-.1.4-.3.5-.3.1,0,.3,0,.3,0,0,0,0,.1,0,.3s-.2.3-.4.4c0,0-.2.1-.4.3s-.4.2-.7.4-.6.3-.8.4c-.3.1-.6.2-.9.3-.4.1-.8.2-1.1.3-.4,0-.8,0-1.2.1h-1.1c-.4,0-.7-.1-1-.2-.8-.3-1.5-.6-2.1-1.1s-1.1-.9-1.5-1.5-.8-1.3-1.1-2.2c-.4-.8-.6-1.9-1-3.1,0-.4-.2-.8-.4-1.3s-.3-.9-.4-1.3c-.1.6-.3,1.3-.4,1.8,0,.6-.2,1.1-.3,1.5,0,.5-.2,1-.3,1.4,0,.4-.1.8-.1,1.1s0,.4,0,.6,0,.3.2.4c-.4.3-.9.4-1.4.6s-1,0-1.4,0c-.4-.1-.8-.4-1-.8-.2-.4-.3-1-.1-1.7.1-.8.3-1.5.4-2.2.1-.6.3-1.4.4-2.2.1-.8.4-1.7.5-2.5l1.4-6.9c0-.5,0-.7-.4-.7h0c0,.3-.1.4-.2.5-.1,0-.3.1-.4.1s-.3,0-.4-.1c-.1,0-.1-.2,0-.4,0-.2.1-.4.4-.6.2-.1.5-.3.8-.4.3-.1.6-.2,1-.2.4,0,.6,0,1,0s.6,0,.9,0c.3,0,.6.2.8.4.2.2.4.5.5.8,0,.4,0,.8,0,1.4-.1.8-.3,1.5-.4,2.3-.1.7-.3,1.5-.5,2.3-.1.8-.4,1.8-.5,2.6.9,0,1.7-.1,2.3-.5.6-.3,1.2-.7,1.7-1.1.4-.5.8-1,1.1-1.5.3-.6.4-1.1.6-1.6.1-.6.1-1.3,0-2,0-.7-.4-1.3-.7-1.9-.4-.6-1-1.1-1.7-1.5-.8-.4-1.7-.6-2.9-.6s-2.5.1-3.4.5-1.7.8-2.3,1.2c-.6.4-1.1.9-1.3,1.3-.3.4-.4.7-.4.9s0,.1,0,.2c0,0,.1.1.2.1,0,0,.1,0,.3.1,0,0,.1.1.2.2,0,0,0,0,0,.1s0,.1,0,.1c0,.3,0,.6-.1.8-.2.3-.4.5-.8.6-.4.1-.6.1-1,0-.3-.1-.5-.3-.6-.6,0-.6,0-1.2.4-2,.4-.8.9-1.5,1.7-2.3.8-.7,1.8-1.3,2.9-1.9,1.2-.5,2.7-.8,4.3-.8s2.5.1,3.6.5c1.1.3,2,.8,2.8,1.3.8.6,1.3,1.3,1.7,2.2.4.8.4,1.9.2,3,0,.5-.3,1-.6,1.5-.3.5-.6,1-1.1,1.5-.5.5-1,.9-1.6,1.3-.6.4-1.3.7-2.1,1,.1.6.4,1.3.5,1.8.2.6.4,1.1.6,1.7.4,1.4,1,2.5,1.6,3.4.6.9,1.3,1.5,2.1,2s1.5.7,2.4.8c.5,0,1.3,0,2.2-.4"/>
  <path class="st1" d="M131.1,55.3c-.4,1-.8,1.8-1.3,2.4-.5.6-1,1.1-1.5,1.3-.5.3-1,.5-1.5.6-.5,0-.9.1-1.3.1-.7,0-1.3-.1-1.8-.5-.5-.3-.9-.8-1.1-1.5-.4.6-1,1-1.6,1.3-.7.4-1.4.6-2.1.6s-1.4-.1-2-.5-.9-.8-1.2-1.4c-.3-.6-.4-1.3-.4-2s0-1.6.4-2.5c.2-.9.6-1.7,1.1-2.5.5-.8,1-1.5,1.6-2,.6-.6,1.3-1.1,2-1.4s1.5-.5,2.2-.5.8.1,1.1.4c.3.2.5.5.7.8.3-.4.6-.6,1-.8.4-.2.8-.3,1.2-.3s.8,0,1.1.1.7.3.9.5c0,0-.2.1-.3.4,0,.1-.2.4-.3.6,0,.3-.2.6-.3,1.1,0,0,0,.2-.1.5,0,.3-.1.7-.2,1.2s-.2,1-.3,1.5c0,.6-.2,1.1-.3,1.5,0,.5-.2.9-.3,1.2,0,.4,0,.5,0,.6,0,.4,0,.6,0,.8s.1.4.2.5c.1.1.3.2.4.2.1,0,.4,0,.6,0s.5,0,.8-.2c.3-.1.5-.3.7-.6.2-.2.4-.5.6-.8.1-.3.3-.6.4-.9h.9,0ZM120.4,57.8c.4,0,.7,0,.9-.3.3-.2.5-.4.7-.7s.4-.6.4-.9c.1-.3.2-.6.2-.8,0-.2,0-.6.2-1,0-.4.1-.8.3-1.3,0-.5.2-.9.3-1.3,0-.4.1-.8.2-1.1,0-.5,0-.8,0-1.1s-.3-.4-.6-.4-.7.1-1.1.4-.6.6-.9,1c-.3.4-.6.9-.8,1.5-.3.6-.5,1.1-.6,1.7-.2.6-.3,1.1-.4,1.7,0,.5,0,1,0,1.3,0,.4.2.7.4.9,0,.2.4.4.7.4"/>
  <path class="st1" d="M138.3,55.3c-.4,1-.8,1.8-1.3,2.4-.5.6-1,1.1-1.5,1.3-.5.3-1,.5-1.5.6-.5,0-.9.1-1.3.1-.8,0-1.5-.2-2.1-.7s-.9-1.2-.9-2.2v-.7c0-.3,0-.5,0-.8.2-1.1.4-2,.6-2.9,0-.4.1-.7.2-1.1s.1-.6.2-.9,0-.5.1-.7c0-.2,0-.3,0-.3.1-.8.4-1.3.8-1.7.4-.4.8-.6,1.3-.8s1-.1,1.5,0c.5.1.9.3,1.3.6,0,0-.2.1-.3.4,0,.1-.2.4-.3.6,0,.3-.2.6-.3,1.1,0,0,0,.2,0,.5,0,.3-.1.7-.2,1.2,0,.5-.2,1-.3,1.5,0,.6-.2,1.1-.3,1.5,0,.5-.2.9-.3,1.2,0,.4,0,.5,0,.6,0,.4,0,.6,0,.8s.1.4.2.5c.1.1.3.2.4.2.1,0,.4,0,.6,0s.5,0,.8-.2c.3-.1.5-.3.7-.6.2-.2.4-.5.6-.8.1-.3.3-.6.4-.9h.8ZM135.6,42.8c-.3-.4-.7-.5-1.3-.5s-1.1.1-1.5.5-.7.8-.8,1.3c0,.5,0,.9.4,1.3.4.4.8.5,1.3.5s1.1-.1,1.5-.5.7-.8.8-1.3c0-.5,0-.9-.4-1.3"/>
  <path class="st1" d="M153.4,55.2c-.2.8-.6,1.5-1.1,2-.4.5-1.1,1-1.8,1.4s-1.8.6-3.1.6c0,.1,0,.3,0,.4s0,.2,0,.3c0,0,0,.1,0,.2.6.1,1.1.3,1.5.6.4.3.8.6,1,1,.3.4.4.8.5,1.3,0,.5,0,1,0,1.5,0,.4-.2.8-.5,1.1-.2.4-.6.6-.8.9-.4.3-.7.4-1.1.6-.4.1-.8.2-1.3.2s-.8,0-1.3-.1c-.4-.1-.8-.3-1.2-.6-.4-.2-.6-.6-.9-.9-.3-.4-.4-.8-.4-1.3v-.7c0-.2,0-.5.1-.8,0-.5.2-1,.3-1.5,0-.4.1-.8.3-1.3,0-.5.2-1,.3-1.4-.4.4-.9.6-1.4.9-.5.2-1.1.4-1.7.4s-1.4-.1-2-.5-.9-.8-1.2-1.4c-.3-.6-.4-1.3-.4-2s0-1.6.4-2.5c.2-.9.6-1.7,1.1-2.5.5-.8,1-1.5,1.6-2,.6-.6,1.3-1.1,2-1.4s1.5-.5,2.2-.5.8.1,1.1.4c.3.2.5.5.7.8.3-.4.6-.6,1-.8.4-.2.8-.3,1.1-.3s.8,0,1.1.1c.4.1.7.3.9.5,0,0-.2.1-.3.4,0,.1-.2.4-.3.6,0,.3-.2.6-.3,1.1,0,0,0,.4-.2,1-.1.6-.3,1.3-.4,2.1-.1.8-.4,1.8-.6,2.7-.2,1-.4,2-.6,2.9,1,0,1.8-.1,2.4-.4.6-.3,1.1-.6,1.4-.9s.6-.7.7-1c.1-.4.2-.6.3-.7l1.1-.2h0ZM142,57.8c.4,0,.6,0,.8-.3.3-.1.5-.4.6-.6.2-.3.4-.6.4-.8.1-.3.2-.6.3-.8,0-.5.2-1.1.3-1.5.1-.5.2-1,.3-1.5,0-.5.1-.8.2-1.3,0-.4.1-.7.2-.9,0-.4,0-.7,0-.8,0-.2-.3-.3-.6-.3s-.7.1-1.1.4-.6.6-.9,1c-.3.4-.6.9-.8,1.5-.3.6-.5,1.1-.6,1.7-.2.6-.3,1.1-.4,1.7,0,.5,0,1,0,1.3,0,.4.2.7.4.9.2.3.5.4.8.4M147.8,65.3c.4-.1.6-.4.8-.8.1-.4.1-.8,0-1.3,0-.4-.3-.8-.6-1.2-.3-.4-.6-.6-1.1-.6l-.4,2.1c-.1.7,0,1.2.2,1.5.3.3.6.4,1,.2"/>
  <path class="st1" d="M168,55.3c-.4,1-.8,1.8-1.3,2.4-.5.6-1,1.1-1.5,1.3-.5.3-1,.5-1.5.6-.5,0-.9.1-1.3.1-.7,0-1.3-.1-1.8-.5-.5-.3-.9-.8-1.1-1.5-.4.6-1,1-1.6,1.3-.7.4-1.4.6-2.1.6s-1.4-.1-2-.5-.9-.8-1.2-1.4c-.3-.6-.4-1.3-.4-2s0-1.6.4-2.5c.2-.9.6-1.7,1.1-2.5.5-.8,1-1.5,1.6-2,.6-.6,1.3-1.1,2-1.4s1.5-.5,2.2-.5.8.1,1.1.4c.3.2.5.5.7.8.3-.4.6-.6,1-.8.4-.2.8-.3,1.2-.3s.8,0,1.1.1.7.3.9.5c0,0-.2.1-.3.4,0,.1-.2.4-.3.6,0,.3-.2.6-.3,1.1,0,0,0,.2-.1.5,0,.3-.1.7-.2,1.2,0,.5-.2,1-.3,1.5,0,.6-.2,1.1-.3,1.5,0,.5-.2.9-.3,1.2,0,.4,0,.5,0,.6,0,.4,0,.6,0,.8s.1.4.2.5c.1.1.3.2.4.2.1,0,.4,0,.6,0s.5,0,.8-.2c.3-.1.5-.3.7-.6.2-.2.4-.5.6-.8.1-.3.3-.6.4-.9h.9,0ZM157.3,57.8c.4,0,.7,0,.9-.3.3-.2.5-.4.7-.7s.4-.6.4-.9c.1-.3.2-.6.2-.8,0-.2,0-.6.2-1,0-.4.1-.8.3-1.3,0-.5.2-.9.3-1.3,0-.4.1-.8.2-1.1,0-.5,0-.8,0-1.1s-.3-.4-.6-.4-.7.1-1.1.4-.6.6-.9,1c-.3.4-.6.9-.8,1.5-.3.6-.5,1.1-.6,1.7-.2.6-.3,1.1-.4,1.7,0,.5,0,1,0,1.3,0,.4.2.7.4.9,0,.2.4.4.7.4"/>
  <path class="st0" d="M28.1,58.1c0,.4-.3.6-.6.6s-.6-.3-.6-.6.3-.6.6-.6c.4,0,.6.3.6.6"/>
  <path class="st0" d="M27.7,59.7c0,.4-.3.6-.6.6s-.6-.3-.6-.6.3-.6.6-.6c.4,0,.6.3.6.6"/>
  <path class="st0" d="M27.5,61.5c0,.4-.3.6-.6.6s-.6-.3-.6-.6.3-.6.6-.6c.4,0,.6.3.6.6"/>
  <path class="st0" d="M27.5,63.2c0,.4-.3.6-.6.6s-.6-.3-.6-.6.3-.6.6-.6c.4,0,.6.3.6.6"/>
  <path class="st0" d="M27.5,65c0,.4-.3.6-.6.6s-.6-.3-.6-.6.3-.6.6-.6c.4,0,.6.2.6.6"/>
  <path class="st0" d="M42.5,58.1c0,.4.3.6.6.6s.6-.3.6-.6-.3-.6-.6-.6c-.4,0-.6.3-.6.6"/>
  <path class="st0" d="M42.9,59.7c0,.4.3.6.6.6s.6-.3.6-.6-.3-.6-.6-.6-.6.3-.6.6"/>
  <path class="st0" d="M43.2,61.5c0,.4.3.6.6.6s.6-.3.6-.6-.3-.6-.6-.6c-.4,0-.6.3-.6.6"/>
  <path class="st0" d="M43.2,63.2c0,.4.3.6.6.6s.6-.3.6-.6-.3-.6-.6-.6c-.4,0-.6.3-.6.6"/>
  <path class="st0" d="M43.1,65c0,.4.3.6.6.6s.6-.3.6-.6-.3-.6-.6-.6c-.4,0-.6.2-.6.6"/>
  <path class="st0" d="M14.9,48.7c2.7-2.7,6.4-4.3,10.5-4.3s6,.9,8.3,2.5h0c.4.2.6.4.9.6.4.4.6.5.7.6.5-.4,1.2-.9,1.7-1.2h0c0,0,.1,0,.2-.1.2-.1.4-.2.4-.2h0c2.2-1.3,4.8-2,7.6-2,4,0,7.6,1.6,10.4,4.1-3.2-3.8-6-5.6-11.3-5.6s-6.1.6-8.9,2.5c-2.8-2-5.5-2.7-9.2-2.7-5.3,0-8.1,1.9-11.3,5.7"/>
  <path class="st1" d="M16.5,46.5h.2c0,0-.1,0-.2,0"/>
  <path class="st1" d="M17.8,44.5c3.6-6.1,10.2-9.9,17.4-9.9s13.9,3.9,17.6,10.1c.8.4,1.6.8,2.4,1.3h0c-3.6-7.8-11.4-12.9-20-12.9s-16.4,5-20,12.8c.8-.6,1.7-1.1,2.6-1.4"/>
  <path class="st1" d="M53.7,46.5s0,0,0,0h0q0,0-.1,0"/>
  <path class="st1" d="M54.2,48.6c-2.6-1.6-5.7-2.6-9-2.6s-7,1.1-9.8,3.1c-2.8-2-6.2-3.2-9.9-3.2s-5.9.8-8.3,2.2h0c-4.6,3-4.9,7.7-4.9,7.7,2.1-1.1,4.6-1.8,7.1-1.8,3.7,0,7.1,1.3,9.7,3.6-.6,1.8-.9,3.6-.9,5.6v10.1c.6.3,1.3.5,2,.6v-10.7c0-1.4.2-2.7.6-4,.5.6.9,1.1,1.3,1.8-.5,1.6-.8,3.3-.8,5.1v8.2c.6.1,1.3.2,2,.3v-8.5c0-.8,0-1.5.2-2.3.6,1.7,1.1,3.6,1.1,5.5v5.5h.8c.4,0,.8,0,1.2,0v-5.4c0-1.9.4-3.8,1.1-5.5.1.8.1,1.5.1,2.3v8.5c.7,0,1.3-.2,2-.4v-8.1c0-1.8-.3-3.5-.8-5.1.4-.6.8-1.1,1.2-1.6.3,1.2.5,2.5.5,3.7v10.9c.7-.2,1.3-.4,2-.6v-10.2c0-1.9-.3-3.6-.8-5.3,2.7-2.2,6.1-3.6,9.8-3.6s4.7.6,6.7,1.6c0,0,0,0,0,.1-.1-.6-.6-4.5-4.3-7.1M45.1,48c1.8,0,3.6.4,5.2.9-.7,0-1.4-.1-2.1-.1-3.6,0-7.1,1.1-9.8,3.1-.4-.6-.9-1.1-1.5-1.5,2.5-1.5,5.3-2.3,8.2-2.3M35.3,51.6c.6.5,1.1,1,1.5,1.5-.6.5-1.1,1-1.5,1.5-.5-.6-1-1.1-1.5-1.5.5-.6,1.1-1.1,1.5-1.5M25.4,47.9c3.1,0,6,.9,8.3,2.5-.6.5-1.1,1-1.5,1.5-2.8-2-6.2-3.1-9.7-3.1s-2.1,0-3.1.3c1.8-.8,3.9-1.3,6-1.3M29.8,55.6c-2.9-2.2-6.6-3.6-10.5-3.6s-2.1,0-3.1.3c2-.9,4.1-1.4,6.3-1.4s6.1,1,8.5,2.7c-.5.6-.9,1.3-1.3,2.1M32.8,58.6c-.4-.6-.9-1.1-1.5-1.6.4-.8.8-1.5,1.3-2.2.6.5,1.1,1.1,1.5,1.6-.6.7-1,1.5-1.3,2.2M35.4,63.3c-.4-1-.8-1.9-1.3-2.7.4-.9.8-1.8,1.3-2.5.5.8.9,1.7,1.3,2.6-.5.8-.9,1.8-1.3,2.7M38,58.6c-.4-.8-.8-1.6-1.3-2.3.4-.6.9-1.1,1.5-1.5.5.7.9,1.5,1.3,2.3-.6.5-1,1.1-1.4,1.5M51.5,52c-4,0-7.7,1.4-10.7,3.7-.4-.8-.8-1.5-1.3-2.2,2.5-1.7,5.4-2.7,8.6-2.7s4.6.6,6.5,1.5c-1-.1-2.1-.3-3.2-.3"/>
  <path class="st0" d="M55.7,56.2h-.1c-.6,10.8-9.5,19.2-20.3,19.2s-19.7-8.4-20.3-19.1c-.6.1-1.1.4-1.5.6.9,11.4,10.4,20.2,21.9,20.2s21-8.9,21.9-20.2c-.5-.3-.9-.4-1.4-.6"/>
  <g class="st2">
    <path class="st0" d="M72,75.1l.8-6c.8,0,1.7-.1,2.5-.1s1.6.2,2,.6c.4.4.6,1.1.6,1.8s0,.7,0,1.1c0,.4-.1.7-.4,1.1-.1.4-.4.6-.6.9-.3.3-.6.5-1,.6-.4.1-.9.3-1.5.3-.9,0-1.7-.1-2.5-.2ZM74.3,70.2l-.6,3.9h1.3c.2,0,.4,0,.6-.1.2,0,.4-.2.4-.4.1-.1.2-.4.3-.6s.1-.6.2-.9c0-.3,0-.6,0-.8,0-.5,0-.8-.3-1s-.5-.3-.9-.3h-1.1Z"/>
    <path class="st0" d="M82.7,74h-2.2l-.6,1.3h-1.5l3.1-6.2h1.8l1.3,6.2h-1.5l-.4-1.3ZM82,70.4l-1.1,2.5h1.6l-.5-2.5h0Z"/>
    <path class="st0" d="M88.5,70.2l-.7,5h-1.5l.7-5h-1.8v-1.2h5.2v1.2h-1.9Z"/>
    <path class="st0" d="M95.9,70.2h-2.9v1.2c-.1,0,2.7,0,2.7,0v1.2h-2.9l-.2,1.4h3.1v1.2h-4.8l.8-6.2h4.4v1.2Z"/>
    <path class="st0" d="M101.7,69.1c0,.2,0,.6-.1,1.1h-2.1c-.2,0-.4,0-.6.1s-.2.2-.2.4,0,.3.3.4c.2.1.4.2.7.4l.8.4c.3.1.5.4.7.6.2.3.3.6.3.8,0,1.3-.9,2-2.7,2s-1.5,0-2.2-.2c0-.6.1-1,.1-1.1h2.3c.3,0,.5,0,.6-.1s.3-.3.3-.6,0-.4-.3-.5-.4-.3-.7-.4c-.3-.1-.6-.2-.8-.4-.3-.1-.5-.3-.7-.6-.2-.2-.3-.5-.3-.8s0-.6.1-.8.2-.4.4-.6.4-.3.6-.4.4-.1.6-.2.4,0,.7,0c.7,0,1.5.1,2.2.3Z"/>
    <path class="st0" d="M107.6,70.2l-.2,1.4h2.7v1.2h-2.9c-.1,1.1-.3,1.8-.4,2.5h-1.5l.8-6.2h4.5v1.2h-3.1Z"/>
    <path class="st0" d="M114.6,74h-2.2l-.6,1.2h-1.5l3.1-6.2h1.8l1.3,6.2h-1.6l-.3-1.2ZM114,70.4l-1.1,2.5h1.6l-.5-2.5h0Z"/>
    <path class="st0" d="M119.1,72.8c0,.5,0,.8.1,1s.5.3,1,.3h1.7v1c-.8.1-1.5.2-2.3.2s-.4,0-.6,0-.4,0-.6-.1c-.1,0-.3-.2-.4-.4,0-.1-.2-.4-.3-.6,0-.2-.1-.5-.1-.8s0-.7,0-1.1c0-.6.1-1.1.3-1.5s.3-.8.5-1,.4-.4.6-.6c.3-.1.5-.2.8-.3.2,0,.5,0,.8,0,.6,0,1.3,0,1.9.2v1.1h-1.8c-.5,0-.8,0-1.1.3-.2.2-.4.6-.4,1.1l-.2,1.3Z"/>
    <path class="st0" d="M126.5,70.2l-.7,5h-1.5l.7-5h-1.8v-1.2h5.2v1.2h-1.9Z"/>
    <path class="st0" d="M132.4,68.9c.3,0,.5,0,.7,0s.4,0,.6.2c.2,0,.4.2.5.4s.2.4.4.6c0,.2.1.5.1.8s0,.7,0,1.1c0,.6-.2,1.2-.4,1.6-.2.4-.4.8-.7,1-.3.2-.6.4-.9.5-.3,0-.6.1-1.1.1h-.9c-.1,0-.4,0-.5-.1s-.4-.1-.4-.2c-.1,0-.2-.2-.4-.4s-.2-.4-.2-.6c0-.2,0-.5,0-.8s0-.6,0-1c0-.6.1-1,.3-1.4s.3-.7.5-1,.4-.4.6-.6c.3-.1.5-.2.8-.3s.6,0,.8,0h.3ZM132.1,70.1c-.4,0-.7,0-.9.3-.2.1-.4.5-.4.9l-.2,1.6c0,.4,0,.8.1.9s.4.3.8.3h.2c.4,0,.6,0,.8-.3s.4-.5.4-.9l.2-1.6c0-.4,0-.8-.1-.9-.2-.1-.5-.3-.9-.3h0Z"/>
    <path class="st0" d="M141.4,70.5c0,.9-.4,1.7-1.3,2.4l.8,2.4h-1.7l-.7-2.1h-1.1l-.3,2.1h-1.5l.8-6.1c1-.1,1.8-.2,2.7-.2,1.5,0,2.2.5,2.2,1.5ZM137.9,70.1l-.2,1.8h1.5c.1-.1.4-.3.4-.6.1-.2.2-.4.2-.6,0-.4-.3-.6-.8-.6h-1.2Z"/>
    <path class="st0" d="M144.8,71.9l1.8-2.9h1.5l-2.7,4.1-.3,2h-1.5l.3-2-1.7-4.2h1.5l1.1,2.9h0Z"/>
    <path class="st0" d="M151.2,75.2l.8-6.2h1.5l-.7,5h2.7v1.2h-4.3Z"/>
    <path class="st0" d="M156.5,75.2l.8-6.2h1.5l-.7,5h2.7v1.2h-4.3Z"/>
    <path class="st0" d="M163.7,72.8c0,.5,0,.8.1,1s.5.3,1,.3h1.7v1c-.8.1-1.5.2-2.3.2s-.4,0-.6,0-.4,0-.6-.1c-.1,0-.3-.2-.4-.4,0-.1-.2-.4-.3-.6,0-.2-.1-.5-.1-.8s0-.7,0-1.1c0-.6.1-1.1.3-1.5.1-.4.3-.8.5-1s.4-.4.6-.6c.3-.1.5-.2.8-.3.2,0,.5,0,.8,0,.6,0,1.3,0,1.9.2v1.1h-1.8c-.5,0-.8,0-1.1.3-.2.2-.4.6-.4,1.1l-.2,1.3Z"/>
  </g>
</svg>