<?xml version="1.0" encoding="UTF-8"?>
<svg id="Layer_1" xmlns="http://www.w3.org/2000/svg" version="1.1" viewBox="0 0 180 110">
  <!-- Generator: Adobe Illustrator 29.8.1, SVG Export Plug-In . SVG Version: 2.1.1 Build 2)  -->
  <defs>
    <style>
      .st0 {
        fill: #111e33;
      }
    </style>
  </defs>
  <path class="st0" d="M57,57.6v-23h0s0-.1,0-.1h0s0,0,0,0h0s0,0,0,0h0s0,0,0,0h0s0,0,0,0h0s0,0,0,0h.5c0,0,.1,0,.2,0,0,0,0,0,.1,0l9.4,11.5,8.3,10.2v-21.5c0,0,0-.2.1-.3,0,0,.2-.1.3-.1h.4c0,0,.2,0,.3.1,0,0,.1.2.1.3v23h0s0,0,0,0h0c0,0,0,.1,0,.1h0s0,0,0,0h0s0,0,0,0h0s0,0,0,0h0s-.1,0-.1,0h0s-.5,0-.5,0c0,0-.1,0-.2,0,0,0,0,0-.1,0l-9.4-11.5-8.3-10.2v21.5c0,0,0,.2-.1.3,0,0-.2.1-.3.1h-.4c0,0-.2,0-.3-.1,0,0-.1-.2-.1-.3M80.2,35v-.4c0,0,0-.2.1-.3,0,0,.2-.1.3-.1h19.3c0,0,.2,0,.2.1,0,0,.1.2.1.3v.4c0,0,0,.2-.1.3,0,0-.2.1-.2.1h-9.1v22.2c0,0,0,.2-.1.3,0,0-.2.1-.2.1h-.4c0,0-.2,0-.2-.1,0,0-.1-.2-.1-.3v-22.2h-9.1c0,0-.2,0-.3-.1,0,0-.1-.2-.1-.3ZM99.7,46.1c0-3.3,1.3-6.2,3.4-8.4,2.1-2.1,5-3.5,8.2-3.5s6.1,1.3,8.2,3.5c2.1,2.1,3.4,5.1,3.4,8.4s-1.3,6.2-3.4,8.4c-2.1,2.1-5,3.5-8.2,3.5s-6.1-1.3-8.2-3.5c-2.1-2.1-3.4-5.1-3.4-8.4ZM100.8,46.1c0,3,1.2,5.6,3.1,7.6,1.9,1.9,4.5,3.1,7.4,3.1s5.5-1.2,7.4-3.1c1.9-1.9,3.1-4.6,3.1-7.6s-1.2-5.6-3.1-7.6c-1.9-1.9-4.5-3.1-7.4-3.1s-5.5,1.2-7.4,3.1c-1.9,1.9-3.1,4.6-3.1,7.6ZM149.1,57.6v-23h0c0,0,0-.1,0-.1h0s0,0,0,0h0s0,0,0,0h0s0,0,0,0h0s0,0,0,0h0s0,0,0,0h11.2c2.3,0,4.4,1,6,2.5,1.5,1.6,2.5,3.7,2.5,6.1s-.6,3.5-1.5,4.9c-.9,1.4-2.3,2.5-3.9,3.1l5.3,6.5c0,0,0,.1,0,.2,0,0,0,.1,0,.2,0,0,0,.1-.1.1,0,0-.1,0-.2,0h-.5c0,0-.1,0-.2,0,0,0,0,0-.1,0l-5.4-6.6c-.3,0-.6.1-.9.2-.3,0-.6,0-1,0h-10.4v6.2c0,0,0,.2-.1.3,0,0-.2.1-.3.1h-.4c0,0-.2,0-.3-.1,0,0-.1-.2-.1-.3ZM150.2,35.3v14.9h10.4c.3,0,.6,0,.8,0,.3,0,.5,0,.8-.1.1,0,.3,0,.4-.1,1.5-.5,2.9-1.4,3.8-2.7.9-1.3,1.5-2.8,1.5-4.5s-.8-3.9-2.1-5.3c-1.3-1.3-3.2-2.2-5.2-2.2h-10.4ZM34.3,44.2c0,2.6,1,5,2.7,6.7,1.7,1.7,4,2.8,6.6,2.8s4.9-1.1,6.6-2.8c1.7-1.7,2.7-4.1,2.7-6.7s-1-5-2.7-6.7c-1.7-1.7-4-2.8-6.6-2.8s-4.9,1.1-6.6,2.8c-1.7,1.7-2.7,4.1-2.7,6.7ZM44.4,54.9v2.6h4.8v.8h-10.4v-.8h4.8v-2.6c-2.8,0-5.4-1.2-7.3-3.1-1.9-1.9-3.1-4.6-3.1-7.5s1.2-5.6,3.1-7.5c1.9-1.9,4.5-3.1,7.4-3.1s5.5,1.2,7.4,3.1c1.9,1.9,3.1,4.6,3.1,7.5s-1.2,5.6-3.1,7.5c-1.7,1.8-4.1,2.9-6.7,3.1ZM127.6,44.6v-10.4c0,0,0-.2.1-.3,0,0,.2-.1.3-.1h.4c0,0,.2,0,.3.1,0,0,.1.2.1.3v10.4c0,1.9.8,3.7,2.2,5,1.4,1.3,3.2,2.1,5.3,2.1s3.9-.8,5.3-2.1c1.4-1.3,2.2-3,2.2-5v-10.4s0,0,0-.1c0,0,0,0,0-.1,0,0,0,0,.1,0,0,0,0,0,.1,0h.4c0,0,.2,0,.3.1,0,0,.1.2.1.3v10.4c0,2.2-1,4.3-2.5,5.7-1.6,1.5-3.7,2.4-6.1,2.4s-4.5-.9-6.1-2.4c-1.6-1.5-2.5-3.5-2.5-5.7ZM130.6,58.2c0-1.1.7-2.1,1.7-2.8,1-.7,2.4-1.1,3.9-1.1s2.9.4,3.9,1.1c1.1.7,1.7,1.7,1.7,2.8h-.8c0-.8-.5-1.6-1.3-2.1-.9-.6-2.1-.9-3.4-.9s-2.6.4-3.4.9c-.8.6-1.3,1.3-1.3,2.1h-.8ZM15.1,38.5c-2.1,2.1-3.1,4.8-3.1,7.6s1,5.5,3.1,7.6c1,1,2.1,1.8,3.3,2.3,1.2.5,2.6.8,3.9.8,1.4,0,2.7-.2,3.9-.7,1.2-.5,2.4-1.2,3.4-2.1h.1c0-.2,0-.2.2-.3h0c0,0,.2-.1.2-.1,0,0,.2,0,.2,0l.3.3s0,0,0,.1c0,0,0,0,0,.1s0,0,0,.1c0,0,0,0,0,.1h0c0,0-.2.2-.3.3h0c-1.1,1.1-2.3,1.9-3.7,2.4-1.3.5-2.8.8-4.3.8s-.1,0-.2,0c-1.5,0-3-.3-4.4-.9-1.4-.6-2.6-1.4-3.7-2.5-2.3-2.3-3.4-5.3-3.4-8.4s1.1-6.1,3.4-8.4c1.1-1.1,2.3-1.9,3.7-2.5s2.8-.9,4.4-.9c1.5,0,3,.2,4.4.8,1.4.5,2.7,1.3,3.8,2.4,0,0,.1,0,.2.2l.2.2s0,0,0,.1c0,0,0,0,0,.1s0,0,0,.1c0,0,0,0,0,.1l-.3.3c0,0-.2.1-.2,0,0,0-.2,0-.2-.1h0c0,0-.1-.1-.2-.2,0,0,0,0-.1-.1h0c-1-.9-2.2-1.7-3.4-2.1-1.2-.5-2.6-.7-3.9-.7-1.4,0-2.7.3-3.9.8-1.2.5-2.4,1.3-3.3,2.3Z"/>
  <path class="st0" d="M46.4,75.1h-4.7l-.5,1.1h-.7l3.3-7.1h.5l3.3,7.1h-.7l-.5-1.1ZM46.1,74.5l-2.1-4.5-2.1,4.5h4.1Z"/>
  <path class="st0" d="M51.2,75.3c.4.3.9.5,1.4.5s1.2-.2,1.7-.7l.5.5c-.6.6-1.3.9-2.1.9s-1.5-.3-2.1-.9-.9-1.3-.9-2.1.3-1.6.9-2.1c.6-.6,1.3-.9,2.1-.9s1.5.3,2.1.9c0,0,.1.2.2.3l-3.7,3.8ZM54.1,71.5c-.4-.3-.9-.5-1.4-.5s-1.2.2-1.7.7c-.5.5-.7,1-.7,1.7s.2,1,.5,1.4l3.3-3.3Z"/>
  <path class="st0" d="M57.8,75.3c.5.3,1,.4,1.5.4s.8,0,1.1-.3c.3-.2.4-.4.4-.7s0-.4-.2-.6c-.1-.2-.3-.3-.6-.3l-1.2-.3c-.4-.1-.8-.3-1-.6-.2-.3-.3-.6-.3-1s.2-.8.5-1.1c.3-.3.8-.5,1.4-.5.8,0,1.5.2,2,.7l-.5.4c-.4-.3-.9-.5-1.5-.5-.4,0-.7.1-.9.3-.2.2-.3.4-.3.7s0,.4.2.6.3.3.6.4l1.3.3c.4,0,.7.3.9.5.2.3.3.6.3,1s-.2.9-.6,1.2c-.4.3-.9.5-1.5.5s-1.4-.2-2-.6l.4-.5Z"/>
  <polygon class="st0" points="64.2 69.1 64.9 69.1 64.9 70.6 65.7 70.6 65.7 71.2 64.9 71.2 64.9 76.2 64.2 76.2 64.2 69.1"/>
  <path class="st0" d="M68.9,72.2v4h-.6v-7.1h.6v2.1c.5-.5,1.2-.8,1.9-.8s1.4.3,2,.8c.5.5.8,1.2.8,2v3h-.6v-3c0-.6-.2-1.1-.6-1.5-.4-.4-.9-.6-1.5-.6s-1.1.2-1.5.6c-.2.2-.3.4-.4.6"/>
  <path class="st0" d="M77.8,75.3c.4.3.9.5,1.4.5s1.2-.2,1.7-.7l.5.5c-.6.6-1.3.9-2.1.9s-1.5-.3-2.1-.9c-.6-.6-.9-1.3-.9-2.1s.3-1.6.9-2.1c.6-.6,1.3-.9,2.1-.9s1.5.3,2.1.9c0,0,.1.2.2.3l-3.7,3.8ZM80.6,71.5c-.4-.3-.9-.5-1.4-.5s-1.2.2-1.7.7c-.5.5-.7,1-.7,1.7s.2,1,.5,1.4l3.3-3.3Z"/>
  <polygon class="st0" points="84.4 69.1 85 69.1 85 70.6 85.8 70.6 85.8 71.2 85 71.2 85 76.2 84.4 76.2 84.4 69.1"/>
  <path class="st0" d="M89.1,68.8v.9h-.6v-.9h.6ZM89.1,70.6v5.6h-.6v-5.6h.6Z"/>
  <path class="st0" d="M96.7,74.9l.5.4c0,0-.1.1-.2.2-.6.6-1.3.9-2.1.9s-1.5-.3-2.1-.9c-.6-.6-.9-1.3-.9-2.1s.3-1.6.9-2.1c.6-.6,1.3-.9,2.1-.9s1.5.3,2.1.9c0,0,.1.2.2.2l-.5.4c0,0-.1-.1-.2-.2-.5-.5-1-.7-1.7-.7s-1.2.2-1.7.7c-.5.5-.7,1-.7,1.7s.2,1.2.7,1.7c.5.5,1,.7,1.7.7s1.2-.2,1.7-.7c0,0,.1-.1.2-.2"/>
  <path class="st0" d="M110.5,74.8l.5.4h0c-.7.8-1.6,1.2-2.6,1.2s-1.9-.4-2.6-1.1c-.7-.7-1.1-1.6-1.1-2.7s.4-1.9,1.1-2.7c.7-.7,1.6-1.1,2.6-1.1s1.9.4,2.6,1.1c0,0,0,0,0,0l-.5.5h0c-.6-.7-1.3-1-2.2-1s-1.6.3-2.2.9c-.6.6-.9,1.4-.9,2.2s.3,1.6.9,2.2c.6.6,1.3.9,2.2.9s1.6-.3,2.2-.9h0"/>
  <rect class="st0" x="113.7" y="69.1" width=".6" height="7.1"/>
  <path class="st0" d="M118.3,68.8v.9h-.6v-.9h.6ZM118.3,70.6v5.6h-.6v-5.6h.6Z"/>
  <path class="st0" d="M122.1,72.2v4h-.6v-5.6h.6v.6c.5-.5,1.2-.8,1.9-.8s1.4.3,2,.8c.5.5.8,1.2.8,2v3h-.6v-3c0-.6-.2-1.1-.6-1.5-.4-.4-.9-.6-1.5-.6s-1.1.2-1.5.6c-.2.2-.3.4-.4.6"/>
  <path class="st0" d="M130.5,68.8v.9h-.6v-.9h.6ZM130.5,70.6v5.6h-.6v-5.6h.6Z"/>
  <path class="st0" d="M138.1,74.9l.5.4c0,0-.1.1-.2.2-.6.6-1.3.9-2.1.9s-1.5-.3-2.1-.9c-.6-.6-.9-1.3-.9-2.1s.3-1.6.9-2.1c.6-.6,1.3-.9,2.1-.9s1.5.3,2.1.9c0,0,.1.2.2.2l-.5.4c0,0-.1-.1-.2-.2-.5-.5-1-.7-1.7-.7s-1.2.2-1.7.7c-.5.5-.7,1-.7,1.7s.2,1.2.7,1.7c.5.5,1,.7,1.7.7s1.2-.2,1.7-.7c0,0,.1-.1.2-.2"/>
</svg>