<?xml version="1.0" encoding="UTF-8"?>
<svg id="Layer_1" xmlns="http://www.w3.org/2000/svg" version="1.1" viewBox="0 0 180 110">
  <!-- Generator: Adobe Illustrator 29.8.1, SVG Export Plug-In . SVG Version: 2.1.1 Build 2)  -->
  <path d="M10,67.4v-24.6h6.2v9.7h13.3v-9.7h6.6v24.6h-6.5v-10.8h-13.4v10.8h-6.2Z"/>
  <path d="M47.7,67.4h-6.2v-24.6h6.2v24.6Z"/>
  <path d="M50.1,42.8h26.7v4.1h-9.9v20.5h-6.5v-20.5h-10.2v-4.1h0Z"/>
  <path d="M71.2,67.4l11.4-24.6h8l11.5,24.6h-7.1l-2.3-5.2h-12.2l-2.1,5.2h-7.3ZM91.3,58.1l-4.6-11.1-4.7,11.1h9.3Z"/>
  <path d="M132.3,67.4v-24.6h6.5v9.7h13.3v-9.7h6.3v24.6h-6.2v-10.8h-13.4v10.8h-6.5Z"/>
  <path d="M170,67.4h-6.2v-24.6h6.2v24.6Z"/>
  <path d="M122,51.1c0-2.6-1.5-5-6.7-5-6.7,0-7.3,5.9-7.3,9.1,0,6.9,2.9,8.9,7.7,9,4.7.1,6.4-2.9,6.3-5.5h6.9c-.3,6.2-4.5,9.2-13.2,9.3-10.4.1-14.9-5.6-14.9-12.8s4.4-13.1,14.6-13.1,12.9,2.9,13.2,9h-6.6Z"/>
</svg>