<?xml version="1.0" encoding="UTF-8"?>
<svg id="Layer_1" xmlns="http://www.w3.org/2000/svg" xmlns:xlink="http://www.w3.org/1999/xlink" version="1.1" viewBox="0 0 180 110">
  <!-- Generator: Adobe Illustrator 29.8.1, SVG Export Plug-In . SVG Version: 2.1.1 Build 2)  -->
  <defs>
    <style>
      .st0 {
        fill: none;
      }

      .st1 {
        fill: url(#linear-gradient2);
      }

      .st2 {
        fill: url(#linear-gradient1);
      }

      .st3 {
        fill: url(#linear-gradient3);
      }

      .st4 {
        fill: url(#linear-gradient6);
      }

      .st5 {
        fill: url(#linear-gradient5);
      }

      .st6 {
        fill: url(#linear-gradient4);
      }

      .st7 {
        fill: url(#linear-gradient);
      }

      .st8 {
        clip-path: url(#clippath-1);
      }

      .st9 {
        clip-path: url(#clippath-3);
      }

      .st10 {
        clip-path: url(#clippath-4);
      }

      .st11 {
        clip-path: url(#clippath-2);
      }

      .st12 {
        clip-path: url(#clippath-6);
      }

      .st13 {
        clip-path: url(#clippath-5);
      }

      .st14 {
        fill: #404041;
      }

      .st15 {
        fill: #5bc3be;
      }

      .st16 {
        fill: #009cb3;
      }

      .st17 {
        clip-path: url(#clippath);
      }
    </style>
    <clipPath id="clippath">
      <path class="st0" d="M19.2,35.5v11.9s-.3,2.7-.8,3.5c0,0-.7,1.2-1,1.8,0,0-.5.9.4,1.1,0,0,1.1,0,1,.7,0,0-1,3.1-1.2,5.7,0,0,1.5-6.8,7.5-12.9,0,0-1-2.2-3.7-2.7,0,0,2.3-4.2,7.7-.5,0,0,2.2-2,5.2-1.2,0,0,1.7.2,3.7,2.3,0,0,1.2,1.2,2.2,1.4,0,0,2.8.6,3.3,1.8,0,0,.7,1-1.1,1.2,0,0-6.1,1.1-8.8,3.8,0,0-.7,5-4.1,6.7,0,0,.5-3.1-.7-4,0,0-7.2,3.5-11,12.7,0,0-.8,1.9-.5,3.4,0,0,.2.8,1,.4,0,0,.5-.2.8-1.3,0,0,.2-.9.6-2.3.3-1.5,1.1-1.2,1.1-1.2,0,0,.4,0,.4.7,0,.7.6.6,1-.2.4-.8.6-2.5,3.6-2.9,0,0,1.5-.3,3.8-.2,0,0,5.3.6,8.7-.9,0,0,4.7-1.7,7.1-5.6,0,0,2.5-3.3,2.5-8.1,0,0,.2-3.8-2-7.5,0,0-2.1-4-6.7-6.1,0,0-2.3-1.3-5.3-1.4h-14.5Z"/>
    </clipPath>
    <linearGradient id="linear-gradient" x1="-3899.4" y1="-294.7" x2="-3898.9" y2="-294.7" gradientTransform="translate(-21179 -280595.2) rotate(-90) scale(72 -72)" gradientUnits="userSpaceOnUse">
      <stop offset="0" stop-color="#5bc3be"/>
      <stop offset="0" stop-color="#5bc3be"/>
      <stop offset="1" stop-color="#009cb3"/>
      <stop offset="1" stop-color="#009cb3"/>
    </linearGradient>
    <clipPath id="clippath-1">
      <path class="st0" d="M59.3,54.4c-.7-.8-1-2-1-3.6s.3-2.8,1-3.6c.7-.8,1.5-1.2,2.6-1.2s1.8.4,2.5,1.2c.7.8,1,2,1,3.6s-.3,3-1,3.7c-.7.8-1.5,1.2-2.5,1.2s-1.8-.4-2.5-1.2M54,43.8c-1.9,1.8-2.8,4.1-2.8,7s1.1,5.5,3.4,7.3c1.8,1.5,4.2,2.3,7.2,2.3s5.9-.9,7.8-2.7c1.9-1.8,2.8-4.1,2.8-7s-.8-4.7-2.3-6.4c-1.9-2.1-4.7-3.2-8.4-3.2s-5.8.9-7.7,2.7"/>
    </clipPath>
    <linearGradient id="linear-gradient1" x1="-3870.5" y1="-341.8" x2="-3869.9" y2="-341.8" gradientTransform="translate(-12717 -144651.2) rotate(-90) scale(37.4 -37.4)" xlink:href="#linear-gradient"/>
    <clipPath id="clippath-2">
      <rect class="st0" x="76" y="34.5" width="7.1" height="25.5"/>
    </clipPath>
    <linearGradient id="linear-gradient2" x1="-3885.2" y1="-317.5" x2="-3884.7" y2="-317.5" gradientTransform="translate(-15596.3 -191787.5) rotate(-90) scale(49.4 -49.4)" xlink:href="#linear-gradient"/>
    <clipPath id="clippath-3">
      <path class="st0" d="M95.7,54c-.6-.7-.9-1.8-.9-3.2s.3-2.7.9-3.4c.6-.7,1.4-1.1,2.3-1.1s1.5.4,2.1,1.1c.6.7.9,1.8.9,3.3s-.3,2.8-.8,3.4c-.6.7-1.2,1-2.1,1s-1.7-.4-2.3-1.1M96.8,41.9c-.8.4-1.6,1.2-2.5,2.3v-2.7h-6.6v25.5h7.1v-8.8c.7.7,1.5,1.3,2.4,1.7.9.4,1.9.6,3,.6,2.2,0,4.1-.8,5.6-2.4s2.2-4,2.2-7-.7-5.1-2-7c-1.3-1.9-3.3-2.8-5.7-2.8s-2.4.3-3.4.8"/>
    </clipPath>
    <linearGradient id="linear-gradient3" x1="-3885.8" y1="-315.9" x2="-3885.3" y2="-315.9" gradientTransform="translate(-15757.4 -194952.5) rotate(-90) scale(50.2 -50.2)" xlink:href="#linear-gradient"/>
    <clipPath id="clippath-4">
      <path class="st0" d="M111.4,34.5v25.5h7.1v-8.9c0-1.7.3-2.8.8-3.5.5-.6,1.2-1,2.1-1s1.4.2,1.8.7c.4.5.6,1.3.6,2.5v10.1h7.1v-11.7c0-2.4-.6-4.2-1.7-5.4-1.1-1.2-2.6-1.8-4.5-1.8s-2.4.2-3.4.6c-.9.4-1.9,1.1-2.9,2.1v-9.4h-7.1Z"/>
    </clipPath>
    <linearGradient id="linear-gradient4" x1="-3885.2" y1="-316.7" x2="-3884.7" y2="-316.7" gradientTransform="translate(-15515.7 -191787.5) rotate(-90) scale(49.4 -49.4)" xlink:href="#linear-gradient"/>
    <clipPath id="clippath-5">
      <path class="st0" d="M135.3,59.9h7.1v-18.5h-7.1v18.5ZM135.3,39.3h7.1v-4.8h-7.1v4.8Z"/>
    </clipPath>
    <linearGradient id="linear-gradient5" x1="-3885.2" y1="-316.3" x2="-3884.7" y2="-316.3" gradientTransform="translate(-15481.3 -191787.5) rotate(-90) scale(49.4 -49.4)" xlink:href="#linear-gradient"/>
    <clipPath id="clippath-6">
      <path class="st0" d="M156.5,41.9c-1,.5-2,1.4-3,2.6v-3h-6.6v18.5h7.1v-8.9c0-1.7.3-2.8.8-3.5.5-.6,1.2-1,2.1-1s1.4.2,1.8.7c.4.5.6,1.3.6,2.5v10.1h7.1v-11.7c0-2.4-.6-4.2-1.7-5.4-1.1-1.2-2.6-1.7-4.6-1.7s-2.7.3-3.7.8"/>
    </clipPath>
    <linearGradient id="linear-gradient6" x1="-3869.1" y1="-341.5" x2="-3868.6" y2="-341.5" gradientTransform="translate(-12336.5 -141473.4) rotate(-90) scale(36.6 -36.6)" xlink:href="#linear-gradient"/>
  </defs>
  <g class="st17">
    <rect class="st7" x="16.8" y="35.5" width="31" height="37.4"/>
  </g>
  <path class="st15" d="M15.4,74.3c-.3.9-1,1.4-1.4,1.2-.5-.2-.5-1-.2-1.9.3-.9,1-1.4,1.4-1.2.5.2.5,1,.2,1.9"/>
  <path class="st15" d="M16.8,57c-.4.6-1,.9-1.3.7-.3-.2-.1-.8.3-1.4.4-.6,1-.9,1.3-.7.3.2.1.8-.3,1.4"/>
  <path class="st15" d="M17.1,61.7s-.9,1.6-1.9,3.1c0,0-1.2,1.7-.9,3,0,0,.1.8,1.3.7,0,0,1.1,0,1.3-2.8,0,0,.2-2.5.2-4.1"/>
  <path class="st16" d="M37.6,47.9c0,.4-.4.8-.8.8s-.8-.4-.8-.8.4-.8.8-.8.8.4.8.8"/>
  <g class="st8">
    <rect class="st2" x="51.2" y="41.1" width="21.2" height="19.3"/>
  </g>
  <g class="st11">
    <rect class="st1" x="76" y="34.5" width="7.1" height="25.5"/>
  </g>
  <g class="st9">
    <rect class="st3" x="87.7" y="41.1" width="20.3" height="25.9"/>
  </g>
  <g class="st10">
    <rect class="st6" x="111.4" y="34.5" width="19.5" height="25.5"/>
  </g>
  <g class="st13">
    <rect class="st5" x="135.3" y="34.5" width="7.1" height="25.5"/>
  </g>
  <g class="st12">
    <rect class="st4" x="146.9" y="41.1" width="19.5" height="18.9"/>
  </g>
  <path class="st14" d="M97.1,63.2h1.4c.3,0,.5,0,.7,0,.2,0,.4.2.6.3.2.2.3.4.4.6,0,.2.1.5.1.9s0,.6-.1.8c0,.3-.2.5-.4.7-.1.1-.3.2-.5.3-.2,0-.4,0-.7,0h-1.4v-3.7ZM97.9,63.9v2.5h.6c.2,0,.4,0,.5,0,.1,0,.2,0,.3-.2,0,0,.1-.2.2-.4,0-.2,0-.4,0-.7s0-.5,0-.7c0-.2-.1-.3-.2-.4,0,0-.2-.1-.3-.2-.1,0-.3,0-.6,0h-.3Z"/>
  <path class="st14" d="M101.2,67v-3.7h1.6c.4,0,.7,0,.9.1.2,0,.3.2.4.4.1.2.2.4.2.6s0,.5-.2.7c-.2.2-.4.3-.7.3.2,0,.3.2.4.3.1.1.2.3.4.6l.5.7h-.9l-.5-.8c-.2-.3-.3-.5-.4-.5,0,0-.1-.1-.2-.2s-.2,0-.4,0h-.2v1.6h-.8ZM102,64.8h.6c.4,0,.6,0,.7,0,0,0,.2,0,.2-.2,0,0,0-.2,0-.3s0-.2-.1-.3c0,0-.2-.1-.3-.1,0,0-.2,0-.5,0h-.6v.9Z"/>
  <polygon class="st14" points="105.3 67 105.3 63.2 108.1 63.2 108.1 63.9 106 63.9 106 64.7 107.9 64.7 107.9 65.3 106 65.3 106 66.3 108.1 66.3 108.1 67 105.3 67"/>
  <path class="st14" d="M112.4,67h-.8l-.3-.8h-1.5l-.3.8h-.8l1.5-3.7h.8l1.5,3.7ZM111.1,65.5l-.5-1.4-.5,1.4h1Z"/>
  <polygon class="st14" points="113.2 67 113.2 63.2 114.3 63.2 115 65.8 115.6 63.2 116.8 63.2 116.8 67 116.1 67 116.1 64 115.3 67 114.6 67 113.9 64 113.9 67 113.2 67"/>
  <path class="st14" d="M121.3,63.2h1.4c.3,0,.5,0,.7,0,.2,0,.4.2.6.3.2.2.3.4.4.6,0,.2.1.5.1.9s0,.6-.1.8c0,.3-.2.5-.4.7-.1.1-.3.2-.5.3-.2,0-.4,0-.7,0h-1.4v-3.7ZM122.1,63.9v2.5h.6c.2,0,.4,0,.5,0,.1,0,.2,0,.3-.2,0,0,.1-.2.2-.4,0-.2,0-.4,0-.7s0-.5,0-.7c0-.2-.1-.3-.2-.4,0,0-.2-.1-.3-.2-.1,0-.3,0-.6,0h-.3Z"/>
  <polygon class="st14" points="125.4 67 125.4 63.2 128.2 63.2 128.2 63.9 126.2 63.9 126.2 64.7 128 64.7 128 65.3 126.2 65.3 126.2 66.3 128.3 66.3 128.3 67 125.4 67"/>
  <path class="st14" d="M131.6,65.6l.7.2c-.1.4-.3.7-.6.9-.3.2-.6.3-1,.3s-.9-.2-1.2-.5c-.3-.3-.5-.8-.5-1.4s.2-1.1.5-1.4c.3-.3.7-.5,1.3-.5s.8.1,1.1.4c.2.2.3.4.4.7l-.7.2c0-.2-.1-.3-.3-.5-.1-.1-.3-.2-.5-.2s-.5,0-.7.3c-.2.2-.3.5-.3,1s0,.8.3,1c.2.2.4.3.7.3s.4,0,.5-.2c.1-.1.2-.3.3-.6"/>
  <path class="st14" d="M133.1,65.1c0-.4,0-.7.2-1,0-.2.2-.4.3-.5.1-.2.3-.3.5-.3.2,0,.5-.1.8-.1.6,0,1,.2,1.3.5.3.3.5.8.5,1.4s-.2,1.1-.5,1.4c-.3.3-.8.5-1.3.5s-1-.2-1.3-.5c-.3-.3-.5-.8-.5-1.4M133.9,65.1c0,.4,0,.7.3,1,.2.2.4.3.7.3s.5-.1.7-.3c.2-.2.3-.5.3-1s0-.7-.3-1c-.2-.2-.4-.3-.7-.3s-.6.1-.8.3c-.2.2-.3.5-.3,1"/>
  <path class="st14" d="M137.7,67v-3.7h1.6c.4,0,.7,0,.9.1.2,0,.3.2.4.4.1.2.2.4.2.6s0,.5-.2.7c-.2.2-.4.3-.7.3.2,0,.3.2.4.3.1.1.2.3.4.6l.5.7h-.9l-.5-.8c-.2-.3-.3-.5-.4-.5,0,0-.1-.1-.2-.2s-.2,0-.4,0h-.2v1.6h-.8ZM138.4,64.8h.6c.4,0,.6,0,.7,0,0,0,.2,0,.2-.2,0,0,0-.2,0-.3s0-.2-.1-.3c0,0-.2-.1-.3-.1,0,0-.2,0-.5,0h-.6v.9Z"/>
  <path class="st14" d="M145.3,63.2h1.4c.3,0,.5,0,.7,0,.2,0,.4.2.6.3.2.2.3.4.4.6,0,.2.1.5.1.9s0,.6-.1.8c0,.3-.2.5-.4.7-.1.1-.3.2-.5.3-.2,0-.4,0-.7,0h-1.4v-3.7ZM146,63.9v2.5h.6c.2,0,.4,0,.5,0,.1,0,.2,0,.3-.2,0,0,.1-.2.2-.4,0-.2,0-.4,0-.7s0-.5,0-.7c0-.2-.1-.3-.2-.4,0,0-.2-.1-.3-.2-.1,0-.3,0-.6,0h-.3Z"/>
  <polygon class="st14" points="149.3 67 149.3 63.2 152.1 63.2 152.1 63.9 150.1 63.9 150.1 64.7 152 64.7 152 65.3 150.1 65.3 150.1 66.3 152.2 66.3 152.2 67 149.3 67"/>
  <path class="st14" d="M152.9,65.8h.7c0,.2.1.4.3.5.1.1.3.2.5.2s.4,0,.5-.2c.1-.1.2-.2.2-.4s0-.2,0-.2c0,0-.1-.1-.3-.2,0,0-.3,0-.6-.2-.4-.1-.7-.2-.9-.4-.2-.2-.3-.5-.3-.8s0-.4.2-.5c.1-.2.3-.3.5-.4.2,0,.4-.1.7-.1.5,0,.8.1,1.1.3.2.2.4.5.4.8h-.8c0-.2-.1-.3-.2-.4-.1,0-.3-.1-.5-.1s-.4,0-.5.1c0,0-.1.1-.1.2s0,.2.1.2c0,0,.3.2.7.2.4,0,.6.2.8.3.2,0,.3.2.4.4,0,.2.1.4.1.6s0,.4-.2.6c-.1.2-.3.3-.5.4-.2,0-.5.1-.8.1-.5,0-.8-.1-1.1-.3-.3-.2-.4-.5-.5-1"/>
  <rect class="st14" x="156.9" y="63.2" width=".8" height="3.7"/>
  <path class="st14" d="M160.4,65.6v-.6h1.6v1.5c-.2.2-.4.3-.7.4-.3.1-.6.2-.9.2s-.7,0-1-.2c-.3-.2-.5-.4-.7-.7-.1-.3-.2-.6-.2-1s0-.7.2-1c.2-.3.4-.5.7-.7.2-.1.5-.2.9-.2s.8,0,1.1.3.4.5.5.8h-.7c0,0-.2-.2-.3-.3-.1-.1-.3-.2-.5-.2-.3,0-.6.1-.8.3-.2.2-.3.5-.3.9s0,.8.3,1c.2.2.5.3.8.3s.3,0,.5,0c.2,0,.3-.1.4-.2v-.5h-.9Z"/>
  <polygon class="st14" points="163.1 67 163.1 63.2 163.8 63.2 165.3 65.7 165.3 63.2 166 63.2 166 67 165.3 67 163.8 64.5 163.8 67 163.1 67"/>
</svg>