<?xml version="1.0" encoding="UTF-8"?>
<svg id="Layer_1" xmlns="http://www.w3.org/2000/svg" xmlns:xlink="http://www.w3.org/1999/xlink" version="1.1" viewBox="0 0 180 110">
  <!-- Generator: Adobe Illustrator 29.8.1, SVG Export Plug-In . SVG Version: 2.1.1 Build 2)  -->
  <defs>
    <style>
      .st0, .st1 {
        fill: none;
      }

      .st2 {
        mask: url(#mask);
      }

      .st3 {
        filter: url(#luminosity-noclip);
      }

      .st4 {
        fill: url(#linear-gradient1);
      }

      .st5 {
        fill: url(#linear-gradient3);
      }

      .st6 {
        fill: #17171c;
      }

      .st7 {
        filter: url(#luminosity-noclip2);
      }

      .st8 {
        fill: url(#radial-gradient);
      }

      .st9 {
        fill: #93d500;
      }

      .st10 {
        fill: #80bc00;
      }

      .st11 {
        isolation: isolate;
      }

      .st12 {
        mask: url(#mask-2);
      }

      .st13 {
        mask: url(#mask-3);
      }

      .st14 {
        mask: url(#mask-1);
      }

      .st15 {
        clip-path: url(#clippath-11);
      }

      .st16 {
        clip-path: url(#clippath-10);
      }

      .st17 {
        clip-path: url(#clippath-1);
      }

      .st18 {
        clip-path: url(#clippath-3);
      }

      .st19 {
        clip-path: url(#clippath-4);
      }

      .st20 {
        clip-path: url(#clippath-2);
      }

      .st21 {
        clip-path: url(#clippath-7);
      }

      .st22 {
        clip-path: url(#clippath-6);
      }

      .st23 {
        clip-path: url(#clippath-9);
      }

      .st24 {
        clip-path: url(#clippath-8);
      }

      .st25 {
        clip-path: url(#clippath-5);
      }

      .st26 {
        fill: #fff;
      }

      .st1 {
        clip-rule: evenodd;
      }

      .st27 {
        fill: url(#linear-gradient);
      }

      .st27, .st28 {
        mix-blend-mode: multiply;
      }

      .st29 {
        opacity: .8;
      }

      .st30 {
        fill: url(#radial-gradient1);
      }

      .st31 {
        fill: #00a7e1;
      }

      .st28 {
        fill: url(#linear-gradient2);
      }

      .st32 {
        clip-path: url(#clippath);
      }

      .st33 {
        fill: #f5333f;
      }
    </style>
    <clipPath id="clippath">
      <path id="SVGID" class="st0" d="M84,55.5c0,5.1,4.1,9.1,9.1,9.1s9.1-4.1,9.1-9.1-4.1-9.1-9.1-9.1-9.1,4.1-9.1,9.1"/>
    </clipPath>
    <radialGradient id="radial-gradient" cx="-830.9" cy="483.8" fx="-830.9" fy="483.8" r=".9" gradientTransform="translate(16471.5 -9472.1) scale(19.7)" gradientUnits="userSpaceOnUse">
      <stop offset="0" stop-color="#c5db6a"/>
      <stop offset=".1" stop-color="#a3cf5f"/>
      <stop offset=".3" stop-color="#84c456"/>
      <stop offset=".3" stop-color="#83c355"/>
      <stop offset=".8" stop-color="#56964b"/>
      <stop offset="1" stop-color="#458547"/>
    </radialGradient>
    <filter id="luminosity-noclip" x="83.7" y="44.6" width="17.3" height="15.4" color-interpolation-filters="sRGB" filterUnits="userSpaceOnUse">
      <feFlood flood-color="#fff" result="bg"/>
      <feBlend in="SourceGraphic" in2="bg"/>
    </filter>
    <clipPath id="clippath-1">
      <rect id="SVGID1" data-name="SVGID" class="st0" x="85.3" y="46.6" width="14" height="11.5"/>
    </clipPath>
    <clipPath id="clippath-2">
      <path id="SVGID2" data-name="SVGID" class="st1" d="M99.3,51.5c.3,3.1-2.5,6-6.3,6.5-3.9.4-7.3-1.8-7.6-4.9-.3-3.1,2.5-6,6.4-6.5,3.9-.4,7.3,1.8,7.6,4.9"/>
    </clipPath>
    <filter id="luminosity-noclip1" x="83.7" y="-8247" width="17.3" height="32766" color-interpolation-filters="sRGB" filterUnits="userSpaceOnUse">
      <feFlood flood-color="#fff" result="bg"/>
      <feBlend in="SourceGraphic" in2="bg"/>
    </filter>
    <mask id="mask-1" x="83.7" y="-8247" width="17.3" height="32766" maskUnits="userSpaceOnUse"/>
    <linearGradient id="linear-gradient" x1="-845.6" y1="417.5" x2="-844.8" y2="417.5" gradientTransform="translate(4643.4 9265.4) rotate(90) scale(10.9)" gradientUnits="userSpaceOnUse">
      <stop offset="0" stop-color="#fff"/>
      <stop offset=".1" stop-color="#e6e7e7"/>
      <stop offset=".7" stop-color="#747578"/>
      <stop offset=".9" stop-color="#47484c"/>
      <stop offset="1" stop-color="#323337"/>
      <stop offset="1" stop-color="#2c2d30"/>
    </linearGradient>
    <mask id="mask" x="83.7" y="44.6" width="17.3" height="15.4" maskUnits="userSpaceOnUse">
      <g class="st3">
        <g class="st17">
          <g class="st11">
            <g class="st20">
              <g class="st14">
                <rect class="st27" x="84.4" y="45.4" width="15.9" height="13.8" transform="translate(-5.2 10.5) rotate(-6.3)"/>
              </g>
            </g>
          </g>
        </g>
      </g>
    </mask>
    <clipPath id="clippath-3">
      <rect id="SVGID3" data-name="SVGID" class="st0" x="85.3" y="46.6" width="14" height="11.5"/>
    </clipPath>
    <clipPath id="clippath-4">
      <path id="SVGID4" data-name="SVGID" class="st1" d="M99.3,51.5c.3,3.1-2.5,6-6.3,6.5-3.9.4-7.3-1.8-7.6-4.9-.3-3.1,2.5-6,6.4-6.5,3.9-.4,7.3,1.8,7.6,4.9"/>
    </clipPath>
    <linearGradient id="linear-gradient1" x1="-845.6" y1="417.5" x2="-844.8" y2="417.5" gradientTransform="translate(4643.4 9265.4) rotate(90) scale(10.9)" gradientUnits="userSpaceOnUse">
      <stop offset="0" stop-color="#bfd96f"/>
      <stop offset=".2" stop-color="#aad268"/>
      <stop offset=".9" stop-color="#74c058"/>
      <stop offset="1" stop-color="#74c058"/>
    </linearGradient>
    <clipPath id="clippath-5">
      <rect id="SVGID5" data-name="SVGID" class="st0" x="84.8" y="46.4" width="17.5" height="18"/>
    </clipPath>
    <clipPath id="clippath-6">
      <path id="SVGID6" data-name="SVGID" class="st0" d="M84,55.3c0,5.1,4.1,9.1,9.1,9.1s9.1-4.1,9.1-9.1-4.1-9.1-9.1-9.1-9.1,4.1-9.1,9.1"/>
    </clipPath>
    <radialGradient id="radial-gradient1" cx="-830.9" cy="483.8" fx="-830.9" fy="483.8" r=".9" gradientTransform="translate(16472.5 -9472.8) scale(19.7)" xlink:href="#radial-gradient"/>
    <filter id="luminosity-noclip2" x="83.7" y="44.4" width="17.3" height="15.4" color-interpolation-filters="sRGB" filterUnits="userSpaceOnUse">
      <feFlood flood-color="#fff" result="bg"/>
      <feBlend in="SourceGraphic" in2="bg"/>
    </filter>
    <clipPath id="clippath-7">
      <rect id="SVGID7" data-name="SVGID" class="st0" x="85.4" y="46.4" width="14" height="11.5"/>
    </clipPath>
    <clipPath id="clippath-8">
      <path id="SVGID8" data-name="SVGID" class="st1" d="M99.3,51.4c.3,3.1-2.5,6-6.4,6.5-3.9.4-7.3-1.8-7.6-4.9-.3-3.1,2.5-6,6.4-6.5,3.9-.4,7.3,1.8,7.6,4.9"/>
    </clipPath>
    <filter id="luminosity-noclip3" x="83.7" y="-8247" width="17.3" height="32766" color-interpolation-filters="sRGB" filterUnits="userSpaceOnUse">
      <feFlood flood-color="#fff" result="bg"/>
      <feBlend in="SourceGraphic" in2="bg"/>
    </filter>
    <mask id="mask-3" x="83.7" y="-8247" width="17.3" height="32766" maskUnits="userSpaceOnUse"/>
    <linearGradient id="linear-gradient2" x1="-845.6" y1="417.5" x2="-844.8" y2="417.5" gradientTransform="translate(4643.2 9264.8) rotate(90) scale(10.9)" xlink:href="#linear-gradient"/>
    <mask id="mask-2" x="83.7" y="44.4" width="17.3" height="15.4" maskUnits="userSpaceOnUse">
      <g class="st7">
        <g class="st21">
          <g class="st11">
            <g class="st24">
              <g class="st13">
                <rect class="st28" x="84.4" y="45.3" width="15.9" height="13.8" transform="translate(-5.2 10.5) rotate(-6.3)"/>
              </g>
            </g>
          </g>
        </g>
      </g>
    </mask>
    <clipPath id="clippath-9">
      <rect id="SVGID9" data-name="SVGID" class="st0" x="85.4" y="46.4" width="14" height="11.5"/>
    </clipPath>
    <clipPath id="clippath-10">
      <path id="SVGID10" data-name="SVGID" class="st1" d="M99.3,51.4c.3,3.1-2.5,6-6.4,6.5-3.9.4-7.3-1.8-7.6-4.9-.3-3.1,2.5-6,6.4-6.5,3.9-.4,7.3,1.8,7.6,4.9"/>
    </clipPath>
    <linearGradient id="linear-gradient3" x1="-845.6" y1="417.5" x2="-844.8" y2="417.5" gradientTransform="translate(4643.2 9264.8) rotate(90) scale(10.9)" xlink:href="#linear-gradient1"/>
    <clipPath id="clippath-11">
      <rect id="SVGID11" data-name="SVGID" class="st0" x="84.8" y="46.2" width="17.5" height="18"/>
    </clipPath>
  </defs>
  <polygon class="st9" points="106.9 52.9 107.3 54.3 108.7 54.3 107.6 55.1 108 56.4 106.9 55.6 105.7 56.4 106.2 55.1 105 54.3 106.4 54.3 106.9 52.9"/>
  <polygon class="st9" points="79.7 56.4 79.5 55 78.1 54.8 79.3 54.2 79.1 52.8 80.1 53.8 81.3 53.1 80.7 54.4 81.7 55.4 80.3 55.2 79.7 56.4"/>
  <g class="st32">
    <rect class="st8" x="84" y="46.3" width="18.3" height="18.3"/>
  </g>
  <g class="st2">
    <g class="st18">
      <g class="st19">
        <rect class="st4" x="84.4" y="45.4" width="15.9" height="13.8" transform="translate(-5.2 10.5) rotate(-6.3)"/>
      </g>
    </g>
  </g>
  <g class="st29">
    <g class="st25">
      <path class="st26" d="M89.9,49.8c0,0,.1,0,.2,0h0c0,.1-.2.2-.2.3h0s0,0,0,0h0s0,0-.1,0h0s0,0,0,0c0,.2.2-.1.3,0h0s0,0-.3.2t.1,0s0,0,0,0c.1.3.4-.3.7-.2h0s0,0,0,0h0q0,0,0,0s0,0,0,0h0c0,0,.1,0,.2.1h0q0,0,0,0s0,0,0,0h0s0,0,0,0c.1,0,.1,0,.1,0h0c0,0,.2,0,.2,0h0s0,0,0,0h0s0,0,0,0c-.1,0-.2,0-.2,0t0,0h0c0,.1,0,.1,0,.1h0s0,0,0,0c0,0,0,0,.1,0,0,0,0,0,0,0h0s0,0,0,0h0s0,0,0,0t.2,0h0c-.1.1-.2.2,0,.3h0s0,0,0,0c.1,0,.1.2.2.2,0,0,0,0,0-.1h0c.1.3.2.3.9.2q0-.3-.1-.3h0c0,0,0-.2,0-.2h0q-.1,0-.1,0h0c0,0,0-.2.2-.2h0s0,0,0,0h0s0,0,0,0c0,0,0,0,0,0,0-.1,0-.3,0-.4,0-.2.3-.3.3-.5,0,0-.2.1-.2.1h0s0,0,0,0h0s0,0,0,0h0s0,0,0,0h0s0,0,0,0t0,0h0c0,0,0-.1,0-.2h0c0,0,0,0,0,0h0c0,0,0,0,0-.1,0,0,.1,0,.2,0h0c0,0-.2,0-.2,0,0,0-.2,0-.2,0h0s0,0,0,0c0,0,.1,0,.2,0h0s0,0,0,0c0,0-.2,0-.3,0h0c0,0,.1,0,.2,0h0s0,0,0,0c0,0,0,0,0,0h0s0,0,0,0c0,0,.1,0,0-.1h0c-.1,0-.1,0-.1,0h0s0,0,0,0c0,0-.2,0-.3,0h0c0,0,.1,0,.2-.1,0,0,0,0-.1,0h0s0,0,0,0c0,0,0,0,0,0h0q0,0,0,0h0s0,0,0,0t0,0h0c0,0,0,0-.1,0h0s0,0,0,0t0,0h0s0,0,0,0c0,0,0,0,0,0h0s0,0,0,0h0s0,0,0-.1c0,0,0,0,0,0,0,0,0,0-.1,0h0s0,.1-.1.1h0s0,.1,0,.2h0s0,0,0-.1c-.1,0,0,.2-.1.2t0,0c0,0-.2.1-.2.2h0s0,0,0-.1c0,0,.2-.1.3-.2-.1,0-.2.1-.3.2h0s0,0,0,0c0,0,0,0,0,0,0,0,0,0-.1,0,0,0,0,0-.1.1,0,0-.2,0-.2.1,0,0,0,0,0,0h0s0,0,0,0c0,0,0,0,0,0h0s0,0-.1,0h0s0,0,0,0t0,0h0s0,0,0,0c0,0,0,0,0,.1q.1,0,.2,0h0s0,0-.1,0h0s0,0,0,0q0,0,.1,0h0c0,0-.2,0-.2,0,0,0,0,0,0,0h0s0,0-.1,0h0s0,0,0,0h0s0,0,0,0h0c-.1,0-.1,0-.1.1t0,0h0c0,.1-.2.1-.3.2M92.7,46.6h0s0,0,0,0q.4.1.7.2s0,0,0,0h0s0,0,0,0h0s0,0,0,0h0s.2,0,.2,0t0,0h0c0,0,0,0,0,0,0,0,0,0,0,0-.4.1-1,0-1,0h0ZM87.4,51s0,0-.1,0c0,0,0,0,0,0h0s0,0,0,0h0s0,0,0,0c0,0,0,0,0,0,0,0,.1,0,.1,0h0s-.1,0-.1,0c0,.1.2,0,.3,0h0c0,0,0,0-.2,0,0,0,0,0-.1,0,0,0,0,.2.2.2,0,0,.2,0,.2,0,.1,0,.2,0,.4,0,0,0,0,0,0,0h0s0,0,0,0h0q.1,0,.2,0c0,0-.1,0-.2-.2h0s0,0,0,0c0,0,0-.1,0-.2,0,0,0,0,0,0,0,0,0,0-.2,0h0c0,0,0,.1,0,.2h0s0,0,0,0c0,0,0-.1,0-.1,0,0,0,0,0,0h0c0,0,0,0,0,0h0s0,0,0,0c0,0-.1,0-.1,0h0c0,0,0,0,0,0M89.4,50.5h0c-.2,0-.3,0-.5.1-.1,0-.2,0-.2-.1h0s0,0,0,0c0,0,0,0-.1,0,0,0,0,.2,0,.2,0,0,.2,0,.2,0,.1,0,.2,0,.4-.1h0s0,0,0,0c0,0,0,0,0,0M88.9,49.9h0s0,0,0,0c0,0,0,0,0,0h0s0,0,0,0c0,0,0,0,.2,0h0s0,0,0,0h0s0,0,0,0h0s0,0,0,0c0,0,.3-.2.3-.1h0c0,0,0,0-.2.1,0,0,0,0,0,0h0c0,0-.1,0-.2,0,0,0,0,0,0,.1,0,0,.2,0,.2,0h0s0,0-.1,0c-.1,0-.1,0-.1,0,0,0,.1,0,.2,0h0c0,0-.1.1-.1.1,0,0,0,0-.1,0,0,0,0,0,0,0,0,0,0,0,0,0h0s0,0,0,0h0s0,0,0,0h0s0,0-.1,0h0c0,0,0,0,0,0h0s0,0,0,0c.1,0,.3,0,.4,0h0s0,0,0,0c0,0,.1,0,.1,0h0s0,0,0,0c0,0,0,0,0,0,0,0,0,0,0,0h0s0,0,0,0h0s0,0,0,0h0s0,0,0,0h0s0,0,0,0c0,0,0,0,.1,0h0s0,0,0,0h0s0,0,0,0h0s0,0,0,0c0,0,0,0,.1,0t0-.1s0,0,0,0h0c0,0,0-.1.2-.2.2,0,.3-.1.3-.2,0,0,0,0,0,0h0s0,0,.1,0h0s0,0,0,0c0,0,0,0,0,0h0c0,0-.2,0-.2,0h0s0,0,0,0h0s0,0,0,0t-.3.1c-.5.2-.6.2-.7.3,0,0,0,0,0,0M91.7,58h0s0,0,0,0c.2,0,.4-.1.6-.2h0s0,0,0,0c0,0-.6,0-.7,0,0,0,0,0,0,0,0,0,.1.1.1.1h0ZM93.7,49.8h0s0,0,0,0h0s.1,0,.1-.1c0,0,0-.2,0-.2,0,0,0,0,0,0h0s0,0-.1,0c0,0,0,0,0,.1,0,0,0,0,0,0,0,0,0,0,0,0h0s0,0-.1,0c0,0,0,0,0,0h0s0,0-.1,0c0,0,0,0-.1,0h0s0,0,0,0c0,0,0,0,0,0h0q0,0,0,0h0s0,0,0,0h0s0,0,0,0h0s0,0,0,0c0,0,0,0,0,0,0,0,0,.1,0,.1,0,0,0,0,0,0,0,0,0,0,.1,0h0s0,0,0,0h0s.1,0,.2-.1M99.4,49.3h0q1.1.9,1.4,1.2h0s0,0,0,0c-.3-.4-.6-.9-1.1-1.4h-.1c0-.2,0-.2-.1-.3h0s0,0,0,0h0s0,0,0,0h0s0,0,0,0h0s0,0,0,0h0s0,0,0,0h0c-.1-.1-.3-.2-.4-.4h0s0,0,0,0c0,0,0,0,0,0h0s0,0,.1,0c-.2-.2-.5-.4-.7-.6-.7-.5-.8-.5-1.4-.8-.7-.3-.9-.4-1.6-.6-.6-.1-1-.2-1.9-.3-.9,0-1.3,0-2.2.1-.2,0-.3,0-.4,0h0s0,0,.1,0h0s0,0,0,0c0,0,0,0,0,0h0c0,0,.2,0,.4,0h0c-.3,0-.4,0-.5.1h0c0,0,.1,0,.2,0h0s0,0,0,0c0,0,0,0,.1,0h0s0,0,0,0t0,0h0c.2,0,.3,0,.3,0h0s0,0,0,0c.1,0,.2,0,.2,0h0s0,0,0,0c0,0,0,0,0,0,.1,0,.6,0,.6,0h0s0,0,0,0c.1,0,.2,0,.4,0,0,0,0,0,0,0h0q0,0,.2,0s0,0,0,0h0s0,0,0,0c0,0,0,0-.1,0,0,0,0,0,.1,0h0s0,0,0,0h0s0,0,.1,0h0s0,0,0,0c0,0,0,0,0,0h0s0,0,0,0c0,0,0,0,0,0h0c0,0,0,0,.1,0,.1,0,.1,0,.2,0h0s0,0,0,0h0s0,0,0,0c0,0,0,0,0,0h0s0,0,0,0h0s0,0,.1,0h0s0,0,0,0c.2,0,.3,0,.4,0,0,0,0,0,0,0h0c-.3,0-.4,0-.6,0h0s0,0,0,0h0s0,0-.1,0h0s.4.1.6,0c0,0,.1.1.2.1h0c0,0,.1,0,.2,0h0s0,0,0,0h0q.2,0,.2.1h0s0,0,0,0c0,0,0,0,0,0,0,0,.2,0,.3.1h0s0,0,.1,0c0,0,0,0,0,0,0,0,0,0,0,0h0s0,0,0,0h0c.2,0,.4.2.6.2h0s0,0,0,0c0,0,0,0,0,0h0s0,0,0,0c0,0,0,0,.1,0,0,.1-.4.1-.4.1,0,0,0,0,0,0,0,0,0,0,.1,0h0q-.1-.2-.5.1h0s0,0,0,0c0,0,0,0,0,0h0s0,0,0,0c0,0,0,0-.1,0h0s0,0,0,0h0s0,0,.1,0h0s0,0-.1,0c0,0,0,0,0,0,0,0,0,0,0,0,0,0,0,0,0,0h0s0,0,0,0h0s0,0,0,0h0s0,0,0,0h0,0s0,0,0,0h0s0,0,0,0h0s0,0,0,0c0,0,0,0,.1.1h0s0,0,0,0h0s0,0,0,0c0,0,0,0,.1,0,0,0,0-.1,0-.1h0c.4.2.5.8,1,.9t0,0s0,0,.1,0h0s0,0,0-.3h0c.2,0,.4,0,.6,0,0,0,0-.2-1.1-.8h0s0,0,0,0h0s0,0,0,0h0q-.1,0-.2-.1s0,0,0,0q0,0,.1,0h0c.1,0,.2.2.2.2.1,0,.2,0,.3,0,0,0,0,0,.1,0,0-.2,0-.3,0-.3,0,0,0,0,0,0h0s0,0,0,0q0,0,0,.3h0s0,0,0,0c0,0,0,0,0,0,0,0,0,0,0,0h0s0,0,0,0h0c0,0,.2,0,.2,0h0s0,0-.1,0t.4.2s0,.1,0,.1q0,.2,0,.3h0s0,0,0,0q-.1,0-.2,0h0s0,.1,0,.1c0,0-.2,0-.3,0h0s0,0,0,0c0,0,0,0,0,0h0s0,0,0,0h0s0,0,0,0h0s0,0,0,0c0,0,0,0,0,0h0q-.1,0-.2,0h0c0,.1.2.2.5.3,0,0,0,.1,0,.3h0q.2.5.2.5s0,0,0,0h0s0,0,0,0c0,0,0,0,.1,0h0s0,0,0,0q-.2.1-.2.2c1.1-.1.6.4.6.4t-.2.2h0c-.3.3.4.5.5.8,0,0,.1-.1.2-.2,0,0,0,0,0,0,0,0,0,0,.1,0h0s0,0,0,0h0c.2-.2.1-.4,0-.6h0c0-.4-.2-.6-.2-.6h0q0,0,0-.1h0s0,0,0,0c0,0,0,0,0,0,0-.2,0-.3,0-.3,0,0,.6-.2.8,0,0,0,0,0,0,0h0q0,.2,0,.2c.2,0,.2,0,.2,0-.1-.2-.3-.3-.3-.4,0,0,0,0,0,0h0s0,0,0,0h0c-.3,0-.6.2-.8,0h0c.1-.1.6-.1.6-.1h0s0,0,0,0h0q.5.2.5,0h0q0,.1,0,.2s0,0,.1,0h0s0,0,0,0q0,0-.1-.1h0s0,0,0-.1h0s0,0,0,0c0,0,0,0,0,0q-.1,0-.2,0h0c0,0-.1,0-.2,0,0,0,0,0,0,0,0,0,0,0,0,0h0s0,0,0,0c0,0,0-.2,0-.3h0c0,0,0,.2.1.3h0c0,0,0,0,0,0,0,0,0,0,.1,0h0s0,0,0,0c0,0,0,0,0,0,0,0,0,0,0,0,0,0,0,0,.1,0,0,0,0,0,0,0h0s0,0,0,0h0s0,0,0,0t0-.3h0c.5.4.7.6.7.8,0,0,0,0,.2.1t-.2-.3M98.1,48.7h0c0,0,0,0-.2,0h0c-.1-.2-.4-.3-.5-.5h0s0,0,0,0h0s0,0,0,0c0,0,0,0,0,0h0s.2.1.1,0h0s0,0,0,0c0,0,0,0-.1-.2,0,0,0,0,0,0h0s0,0,0,0h0s0,0,0,0c-.1-.1-.1-.2-.1-.2t0,0h0s0,0,.1.1h0s0,0,0,0c0,0,.2,0,.2,0h0c0,0,.2,0,.2,0h0s0,0,0,0c.2.1.2.3.1.3,0,0,0,0,0,0q.1.3.1.3M95.2,49.5h0s0,0,0,0h0s0,0,0,0c0,0,0,0,0,0,0,0,0,0,0,0,0,0,0,0,0,.2h0q0,0,0,0h0s0,0,.1,0h0s0,0,0,0c0,0,0,0,0,0h0s0,0,0,0h0s0,0,0,0h0s0,0,0,0c0,0,0,0,0,0h0s0,0,0,0c0,0,0,0,0,0h0s0,0,0,0q.1,0,.2,0h0s0,0,0,0h0c0,0,.1,0,.2,0h0s0,0,0,0c0,0,0,0,0,0,0,0,0,0,.1.1,0,0,0,0,0,0,0,0,0,0,.1,0h0c0,.1,0,.2,0,.3h0s0,0,0,0h0c0-.1.2-.4.2-.5,0,0,0,0,0,0h0s0,0,0-.1c0,0,0,0-.1,0h0c0,0-.4,0-.5,0-.1,0,0-.1-.2-.2,0,0,0,0,0,0h0s0,0,0,0h0s0,0,0,0h0s0,0,0,0h0ZM95.5,50.4s0,0,.1,0h0c0-.1,0-.3,0-.3,0,0,0,0,0,0h0s0,0,0,0c0,0,0,0,0,0h0s0,0,0,0c0,0,0,0,0,0,0,0,0,0,0,0,0,0,0,0-.2,0h0s0,0,0,.1c0,0,0,0,0,0,0,0,0,0,0,0,0,0,0,0,0,0,0,0,0,0,0,0t0,0s0,0,0,.2c0,0,0,0,0,0h0ZM92.6,47.9h0c.2,0,.3,0,.3-.1h0s0,0,0,0c0,0,0,0,0,0h0c0,0,0,0,0,0,0,0,.1,0,.1,0,0,0-.3,0-.3,0h0q-.2,0-.2,0s0,0,0,0c0,0,0,0,.1,0h0s0,0,0,0c0,0,0,0,0,0,0,0,0,0,0,0,0,0,0,0-.1,0M96.6,59.1h0s0,0,0,0h0s0,.1,0,.1h0c0,0,0-.1,0-.2,0,0,0,0,0,0h0s0,0,0,0h0c0,0-.1,0-.3,0h0q0,0-.2.1s0,0,0,0q0,0,0,0h0c-.3.1-.3.2-.3.2h0s0,0,0,0h0s0,0,0,0c0-.3-.3-.5-.3-.5-.6-.2-1.2,0-1.8-.1h0s0,0,0,0c0,0-.2,0-.2,0q0,0-.4.2h0c-.1,0-.3,0-.4-.1h0c-.1.2.1.4,0,.5,0,0-.2-.3-.1-.4h0c-.3.2-.3.5-.5.8h0c0,0-.2,0-.4-.1h0s0,0,0,0c-.7.4-.8-.2-.8-.2q0-.4,0-.4c-.3-.1-.5.2-.8,0h0s0,0,0,0h0s0,0,0,0h0s0,0,0,0c0,0,0-.2,0-.4h0s0,0,0,0h0c0-.1,0-.3,0-.4q-.3,0-.5.5s0,0,0,0h0c-.2.1-.4.2-.5.2h0q-.6-.7-.5-1.5h0q.1-.1.8-.2s0,0,0,0c0,0,0,0,0-.1,0,0,0,0,0,0h0s0,0,0,0c0,0,0,0,0,0h0s0,0,0,0c.3-.1.8-.1.8-.1.3,0,.4.4.6.6,0-.2-.1-.3-.2-.5h0s0,0,0,0q-.2-.4.2-1s0,0,0,0h0q0-.1,0-.3h0s0,0,0,0c0,0,0,0,0,0,0,0,0,0,0,0h0s0,0,0,0c0,0,0,0,0,0,0-.2,0-.2,0-.3h0c.2-.2.2-.2.3-.3,0,0,0,0-.1,0h0s0,0,.3-.2q0-.3,0-.4h0c.1-.1.2-.2.2-.2h0s0,0,0,0h0s0,0,0,0h0c0,0,.2-.1.3-.2h0,0s0,0,0,0h0s0,0,0,0q-.2.2-.2.3s0,0,0,0c.2-.2.3-.3.4-.3,0,0,0-.2,0-.3h0q-.2.3-.5.2s0,0,0,0c0,0-.1,0-.2,0h0s0,0,0,0c.2-.1.2-.1.2-.2q-.2,0-.6.5h0c.1-.7,1-.7,1.2-1.3h0s0,0,0,0c0,0,0,0,0,0h0s0,0,0,0h0q-.2,0-.2,0h0s0,0,0,0q0,0-.3,0h0s0,0,0,0h0c0,0-.1,0-.2,0h0s0,0,0,0h0q0-.1-.4-.4c0,0,0,.2,0,.2h0c-.1,0-.1.1-.2.2h0s0,0,0,0c0,0,0,0-.1,0h0s0,0,0,0c0,0,0,0,0,0h0s0,0,0,0c0,0,0,0,0,0-.1,0-.2,0-.4-.1h0q-.3,0-.3.1c0,.2,0,.3,0,.5h0c.2.2.2.4,0,.5q.2.4.1.5h0c-.3,0-.3,0-.4-.4h0c-.2,0-.4-.1-.7-.1h0s0,0,0,0q-.2,0-.2,0h0c0-.1,0-.1,0-.2h0s0,0,0,0q0,0,0-.2c0,0,0-.1,0-.2q.1-.1.1-.1h0s0,0,0,0h0s0,0,0,0h0s0,0,0,0c0,0,0,0,.1,0h0s0,0-.1,0h0c.1-.1.3-.1.4-.2-.1,0-.2,0-.2,0h0q.2,0,.3,0s0,0,0,0h0s.1,0,.1,0h0s0,0,0,0h0s0,0,0,0h0c0,0,0,0,0,0,0,0,0,0,0,0h0s0,0,0,0c0,0,0-.1.1-.2,0,0,0,0,0,0h0s0,0,0,0h0s0,0,0,0h0s0,0,0,0c0,0,0,0,0,0h0s0,0,0,0h0s0,0,0,0c0,0,0,0,0,0,.1,0,.1,0,.2,0,0,0,0,0,0,0,0,0,0,0,0,0,0,0,0,0,0,0h0s0,0,0,0c.3-.1.5.2.5.3q0,.1,0,.2t-.3.1c.2,0,.4,0,.6,0h0s0,0,0,0h0c.1,0,.3,0,.4,0t-.2,0s0,0,0,0h0q0,0,.4,0h0s0,0,0,0c0,0,0,0,0,0,0,0,0,0,0,0q-.3-.1-.3-.2s0,0-.1,0h0s0,0,0,0h0s0,0,0,0q0,0,.3,0h0s0,0,0-.1c0,0,0,0,0,0q-.5,0-.5,0h0s0,0,0-.1c0,0,0,0,0,0,0,0,0,0,0,0h0s0,0,0,0h0s0,0,0,0h0s0,0,0,0c0,0,0,0,0,0h0s0,0-.1,0h0s0,0,0,0q-.2,0-.6,0s0,0,0,0h0s0,0,0-.1c.1,0,.1,0,.3,0,0,0,0,0,0,0q0,0-.5.2s0,0,0,0c0,0,0,0,0,0h0s0,0,0,0c0,0,0,0-.1-.2,0,0,0,0,0,0h0c0,0,0,0,0,0,0,0-.3.2-.2.3,0,0,.1,0,.1,0h0s0,0,0,0c0,0-.1,0-.1,0,0,0,.2,0,.3,0,0,0,0,0,0,0h0q-.1.2-.1.2h0s0,0,0,0c0,0,0,.1,0,.1,0,0,0,0,0,0,0,0,0-.1,0-.2,0,0,0,0,0,0,0,0,0,0,0,.1h0s0,0,0,0c0,0,0,0,0-.1h0s0,0,0,0h0s0,0,0,0h0s0,0,0,0h0s0,0,0,0h0s0,0,0,0q0-.1-.1-.2h0s0,0,0-.1h0q.1,0,.2-.2t-.2,0s0,0,0,0c0,0,0,0,0,0h0s0,0,0,0c0,0,0,.1,0,.2h0c0,0,0,0,0,0,0,0,0,0,0,0h0s0,0,0,0c0,0,0,0,0,0,0,0,.1,0,.2,0h0s0,0,0,0h0s0,0,0,0h0s0,0,0,0h0s0,0,0,0c0,0,0,0-.1.1,0,0,0,0,0,0,0,0,0,0,0,0h0c0,0,0,0,0-.1,0,0-.1,0-.1,0h0s0,0,0,0c0,0,0,0,0,0h0c-.3.1-.5,0-.5-.1h0s0,0,0,0c0,0,0,0,.1,0h0s0,0,0,0c0,0-.1,0-.2.1,0,0,0,0,0,.1h0s0,0,0-.1q-.4,0-.4,0h0s0,0,0,0c0,0,0,0,0,0,0,0,0,0,0,0,0,0,0,0,0-.1,0,0-.1,0-.2,0h0s0,0,0,0h0s0,0,0-.1h0s0,0,0,0h0s-.1,0-.2,0c0,0,0,0,0,0,0,0-.1,0-.2,0h0s0,0,0,0h0s0,0,0,0h0c-.1,0-.2-.4-.2-.4h0c0,0,0,0,0,0h0s0,0,0,0c0,0,0,0,0,0h0s0,0,0,0c0,0,0,0,0,0,0,0,0,0,0,0,0,0,0,0,0,0-.1,0-.2,0-.3,0,0,0-.1.4-.1.4,0,0,0-.1,0-.2,0,0,0,0,0,.1,0,0,0,.1,0,.2h0s0,0,0,0h0c0,.1,0,.1-.2,0,0,0,0,0,0,0h0s0,0,0,0c0,0,0,.1,0,.2h0s0,0,0,0c0,.1,0,.2-.1.3,0,0,0,.1,0,.2,0,0,0,0,0,0h0s0,0,0,0h0s0,0,0,0h0c0,0-.1.1-.2.2,0,0-.1,0-.2,0h0c0,0,0,0,0,0,.1,0,.3,0,.4-.3h0c0,0,.1,0,.2-.1h0s0,0,0,0c0,0-.1,0-.2.1h0s0,0,0,0h0s0,0,0,0h0s0,0,0,0c0,0,.1,0,.2,0h0s0,0,0,0c0,0,0,0,0,0h0c0,.1.1.2.2.4h0s0,0,0,0h0c0,.1,0,.1,0,.2h0c0,0,0,0,0,0h0s0,.1,0,.1c0,0,0,0,0,0,0,0,0,0,0,0q0,0,0,.2s0,0,0,0h0s0,0,0,0c0,0,0,0,0,0h0s0,0,0,0q0,.2,0,.3h0s0,0,0,0h0q0-.2,0-.2c0,.3,0,.6,0,.9h0s0,0,0,0h0c0,.1,0,.2.1.4h0c0,0,0-.2,0-.3q0,0,.2.2h0c0,.1,0,.3-.1.4h0q0-.2,0-.3h0s0,0,0,0h0s0,0,0,0h0c0,.4-.2.8-.1,1.2,0,.4.4.7.5,1.1h0q.3.8.3.8.2.2.3.3c0,0,0,0,0,0q0,.1.2.3c0-.5-.7-.7-.5-1.2,0,0,1.1,1.3,1.1,1.6,0,0,0,.1,0,.1.7.4,2.1.6,2.4.6q0,.2.3.3s0,0,.1.1h0s0,0,0,0h0s0,0,0,0h0q0,0,.3.2h0c.2,0,.4,0,.5,0h0q0-.2,0-.2,0,0,.2,0h0q0,0,.3.4s0,0,0,0c.2.4-.4.8,0,1.1,0,0,0,0,0,0h0s0,0,0,0c0,0,0,0,0,0,0,0,0,0,0,0,0,.1,0,.2,0,.3,0,0,0,0,0,0h0s0,0,0,0h0s0,0,0,0c0,0,.2.1.3.2h0s.6.6,1.3.7c.6,0,.6,0,.6.1,0,.1.2.3.2.4l.4,1.1c0,.1.2.1.2,0,0,0,0,0,.1.1,0,0,0,0,0,0h0s0,0,0,0c0,0,0,0,0,0h0s0,0,0,0h0s0,0,0,0c0,0,0,0,0,0h0s0,0,0,0h0s0,0,0,0c0,0,0,0,0,0h0s0,0,0,0h0s0,0,.1,0h0s0,0,0,0h0s0,0,0,0h0s0,0,0,0c0,0,0,0,.1,0h0s0,0,0,0c0,0,0,0,0,0,0,0,0,0,0,0,0,0,0,0,0,0h0s0,0,0,0h0s0,0,0,0c0,0-.1,0-.2,0,0,0,.1,0,.2,0h0s0,0,0,0c0,0,.1,0,.2,0h0s0,0,0,0h0s0,0,0,0c0,0,0,0,.1,0h0s0,0,0,0h0q0,0,.2,0c-.1,0-.2,0-.3,0h0s0,0,0,0c0,0,0,0-.1,0h0s0,0,0,0h0s0,0,.1,0h0s0,0-.3,0q.2-.1.2-.1s0,0,0,0q0,0,.1-.2c0,0-.1,0-.2,0,0,0,0-.1.2-.2,0,0,0,0,0,0h0s0,0,0,0c0,0,0,0,.1,0h0s0,0-.1,0c0,0,0,0,0,0q.2,0,.2,0s0,0,0-.1h0,0c.2,0,.5-.2.5-.4,0,0-.2,0-.3-.1.2,0,.2,0,.3,0h0c.2-.1.3-.4.4-.6h0s0,0,0,0h0s0,0,0,0c.2-.3.2-.7.5-.9h0s0,0,0,0h0s0,0,.4-.4h0q0-1.1.1-1.4c0-.2.2-.4.1-.6-.2-.5-1.1,0-1.3,0M102.2,55.1c0-.9,0-1-.2-1.6-.2-.9-.3-1-.5-1.6-.2-.3-.4-.8-.6-1.1h0s0,0,0,0c0-.1-.1-.2-.2-.2h0s0,0,0,0c-.1,0-.2-.2-.3-.2h0s0,0,0,0h0c-.1-.1-.2-.2-.4-.4h0s0,0,0,0c-.2-.2-.5-.2-.7-.4,0,.1,0,.2,0,.3q0,0-.2.1h0c0,.2.2.3.2.4,0,.2-.6.3-.6.3q0,0-.4-.3h0s0,0,0,0c0,0,0,0,0,0q-.4,1.1-.6,1.2c0,.2,0,.6,0,.6,0,.1.2.2.2.4,0,.4,0,.9.1,1.3,0,0,.5.9.7,1h0s0,0,0,0c0,0,0,0,0,0t.2,0h0s0,0,0,0c.3.3.5.4,1.1.4h0c0-.1,0-.3.2-.4q0,0,.2-.1h0c.1-.3,0-.6.3-.8,0,0,.1,0,.1,0h0c0,0,.2-.2.3-.3.1.2.2.5.2.5,0,.5.4.6.4.6h0c0,.5.2,1,.2,1.4,0,1,0,1.2,0,1.4.2-.7.2-.8.2-1.2,0-.9,0-1,0-1.6M89,51.8s0,0,0,0h0s0,0,0,.2c0,0,0,0,0,0,0,0,0,0,0,0,0,0,0,0,0,0h0s0,0,0,0h0c.1,0,.2,0,.3-.1h0c0,0,0,0-.1,0h0s0,0,0,0c0,0,0,0-.2-.1t0,0h0ZM91,58s.1,0,.4-.2h0c0,0-.2,0-.2,0h0c-.1,0-.2,0-.4,0,0,0,0,0,0,0h0c-.2,0-.3,0-.6,0-.3,0-.3.2-.3.3h0s0,0,0,0h0s0,0,.1-.1c0,0,.1-.1.2-.1h0s0,0,0,0c.2,0,.4,0,.6,0,.1,0,.1,0,.2,0h0s0,0,0,0M88.6,50.1q0,0,.1,0h0s0,0,0,0h0s0,0,0,0h0c0,0,0,0,0,0h0s0,0,0,0h0s0,0,0,0c0,0,0,0,0,0h0s0,0,0,0c0,0,.1,0,.1,0h0s0,0,0,0c0,0,0,0,0,0,0,0-.1,0-.2,0,0,0,0,0,0,0,0,0,0,0,0,0,0,0,0,0,0,0,0,0,0,0,0,0h0s0,0,0,0M86.9,51.1c0,0,0,.1,0,.1,0,0,0,0,0,0,0,0,0,0,.3-.2h0s0,0,0,0c0,0-.1,0-.2,0,0,0,0,0,0,0h0s0,0,0,0c0,0,0,0,0,0h0s0,0,0,0c0,0-.2.1-.2.2h0ZM87.6,50.7s0,0,0,0h0s0,0,0,0c0,0,0,0,0,0h0,0c0,0,0,0-.2,0,0,0,0,0,0,0h0c.1,0,.3,0,.4-.1h0c0,0,0,0-.1,0h0s0,0,0,0c0,0,0,0,0,0h0s0,0,0,0c0,0,0,0,0,0,0,0,0,0,0,0h0s0,0,0,0h0s0,0,0,0h0s0,0-.1,0c0,0,0,0,0,0,0,0,0,0,0,0,0,0,0,0,0,0h0s0,0,0,0c0,0,0,0,0,0,0,0,0,0,0,0M88.1,50.6h0s0,0,0,0h0s0,0,0,0ZM91.5,48.8h0,0ZM87.8,50.4h0s0,0,0,0c0,0,0,0,0,0,0,0,0,0,0,0h0ZM88.1,50.5s0,0,0,0h0s0,0,0,0h0s0,0,0,0ZM93.5,58.2h0s0,0,0,0h0s0,0,0,0h0ZM88.8,50.4h0s0,0,0,0h0s0,0,0,0h0s0,0,0,0c0,0,0,0,0,0M93,46.5h0s0,0,0,0h0ZM91.5,46.7h0s0,0,0,0c0,0,0,0,0,0h0s0,0,0,0h0s0,0,0,0M91.6,58s0,0,0,0h0s0,0,0,0h0s0,0,0,0ZM97.5,53.2h0s0,0,0,0c0,0,0,0,0,0h0s0,0,0,0ZM97.4,53.4h0s0,0,0,0h0s0,0,0,0h0ZM94.9,49.2h0s0,0,0,0c0,0,0,0,0,0h0s0,0,0,0h0ZM95.6,49.8h0,0s0,0,0,0h0s0,0,0,0h0ZM95,49.4h0s0,0,0,0h0s0,0,0,0h0s0,0,0,0ZM95,49.7h0s0,0,0,0h0s0,0,0,0M97.7,50.6h0s0,0,0,0h0s0,0,0,0h0s0,0,0,0M99.3,49.5h0s0,0,0,0h0ZM101.9,58c0,0,0,.1,0,.2,0,0,0-.1,0-.2M100.9,50.8h0s0,0,0,0h0ZM95.4,64.3h0s0,0,0,0h0s0,0,0,0h0ZM91.1,59.8h0s0,0,0,0h0s0,0,0,0h0ZM89.6,52s0,0,0,0h0s0,0,0,0h0s0,0,0,0ZM89.6,51.3h0s0,0,0,0h0s0,0,0,0c0,0,0,0,0,0h0s0,0,0,0ZM90.2,57.9h0s0,0,0,0h0s0,0,0,0c0,0,0,0,0,0h0s0,0,0,0h0ZM89.8,51.3h0s0,0,0,0c0,0,0,0,0,0h0s0,0,0,0c0,0,0,0,0,0"/>
    </g>
  </g>
  <path class="st10" d="M84.6,44.2h0c0,.1.2.3.4.5.2.2.3.4.4.5.2.2.3.3.3.3,0,0,0,.1.1.2,0,0,0,.1,0,.2,0,0,0,.1,0,.2,0,0-.2.1-.3.1-.1,0-.2,0-.3,0,0,0-.1-.1-.2-.4-.1-.2-.2-.4-.3-.5-.1.8-.4,1.4-.7,1.7-.2.2-.5.4-.8.4-.3,0-.5-.1-.8-.4-.4-.4-.6-.9-.8-1.5h0c-.1-.6-.1-1.2,0-1.8.1-.6.4-1,.7-1.3.2-.2.3-.3.5-.3.2,0,.3,0,.4,0,0,0,.1.2.2.4,0,.2,0,.3,0,.4,0,0,0,0-.1,0,0,0,0,0-.2,0,0,0-.2,0-.2,0,0,0-.1,0-.2.1-.2.2-.3.5-.4,1,0,.5,0,.9,0,1.4.1.4.3.8.6,1,.3.3.5.3.7,0,.1-.1.2-.3.3-.5.1-.2.2-.5.2-.8,0-.3,0-.5,0-.7,0-.1-.2-.3-.3-.4,0,0,0-.2,0-.2,0,0,0-.1.1-.2.2-.2.3-.2.4,0,0,0,.1.1.2.3,0,.1.1.3.2.4"/>
  <path class="st10" d="M87.9,42.2c0,.5,0,.9-.1,1.3-.2.4-.4.8-.7.9-.3.1-.5.2-.8,0-.3,0-.5-.3-.6-.5-.2-.4-.3-.9-.2-1.5,0-.6.3-1,.7-1.2.3-.2.6-.2.9,0,.3.1.5.3.7.6,0,.1.1.3.2.4h0ZM86.2,42.1c0,.2,0,.4,0,.7,0,.3,0,.6.2.8,0,.1.2.2.3.3,0,0,.2,0,.3,0,.2-.1.4-.4.5-.7,0-.4,0-.7-.1-1,0-.2-.2-.3-.3-.4-.1,0-.3,0-.4,0-.1,0-.2.2-.3.3h0Z"/>
  <path class="st10" d="M94.8,41.2h0c0,.2,0,.4-.1.6,0,.3,0,.5,0,.6,0,.2,0,.4,0,.5,0,0,0,.2,0,.2,0,0,0,0-.1.1,0,0-.1,0-.2,0-.1,0-.2,0-.3-.1,0,0-.1-.2-.1-.3,0,0,0-.2,0-.4,0-.2,0-.4.1-.6-.6.5-1.2.7-1.7.7-.3,0-.6,0-.8-.3-.2-.2-.3-.5-.3-.8,0-.5.1-1.1.5-1.6h0c.3-.5.8-1,1.2-1.3.5-.3,1-.5,1.4-.5.2,0,.4,0,.6.1.1,0,.2.2.2.3,0,.1,0,.2-.1.4,0,.1-.2.2-.3.2,0,0-.1,0-.1,0,0,0,0,0,0-.2,0,0,0-.1-.1-.2,0,0-.1,0-.2,0-.3,0-.6.2-1,.4-.4.3-.7.6-.9,1-.2.4-.3.8-.3,1.1,0,.4.2.6.5.6.2,0,.4,0,.6-.1.2,0,.5-.2.7-.4.3-.2.4-.4.5-.5,0-.2,0-.3.1-.5,0-.1,0-.2.1-.2,0,0,.2,0,.3,0,.3,0,.4,0,.4.2,0,0,0,.2,0,.3,0,.1,0,.3-.1.4"/>
  <path class="st10" d="M96.7,41.7h0c.3-.5.7-.8,1-1,.3-.2.6-.3.9-.2.2,0,.3.1.4.3,0,.1.1.3,0,.4,0,0,0,.2-.1.2,0,0-.1,0-.2,0-.1,0-.2-.1-.3-.2,0,0,0-.1-.1-.1-.1,0-.4.1-.9.5-.4.3-.8.8-1,1.3,0,.2-.1.2-.2.3,0,0-.2,0-.3,0-.1,0-.2-.1-.2-.3,0-.2,0-.4.1-.7,0-.1,0-.3.2-.5,0-.2.2-.5.3-.8,0,0,0-.1,0-.2,0-.2.1-.3.2-.4,0,0,.1-.1.2-.1,0,0,.2,0,.3,0,.1,0,.2,0,.2.2,0,0,0,.1,0,.2,0,0-.1.3-.3.5,0,0-.1.2-.2.3l-.2.4Z"/>
  <path class="st10" d="M101.1,44.1c0,.2-.4.3-.8.4-.4,0-.8,0-1.2-.2-.3-.2-.5-.4-.5-.6,0-.3,0-.6.2-.9.3-.5.7-.8,1.2-1,.6-.2,1-.2,1.4,0,.2.1.3.2.4.4,0,.2,0,.4,0,.5-.2.3-.5.5-.9.6-.4.1-.9,0-1.4,0,0,0,0,0-.1,0,0,0,0,.2,0,.3,0,.1.1.2.2.3.3.2.8.2,1.3,0,.1,0,.2,0,.2,0,0,0,.1.1,0,.3M99.6,42.7c.3,0,.6.1.9,0,.3,0,.5-.2.6-.3,0,0,0-.1,0-.2,0,0,0,0,0-.1-.1,0-.4,0-.7,0-.3.1-.5.3-.7.5"/>
  <path class="st10" d="M103.4,46.2c-.1.1-.4.2-.9.2-.4,0-.8-.2-1.1-.5-.2-.2-.4-.5-.4-.7s.1-.6.4-.8c.4-.4.8-.6,1.4-.7.6,0,1.1,0,1.4.3.2.1.2.3.3.5,0,.2,0,.4-.2.5-.2.2-.6.4-1,.4-.4,0-.9-.1-1.3-.4,0,0,0,0-.1,0,0,0,0,.2,0,.3,0,.1,0,.2.2.3.3.3.7.4,1.3.3.1,0,.2,0,.2,0,0,0,0,.2,0,.3M102.4,44.5c.3.2.6.2.9.3.3,0,.5,0,.6-.2,0,0,0,0,0-.2,0,0,0-.1,0-.1-.1-.1-.3-.1-.7-.1-.3,0-.6.1-.8.3"/>
  <path class="st10" d="M104.7,48.9c0-.2.3-.4.7-.7.4-.3.5-.5.5-.6,0-.1-.4-.2-1-.2-.6,0-1,0-1.3,0,0,0-.1,0-.2,0,0,0-.1,0-.1,0-.2-.2-.1-.4,0-.6,0,0,.3-.1.6-.3.4-.2.8-.4,1.3-.7,0,0,.2,0,.3,0,.1,0,.2,0,.3.1,0,0,0,.2,0,.3,0,0-.1.2-.3.3-.2,0-.5.2-1,.4,1-.2,1.7,0,2,.4.2.4,0,.8-.5,1.2-.6.5-.8.7-.8.8,0,0,0,0,.1.1,0,0,0,0,.1.1,0,0,0,.1,0,.2,0,0-.2,0-.4,0-.2,0-.3-.2-.4-.3-.1-.2-.1-.4,0-.6h0Z"/>
  <path class="st10" d="M81.7,61.8c.2,0,.3-.2.3-.3,0-.1,0-.3,0-.4-.1-.3-.3-.5-.6-.7-.3-.2-.5-.2-.6-.2-.1,0-.2.1-.2.3,0,.1,0,.4,0,.9,0,.5,0,.8,0,1.1,0,.3-.2.4-.4.5-.3.2-.8,0-1.3-.4-.5-.4-.9-.9-1.1-1.4,0-.2-.1-.3,0-.5,0-.1,0-.2.2-.3,0,0,.2,0,.3,0,0,0,.2,0,.2.1,0,0,0,0,0,.1,0,.2,0,.4.1.6.1.3.3.5.6.8.3.3.5.4.7.3,0,0,.1,0,.1-.2,0-.1,0-.3,0-.6,0-.4,0-.8,0-1,0-.2,0-.4.1-.6,0-.2.2-.3.4-.4.3-.1.7,0,1.2.2.5.3.8.6,1,1.2.1.3.2.6.1.8,0,.2-.1.4-.3.4-.3.1-.5,0-.7-.3"/>
  <path class="st10" d="M81.7,65.4c-.8,0-1.4-.1-1.7-.5-.1-.1-.2-.3-.1-.5,0-.2.1-.3.3-.5.4-.3,1-.5,1.7-.5.7,0,1.2.2,1.5.5.1.2.2.4,0,.6.1.2.1.3,0,.4,0,0-.2.1-.4.2-.4.2-.6.4-.8.5-.2.2-.3.3-.4.4,0,0,0,.1-.1.2,0,0,0,0,0,.2,0,0,0,.1,0,.2,0,0-.2,0-.3,0-.1,0-.2,0-.3-.2-.2-.3,0-.6.5-1.1M82.9,64.3c-.1-.2-.4-.2-1-.2-.5,0-.9.1-1.1.3-.1,0-.2.2-.1.2.1.2.5.3,1,.3.5,0,.9,0,1.1-.3,0,0,.1-.1.1-.2,0,0,0-.1,0-.2"/>
  <path class="st10" d="M82.9,67.9c0-.1.2-.4.3-.8.2-.9.5-1.4.7-1.7.2-.3.4-.3.6-.2.2.1.2.3,0,.6-.1.1-.2.3-.2.3,0,0,0,.2-.2.4,0,.2-.1.4-.2.5,0,0,0,.2-.1.3,0,0,0,.1,0,.2,0,0,0,0,.2-.1,0,0,.3-.1.7-.3.4-.2.8-.3,1-.4.3,0,.5-.1.6,0,0,0,.2,0,.3.1,0,0,.1.1.1.2,0,0,0,.2,0,.2,0,0-.2.1-.4.1-.2,0-.5,0-1,.2-.4.1-1,.4-1.6.6-.3.2-.6.2-.7.1,0,0-.1-.2-.2-.4"/>
  <path class="st10" d="M88.5,69.9c0,.2-.3.3-.7.5-.4.1-.8.1-1.2,0-.3-.1-.5-.3-.6-.6,0-.3,0-.6,0-.9.2-.5.6-.9,1.1-1.2.5-.3,1-.3,1.4-.2.2,0,.3.2.4.4,0,.2,0,.4,0,.5-.1.3-.4.5-.8.7-.4.2-.9.2-1.4,0,0,0,0,0-.1,0,0,0,0,.2,0,.3,0,.1.1.2.3.2.4.1.8.1,1.3-.1,0,0,.2,0,.2,0,.1,0,.1.1,0,.2M86.9,68.6c.3,0,.6,0,.9,0,.3,0,.5-.2.5-.4,0,0,0-.1,0-.2,0,0,0,0-.1-.1-.2,0-.4,0-.7.1-.3.1-.5.3-.7.6"/>
  <path class="st10" d="M95.3,67.8h-.9c-.3.1-.6.2-.8.2-.2,0-.3,0-.4.1,0,0,0,0,0,.2,0,0,0,.3,0,.5,0,.2,0,.3,0,.5.1,0,.3,0,.5,0,.2,0,.4,0,.5,0,.3,0,.5-.1.6-.1.3,0,.5,0,.5.3,0,.1,0,.2-.1.3,0,0-.2,0-.4.1-.1,0-.2,0-.4,0,0,0-.2,0-.3,0-.5,0-.8.2-.9.2h0s0,0,0,0c0,0,0,.2,0,.4,0,.3,0,.4,0,.5,0,0,0,.1.1,0,0,0,.3,0,.7-.1.4,0,.6-.1.7-.1.3,0,.4-.1.5-.1.2,0,.4.1.4.3,0,0,0,.2,0,.2-.2,0-.5.2-.8.2-.3,0-.6,0-1,.1-.3,0-.6.1-.9.2-.2,0-.3,0-.3,0,0,0-.1-.2-.1-.3h0c0-.1,0-.2,0-.3,0-.2.1-.8.2-1.6,0-.8.1-1.3.1-1.4,0,0,0,0,0,0,0,0,0,0,0-.1,0,0,0-.1,0-.2,0,0,0,0,0,0,0,0,0,0,.1-.1,0,0,.1,0,.2,0,0,0,.2,0,.3,0,.2,0,.7,0,1.5-.2.3,0,.4,0,.5,0h0c.3,0,.5,0,.5.3,0,0,0,.1,0,.2,0,0-.1.1-.2.1"/>
  <path class="st10" d="M98.5,69.5c-.3.8-.6,1.3-1.1,1.4-.2,0-.3,0-.5,0-.2,0-.3-.2-.3-.4-.2-.5-.1-1.1.1-1.8.2-.7.6-1.1,1-1.3.2,0,.4,0,.6.2.2,0,.3,0,.4.1,0,0,0,.2,0,.4,0,.4.1.7.2.9,0,.2.2.4.2.5,0,0,.1.1.1.2,0,0,0,0,.2,0,0,0,.1,0,.2.1,0,0,0,.2,0,.3,0,0-.2.2-.3.2-.3.1-.6-.2-.8-.9M97.8,68.1c-.2,0-.4.3-.5.9-.2.5-.2.9,0,1.2,0,.1.1.2.2.2.2,0,.4-.4.6-.8.2-.5.2-.9.1-1.2,0,0,0-.2-.1-.2,0,0-.1,0-.2,0"/>
  <path class="st10" d="M100.6,68h0c0-.6,0-1.1,0-1.5,0-.4.2-.7.4-.8.2-.1.3-.1.5-.1.2,0,.3,0,.4.2,0,0,0,.2,0,.2s0,.1,0,.2c0,0-.2,0-.4,0,0,0-.2,0-.2,0-.1,0-.2.4-.2,1,0,.6,0,1.1.3,1.6,0,.1,0,.3,0,.4,0,0,0,.2-.2.2-.1,0-.2,0-.4,0-.1,0-.3-.3-.5-.6,0-.1-.2-.3-.3-.5-.1-.2-.2-.4-.4-.7,0,0,0-.1,0-.2,0-.2-.1-.3-.2-.4,0,0,0-.2,0-.2,0,0,0-.2.2-.2,0,0,.2,0,.2,0,0,0,.1,0,.2.1,0,0,.1.3.2.5,0,0,0,.2.1.3l.2.4Z"/>
  <path class="st10" d="M103.1,64.8s.1.2.4.6c.2.4.4.6.5.6.1.1.2.2.3.2,0,0,.1,0,.2,0,0,0,.1-.2.2-.3,0,0,0-.2,0-.5,0-.1,0-.2,0-.3,0,0,0,0,.1,0,0,0,0,0,.1,0,.1.1.2.3.1.7,0,.3-.2.6-.4.8-.2.2-.4.3-.6.3-.2,0-.4-.1-.6-.3-.2-.2-.5-.6-.9-1.3,0,0-.1.2-.2.2h0c0,.1-.1.2-.3.2-.1,0-.2,0-.3,0-.1-.1-.1-.2,0-.4l.4-.5c-.1-.2-.3-.5-.5-.8-.1-.2-.1-.4,0-.5,0,0,.2-.1.2-.1,0,0,.2,0,.2,0,0,0,.2.3.5.8.4-.5.6-.7.6-.8,0,0,.1-.1.2-.1,0,0,0,0,.2,0,.1.1.1.3,0,.5l-.6.8Z"/>
  <path class="st10" d="M105.4,63.5c-.4-.6-.6-1-.6-1.3,0-.3,0-.6,0-.8,0-.1.2-.2.4-.3.2,0,.4,0,.9.2.2,0,.4.2.5.2.1,0,.3,0,.4,0,.1,0,.2,0,.3,0,0,0,.2,0,.2,0,0,0,0,0,.1.2,0,0,0,.2,0,.2,0,.1-.2.2-.5.3-.2,0-.5,0-.8-.2-.4-.2-.6-.3-.7-.3-.1,0-.2,0-.2,0,0,0,0,.4.3.9.2.5.4.9.6,1.1.1.2.2.3.2.4,0,0,0,.1,0,.2,0,.1-.1.2-.2.2,0,0-.2,0-.3,0,0,0-.2-.1-.4-.3-.8-.7-1.7-1.4-2.6-2.1-.2-.2-.4-.3-.4-.4,0-.1,0-.2,0-.3,0,0,.1-.1.2-.2.1,0,.2,0,.3,0,.2.1.4.3.6.4.2.2.6.5,1,.9.3.3.5.5.7.6"/>
  <g class="st22">
    <rect class="st30" x="84" y="46.2" width="18.3" height="18.3"/>
  </g>
  <g class="st12">
    <g class="st23">
      <g class="st16">
        <rect class="st5" x="84.4" y="45.3" width="15.9" height="13.8" transform="translate(-5.2 10.5) rotate(-6.3)"/>
      </g>
    </g>
  </g>
  <g class="st29">
    <g class="st15">
      <path class="st26" d="M90,49.6c0,0,.1,0,.2,0h0s0,0,0,0c0,.1-.2.2-.2.2h0s0,0,0,0h0s0,0-.1,0h0s0,0,0,0c0,.2.2-.1.3,0h0s0,0-.3.2t.1,0s0,0,0,0c.1.3.4-.3.7-.2h0s0,0,0,0h0q0,0,0,0s0,0,0,0h0c0,0,.1,0,.2.1h0q0,0,0,0s0,0,0,0h0s0,0,0,0c0,0,.1,0,.1,0h0s0,0,0,0c0,0,.2,0,.2,0h0s0,0,0,0h0c-.1,0-.2,0-.2,0t0,0h0c0,.1,0,.1,0,.2h0s0,0,0,0h0s0,0,.1,0c0,0,0,0,0,0h0s0,0,0,0h0s0,0,0,0t.2,0h0c-.1.1-.2.2,0,.3h0s0,0,0,0c.1,0,.1.2.2.2,0,0,0,0,0-.1h0c.2.3.2.3.9.2q0-.3-.1-.3h0c0,0,0-.2,0-.2h0q-.1,0-.1,0h0c0,0,0-.2.2-.2h0s0,0,0,0h0s0,0,0,0c0,0,0,0,0,0,0-.1,0-.3,0-.4,0-.2.3-.3.3-.5,0,0-.2.1-.2.1h0s0,0,0,0h0s0,0,0,0h0s0,0,0,0h0s0,0,0,0t0,0h0c0,0,0-.1,0-.2h0c0,0,0,0,0,0h0c0,0,0,0,0-.1,0,0,.1,0,.2,0,0,0-.2,0-.2,0,0,0-.2,0-.2,0h0s0,0,0,0c0,0,.1,0,.2,0h0s0,0,0,0c0,0-.2,0-.3,0h0c0,0,.1,0,.2,0h0s0,0,0,0c0,0,0,0,0,0h0s0,0,0,0c0,0,.1,0,0-.1h0c-.1,0-.1,0-.1,0h0s0,0,0,0c0,0-.2,0-.3,0h0c0,0,.1,0,.2-.1,0,0,0,0-.1,0h0s0,0,0,0c0,0,0,0,0,0h0s0,0,0,0q0,0,0,0h0s0,0,0,0t0,0h0c0,0,0,0-.1,0h0s0,0,0,0t0,0h0s0,0,0,0c0,0,0,0,0,0h0s0,0,0,0h0s0,0,0-.1h0s0,0,0,0c0,0,0,0-.1,0h0s0,0,0,0c0,0,0,.1-.1.1h0s0,.1,0,.2h0s0,0,0-.1c-.1,0,0,.2-.1.2t0,0c0,0-.2.1-.2.2h0s0,0,0-.1c0,0,.2-.1.3-.2-.1,0-.2.1-.3.2h0s0,0,0,0c0,0,0,0,0,0,0,0,0,0-.1,0,0,0,0,0-.1.1,0,0-.2,0-.2.1,0,0,0,0,0,0h0s0,0,0,0c0,0,0,0,0,0h0s0,0-.1,0h0s0,0,0,0t0,0h0s0,0,0,0h0c0,0,0,0,0,.1q.1,0,.2,0h0s0,0-.1,0h0s0,0,0,0q0,0,.1,0h0c0,0-.2,0-.2,0,0,0,0,0,0,0h0s0,0-.1,0h0s0,0,0,0h0s0,0,0,0h0c-.1,0-.1,0-.1.1t0,0h0c0,.1-.2.1-.3.2M92.7,46.5h0s0,0,0,0q.4.1.7.2s0,0,0,0c0,0,0,0,0,0h0s0,0,0,0h0s.2,0,.2,0c0,0,0,0,0,0h0c0,0,0,0,0,0,0,0,0,0,0,0-.4.1-1,0-1,0h0ZM87.4,50.8s0,0-.1,0c0,0,0,0,0,0h0s0,0,0,0h0s0,0,0,0c0,0,0,0,0,0,0,0,.1,0,.1,0h0s-.1,0-.1,0c0,.1.2,0,.3,0h0c0,0,0,0-.2,0,0,0,0,0-.1,0,0,0,0,.2.2.2,0,0,.2,0,.2,0,.1,0,.2,0,.4,0,0,0,0,0,0,0h0s0,0,0,0q.1,0,.2,0c0,0-.1-.1-.2-.2h0s0,0,0,0c0,0,0-.1,0-.2,0,0,0,0,0,0,0,0,0,0-.2,0h0c0,0,0,.1,0,.2h0s0,0,0,0c0,0,0-.1,0-.1,0,0,0,0,0,0h0c0,0,0,0,0,0h0s0,0,0,0c0,0-.1,0-.1,0h0c0,0,0,0,0,0M89.4,50.4h0c-.2,0-.3,0-.5.1-.1,0-.2,0-.2-.1h0s0,0,0,0c0,0,0,0-.1,0,0,0,0,.2,0,.2,0,0,.2,0,.2,0,.1,0,.2,0,.4-.1h0s0,0,0,0c0,0,0,0,0,0M89,49.8h0s0,0,0,0c0,0,0,0,0,0h0s0,0,0,0c0,0,0,0,.2,0h0s0,0,0,0h0s0,0,0,0c0,0,.3-.2.3-.1h0c0,0,0,0-.2.1,0,0,0,0,0,0h0c0,0-.1,0-.2,0,0,0,0,0,0,.1,0,0,.2,0,.2,0h0s0,0-.1,0c-.1,0-.1,0-.1,0,0,0,.1,0,.2,0h0c0,0-.1.1-.1.1,0,0,0,0-.1,0,0,0,0,0,0,0,0,0,0,0,0,0h0s0,0,0,0h0s0,0,0,0h0c0,0,0,0-.1,0h0c0,0,0,0,0,0h0s0,0,0,0c.1,0,.3,0,.4,0h0s0,0,0,0c0,0,.1,0,.1,0h0s0,0,0,0c0,0,0,0,0,0,0,0,0,0,0,0h0s0,0,0,0h0s0,0,0,0h0s0,0,0,0h0s0,0,0,0c0,0,0,0,.1,0h0s0,0,0,0c0,0,0,0,0,0h0s0,0,.1,0t0-.1s0,0,0,0h0c0,0,0-.1.2-.2.2,0,.3-.1.3-.2,0,0,0,0,0,0h0s0,0,.1,0h0s0,0,0,0c0,0,0,0,0,0h0c0,0-.2,0-.2,0h0s0,0,0,0h0s0,0-.3.1c-.5.2-.6.2-.7.3,0,0,0,0,0,0M91.8,57.8h0c.2,0,.4,0,.6-.1h0s0,0,0,0c0,0-.6,0-.7,0,0,0,0,0,0,0,0,0,.2.1.2.1h0ZM93.7,49.7h0s0,0,0,0h0s.1,0,.1-.1c0,0,0-.2,0-.2,0,0,0,0,0,0h0s0,0-.1,0c0,0,0,0,0,.1,0,0,0,0,0,0,0,0,0,0,0,0h0s0,0-.1,0c0,0,0,0,0,0h0s0,0-.1,0c0,0,0,0-.1,0h0s0,0,0,0h0q0,0,0,0h0s0,0,0,0h0s0,0,0,0h0s0,0,0,0h0s0,0,0,0c0,0,0,0,0,0,0,0,0,.1,0,.1,0,0,0,0,0,0,0,0,0,0,.1,0h0s0,0,0,0h0s.1,0,.2-.1M99.4,49.2h0q1.1.9,1.4,1.2h0s0,0,0,0c-.3-.4-.7-.9-1.1-1.4h-.1c0-.2,0-.2-.1-.3h0s0,0,0,0h0s0,0,0,0h0s0,0,0,0h0s0,0,0,0h0s0,0,0,0h0c-.1-.1-.3-.2-.4-.3h0s0,0,0,0c0,0,0,0,0,0h0s0,0,.1,0c-.2-.2-.5-.4-.7-.6-.7-.5-.8-.5-1.4-.8-.7-.3-.9-.4-1.6-.6-.6-.1-1-.2-1.9-.3-.9,0-1.3,0-2.2.1-.2,0-.3,0-.4,0h0s0,0,.1,0h0s0,0,0,0c0,0,0,0,0,0h0c0,0,.2,0,.4,0h0c-.3,0-.4,0-.5.1h0c0,0,.1,0,.2,0h0s0,0,0,0c0,0,0,0,.1,0h0s0,0,0,0c0,0,0,0,0,0h0c.2,0,.3,0,.3,0h0,0c.1,0,.2,0,.2,0h0s0,0,0,0c0,0,0,0,0,0,.1,0,.6,0,.6,0h0s0,0,0,0c.1,0,.2,0,.4,0,0,0,0,0,0,0h0q0,0,.2,0s0,0,0,0h0s0,0,0,0c0,0,0,0-.1,0,0,0,0,0,.1,0h0s0,0,0,0h0s0,0,.1,0h0s0,0,0,0c0,0,0,0,0,0h0s0,0,0,0c0,0,0,0,0,0h0c0,0,0,0,.1,0,.1,0,.1,0,.2,0h0s0,0,0,0h0s0,0,0,0h0s0,0,0,0h0s0,0,0,0h0s0,0,.1,0h0s0,0,0,0c.2,0,.3,0,.4,0,0,0,0,0,0,0h0c-.3,0-.4,0-.6,0h0s0,0,0,0h0s0,0-.1,0h0s.4.1.6,0c0,0,.1.1.2.1h0c0,0,.1,0,.2,0h0s0,0,0,0c0,0,0,0,0,0h0s0,0,0,0q.2,0,.2.1s0,0,0,0h0s0,0,0,0c0,0,.2,0,.3.1h0s0,0,.1,0c0,0,0,0,0,0,0,0,0,0,0,0h0s0,0,0,0h0c.2,0,.4.2.6.2h0s0,0,0,0c0,0,0,0,0,0h0s0,0,0,0c0,0,0,0,.1,0,0,.1-.4.1-.4.1h0s0,0,0,0c0,0,0,0,.1,0h0q-.1-.2-.5.1h0s0,0,0,0c0,0,0,0,0,0h0s0,0,0,0c0,0,0,0-.1,0h0s0,0,0,0h0s0,0,.1,0h0s0,0-.1,0c0,0,0,0,0,0,0,0,0,0,0,0,0,0,0,0,0,0h0s0,0,0,0h0s0,0,0,0h0s0,0,0,0h0s0,0,0,0h0s0,0,0,0h0s0,0,0,0h0c0,0,0,0,.1.1h0s0,0,0,0c0,0,0,0,0,0h0s0,0,0,0c0,0,0,0,.1,0,0,0,0-.1,0-.1h0c.4.2.5.8,1,.9,0,0,0,0,0,0,0,0,0,0,.1,0h0s0,0,0-.3h0c.2,0,.4,0,.6,0,0,0,0-.2-1.1-.8,0,0,0,0,0,0h0s0,0,0,0h0q-.1,0-.2-.1s0,0,0,0q0,0,.1,0h0c.1,0,.2.2.2.2.1,0,.2,0,.3,0,0,0,0,0,.1,0,0-.2,0-.3,0-.3,0,0,0,0,0,0h0q0,0,0,.3h0s0,0,0,0c0,0,0,0,0,0,0,0,0,0,0,0h0s0,0,0,0c0,0,.2,0,.2,0h0s0,0-.1,0t.4.2s0,.1,0,.1q0,.2,0,.3h0s0,0,0,0q-.1,0-.2,0h0s0,.1,0,.1c0,0-.2,0-.3,0h0s0,0,0,0c0,0,0,0,0,0h0s0,0,0,0h0s0,0,0,0h0s0,0,0,0c0,0,0,0,0,0h0q-.1,0-.2,0h0c0,.1.2.2.5.3,0,0,0,.1,0,.3h0q.2.5.2.5s0,0,0,0h0s0,0,0,0c0,0,0,0,.1,0h0q-.2.2-.2.2c1.1-.1.6.4.6.4t-.2.2h0c-.3.3.4.5.5.8,0,0,.1-.1.2-.2,0,0,0,0,0,0,0,0,0,0,.1,0h0s0,0,0,0c.2-.2.1-.4,0-.6h0c0-.4-.2-.6-.2-.6h0q0,0,0-.1h0s0,0,0,0c0,0,0,0,0,0,0-.2,0-.3,0-.3,0,0,.7-.2.8,0,0,0,0,0,0,0h0q0,.2,0,.2c.2,0,.2,0,.2,0-.1-.2-.3-.3-.3-.4,0,0,0,0,0,0h0s0,0,0,0h0c-.3,0-.6.2-.8,0h0c.1-.1.6-.1.6-.1h0s0,0,0,0h0q.5.2.5,0h0q0,.1,0,.2s0,0,.1,0h0s0,0,0,0q0,0-.1-.1h0s0,0,0-.1h0s0,0,0,0q-.1,0-.2,0c0,0-.1,0-.2,0h0s0,0,0,0c0,0,0,0,0,0h0s0,0,0,0c0,0,0-.2,0-.3h0c0,0,0,.2.1.3h0c0,0,0,0,0,0,0,0,0,0,.1,0h0s0,0,0,0c0,0,0,0,0,0,0,0,0,0,0,0,0,0,0,0,.1,0,0,0,0,0,0,0h0s0,0,0,0h0s0,0,0,0t0-.3h0c.5.4.7.6.7.8,0,0,0,0,.3.1t-.2-.3M98.2,48.6h0c0,0,0,0-.2,0h0c-.1-.2-.4-.3-.5-.5h0s0,0,0,0h0s0,0,0,0c0,0,0,0,0,0h0s0,0,0,0c0,0,.2.1.1,0h0s0,0,0,0h0c0,0,0,0-.1-.2,0,0,0,0,0,0h0s0,0,0,0h0s0,0,0,0c-.1-.1-.1-.2-.1-.2,0,0,0,0,0,0h0s0,0,.1.1h0s0,0,0,0c0,0,.1,0,.1,0h0c0,0,.2,0,.2,0h0s0,0,0,0c.2.1.2.3.1.3,0,0,0,0,0,0q.1.3.1.3M95.2,49.4h0s0,0,0,0h0s0,0,0,0c0,0,0,0,0,0,0,0,0,0,0,0,0,0,0,0,0,.2h0q0,0,0,0h0s0,0,.1,0h0s0,0,0,0c0,0,0,0,0,0h0s0,0,0,0h0s0,0,0,0h0s0,0,0,0c0,0,0,0,0,0h0s0,0,0,0q.1,0,.1,0h0s0,0,0,0h0c0,0,.1,0,.2,0h0s0,0,0,0c0,0,0,0,0,0,0,0,0,0,.1.1,0,0,0,0,0,0,0,0,0,0,.1,0h0c0,.1,0,.2,0,.3h0s0,0,0,0h0c0-.1.2-.4.2-.5,0,0,0,0,0,0h0s0,0,0-.1c0,0,0,0-.1,0h0c0,0-.4,0-.5,0-.1,0,0-.1-.2-.2,0,0,0,0,0,0h0s0,0,0,0h0s0,0,0,0h0s0,0,0,0ZM95.6,50.2s0,0,0,0h0c0-.1,0-.3,0-.3,0,0,0,0,0,0h0s0,0,0,0c0,0,0,0,0,0h0s0,0,0,0c0,0,0,0,0,0,0,0,0,0,0,0,0,0,0,0-.2,0h0s0,0,0,0c0,0,0,0,0,.1,0,0,0,0,0,0,0,0,0,0,0,0,0,0,0,0,0,0,0,0,0,0,0,0t0,0s0,0,0,.2c0,0,0,0,0,0h0ZM92.7,47.7h0c.2,0,.3,0,.3-.1h0s0,0,0,0c0,0,0,0,0,0h0c0,0,0,0,0,0,0,0,.1,0,.1,0h0c0,0-.3,0-.3,0h0q-.2,0-.2,0s0,0,0,0c0,0,0,0,.1,0h0s0,0,0,0c0,0,0,0,0,0h0s0,0,0,0c0,0,0,0-.1,0M96.7,59h0s0,0,0,0h0s0,.1,0,.1h0c0,0,0-.1,0-.2,0,0,0,0,0,0h0s0,0,0,0h0c0,0-.1,0-.3,0h0s0,0,0,0q0,0-.2.1s0,0,0,0h0c0,0,0,0,0,0h0c-.3.1-.3.2-.3.2h0s0,0,0,0h0c0-.3-.3-.5-.3-.5-.6-.2-1.2,0-1.9-.1h0s0,0,0,0c0,0-.2,0-.2,0q0,0-.4.2h0c-.1,0-.3,0-.4-.2h0s0,0,0,0c-.1.2.1.4,0,.5,0,0-.2-.3-.1-.4h0c-.3.2-.3.5-.5.8h0c0,0-.2,0-.4-.1h0s0,0,0,0c-.7.4-.8-.2-.8-.2q0-.4,0-.4c-.3-.1-.6.2-.8,0h0s0,0,0,0h0s0,0,0,0c0,0,0-.2,0-.4h0s0,0,0,0h0c0-.1,0-.3,0-.4q-.3,0-.5.5s0,0,0,0h0c-.2.1-.4.2-.5.2h0q-.6-.7-.5-1.5h0q.1-.1.8-.2h0s0,0,0,0c0,0,0,0,0-.1,0,0,0,0,0,0h0s0,0,0,0c0,0,0,0,0,0h0s0,0,0,0c.3-.1.8-.1.8-.1.3,0,.4.4.6.6,0-.2-.1-.3-.2-.5h0q-.2-.4.3-1s0,0,0,0h0q0-.1,0-.3h0s0,0,0,0c0,0,0,0,0,0,0,0,0,0,0,0h0s0,0,0,0c0,0,0,0,0,0,0-.2,0-.2,0-.3h0c.2-.2.2-.2.3-.3,0,0,0,0-.1,0h0s0,0,.3-.2q0-.3,0-.4h0c.1-.1.2-.2.2-.2h0s0,0,0,0h0c0,0,.2-.2.3-.2h0,0s0,0,0,0h0s0,0,0,0q-.2.2-.2.3s0,0,0,0c.2-.2.3-.3.4-.3,0,0,0-.2,0-.3h0q-.2.3-.5.2s0,0,0,0c0,0-.1,0-.2,0h0s0,0,0,0c.2-.1.2-.1.2-.2q-.1,0-.6.5h0c.1-.7,1-.7,1.2-1.3h0s0,0,0,0c0,0,0,0,0,0h0s0,0,0,0q-.2,0-.2,0h0s0,0,0,0q0,0-.3,0h0s0,0,0,0h0s0,0,0,0h0c0,0-.1,0-.2,0h0s0,0,0,0h0q0-.1-.4-.4c0,0,0,.2,0,.2h0c-.1,0-.1.1-.2.2h0s0,0,0,0c0,0,0,0-.1,0h0s0,0,0,0c0,0,0,0-.1,0h0s0,0,0,0c0,0,0,0,0,0-.1,0-.2,0-.4-.1h0s0,0,0,0q-.3,0-.3.1c0,.2,0,.3,0,.5h0c.2.2.2.4,0,.5q.2.4.1.5h0c-.3,0-.3,0-.4-.4h0c-.2,0-.4-.1-.7-.1h0s0,0,0,0q-.2,0-.2,0h0c0-.1,0-.1,0-.2h0s0,0,0,0q0,0,0-.2c0,0,0-.1,0-.2q.1-.1.1-.1h0s0,0,0,0h0s0,0,0,0h0s0,0,0,0c0,0,0,0,.1,0h0s0,0-.1,0h0c.1-.1.3-.1.4-.2-.1,0-.2,0-.2,0h0q.2,0,.3,0s0,0,0,0h0s.1,0,.1,0h0s0,0,0,0h0s0,0,0,0h0c0,0,0,0,0,0,0,0,0,0,0,0h0s0,0,0,0c0,0,0-.1.1-.2,0,0,0,0,0,0h0s0,0,0,0h0s0,0,0,0h0s0,0,0,0c0,0,0,0,0,0h0s0,0,0,0h0s0,0,0,0c0,0,0,0,0,0,.1,0,.1,0,.2,0,0,0,0,0,0,0,0,0,0,0,0,0h0c0,0,0,0,0,0,.3-.1.5.2.5.3q0,.1,0,.2t-.3.1c.2,0,.4,0,.6,0h0s0,0,0,0h0c.1,0,.3,0,.4,0t-.2,0s0,0,0,0h0q0,0,.4,0h0s0,0,0,0c0,0,0,0,0,0,0,0,0,0,0,0q-.3-.1-.3-.2s0,0-.1,0h0s0,0,0,0h0s0,0,0,0q0,0,.3,0h0s0,0,0-.1c0,0,0,0,0,0q-.5,0-.5,0h0s0,0,0-.1c0,0,0,0,0,0,0,0,0,0,0,0h0s0,0,0,0h0s0,0,0,0h0,0s0,0,0,0h0s0,0-.1,0h0s0,0,0,0q-.2,0-.6,0s0,0,0,0h0s0,0,0-.1c.1,0,.1,0,.3,0,0,0,0,0,0,0q0,0-.5.2s0,0,0,0c0,0,0,0,0,0h0s0,0,0,0c0,0,0,0-.1-.2,0,0,0,0,0,0h0c0,0,0,0,0,0,0,0-.3.2-.2.3,0,0,.1,0,.1,0h0s0,0,0,0c0,0-.1,0-.1,0,0,0,.2,0,.3,0,0,0,0,0,0,0h0q-.1.2-.1.2h0s0,0,0,0c0,0,0,.1,0,.1,0,0,0,0,0,0,0,0,0-.1,0-.2,0,0,0,0,0,0,0,0,0,0,0,.1h0s0,0,0,0c0,0,0,0,0-.1h0s0,0,0,0h0s0,0,0,0h0s0,0,0,0h0s0,0,0,0h0q0-.1-.1-.2h0s0,0,0,0h0q.1,0,.2-.2t-.2,0s0,0,0,0c0,0,0,0,0,0h0s0,0,0,0c0,0,0,.1,0,.2h0c0,0,0,0,0,0,0,0,0,0,0,0h0s0,0,0,0c0,0,0,0,0,0,0,0,.1,0,.2,0h0s0,0,0,0c0,0,0,0,0,0h0s0,0,0,0h0s0,0,0,0c0,0,0,0-.1.1,0,0,0,0,0,0,0,0,0,0,0,0h0c0,0,0,0,0-.1,0,0-.1,0-.1,0h0s0,0,0,0c0,0,0,0,0,0h0c-.3.1-.5,0-.5-.1h0s0,0,0,0c0,0,0,0,.1,0h0s-.1,0-.1.1c0,0,0,0,0,.1h0s0,0,0-.1q-.4,0-.4,0h0s0,0,0,0c0,0,0,0,0,0,0,0,0,0,0,0,0,0,0,0,0-.1,0,0-.1,0-.2,0h0s0,0,0,0h0s0,0,0-.1h0s0,0,0,0h0s-.1,0-.2,0c0,0,0,0,0,0,0,0-.1,0-.2,0h0s0,0,0,0h0s0,0,0,0h0s0,0,0,0h0c-.1,0-.2-.4-.2-.4h0s0,0,0,0h0s0,0,0,0h0s0,0,0,0h0s0,0,0,0c0,0,0,0,0,0,0,0,0,0,0,0,0,0,0,0,0,0-.1,0-.2,0-.3,0,0,0-.1.4-.1.4,0,0,0-.1,0-.2,0,0,0,0,0,.1h0c0,0,0,.1,0,.2h0s0,0,0,0h0s0,0,0,0c0,0,0,0-.2,0,0,0,0,0,0,0h0s0,0,0,0c0,0,0,.1,0,.2h0s0,0,0,0c0,.1,0,.2-.1.3,0,0,0,.1,0,.2,0,0,0,0,0,0h0s0,0,0,0h0s0,0,0,0h0c0,0-.1.1-.2.2,0,0-.1,0-.2,0h0,0c.1,0,.3,0,.4-.2h0c0,0,.1,0,.2-.1h0s0,0,0,0c0,0-.1,0-.2.1h0s0,0,0,0h0s0,0,0,0h0s0,0,0,0c0,0,.1,0,.2,0h0s0,0,0,0c0,0,0,0,0,0h0c0,.1.1.2.2.4h0s0,0,0,0h0c0,.1,0,.1,0,.2h0c0,0,0,0,0,0h0s0,0,0,0c0,0,0,.1,0,.1,0,0,0,0,0,0h0s0,0,0,.1c0,0,0,0,0,0h0c0,0,0,0,0,0h0s0,0,0,0q0,.2,0,.3h0s0,0,0,0h0q0-.2,0-.2c0,.3,0,.6,0,.9h0s0,0,0,0h0c0,.1,0,.2.1.4h0s0,0,0,0h0c0,0,0-.2,0-.3q0,0,.2.2h0c0,.1,0,.3-.1.4h0q0-.2,0-.3h0s0,0,0,0h0s0,0,0,0t0,0h0s0,0,0,0c0,.4-.2.7-.1,1.1,0,.4.4.7.5,1.1h0s0,0,0,0q.3.7.3.8.2.2.3.3c0,0,0,0,0,0q0,.1.2.3c0-.5-.7-.7-.5-1.2,0,0,1.2,1.3,1.1,1.6,0,0,0,.1,0,.1.7.4,2.1.6,2.4.6q0,.2.3.3s0,0,.1.1h0s0,0,0,0h0s0,0,0,0h0c0,0,0,0,0,0q0,0,.3.2h0c.2,0,.4,0,.5,0h0q0-.2,0-.2,0,0,.2,0h0q0,0,.3.4h0c.2.4-.4.8,0,1.1,0,0,0,0,0,0h0s0,0,0,0c0,0,0,0,0,0,0,0,0,0,0,0,0,.1,0,.2,0,.3,0,0,0,0,0,0h0s0,0,0,0h0c0,0,.2.1.3.2h0s.6.6,1.3.7c.6,0,.6,0,.6.1,0,.1.2.3.2.4l.4,1.1c0,.1.1,0,.2,0,0,0,0,0,.1.1,0,0,0,0,0,0h0s0,0,0,0c0,0,0,0,0,0h0s0,0,0,0h0s0,0,0,0c0,0,0,0,0,0h0s0,0,0,0h0s0,0,0,0c0,0,0,0,0,0h0s0,0,0,0h0s0,0,0,0c0,0,0,0,.1,0h0s0,0,0,0h0s0,0,0,0h0s0,0,0,0c0,0,0,0,.1,0h0s0,0,0,0c0,0,0,0,0,0,0,0,0,0,.1,0,0,0,0,0,0,0h0s0,0,0,0h0s0,0,0,0h0s-.1,0-.2,0c0,0,.1,0,.2,0h0c0,0,.1,0,.2,0h0s0,0,0,0h0s0,0,0,0c0,0,0,0,.1,0h0s0,0,0,0h0q0,0,.2,0c-.1,0-.2,0-.3,0h0s0,0,0,0c0,0,0,0-.1,0h0s0,0,0,0h0s0,0,.1,0h0s0,0-.3,0q.2-.1.2-.1h0s0,0,0,0q0,0,.1-.2c0,0-.1,0-.2,0,0,0,0-.1.2-.2,0,0,0,0,0,0h0s0,0,0,0h0s0,0,.1,0h0s0,0,0,0c0,0,0,0-.1,0,0,0,0,0,0,0q.2,0,.2,0s0,0,0-.1h0,0c.2,0,.5-.2.5-.4,0,0-.2,0-.3-.1.2,0,.2,0,.3,0h0c.2-.1.3-.4.4-.6h0s0,0,0,0h0s0,0,0,0c.2-.3.2-.7.5-.9h0s0,0,0,0h0s0,0,.4-.4h0q0-1.1.1-1.4c0-.2.2-.4.1-.6-.2-.5-1.1,0-1.3,0M102.3,55c0-.9,0-1-.2-1.6-.2-.9-.3-1-.5-1.6-.2-.3-.4-.8-.6-1.1h0s0,0,0,0c0-.1-.1-.2-.2-.2h0s0,0,0,0c-.1,0-.2-.2-.3-.2h0s0,0,0,0h0c-.1-.1-.2-.2-.4-.4h0s0,0,0,0c-.2-.2-.5-.2-.7-.4,0,.1,0,.2,0,.3q0,0-.2.1h0c0,.2.2.3.2.4,0,.2-.6.3-.6.3q0,0-.4-.3h0s0,0,0,0q-.4,1.1-.6,1.2c0,.2,0,.6,0,.6,0,.1.2.2.2.4,0,.4,0,.9.1,1.3,0,0,.5.9.7,1h0s0,0,0,0c0,0,0,0,0,0t.2,0h0c.3.3.5.4,1.1.4h0c0-.1,0-.3.2-.4h0q0,0,.2-.1h0c.1-.3,0-.6.3-.8,0,0,.1,0,.2,0h0c0,0,.2-.2.3-.3.1.2.2.5.2.5,0,.5.4.6.4.6h0c0,.5.2,1,.2,1.4,0,1,0,1.2,0,1.4.2-.7.2-.7.2-1.2,0-.9,0-1,0-1.6M89.1,51.7s0,0,0,0h0s0,0,0,.2c0,0,0,0,0,0,0,0,0,0,0,0,0,0,0,0,0,0h0s0,0,0,0h0c.1,0,.2,0,.3-.1h0c0,0,0,0-.1,0h0s0,0,0,0c0,0,0,0-.2-.1t0,0h0ZM91.1,57.8s.1,0,.4-.2h0c0,0-.2,0-.2,0h0c-.1,0-.2,0-.4,0,0,0,0,0,0,0h0c-.2,0-.3,0-.6,0-.3,0-.3.2-.3.3h0s0,0,0,0h0s0,0,.1-.1c0,0,.1-.1.2-.1h0s0,0,0,0c.2,0,.4,0,.6,0,.1,0,.2,0,.2,0h0s0,0,0,0M88.7,50q0,0,.1,0h0s0,0,0,0h0s0,0,0,0h0c0,0,0,0,0,0h0s0,0,0,0c0,0,0,0,0,0h0s0,0,0,0c0,0,0,0,0,0h0s0,0,0,0c0,0,.1,0,.1,0h0s0,0,0,0c0,0,0,0,0,0,0,0-.1,0-.2,0,0,0,0,0,0,0,0,0,0,0,0,0,0,0,0,0,0,0,0,0,0,0,0,0h0s0,0,0,0M87,50.9s0,.1,0,.1c0,0,0,0,0,0,0,0,0,0,.3-.2h0s0,0,0,0c0,0-.1,0-.2,0,0,0,0,0,0,0h0s0,0,0,0c0,0,0,0,0,0h0s0,0,0,0c0,0-.2.1-.2.2h0ZM87.6,50.6s0,0,0,0h0s0,0,0,0c0,0,0,0,0,0h0,0c0,0,0,0-.2,0,0,0,0,0,0,0,.1,0,.3,0,.4-.1h0c0,0,0,0-.1,0h0s0,0,0,0c0,0,0,0,0,0h0s0,0,0,0c0,0,0,0,0,0,0,0,0,0,0,0h0s0,0,0,0h0s0,0,0,0h0s0,0-.1,0c0,0,0,0,0,0,0,0,0,0,0,0,0,0,0,0,0,0h0s0,0,0,0c0,0,0,0,0,0,0,0,0,0,0,0M88.2,50.4h0s0,0,0,0h0s0,0,0,0ZM87.8,50.3h0s0,0,0,0c0,0,0,0,0,0,0,0,0,0,0,0h0ZM88.1,50.3s0,0,0,0h0s0,0,0,0h0s0,0,0,0ZM93.6,58h0s0,0,0,0h0s0,0,0,0h0ZM88.8,50.3h0s0,0,0,0h0s0,0,0,0h0s0,0,0,0c0,0,0,0,0,0M93,46.3h0s0,0,0,0ZM91.5,46.5h0s0,0,0,0c0,0,0,0,0,0h0s0,0,0,0h0s0,0,0,0M91.6,57.9s0,0,.1,0h0s0,0,0,0h0ZM97.5,53.1h0s0,0,0,0c0,0,0,0,0,0h0s0,0,0,0ZM97.4,53.3h0s0,0,0,0h0s0,0,0,0h0ZM95,49.1h0s0,0,0,0c0,0,0,0,0,0h0s0,0,0,0h0s0,0,0,0ZM95.6,49.7h0s0,0,0,0h0s0,0,0,0h0ZM95.1,49.2h0s0,0,0,0h0s0,0,0,0h0s0,0,0,0ZM95.1,49.6h0s0,0,0,0h0s0,0,0,0M97.8,50.5h0s0,0,0,0h0s0,0,0,0c0,0,0,0,0,0h0s0,0,0,0M99.4,49.3h0s0,0,0,0h0ZM102,57.8c0,0,0,.1,0,.2,0,0,0-.1,0-.2M100.9,50.6h0s0,0,0,0h0ZM95.5,64.2h0s0,0,0,0h0s0,0,0,0h0s0,0,0,0ZM91.1,59.7h0s0,0,0,0h0s0,0,0,0h0ZM89.6,51.8s0,0,0,0h0s0,0,0,0h0s0,0,0,0h0ZM89.7,51.1h0s0,0,0,0h0s0,0,0,0c0,0,0,0,0,0h0ZM90.3,57.8h0s0,0,0,0c0,0,0,0,0,0h0s0,0,0,0h0ZM89.9,51.2h0s0,0,0,0c0,0,0,0,0,0h0s0,0,0,0c0,0,0,0,0,0"/>
    </g>
  </g>
  <g>
    <path class="st9" d="M151.6,59.3c-.1-.3-.3-.5-.5-.7-.2-.2-.4-.3-.7-.4-.3-.1-.5-.2-.8-.2s-.6,0-.8.2c-.3.1-.5.3-.7.4-.2.2-.3.4-.5.7-.1.3-.2.5-.2.8s0,.6.2.8c.1.3.3.5.5.7.2.2.4.3.7.5.3.1.5.2.8.2s.6,0,.8-.2c.3-.1.5-.3.7-.5.2-.2.3-.4.5-.7.1-.3.2-.5.2-.8s0-.6-.2-.8"/>
    <path class="st9" d="M145.9,58.6c-.2-.2-.4-.3-.7-.4-.3-.1-.5-.2-.8-.2s-.6,0-.8.2c-.3.1-.5.3-.7.4-.2.2-.3.4-.5.7-.1.3-.2.5-.2.8s0,.6.2.8c.1.3.3.5.5.7.2.2.4.3.7.5.3.1.5.2.8.2s.6,0,.8-.2c.3-.1.5-.3.7-.5.2-.2.3-.4.5-.7.1-.3.2-.5.2-.8s0-.6-.2-.8c-.1-.3-.3-.5-.5-.7"/>
    <path class="st31" d="M129.1,52.4v-5.1c0-1.5-.3-2.7-1-3.3-.7-.7-1.7-1-2.9-1h-.2s0,0-.1,0h-3.1c-1.2,0-2.3,1-2.3,2.3s1,2.3,2.3,2.3h2.9v4.9s-1.1,0-1.1,0c0,0,0,0,0,0h-3.2c-1.3,0-2.3,1-2.3,2.3s1,2.3,2.3,2.3h14.5v-4.5h-5.7Z"/>
    <path class="st33" d="M166.2,36.7h0c-1.2,0-2.2,1-2.2,2.3v3.7s0,0,0,.1v9.6h-12.3v4.5h12.8c1.3,0,2.3-.3,3-1,.7-.7,1-1.8,1-3.3v-13.6c0-1.2-1-2.3-2.2-2.3"/>
    <path class="st9" d="M148.7,52.4v-7.9s0,0,0-.1v-.3c0-1.3-1-2.3-2.3-2.3s-2.3,1-2.3,2.3v4c0,0,0,.2,0,.3v4h-9.3v4.5h16.8v-4.5h-2.9Z"/>
    <path class="st6" d="M139.5,63.3s0,0-.1,0c0,0,0,0-.2,0h-.5c0,0-.1,0-.2,0,0,0,0,0-.1,0,0,0,0,0,0,.1,0,0,0,.1,0,.2v2.2h-16.8v-2.3c0,0,0-.1,0-.2,0,0,0,0,0-.1,0,0,0,0-.1,0,0,0-.1,0-.2,0h-.5c0,0-.1,0-.2,0,0,0,0,0-.1,0,0,0,0,0,0,.1,0,0,0,.1,0,.2v3.7c0,.1,0,.2,0,.3,0,0,0,.1-.2.2,0,0-.1,0-.2,0,0,0-.2,0-.2,0h-.1c-.1,0-.2,0-.3.1,0,0-.1.2-.1.3v.6c0,.1,0,.2.1.3,0,0,.2.1.3.1,0,0,.1,0,.2,0,0,0,.1,0,.2,0,.2,0,.5-.1.7-.2.2-.1.4-.2.5-.4.1-.2.3-.4.4-.6,0-.2.2-.5.2-.8h17c.4,0,.6-.1.8-.3.2-.2.3-.5.3-1v-2.4c0,0,0-.1,0-.2,0,0,0,0,0-.1"/>
    <path class="st6" d="M138.5,62.3c0,0,.1.1.2.2,0,0,.2,0,.3,0s.2,0,.3,0c0,0,.1,0,.2-.2,0,0,.1-.1.1-.2,0,0,0-.2,0-.3s0-.2,0-.3c0,0,0-.2-.1-.2,0,0-.1-.1-.2-.2,0,0-.2,0-.3,0s-.2,0-.3,0c0,0-.1,0-.2.2,0,0-.1.1-.1.2,0,0,0,.2,0,.3s0,.2,0,.3c0,0,0,.2.1.2"/>
    <path class="st6" d="M142.1,63.1h-.6c-.1,0-.2,0-.3.1,0,0-.1.2-.1.3v3.7c0,.1,0,.2,0,.3,0,0,0,.1-.2.2,0,0-.1,0-.2,0,0,0-.2,0-.2,0h-.1c0,0-.1,0-.2,0,0,0,0,0-.1,0,0,0,0,0,0,.1,0,0,0,.1,0,.2v.6c0,.1,0,.2.1.3,0,0,.2.1.3.1,0,0,.1,0,.2,0,0,0,.1,0,.2,0,.3,0,.5-.1.7-.3.2-.1.4-.3.6-.5.2-.2.3-.4.4-.7,0-.3.1-.6.1-.9v-3.3c0-.1,0-.2,0-.3,0,0-.1-.1-.3-.1"/>
    <path class="st6" d="M167.4,63.4c-.2-.2-.5-.3-.8-.3h-2.6c0-.1,0-.2.1-.3,0,0,.1-.1.2-.2,0,0,.2,0,.2,0,0,0,.2,0,.3,0,0,0,.2,0,.3,0,0,0,.2,0,.3,0s.1,0,.2,0c0,0,0,0,.1,0,0,0,0,0,0-.1,0,0,0-.1,0-.2v-.6c0-.1,0-.2-.1-.3,0,0-.2-.1-.3-.1-.4,0-.7,0-1,0-.3,0-.6.2-.8.4-.2.2-.4.4-.6.7-.1.3-.2.6-.3.9v1c0,0,0,.1,0,.2,0,0,0,0,0,.1,0,0,0,0,.1,0,0,0,.1,0,.2,0h3.3v1.3s-4,0-4,0h-16.3v-1.4c0-.2,0-.4,0-.6,0-.2-.1-.3-.2-.4,0-.1-.2-.2-.3-.2-.1,0-.3,0-.5,0h-.9c-.4,0-.6.1-.8.3-.2.2-.3.5-.3,1v1.5c0,.5,0,.8.3,1,.2.2.5.3.8.3h.8c0,.1,0,.2-.1.3,0,0-.1.1-.2.2,0,0-.2,0-.2,0,0,0-.2,0-.3,0,0,0-.2,0-.3,0,0,0-.2,0-.3,0s-.1,0-.1,0c0,0,0,0-.1,0,0,0,0,0,0,.1,0,0,0,.1,0,.2v.6c0,.1,0,.2.1.3,0,0,.2.1.3.1.4,0,.7,0,1,0,.3,0,.6-.2.8-.4.2-.2.4-.4.6-.7.1-.3.2-.6.3-1h21.2c0,0,.1,0,.2,0,0,0,0,0,.1,0,0,0,0,0,0-.1,0,0,0-.1,0-.2v-2.4c0-.5,0-.8-.3-1M144.8,65.8h-.5v-1.3h.5v1.3Z"/>
    <path class="st6" d="M120.1,71.5h-.7c-.4,0-.6.3-.6.7v.9h.3v-.9c0-.3.1-.5.3-.5h.2c0,0,0,.2,0,.3,0,.3.3.6.6.6s.6-.3.6-.6-.2-.6-.6-.6M120.1,72.5c-.2,0-.3-.2-.3-.3s.1-.3.3-.3.3.2.3.4-.1.3-.3.3"/>
    <rect class="st6" x="120.8" y="72.4" width=".3" height=".3"/>
    <path class="st6" d="M122.8,71.5h-.8c-.4,0-.6.3-.6.7v.9h.3v-.9c0-.3.1-.5.3-.5h.2c0,0,0,.2,0,.3,0,.3.2.6.6.6s.6-.3.6-.6-.2-.6-.6-.6M122.8,72.5c-.2,0-.3-.2-.3-.3s.1-.3.3-.3.3.2.3.4-.1.3-.3.3"/>
    <rect class="st6" x="123.5" y="72.4" width=".3" height=".3"/>
    <path class="st6" d="M124.9,71.5c0,0-.1,0-.2,0,0,0-.1,0-.3,0v.3c0,0,.2,0,.3,0,.3,0,.4.3.4.6h-1v.3h1.3v-.3c0-.5-.2-.7-.5-.9"/>
    <rect class="st6" x="124.6" y="71" width=".3" height=".3"/>
    <rect class="st6" x="125.6" y="72.4" width=".3" height=".3"/>
    <rect class="st6" x="128.1" y="71" width=".3" height=".3"/>
    <rect class="st6" x="128.3" y="70.5" width=".3" height=".3"/>
    <rect class="st6" x="128.6" y="71" width=".3" height=".3"/>
    <path class="st6" d="M129.1,72.1c0,.2,0,.3-.2.3h-.3s0-.2,0-.3v-.6h-.3v.6c0,.2,0,.3-.2.3h-.2c0,0,0-.1,0-.2v-.7h-.3v.7c0,.2,0,.3-.1.4-.1.1-.2.2-.4.2s-.3,0-.4-.2c0-.1-.1-.3-.1-.4v-.7h-.3v.7c0,.3,0,.5.3.7.2.2.4.3.6.3s.4,0,.6-.3c0,0,0-.1.1-.2h1.1c.1,0,.3,0,.3-.1.1-.1.2-.3.2-.5v-.6h-.3v.6Z"/>
    <path class="st6" d="M130.8,71.4c-.4,0-.6.3-.6.6s.3.7.6.7.6-.3.6-.6-.3-.7-.6-.7M130.8,72.4c-.2,0-.3-.2-.3-.4s.1-.4.3-.4.3.2.3.4-.1.4-.3.4"/>
    <rect class="st6" x="130.4" y="70.9" width=".3" height=".3"/>
    <rect class="st6" x="130.9" y="70.9" width=".3" height=".3"/>
    <path class="st6" d="M132,72.5c0,.3-.1.4-.4.4v.3c.5,0,.7-.2.7-.7v-1h-.3v1Z"/>
    <rect class="st6" x="134.1" y="73" width=".3" height=".3"/>
    <rect class="st6" x="135.8" y="71" width=".3" height=".3"/>
    <rect class="st6" x="135.3" y="71" width=".3" height=".3"/>
    <path class="st6" d="M138.1,71v1.1c0,0,0,.2,0,.2,0,0,0,0-.2,0h-.7c0,0,0-.2,0-.3v-1.1h-.3v1.1c0,0,0,.2,0,.2,0,0,0,0-.2,0h-.7c0,0,0-.2,0-.3v-.6h-.3v.6c0,0,0,.2,0,.2,0,0,0,0-.2,0h-.5c0-.4-.2-.6-.4-.8-.1,0-.3-.1-.5-.1s-.2,0-.4,0c-.1,0-.2.1-.3.2,0,.1.1.2.1.2,0,0,.1-.1.2-.2,0,0,.2,0,.2,0,.2,0,.3,0,.5.2,0,.1.1.3.1.4h-1.6c-.1,0-.2,0-.2,0,0,0,0-.1,0-.3v-1.1h-.3v1.2c0,.1,0,.3.1.3,0,0,.2.1.3.1h4.9c.3,0,.4-.2.4-.5v-1.2h-.3Z"/>
  </g>
  <g>
    <path class="st31" d="M58.2,37.7h-9.4c-1.1,0-2.1.9-2.1,2.1s.9,2.1,2.1,2.1h9.4c3.3,0,5.9,2.7,5.9,5.9s-2.7,5.9-5.9,5.9h-4.5v-5.9c0-1.1-.9-2.1-2.1-2.1s-2.1.9-2.1,2.1v10h8.6c5.6,0,10.1-4.5,10.1-10s-4.5-10-10.1-10"/>
    <path class="st10" d="M44.1,53.7h-6.9c-2.5,0-4.7-1.6-5.5-3.8h7.5c1.2,0,2.1-1,2.1-2.1s-.9-2.1-2.1-2.1h-7.5c.9-2.2,3-3.8,5.5-3.8h5.8c.6-1.5,1.4-2.9,2.4-4.1h0s-8.3,0-8.3,0c-5.5,0-10,4.5-10,10s4.5,10,10,10h10.6c-1.5-1.1-2.8-2.5-3.7-4.1"/>
    <path class="st33" d="M26.6,53.6h-6.9c-2.1,0-3.9-1.2-3.9-3.3v-10.6h0c0-1.1-.9-2-2.1-2s-2.1.9-2.1,2h0v10.6c0,4.4,3.6,7.5,8.1,7.5h11.5c-1.9-.9-3.5-2.4-4.6-4.2"/>
    <path class="st6" d="M18,67.4c0,.3-.2.6-.5.7-.4.2-.9.3-1.4.3-.9,0-1.7-.3-2.2-.9-.5-.6-.8-1.3-.8-2.2s.3-1.6.8-2.2c.6-.6,1.3-.9,2.2-.9s.8,0,1.2.2c.5.2.7.4.7.8s0,.2,0,.2c-.1.3-.3.4-.6.4s-.3,0-.6-.1c-.3,0-.5-.1-.6-.1-.8,0-1.3.4-1.5,1.1,0,.3-.1.5-.1.7,0,.5.1.9.4,1.2.2.4.6.5,1.2.5s.6,0,.8-.2c.2,0,.3-.1.4-.1.2,0,.3,0,.5.2.1.1.2.3.2.4"/>
    <path class="st6" d="M28.9,65.3c0,.9-.3,1.6-.8,2.2-.5.6-1.3.9-2.2.9s-1.7-.3-2.2-.9c-.5-.6-.8-1.3-.8-2.2s.3-1.7.8-2.2c.5-.6,1.3-.9,2.2-.9s1.7.3,2.2.9c.5.6.8,1.3.8,2.2M27.4,65.3c0-.5-.1-.9-.4-1.3-.3-.4-.7-.6-1.2-.6s-.9.2-1.2.6c-.2.3-.3.7-.3,1.3s.1.9.3,1.3c.3.4.7.6,1.2.6s.9-.2,1.2-.6c.2-.3.4-.7.4-1.3"/>
    <path class="st6" d="M38.3,67.8c0,.2,0,.4-.2.5-.2.1-.4.2-.6.2s-.4-.1-.5-.3l-1.7-2.2v1.7c0,.2,0,.4-.2.5-.1.1-.3.2-.5.2-.5,0-.7-.2-.7-.8v-4.7c0-.2,0-.4.2-.5.1-.1.3-.2.5-.2h1.6c.6,0,1.1.2,1.5.5.4.3.6.8.6,1.4s-.1.8-.4,1.1-.6.5-1,.6l1.3,1.3c.2.2.2.4.2.6M36.8,64.2c0-.2,0-.4-.2-.5-.1-.1-.3-.2-.5-.2h-.9v1.4h.9c.2,0,.4,0,.5-.2.2-.1.2-.3.2-.5"/>
    <path class="st6" d="M48.5,67.6c0,.2,0,.4-.2.5-.1.1-.3.2-.5.2s-.5-.1-.7-.4l-2.6-3.2v2.9c0,.2,0,.4-.2.5-.1.1-.3.2-.5.2s-.4,0-.5-.2c-.1-.1-.2-.3-.2-.5v-4.7c0-.2,0-.4.2-.5.1-.1.3-.2.5-.2s.3,0,.4.1c.1,0,.3.2.3.3l2.6,3.2h0v-2.9c0-.2,0-.4.2-.5.1-.1.3-.2.5-.2.5,0,.7.2.7.7v4.7Z"/>
    <path class="st6" d="M57,67.7c0,.4-.2.7-.7.7h-2.1c-.2,0-.4,0-.5-.2-.1-.1-.2-.3-.2-.5v-4.8c0-.2,0-.4.2-.5.1-.1.3-.2.5-.2h2.2c.4,0,.6.2.6.7s-.2.6-.6.6h-1.5v1.1h1.4c.2,0,.3,0,.5.2.1.1.2.3.2.5s0,.4-.2.5c-.1.1-.3.2-.5.2h-1.4v1.2h1.5c.5,0,.7.2.7.6"/>
    <path class="st6" d="M66.4,67.8c0,.2,0,.4-.2.5-.2.1-.4.2-.6.2s-.4-.1-.5-.3l-1.7-2.2v1.7c0,.2,0,.4-.2.5-.1.1-.3.2-.5.2-.5,0-.7-.2-.7-.8v-4.7c0-.2,0-.4.2-.5.1-.1.3-.2.5-.2h1.6c.6,0,1.1.2,1.5.5.4.3.6.8.6,1.4s-.1.8-.4,1.1c-.3.3-.6.5-1,.6l1.3,1.3c.2.2.2.4.2.6M64.9,64.2c0-.2,0-.4-.2-.5-.1-.1-.3-.2-.5-.2h-.9v1.4h.9c.2,0,.4,0,.5-.2.2-.1.2-.3.2-.5"/>
    <polygon class="st6" points="48.2 72.3 48.2 70.3 47.5 70.3 47.5 69.9 49.4 69.9 49.4 70.3 48.7 70.3 48.7 72.3 48.2 72.3"/>
    <path class="st6" d="M49.7,72.3v-2.3h1c.2,0,.4,0,.5,0,.1,0,.2.1.3.2,0,.1.1.2.1.4s0,.3-.2.4c-.1.1-.3.2-.5.2,0,0,.2.1.2.2,0,0,.2.2.3.4l.3.5h-.6l-.3-.5c-.1-.2-.2-.3-.2-.3,0,0,0,0-.1,0,0,0-.1,0-.2,0h0v1h-.5ZM50.2,70.9h.3c.2,0,.4,0,.4,0,0,0,.1,0,.1,0,0,0,0-.1,0-.2s0-.1,0-.2c0,0-.1,0-.2,0,0,0-.2,0-.3,0h-.4v.6Z"/>
    <path class="st6" d="M52,69.9h.9c.2,0,.3,0,.4,0,.1,0,.3.1.4.2,0,.1.2.2.2.4s0,.3,0,.5,0,.4,0,.5c0,.2-.1.3-.2.4,0,0-.2.1-.3.2-.1,0-.2,0-.4,0h-.9v-2.3ZM52.5,70.3v1.5h.3c.1,0,.2,0,.3,0,0,0,.1,0,.2,0,0,0,0-.1.1-.2,0-.1,0-.2,0-.4s0-.3,0-.4c0,0,0-.2-.1-.2,0,0-.1,0-.2-.1,0,0-.2,0-.4,0h-.2Z"/>
    <path class="st6" d="M55.4,71.4v-.4h1v.9c0,0-.2.2-.4.3-.2,0-.4.1-.6.1s-.5,0-.6-.2c-.2-.1-.3-.2-.4-.4,0-.2-.1-.4-.1-.6s0-.5.2-.6c.1-.2.2-.3.4-.4.1,0,.3-.1.6-.1s.5,0,.7.2c.2.1.3.3.3.5h-.5s0-.1-.2-.2c0,0-.2,0-.3,0-.2,0-.4,0-.5.2-.1.1-.2.3-.2.6s0,.5.2.6c.1.1.3.2.5.2s.2,0,.3,0c.1,0,.2,0,.3-.1v-.3h-.5Z"/>
    <rect class="st6" x="56.9" y="71.8" width=".4" height=".4"/>
    <polygon class="st6" points="58.7 72.3 58.7 70 59.2 70 59.2 71.9 60.3 71.9 60.3 72.3 58.7 72.3"/>
    <rect class="st6" x="60.7" y="71.8" width=".4" height=".4"/>
    <polygon class="st6" points="61.6 72.3 61.6 70 62.1 70 62.1 71.9 63.2 71.9 63.2 72.3 61.6 72.3"/>
    <rect class="st6" x="63.5" y="71.8" width=".4" height=".4"/>
    <path class="st6" d="M65.9,71.4h.5c0,.4-.2.6-.3.7-.2.1-.4.2-.6.2s-.6-.1-.8-.3c-.2-.2-.3-.5-.3-.9s.1-.7.3-.9c.2-.2.5-.3.8-.3s.5,0,.7.3c.1,0,.2.2.2.4h-.5s0-.1-.2-.2c0,0-.2-.1-.3-.1s-.3,0-.4.2c-.1.1-.2.3-.2.6s0,.5.2.6c.1.1.2.2.4.2s.2,0,.3-.1c0,0,.2-.2.2-.4"/>
  </g>
</svg>