<?xml version="1.0" encoding="UTF-8"?>
<svg id="Layer_1" xmlns="http://www.w3.org/2000/svg" version="1.1" viewBox="0 0 180 110">
  <!-- Generator: Adobe Illustrator 29.8.1, SVG Export Plug-In . SVG Version: 2.1.1 Build 2)  -->
  <defs>
    <style>
      .st0 {
        fill: #721c1f;
      }

      .st1 {
        fill: #1f2d5c;
      }

      .st2 {
        fill: #121617;
      }
    </style>
  </defs>
  <path class="st1" d="M27,45.8v-4.7c-3.5-2.5-10.1-2-13.6,1.3-4.5,4.3-4.6,14.5,1,18.3,4.2,2.5,8.4,2.9,12.6.3v-4.6c-6.5,4.7-12.3.2-12.4-5.4,0-8,7.8-9.1,12.4-5.2Z"/>
  <polygon class="st1" points="29.1 62.3 37.6 39.6 42.3 39.6 50.8 62.3 37.4 62.3 38.6 58.3 44.7 58.3 39.9 45.5 33.6 62.3 29.1 62.3"/>
  <rect class="st1" x="93" y="39.6" width="4.6" height="22.7"/>
  <rect class="st1" x="111.6" y="39.6" width="4.6" height="22.7"/>
  <rect class="st1" x="120.6" y="39.6" width="4.4" height="22.7"/>
  <path class="st1" d="M63.9,39.6h-10.2v22.7h4.6v-8h5.5c3.8,0,6.8-3.1,6.8-6.8v-1.1c0-3.8-3.1-6.8-6.8-6.8ZM66.1,47.5c0,1.6-1.3,2.9-2.9,2.9h-4.8v-6.8h4.8c1.6,0,2.9,1.3,2.9,2.9v1Z"/>
  <rect class="st1" x="96.3" y="58.3" width="11.9" height="4.1"/>
  <path class="st1" d="M125,39.6l10,14.4v-14.4h4.4v22.7h-3.2c-.2,0-.4-.1-.6-.3l-10.7-14.8v-7.7Z"/>
  <path class="st0" d="M73.8,44.4v-4.4c6.8-2.6,9.8,4.1,15.7-.5v4.7c-7,3.4-10.7-3.3-15.7.2Z"/>
  <path class="st0" d="M73.8,53.1v-4.4c6.8-2.6,9.8,4.1,15.7-.5v4.7c-7,3.4-10.7-3.3-15.7.2Z"/>
  <path class="st0" d="M73.8,61.8v-4.4c6.8-2.6,9.8,4.1,15.7-.5v4.7c-7,3.4-10.7-3.3-15.7.2Z"/>
  <path class="st0" d="M142.2,44.4v-4.4c6.8-2.6,9.8,4.1,15.7-.5v4.7c-7,3.4-10.7-3.3-15.7.2Z"/>
  <path class="st0" d="M142.2,53.1v-4.4c6.8-2.6,9.8,4.1,15.7-.5v4.7c-7,3.4-10.7-3.3-15.7.2Z"/>
  <path class="st0" d="M142.2,61.8v-4.4c6.8-2.6,9.8,4.1,15.7-.5v4.7c-7,3.4-10.7-3.3-15.7.2Z"/>
  <g>
    <path d="M17.6,70.5h-2.2v6h-.5v-6h-2.2v-.5h5v.5Z"/>
    <path d="M24.8,76.5h-.5v-3.1h-3.7v3.1h-.5v-6.4h.5v2.9h3.7v-2.9h.5v6.4Z"/>
    <path d="M31.4,73.4h-3v2.6h3.5v.5h-4v-6.4h4v.5h-3.4v2.4h3v.5Z"/>
    <path d="M42.7,74.5c0,.7-.3,1.2-.7,1.6-.4.4-1,.5-1.6.5s-.9-.1-1.3-.4c-.4-.2-.7-.6-.9-1-.2-.4-.3-.9-.3-1.5v-.8c0-.6.1-1.1.3-1.5.2-.4.5-.8.9-1s.8-.4,1.3-.4,1.2.2,1.6.6c.4.4.6.9.7,1.5h-.5c-.1-1.1-.7-1.6-1.8-1.6s-1,.2-1.4.7c-.3.4-.5,1-.5,1.8v.8c0,.7.2,1.3.5,1.8.3.4.8.7,1.4.7s1-.1,1.3-.4c.3-.3.5-.7.5-1.2h.5Z"/>
    <path d="M50.2,73.6c0,.6-.1,1.1-.3,1.6-.2.4-.5.8-.9,1-.4.2-.8.4-1.3.4-.8,0-1.4-.3-1.8-.8-.5-.5-.7-1.3-.7-2.2v-.7c0-.6.1-1.1.3-1.6.2-.5.5-.8.9-1,.4-.2.8-.4,1.3-.4s.9.1,1.3.4.7.6.9,1c.2.4.3.9.3,1.5v.8ZM49.6,72.9c0-.8-.2-1.4-.5-1.8-.4-.4-.8-.7-1.4-.7s-1.1.2-1.4.7c-.4.4-.5,1.1-.5,1.8v.7c0,.8.2,1.4.5,1.8.4.4.8.7,1.4.7s1.1-.2,1.4-.7c.3-.4.5-1.1.5-1.8v-.7Z"/>
    <path d="M57.7,76.5h-.5l-3.7-5.5v5.5h-.5v-6.4h.5l3.7,5.5v-5.5h.5v6.4Z"/>
    <path d="M65.6,76.5h-.5l-3.7-5.5v5.5h-.5v-6.4h.5l3.7,5.5v-5.5h.5v6.4Z"/>
    <path d="M72.2,73.4h-3v2.6h3.5v.5h-4v-6.4h4v.5h-3.4v2.4h3v.5Z"/>
    <path d="M79.8,74.5c0,.7-.3,1.2-.7,1.6-.4.4-1,.5-1.6.5s-.9-.1-1.3-.4c-.4-.2-.7-.6-.9-1-.2-.4-.3-.9-.3-1.5v-.8c0-.6.1-1.1.3-1.5.2-.4.5-.8.9-1s.8-.4,1.3-.4,1.2.2,1.6.6c.4.4.6.9.7,1.5h-.5c-.1-1.1-.7-1.6-1.8-1.6s-1,.2-1.4.7c-.3.4-.5,1-.5,1.8v.8c0,.7.2,1.3.5,1.8.3.4.8.7,1.4.7s1-.1,1.3-.4c.3-.3.5-.7.5-1.2h.5Z"/>
    <path d="M86.9,70.5h-2.2v6h-.5v-6h-2.2v-.5h5v.5Z"/>
    <path d="M90,76.5h-.5v-6.4h.5v6.4Z"/>
    <path d="M97.9,76.5h-.5l-3.7-5.5v5.5h-.5v-6.4h.5l3.7,5.5v-5.5h.5v6.4Z"/>
    <path d="M105.6,75.7c-.2.3-.5.5-.9.6-.4.2-.9.2-1.4.2s-1-.1-1.3-.4c-.4-.2-.7-.6-.9-1-.2-.4-.3-.9-.3-1.5v-.8c0-.9.2-1.6.7-2.1.5-.5,1.1-.8,1.8-.8s1.2.2,1.6.5c.4.3.6.8.7,1.4h-.5c0-.5-.3-.8-.6-1.1-.3-.2-.7-.4-1.2-.4s-1.1.2-1.4.6c-.4.4-.5,1-.5,1.8v.8c0,.5,0,.9.2,1.3.2.4.4.7.7.9.3.2.7.3,1.1.3s.9,0,1.2-.2c.2,0,.4-.2.5-.3v-1.7h-1.7v-.5h2.3v2.3Z"/>
    <path d="M116.8,74.5c0,.7-.3,1.2-.7,1.6-.4.4-1,.5-1.6.5s-.9-.1-1.3-.4c-.4-.2-.7-.6-.9-1-.2-.4-.3-.9-.3-1.5v-.8c0-.6.1-1.1.3-1.5.2-.4.5-.8.9-1s.8-.4,1.3-.4,1.2.2,1.6.6c.4.4.6.9.7,1.5h-.5c-.1-1.1-.7-1.6-1.8-1.6s-1,.2-1.4.7c-.3.4-.5,1-.5,1.8v.8c0,.7.2,1.3.5,1.8.3.4.8.7,1.4.7s1-.1,1.3-.4c.3-.3.5-.7.5-1.2h.5Z"/>
    <path d="M123,74.7h-2.9l-.7,1.8h-.6l2.4-6.4h.5l2.4,6.4h-.6l-.7-1.8ZM120.2,74.2h2.6l-1.3-3.5-1.3,3.5Z"/>
    <path d="M129,73.8h-1.9v2.7h-.5v-6.4h2.1c.7,0,1.2.2,1.6.5.4.3.6.8.6,1.4s-.1.8-.4,1.1c-.2.3-.6.5-1,.7l1.6,2.7h0c0,0-.6,0-.6,0l-1.6-2.7ZM127.1,73.3h1.7c.5,0,.8-.1,1.1-.4.3-.3.4-.6.4-1s-.1-.8-.4-1.1c-.3-.3-.7-.4-1.2-.4h-1.5v2.8Z"/>
    <path d="M136.2,73.8h-1.9v2.7h-.5v-6.4h2.1c.7,0,1.2.2,1.6.5.4.3.6.8.6,1.4s-.1.8-.4,1.1c-.2.3-.6.5-1,.7l1.6,2.7h0c0,0-.6,0-.6,0l-1.6-2.7ZM134.3,73.3h1.7c.5,0,.8-.1,1.1-.4.3-.3.4-.6.4-1s-.1-.8-.4-1.1c-.3-.3-.7-.4-1.2-.4h-1.5v2.8Z"/>
    <path d="M141.6,76.5h-.5v-6.4h.5v6.4Z"/>
    <path d="M148.3,73.4h-3v2.6h3.5v.5h-4v-6.4h4v.5h-3.4v2.4h3v.5Z"/>
    <path d="M153.7,73.8h-1.9v2.7h-.5v-6.4h2.1c.7,0,1.2.2,1.6.5.4.3.6.8.6,1.4s-.1.8-.4,1.1c-.2.3-.6.5-1,.7l1.6,2.7h0c0,0-.6,0-.6,0l-1.6-2.7ZM151.8,73.3h1.7c.5,0,.8-.1,1.1-.4.3-.3.4-.6.4-1s-.1-.8-.4-1.1c-.3-.3-.7-.4-1.2-.4h-1.5v2.8Z"/>
  </g>
  <path d="M165.1,36.2h-1.6v2.3h-.5v-5.5h1.8c.6,0,1,.1,1.4.4s.5.7.5,1.2-.1.7-.3.9c-.2.3-.5.5-.8.6l1.4,2.3h0s-.5,0-.5,0l-1.3-2.3ZM163.5,35.8h1.4c.4,0,.7-.1.9-.3s.4-.5.4-.9-.1-.7-.4-.9-.6-.3-1-.3h-1.3v2.4Z"/>
  <path d="M164.6,41c-2.9,0-5.3-2.4-5.3-5.3s2.4-5.3,5.3-5.3,5.3,2.4,5.3,5.3-2.4,5.3-5.3,5.3ZM164.6,30.8c-2.7,0-4.9,2.2-4.9,4.9s2.2,4.9,4.9,4.9,4.9-2.2,4.9-4.9-2.2-4.9-4.9-4.9Z"/>
  <rect class="st2" x="11.5" y="67.2" width="146" height=".1"/>
  <rect class="st2" x="11.5" y="79.5" width="146" height=".1"/>
</svg>