<?xml version="1.0" encoding="UTF-8"?>
<svg id="Layer_1" xmlns="http://www.w3.org/2000/svg" version="1.1" viewBox="0 0 180 110">
  <!-- Generator: Adobe Illustrator 29.8.1, SVG Export Plug-In . SVG Version: 2.1.1 Build 2)  -->
  <defs>
    <style>
      .st0 {
        fill: #d6a243;
      }
    </style>
  </defs>
  <g>
    <path class="st0" d="M118.3,23.1v50.3h50.3V23.1h-50.3ZM163.8,68.6h-40.7V28h40.7v40.7Z"/>
    <g>
      <polygon class="st0" points="161.8 53.5 155.1 46.8 142.5 59.4 149.3 66.1 161.8 53.5"/>
      <polygon class="st0" points="153.8 45.4 147.1 38.7 126.4 59.3 133.1 66 153.8 45.4"/>
      <polygon class="st0" points="145.6 37.2 138.9 30.5 126.2 43.2 132.8 49.8 145.6 37.2"/>
    </g>
  </g>
  <g>
    <path d="M75.9,35.5c0,3.2-2.2,5.5-5.4,5.5h-8.5c-4.9,0-7.3-2.3-7.3-6.8v-3.6h2.7v3.6c0,2.9,1.4,4,4.6,4h3.8c-.4-.9-.7-1.8-.7-2.8,0-3.2,2.2-5.5,5.4-5.5s5.4,2.5,5.4,5.6ZM73.2,35.5c0-1.8-1.1-3.2-2.7-3.2s-2.6,1.2-2.6,3.1,1.1,3.1,2.7,3.1,2.6-1.3,2.6-3ZM71.9,27.9h-2.6v-2.7h2.6v2.7Z"/>
    <path d="M84.5,30.1v8.7c0,4.3-1.9,6.1-6,6.1v-2.3c2.2,0,3.3-1.1,3.3-3.4v-9.1h2.7Z"/>
    <path d="M94.8,41h-3.1c-1.3,0-2.3-.4-3-1.2-.6-.8-1-1.8-1-3.1v-11.1h2.7v10c0,1.2.3,1.9.8,2.3.4.3,1.1.4,2.1.4h1.6v2.7Z"/>
    <path d="M107.3,41h-13.2v-2.7h3.5c-.4-.8-.5-1.6-.5-2.5,0-1.6.5-3,1.5-4.1,1-1.1,2.4-1.7,4-1.7s3.9,1.1,4.7,3.1l-2.3,1.1c-.4-1.2-1.2-1.8-2.5-1.8s-1.6.4-2,1.1c-.4.6-.6,1.4-.6,2.3s.3,1.9.9,2.6h6.7v2.7Z"/>
    <path d="M32.7,59.4v2.7c-2.9,0-3.8-.5-4.9-2.1-.8,3.7-4,6.1-7.9,6.1s-8.2-3.6-8.2-8.3v-2.7h2.7v2.4c0,3.7,2.2,6,5.6,6s5.5-2.1,5.5-4.5-.9-2.5-2.4-2.5-.3,0-.4,0v-2.4h1.1c2.1,0,3.7,1,4.7,2.8,1,1.8,1.9,2.5,3.3,2.5h1ZM19,71.4h-2.6v-2.7h2.6v2.7ZM23.5,71.4h-2.6v-2.7h2.6v2.7Z"/>
    <path d="M38.8,57.8c0,2.9-1.3,4.3-4,4.3h-2.8v-2.7h2.3c.9,0,1.4-.3,1.7-.8.1-.3.2-.9.2-1.7v-10.2h2.7v11.1Z"/>
    <path d="M49.9,62.1h-3.1c-1.3,0-2.3-.4-3-1.2-.6-.8-1-1.8-1-3.1v-11.1h2.7v10c0,1.2.3,1.9.8,2.3.4.3,1.1.4,2.1.4h1.6v2.7Z"/>
    <path d="M68.5,62.1h-19.5v-2.7h3.3c-.4-1-.6-1.8-.6-2.5,0-2.9,1.9-4.6,4.7-4.6s4.7,1.8,4.7,4.6-.2,1.5-.6,2.5h3.2c0-.3,0-.5,0-.7,0-4-2.5-7.6-5.9-8.3l.3-2.6c5.2,1.1,8.2,5.5,8.2,11.6h2.1v2.7ZM58.7,56.9c0-1.5-.9-2.5-2.2-2.5s-2.2,1.1-2.2,2.5.9,2.6,2.2,2.6,2.2-1.1,2.2-2.6Z"/>
    <path d="M78.9,62.1h-11v-2.7h2.5c.8,0,1.3-.3,1.6-.8.2-.4.3-1,.3-1.8v-5.5h2.7v5.4c0,1.4-.2,2.3-.6,2.8h4.6v2.7ZM74.9,49.1h-2.6v-2.7h2.6v2.7Z"/>
    <path d="M93.8,62.1h-3.4c-1,1.4-2.5,2.1-4.3,2.1s-3.3-.7-4.3-2.1h-3.7v-2.7h2.6c0-.3,0-.5,0-.8,0-1.6.5-2.9,1.5-3.9,1-1,2.3-1.6,3.9-1.6s2.9.5,3.9,1.6c1,1.1,1.5,2.4,1.5,4v.7h2.4v2.7ZM88.7,58.7c0-.8-.2-1.6-.6-2.2-.5-.6-1.2-1-2-1s-1.5.3-1.9,1c-.4.5-.6,1.3-.6,2.1,0,1.7,1.1,3.1,2.7,3.1s1.5-.3,1.9-.9c.4-.6.6-1.3.6-2.1Z"/>
    <path d="M99.8,57.8c0,2.9-1.3,4.3-4,4.3h-2.8v-2.7h2.3c.9,0,1.4-.3,1.7-.8.1-.3.2-.9.2-1.7v-10.2h2.7v11.1Z"/>
    <path d="M106.5,62.1h-2.7v-15.4h2.7v15.4Z"/>
  </g>
  <g>
    <path d="M18.2,84.6h-.6c-1.2,0-1.9-.5-2.3-1.6-.4.6-1,.8-1.8.8-1.2,0-2.1-1.1-2.1-2.6s.9-2.6,2.3-2.6h2.5v3.5c0,1.1.6,1.7,1.5,1.7h.5v.8ZM15.3,81.1v-1.9h-1.5c-.9,0-1.6.9-1.6,2s.6,2,1.6,2,1.5-.7,1.6-2.1ZM14,77.8h-.9v-.9h.9v.9ZM15.6,77.8h-.9v-.9h.9v.9Z"/>
    <path d="M22.1,84.6h-4.1v-.8h.8c.5,0,.9-.2,1-.4.1-.2.2-.6.2-1.1v-2.7h.8v3c0,.5,0,.9-.2,1.2h1.6v.8ZM19.2,86.3h-.9v-.9h.9v.9ZM20.8,86.3h-.9v-.9h.9v.9Z"/>
    <path d="M24.7,79.7v3c0,1.3-.6,1.9-1.8,1.9h-1v-.8h.8c.5,0,.9-.2,1-.5.1-.2.2-.5.2-1v-2.7h.8ZM24.7,78.9h-.9v-.9h.9v.9Z"/>
    <path d="M32.4,84.6h-1.7c-.2,1.1-1.1,1.7-2.4,1.8v-.7h.1c.8,0,1.3-.4,1.5-1.1h-1.3c-.7,0-1.2-.2-1.7-.7-.4-.5-.6-1.1-.6-1.8s.2-1.3.7-1.8c.5-.5,1-.7,1.7-.7,1.3,0,2.2.7,2.2,2.2v2h1.6v.8ZM30,83.9v-2.3c0-.3-.1-.6-.3-.8-.2-.3-.6-.4-1-.4s-.8.2-1.1.6c-.3.3-.4.7-.4,1.1s.1.8.3,1.2c.3.4.6.6,1.1.6h1.4Z"/>
    <path d="M35,79.7v3c0,1.3-.6,1.9-1.8,1.9h-1v-.8h.8c.5,0,.9-.2,1-.5.1-.2.2-.5.2-1v-2.7h.8ZM35,78.9h-.9v-.9h.9v.9Z"/>
    <path d="M39.5,84.6h-.9c-.4,0-.8-.1-1.1-.4-.3-.3-.5-.7-.5-1.3v-5.3h.9v4.9c0,.5,0,.9.2,1.1.1.2.4.3.7.3,0,0,.2,0,.8,0v.8Z"/>
    <path d="M47.2,84.6h-1.2c-.7,0-1.1,0-1.4,0-.4,0-.9-.3-1.4-.5-.5.3-1,.4-1.4.5-.3,0-.7,0-1.4,0h-1.2v-.8h1.9c.4,0,.9,0,1.2-.3-.5-.2-1-.6-1.3-1-.3-.4-.4-.9-.4-1.4s.2-1.1.7-1.6c.5-.5,1.1-.7,1.9-.7s1.5.2,1.9.7c.4.4.6,1,.6,1.6s-.1,1-.4,1.4c-.3.4-.7.8-1.3,1,.4.2.8.3,1.2.3h1.9v.8ZM43.2,83.1c.5-.2.9-.5,1.2-.9.3-.4.4-.7.4-1.1s-.1-.8-.4-1c-.3-.3-.7-.4-1.2-.4-1,0-1.7.7-1.7,1.5s.1.8.4,1.1c.3.4.7.7,1.3.9ZM42.8,78h-.9v-.9h.9v.9ZM44.4,78h-.9v-.9h.9v.9Z"/>
    <path d="M49.7,77.6v5.1c0,1.3-.6,1.9-1.8,1.9h-1v-.8h.8c.5,0,.9-.2,1-.5.1-.2.2-.5.2-1v-4.8h.8Z"/>
    <path d="M52.5,84.6h-.8v-7.1h.8v7.1Z"/>
    <path d="M67.1,79.7v3c0,1.3-.6,1.9-1.8,1.9h-3.7c-2.3,0-3.5-1.1-3.5-3.2v-1.8h.8v1.8c0,1.6.9,2.4,2.5,2.4h3.5c.9,0,1.2-.3,1.2-1.5v-2.7h.8ZM62.3,79.6h-.9v-.9h.9v.9ZM63.9,79.6h-.9v-.9h.9v.9Z"/>
    <path d="M69.8,84.6h-.8v-7.1h.8v7.1Z"/>
    <path d="M73.7,79.7v4c0,1.8-.8,2.6-2.5,2.7v-.7c1.1,0,1.7-.6,1.7-1.8v-4.2h.8Z"/>
    <path d="M78.3,84.6h-.9c-.4,0-.8-.1-1.1-.4-.3-.3-.5-.7-.5-1.3v-5.3h.9v4.9c0,.5,0,.9.2,1.1.1.2.4.3.7.3,0,0,.2,0,.8,0v.8Z"/>
    <path d="M89.4,84.6h-11.4v-.8h1.1c.8,0,1.3-.5,1.3-1.4v-2.8h.9v3c0,.4,0,.8-.2,1.1h0s1.6,0,1.6,0c.8,0,1-.3,1-1.5v-2.7h.8v3c0,.5,0,.9-.2,1.2h1.4c.9,0,1.2-.3,1.2-1.5v-2.7h.8v3c0,.5,0,.9-.2,1.2h1.9v.8ZM83.7,78.9h-.9v-.9h.9v.9ZM84.5,77.7h-.9v-.9h.9v.9ZM85.3,78.9h-.9v-.9h.9v.9Z"/>
    <path d="M93.3,84.6h-4.1v-.8h.8c.5,0,.9-.2,1-.4.1-.2.2-.6.2-1.1v-2.7h.8v3c0,.5,0,.9-.2,1.2h1.6v.8ZM90.4,78.9h-.9v-.9h.9v.9ZM92,78.9h-.9v-.9h.9v.9Z"/>
    <path d="M102.8,79.7v3c0,1.3-.6,1.9-1.8,1.9h-8v-.8h1.1c.8,0,1.2-.5,1.3-1.4v-2.8h.8v3c0,.4,0,.8-.2,1.1h0s1.6,0,1.6,0c.8,0,1-.3,1-1.5v-2.7h.8v3c0,.5,0,.9-.2,1.2h1.4c.9,0,1.2-.3,1.2-1.5v-2.7h.9Z"/>
    <path d="M106.1,85.8h-.5c0-.2-.2-.3-.5-.3s-.5.2-.5.6,0,.3.1.4h1.3v.4h-2.3v-.4h.5c0-.1,0-.2,0-.4,0-.3,0-.5.2-.7.2-.2.4-.3.8-.3.5,0,.8.2.9.7ZM109.6,77.6v5.1c0,1.3-.6,1.9-1.8,1.9h-3.5v-.8h2l-1.6-5.5h.9l1.5,5.5h.4c.5,0,.8-.2,1-.5.1-.2.2-.5.2-1v-4.8h.8Z"/>
    <path d="M112.4,84.6h-.8v-7.1h.8v7.1Z"/>
    <path d="M118.7,82.1v1.6c0,1.8-.8,2.6-2.5,2.7v-.7c1.1,0,1.7-.6,1.7-1.8-.3.4-.7.6-1.4.6-1.3,0-2.3-1-2.3-2.4s.9-2.4,2.3-2.4,2.3,1,2.3,2.4ZM117.8,82.1c0-1-.6-1.8-1.5-1.8s-1.4.8-1.4,1.7.6,1.7,1.5,1.7,1.4-.8,1.4-1.7Z"/>
    <path d="M129.4,82.1c0,.7-.2,1.3-.7,1.8-.5.5-1.1.7-1.9.7s-1.4-.2-1.9-.7c-.4-.4-.7-1-.7-1.8s.2-1.3.7-1.8c.5-.5,1.1-.7,1.9-.7s1.4.2,1.9.7c.4.5.6,1.1.6,1.8ZM128.4,82c0-.5-.1-.9-.3-1.3-.3-.4-.7-.5-1.2-.5s-1,.2-1.3.6c-.2.3-.4.8-.4,1.3s.1.9.4,1.3c.3.4.7.6,1.2.6,1.1,0,1.6-.7,1.6-2ZM126.5,78.9h-.9v-.9h.9v.9ZM128.1,78.9h-.9v-.9h.9v.9Z"/>
    <path d="M133.9,84.6h-.9c-.4,0-.8-.1-1.1-.4-.3-.3-.5-.7-.5-1.3v-5.3h.9v4.9c0,.5,0,.9.2,1.1.1.2.4.3.7.3,0,0,.2,0,.8,0v.8Z"/>
    <path d="M140.5,83.1c0,.7-.2,1.3-.6,1.7-.5.5-1.1.7-1.8.7s-1.6-.3-2.1-1h-2.3v-.8h2c0-.2-.1-.5-.1-.8,0-.7.2-1.3.7-1.8s1.1-.7,1.9-.7,1.4.2,1.9.7c.4.4.6,1,.6,1.8ZM139.5,83c0-.5-.1-.9-.3-1.2-.3-.4-.6-.5-1.2-.5s-1,.2-1.2.6c-.2.3-.3.7-.3,1.3s.1.9.3,1.2c.3.4.7.5,1.2.5,1,0,1.5-.6,1.5-1.9Z"/>
    <path d="M145.1,84.6h-.9c-.4,0-.8-.1-1.1-.4-.3-.3-.5-.7-.5-1.3v-5.3h.9v4.9c0,.5,0,.9.2,1.1.1.2.4.3.7.3,0,0,.2,0,.8,0v.8Z"/>
    <path d="M154.4,84.6h-9.6v-.8h7.3c0-.1,0-.3,0-.4,0-1.8-1.1-2.9-3-2.9s-1.8.4-2.3,1.1c-.1-.1-.4-.3-.7-.7.7-.8,1.7-1.2,3-1.2,2.4,0,4,1.4,4,3.7v.3h1.3v.8Z"/>
    <path d="M161.9,84.6h-1.8c-.5.6-1.1,1-2,1s-1.6-.3-2.1-1h-1.8v-.8h1.4c0-.2,0-.5,0-.8,0-.7.2-1.3.7-1.8.5-.5,1.1-.7,1.9-.7s1.4.2,1.9.7c.4.4.6,1,.6,1.8s0,.5-.1.8h1.5v.8ZM159.5,83c0-.5-.1-.9-.3-1.2-.3-.4-.6-.5-1.1-.5s-1,.2-1.2.6c-.2.3-.3.7-.3,1.3s.1.9.3,1.2c.3.4.7.5,1.2.5,1,0,1.5-.6,1.5-1.9Z"/>
    <path d="M165.8,84.6h-4.1v-.8h.8c.5,0,.9-.2,1-.4.1-.2.2-.6.2-1.1v-4.8h.8v5.1c0,.5,0,.9-.2,1.2h1.6v.8Z"/>
    <path d="M168.4,77.6v5.1c0,1.3-.6,1.9-1.8,1.9h-1v-.8h.8c.5,0,.9-.2,1-.5.1-.2.2-.5.2-1v-4.8h.8Z"/>
  </g>
</svg>