<?xml version="1.0" encoding="UTF-8"?>
<svg id="Layer_1" xmlns="http://www.w3.org/2000/svg" xmlns:xlink="http://www.w3.org/1999/xlink" version="1.1" viewBox="0 0 180 110">
  <!-- Generator: Adobe Illustrator 29.8.1, SVG Export Plug-In . SVG Version: 2.1.1 Build 2)  -->
  <defs>
    <style>
      .st0 {
        fill: url(#linear-gradient2);
      }

      .st1 {
        fill: url(#linear-gradient1);
      }

      .st2 {
        fill: url(#linear-gradient9);
      }

      .st3 {
        fill: url(#linear-gradient3);
      }

      .st4 {
        fill: url(#linear-gradient6);
      }

      .st5 {
        fill: url(#linear-gradient8);
      }

      .st6 {
        fill: url(#linear-gradient7);
      }

      .st7 {
        fill: url(#linear-gradient5);
      }

      .st8 {
        fill: url(#linear-gradient4);
      }

      .st9 {
        fill: url(#linear-gradient10);
      }

      .st10 {
        fill: url(#linear-gradient);
      }

      .st11 {
        fill: #3c2f2c;
      }
    </style>
    <linearGradient id="linear-gradient" x1="65" y1="104.6" x2="67.3" y2="40.1" gradientUnits="userSpaceOnUse">
      <stop offset="0" stop-color="#735b25"/>
      <stop offset=".5" stop-color="#baac7b"/>
      <stop offset="1" stop-color="#67593d"/>
    </linearGradient>
    <linearGradient id="linear-gradient1" x1="75.9" y1="104.9" x2="78.2" y2="40.4" xlink:href="#linear-gradient"/>
    <linearGradient id="linear-gradient2" x1="83.1" y1="105.2" x2="85.3" y2="40.7" xlink:href="#linear-gradient"/>
    <linearGradient id="linear-gradient3" x1="91.7" y1="105.5" x2="94" y2="41" xlink:href="#linear-gradient"/>
    <linearGradient id="linear-gradient4" x1="104.7" y1="105.9" x2="106.9" y2="41.4" xlink:href="#linear-gradient"/>
    <linearGradient id="linear-gradient5" x1="115.8" y1="106.3" x2="118.1" y2="41.8" xlink:href="#linear-gradient"/>
    <linearGradient id="linear-gradient6" x1="136.7" y1="107.1" x2="139" y2="42.6" xlink:href="#linear-gradient"/>
    <linearGradient id="linear-gradient7" x1="150.5" y1="107.5" x2="152.7" y2="43" xlink:href="#linear-gradient"/>
    <linearGradient id="linear-gradient8" x1="159.9" y1="107.9" x2="162.2" y2="43.4" xlink:href="#linear-gradient"/>
    <linearGradient id="linear-gradient9" x1="35.2" y1="27.8" x2="59.3" y2="58" xlink:href="#linear-gradient"/>
    <linearGradient id="linear-gradient10" x1="16.5" y1="42.7" x2="40.6" y2="72.9" xlink:href="#linear-gradient"/>
  </defs>
  <g>
    <path class="st10" d="M68.2,57.4h0c1.4-.6,2.3-1.7,2.3-3s-.4-1.9-1.1-2.4c-.8-.7-2-1-3.7-1s-2.4.1-3.2.3v13.2c.6,0,1.5.2,2.7.2,2.2,0,3.7-.4,4.6-1.3.7-.7,1.1-1.5,1.1-2.7,0-2-1.5-3.1-2.8-3.4ZM64.2,52.5c.3,0,.7-.1,1.5-.1,1.8,0,3,.6,3,2.2s-1.1,2.3-2.9,2.3h-1.6v-4.3ZM65.7,63.3c-.6,0-1.1,0-1.5,0v-5.1h1.4c1.9,0,3.5.8,3.5,2.6s-1.7,2.6-3.5,2.6Z"/>
    <path class="st1" d="M79,58.2h0c1.4-.5,2.5-1.7,2.5-3.5s-.4-2-1.1-2.6c-.8-.8-2-1.1-3.9-1.1s-2.5,0-3.3.3v13.3h1.7v-5.8h1.6c1.6,0,2.3.8,2.7,2.6.4,1.7.7,2.8.9,3.2h1.8c-.3-.5-.6-1.8-1-3.7-.3-1.4-.9-2.4-2-2.7ZM76.7,57.4h-1.8v-4.9c.3,0,.9-.2,1.7-.2,1.8,0,3.1.8,3.1,2.5s-1.2,2.6-3,2.6Z"/>
    <rect class="st0" x="83.9" y="51.1" width="1.7" height="13.4"/>
    <path class="st3" d="M94.3,58.9h2.7v4c-.4.2-1.2.4-2.3.4-3.1,0-5.2-2-5.2-5.4s2.1-5.4,5.4-5.4,2.3.3,3,.6l.4-1.4c-.6-.3-1.8-.6-3.4-.6-4.5,0-7.3,2.9-7.3,6.9,0,2.1.7,3.9,1.9,5,1.3,1.3,3,1.8,5,1.8s3.4-.5,4.1-.7v-6.5h-4.4v1.4Z"/>
    <polygon class="st8" points="109.6 56.7 103.1 56.7 103.1 51.1 101.3 51.1 101.3 64.6 103.1 64.6 103.1 58.3 109.6 58.3 109.6 64.6 111.3 64.6 111.3 51.1 109.6 51.1 109.6 56.7"/>
    <polygon class="st7" points="112.7 52.6 116.8 52.6 116.8 64.6 118.6 64.6 118.6 52.6 122.7 52.6 122.7 51.1 112.7 51.1 112.7 52.6"/>
    <path class="st4" d="M145.1,51.1l-1.8,6.8c-.4,1.7-.8,3.2-1.1,4.6h0c-.2-1.4-.6-3-.9-4.6l-1.6-6.8h-1.8l-1.8,6.8c-.5,1.7-.9,3.3-1.1,4.7h0c-.2-1.3-.6-3-1-4.6l-1.6-6.8h-1.8l3.4,13.4h1.8l1.9-7c.5-1.7.8-3.1,1-4.4h0c.2,1.4.5,2.7.9,4.4l1.7,7h1.8l3.8-13.4h-1.8Z"/>
    <path class="st6" d="M150.9,51.1l-4.6,13.4h1.8l1.4-4.2h4.8l1.4,4.2h1.9l-4.6-13.4h-2.1ZM149.9,59l1.3-3.9c.3-.8.5-1.6.7-2.4h0c.2.8.4,1.6.7,2.5l1.3,3.9h-4Z"/>
    <path class="st5" d="M165.2,51.1l-1.9,3.7c-.5,1-1,1.9-1.4,2.8h0c-.4-.9-.8-1.8-1.3-2.8l-1.9-3.7h-2l4.2,7.7v5.7h1.8v-5.7l4.5-7.7h-2Z"/>
  </g>
  <g>
    <path class="st11" d="M90.3,67.5c.6,0,1.3-.2,2.1-.2,1.4,0,2.4.3,3.1,1,.7.6,1.1,1.5,1.1,2.7s-.4,2.3-1.1,3c-.7.7-1.9,1.1-3.4,1.1s-1.3,0-1.8,0v-7.5ZM91.3,74.3c.3,0,.6,0,1,0,2.1,0,3.2-1.2,3.2-3.2,0-1.8-1-2.9-3.1-2.9s-.9,0-1.2.1v6Z"/>
    <path class="st11" d="M98.9,72.5c0,1.3.9,1.9,1.9,1.9s1.1-.1,1.5-.3l.2.7c-.4.2-1,.3-1.8.3-1.7,0-2.7-1.1-2.7-2.8s1-3,2.6-3,2.3,1.6,2.3,2.6,0,.4,0,.5h-3.8ZM101.8,71.8c0-.6-.3-1.6-1.4-1.6s-1.4.9-1.5,1.6h2.9Z"/>
    <path class="st11" d="M104.5,71.1c0-.6,0-1,0-1.5h.9v.9h0c.3-.5.9-1,1.8-1s1.9.5,1.9,2.3v3.3h-1v-3.2c0-.9-.3-1.6-1.3-1.6s-1.2.5-1.3,1c0,.1,0,.3,0,.5v3.3h-1v-4Z"/>
    <path class="st11" d="M112.4,68v1.6h1.4v.8h-1.4v3c0,.7.2,1.1.7,1.1s.5,0,.6,0v.7c-.1,0-.5.1-.8.1s-.8-.1-1.1-.4c-.3-.3-.4-.8-.4-1.4v-3h-.9v-.8h.9v-1.3l1-.3Z"/>
    <path class="st11" d="M118.5,75.1v-.7h-.1c-.3.4-.9.8-1.7.8-1.1,0-1.7-.8-1.7-1.6,0-1.3,1.2-2.1,3.3-2h0c0-.6-.1-1.4-1.2-1.4s-1,.2-1.4.4l-.2-.7c.5-.3,1.1-.5,1.8-.5,1.7,0,2.1,1.1,2.1,2.2v2.1c0,.5,0,.9,0,1.3h-.9ZM118.3,72.3c-1.1,0-2.3.2-2.3,1.2s.4,1,.9,1,1.2-.5,1.3-.9c0-.1,0-.2,0-.3v-1Z"/>
    <path class="st11" d="M121.4,67h1v8h-1v-8Z"/>
    <path class="st11" d="M132.8,74.8c-.4.2-1.1.4-2,.4-2.1,0-3.8-1.4-3.8-3.9s1.6-4,4-4,1.5.2,1.8.3l-.2.8c-.4-.2-.9-.3-1.5-.3-1.8,0-3,1.1-3,3.1s1.1,3.1,2.9,3.1,1.2-.1,1.6-.3l.2.8Z"/>
    <path class="st11" d="M134.5,67h1v8h-1v-8Z"/>
    <path class="st11" d="M138.7,68c0,.3-.2.6-.6.6s-.6-.3-.6-.6.3-.6.6-.6.6.3.6.6ZM137.6,75.1v-5.5h1v5.5h-1Z"/>
    <path class="st11" d="M140.7,71.1c0-.6,0-1,0-1.5h.9v.9h0c.3-.5.9-1,1.8-1s1.9.5,1.9,2.3v3.3h-1v-3.2c0-.9-.3-1.6-1.3-1.6s-1.2.5-1.3,1c0,.1,0,.3,0,.5v3.3h-1v-4Z"/>
    <path class="st11" d="M148.6,68c0,.3-.2.6-.6.6s-.6-.3-.6-.6.3-.6.6-.6.6.3.6.6ZM147.5,75.1v-5.5h1v5.5h-1Z"/>
    <path class="st11" d="M154.5,74.9c-.3.1-.8.3-1.6.3-1.7,0-2.7-1.1-2.7-2.8s1.2-2.9,2.9-2.9,1.1.1,1.4.3l-.2.8c-.2-.1-.6-.3-1.2-.3-1.3,0-1.9.9-1.9,2.1s.8,2.1,1.9,2.1.9-.1,1.2-.3l.2.7Z"/>
  </g>
  <path class="st11" d="M48.7,74.3s6-8.1,5.1-22.5c0,0,2-.9,5.1-3.6,0,0-3.3,18.4-10.3,26.1Z"/>
  <path class="st2" d="M46.6,56.2s7.8-4,13.8-9.1c6-5.1,4.2-8.9,4.2-8.9,0,0-.6-3.9-5.7-5.1-5.1-1.2-17.6,3.4-17.6,3.4l-15.7,7s27.1-13.7,35.2-4.8c0,0,2.7,3.7-2.8,8.9-5.5,5.1-11.6,8.6-11.6,8.6Z"/>
  <path class="st11" d="M53.7,50.8s4.6-3.7,5.3-4.7c0,0-1-5.3-6.3-5.2,0,0-1.7.1-3.7,1-2,.8-4.3,2.2-4.3,2.2,0,0-4,1.1-6.2-.4,0,0,.5,2.4,3.2,3,2.7.6,5.3-.4,5.3-.4,0,0,3.9-.9,5.3,1.1,1.4,1.9,1.4,3.5,1.4,3.5Z"/>
  <path class="st11" d="M36.7,77.2s1-5.2-1.8-9.2l3.1-1.2s1.1,6-1.3,10.4Z"/>
  <path class="st11" d="M39.9,74.6s-.5-9.1,5.8-8.9c6.3.2,2.1,7.9,2.1,7.9,0,0,2.3-5.8-2.5-5.7-4.9,0-5.3,6.7-5.3,6.7Z"/>
  <path class="st11" d="M34.5,67.2l3.2-1.4s-1.6-4.1-3.6-5.7c-2-1.6-5-5.5-5.1-6.7,0-1.2-.3-9.3,11.9-5.1,0,0-11.9-9.3-16,.2,0,0-1.7,5.4,2.4,10.5,0,0,7.3,7.5,7.1,8.3Z"/>
  <path class="st9" d="M23.4,50.8l-.2,1s-10.8,8.3-5.7,12.7c5.1,4.4,11.5,6.5,34.2-5.3,0,0-27.1,17.5-37.1,8.5-5.5-5,3.8-13.1,3.8-13.1l5-3.7Z"/>
</svg>