<?xml version="1.0" encoding="UTF-8"?>
<svg id="Layer_1" xmlns="http://www.w3.org/2000/svg" version="1.1" viewBox="0 0 180 110">
  <!-- Generator: Adobe Illustrator 29.8.1, SVG Export Plug-In . SVG Version: 2.1.1 Build 2)  -->
  <defs>
    <style>
      .st0 {
        fill: #8c181b;
      }

      .st1 {
        fill: #231f20;
      }

      .st2 {
        fill: #67696b;
      }
    </style>
  </defs>
  <rect class="st0" x="84.1" y="34.6" width="13.9" height="4.4" rx="1.4" ry="1.4"/>
  <path class="st1" d="M38.3,50.5c-1.6-1.6-4-2.7-7.1-3.2l-4.2-.7c-2.1-.4-3.7-1-4.7-2-1-.9-1.5-2.3-1.5-4s.7-3.5,2-4.6c1.3-1.1,3.2-1.7,5.6-1.7,4.3,0,6.7,1.8,7.4,5.5.1.7.8,1.3,1.6,1.3h1c.5,0,1-.2,1.3-.6.3-.4.4-.9.3-1.4-.6-2.6-1.7-4.6-3.5-6-2.1-1.7-4.8-2.5-8-2.5s-6.4.9-8.6,2.7c-2.2,1.8-3.3,4.4-3.3,7.6s.8,5,2.4,6.6c1.6,1.5,3.9,2.6,6.9,3.1l4.1.7c2.2.4,3.9,1.1,4.9,2,1.1,1,1.6,2.4,1.6,4.3s-.7,3.7-2,4.8c-1.4,1.1-3.4,1.7-6,1.7-4.7,0-7.4-1.9-8.2-5.8-.2-.8-.8-1.3-1.6-1.3h-1c-.5,0-.9.2-1.2.6-.3.4-.4.9-.3,1.4.5,2.7,1.7,4.8,3.4,6.4,2.1,1.8,5,2.7,8.7,2.7s7-.9,9.2-2.8c2.2-1.8,3.4-4.5,3.4-7.8s-.8-5.2-2.5-6.8Z"/>
  <path class="st1" d="M103.2,51.2c-.7-1.6-1.7-3.1-2.9-4.3-1.2-1.2-2.7-2.2-4.3-2.9-1.6-.7-3.4-1.1-5.3-1.1s-4.1.4-5.7,1.2c-1.6.8-3,1.8-4.1,3.1-.6.6-.7,1.2-.7,1.6,0,.5.2,1,.5,1.3.3.3.6.6.9.7h0c0,0,.2,0,.3,0,.1,0,.2,0,.3,0,.5,0,1-.2,1.5-.6h0c0,0,0-.2,0-.2.4-.5.8-.9,1.3-1.3.5-.4,1.1-.7,1.7-1,.6-.3,1.2-.5,1.9-.6,1.8-.4,3.7-.2,5.3.4,1,.4,2,1,2.8,1.7.8.7,1.4,1.6,1.9,2.6.3.7.6,1.4.7,2.1h-20.1c-.6,0-1.2.2-1.6.7-.4.4-.6.9-.6,1.5,0,1.8.4,3.6,1.1,5.2.7,1.6,1.7,3.1,2.9,4.3,1.2,1.2,2.6,2.2,4.3,2.9,1.6.7,3.4,1.1,5.3,1.1s3.6-.4,5.3-1.1c1.6-.7,3.1-1.7,4.3-2.9,1.2-1.2,2.2-2.7,2.9-4.3.7-1.6,1.1-3.4,1.1-5.3s-.4-3.6-1.1-5.3ZM81.8,58.3h17.8c-.1.8-.4,1.5-.7,2.2-.5,1-1.1,1.9-1.9,2.7-.8.8-1.7,1.4-2.8,1.8-1.1.4-2.2.6-3.4.6s-2.3-.2-3.4-.6c-1.1-.4-2-1-2.8-1.8-.8-.7-1.5-1.6-2-2.7-.3-.7-.6-1.4-.7-2.2Z"/>
  <path class="st1" d="M128.9,61.5c-.2.1-.5.3-.7.5-.8.8-1.8,1.4-2.8,1.8-1,.4-2.1.6-3.3.6s-2.4-.2-3.5-.7c-1.1-.5-2-1.2-2.8-2-.8-.8-1.4-1.8-1.9-2.9-.5-1.1-.7-2.2-.7-3.4s0,0,0-.1c0,0,0,0,0-.1,0-1.2.2-2.4.7-3.5.5-1.1,1.1-2.1,1.9-2.9.8-.8,1.8-1.5,2.8-2,1.1-.5,2.2-.7,3.4-.7s2.2.2,3.2.6c1,.4,1.9.9,2.8,1.7.2.2.4.3.7.5.8.4,1.8.3,2.5-.3.5-.4.8-1,.8-1.6s-.1-1.1-.7-1.6c-1.1-1.2-2.5-2-4.1-2.6-1.6-.6-3.2-.9-5-.9s-3.6.4-5.2,1.1c-1.6.7-3,1.7-4.2,2.9-1.2,1.2-2.2,2.6-2.9,4.2-.7,1.6-1.1,3.4-1.1,5.2s0,0,0,.1v.2c0,1.8.3,3.6,1,5.2.7,1.6,1.7,3,2.9,4.2,1.2,1.2,2.6,2.2,4.2,2.9,1.6.7,3.4,1.1,5.2,1.1s3.4-.3,5-.9c1.6-.6,3-1.5,4.1-2.7.6-.6.7-1.2.7-1.7,0-.6-.2-1.2-.7-1.6-.7-.7-1.7-.8-2.5-.3Z"/>
  <path class="st1" d="M162.8,49.9c-.7-1.6-1.7-3.1-2.9-4.3-1.2-1.2-2.6-2.2-4.3-2.9-1.6-.7-3.4-1.1-5.3-1.1s-3.6.4-5.3,1.1c-1.6.7-3.1,1.7-4.3,2.9-1.2,1.2-2.2,2.7-2.9,4.3-.7,1.6-1.1,3.4-1.1,5.3s.4,3.6,1.1,5.3c.7,1.6,1.7,3.1,2.9,4.3,1.2,1.2,2.7,2.2,4.3,2.9,1.6.7,3.4,1.1,5.3,1.1s4.1-.4,5.7-1.2c1.6-.8,3-1.8,4.1-3.1.6-.6.7-1.2.7-1.6,0-.5-.2-1-.5-1.3-.3-.3-.6-.6-.9-.7h0c0,0-.2,0-.3,0-.1,0-.2,0-.3,0-.5,0-1,.2-1.5.6h0c0,0,0,.2,0,.2-.4.5-.8.9-1.3,1.3-.5.4-1.1.7-1.7,1-.6.3-1.2.5-1.9.6-1.8.4-3.7.2-5.3-.4-1-.4-2-1-2.8-1.7-.8-.7-1.4-1.6-1.9-2.6-.3-.7-.6-1.4-.7-2.1h20.1c.6,0,1.2-.2,1.6-.7.4-.4.6-.9.6-1.5,0-1.8-.4-3.6-1.1-5.2ZM142.2,51.1c.5-1,1.1-1.9,1.9-2.7.8-.8,1.7-1.4,2.8-1.8,1.1-.4,2.2-.6,3.4-.6s2.3.2,3.4.6c1.1.4,2,1,2.8,1.8.8.7,1.5,1.6,2,2.7.3.7.6,1.4.7,2.2h-17.8c.1-.8.4-1.5.7-2.2Z"/>
  <path class="st1" d="M71.5,49.9c-.7-1.6-1.7-3.1-2.9-4.3-1.2-1.2-2.7-2.2-4.3-2.9-1.6-.7-3.4-1.1-5.3-1.1s-3.6.4-5.3,1.1c-1.6.7-3.1,1.7-4.3,2.9-1.2,1.2-2.2,2.7-2.9,4.3-.7,1.6-1.1,3.4-1.1,5.3v19.7c0,.6.2,1.2.7,1.6s1,.6,1.6.6,1.2-.2,1.6-.7c.4-.4.6-.9.6-1.5v-19.8c0-1.3.2-2.5.7-3.6.5-1.1,1.1-2.1,2-2.9.8-.8,1.8-1.5,2.9-2,1.1-.5,2.3-.7,3.6-.7s2.5.2,3.6.7c1.1.5,2.1,1.1,2.9,2,.8.8,1.5,1.8,1.9,2.9.5,1.1.7,2.3.7,3.6s-.2,2.4-.7,3.5c-.5,1.1-1.1,2.1-1.9,2.9-.8.8-1.8,1.5-2.9,2-1.1.5-2.3.7-3.6.7s-2.5-.2-3.6-.7c-1.1-.5-2.1-1.2-2.9-2,0,0,0,0,0,0-.9-.9-2.5-.4-2.7.9l-.2,1.5c0,.6.1,1.2.6,1.5.8.6,1.8,1.3,2.5,1.7.9.5,2,.9,3,1.2,1.1.3,2.2.4,3.3.4,1.9,0,3.6-.4,5.3-1.1,1.6-.7,3.1-1.7,4.3-2.9,1.2-1.2,2.2-2.7,2.9-4.3.7-1.6,1.1-3.4,1.1-5.2s-.4-3.6-1.1-5.3Z"/>
  <g>
    <path class="st2" d="M55.5,79.4h-1v-7.8h1v7.8Z"/>
    <path class="st2" d="M58.3,73.6v.7c.5-.6,1.1-.8,1.8-.8,1.2,0,1.8.7,1.9,2.1v3.8h-1v-3.8c0-.4,0-.7-.3-.9-.2-.2-.5-.3-.9-.3s-.6,0-.8.3-.4.4-.6.7v4.1h-1v-5.8h.9Z"/>
    <path class="st2" d="M65,72.2v1.4h1.1v.8h-1.1v3.6c0,.2,0,.4.1.5s.3.2.5.2.3,0,.5,0v.8c-.3,0-.5.1-.8.1-.4,0-.8-.1-1-.4-.2-.3-.3-.6-.3-1.1v-3.6h-1.1v-.8h1.1v-1.4h1Z"/>
    <path class="st2" d="M69.9,79.5c-.8,0-1.4-.3-1.9-.8-.5-.5-.7-1.2-.7-2.1v-.2c0-.6.1-1.1.3-1.5.2-.5.5-.8.9-1.1.4-.3.8-.4,1.3-.4.8,0,1.3.2,1.8.7.4.5.6,1.2.6,2.1v.4h-3.9c0,.6.2,1,.5,1.4.3.4.7.5,1.2.5s.6,0,.9-.2c.2-.1.5-.3.6-.6l.6.5c-.5.7-1.2,1.1-2.2,1.1ZM69.8,74.3c-.4,0-.7.1-1,.4-.3.3-.4.7-.5,1.2h2.9c0-.6-.2-1-.4-1.2-.2-.3-.6-.4-1-.4Z"/>
    <path class="st2" d="M76.3,74.5c-.2,0-.3,0-.5,0-.7,0-1.1.3-1.3.8v4.1h-1v-5.8h1v.7c.3-.5.8-.8,1.4-.8s.3,0,.4,0v.9Z"/>
    <path class="st2" d="M77.5,72.1c0-.2,0-.3.1-.4s.2-.2.4-.2.3,0,.4.2.2.2.2.4,0,.3-.2.4-.2.2-.4.2-.3,0-.4-.2-.1-.2-.1-.4ZM78.5,79.4h-1v-5.8h1v5.8Z"/>
    <path class="st2" d="M80.1,76.4c0-.6.1-1.1.3-1.5.2-.5.5-.8.9-1.1.4-.2.9-.4,1.4-.4.8,0,1.4.3,1.9.8.5.5.7,1.3.7,2.2h0c0,.6-.1,1.1-.3,1.6-.2.4-.5.8-.9,1-.4.3-.9.4-1.4.4-.8,0-1.4-.3-1.9-.8-.5-.5-.7-1.3-.7-2.2h0ZM81.1,76.6c0,.6.1,1.2.4,1.5s.7.6,1.2.6.9-.2,1.2-.6c.3-.4.4-.9.4-1.7s-.2-1.2-.5-1.5c-.3-.4-.7-.6-1.2-.6s-.9.2-1.2.6-.5.9-.5,1.7Z"/>
    <path class="st2" d="M89.6,74.5c-.2,0-.3,0-.5,0-.7,0-1.1.3-1.3.8v4.1h-1v-5.8h1v.7c.3-.5.8-.8,1.4-.8s.3,0,.4,0v.9Z"/>
    <path class="st2" d="M94.1,77.9c0-.3-.1-.5-.3-.6-.2-.1-.6-.3-1.1-.4s-.9-.2-1.2-.4c-.3-.2-.5-.3-.7-.5-.1-.2-.2-.5-.2-.7,0-.5.2-.9.6-1.2.4-.3.9-.5,1.5-.5s1.2.2,1.6.5c.4.3.6.8.6,1.3h-1c0-.3-.1-.5-.3-.7-.2-.2-.5-.3-.9-.3s-.6,0-.8.2-.3.4-.3.6,0,.4.3.5.5.2,1,.3c.5.1.9.2,1.2.4.3.2.5.3.7.6.1.2.2.5.2.8,0,.5-.2.9-.6,1.2-.4.3-1,.5-1.6.5s-.9,0-1.2-.2-.6-.4-.8-.7c-.2-.3-.3-.6-.3-1h1c0,.3.2.6.4.8.2.2.6.3,1,.3s.7,0,.9-.2c.2-.2.3-.4.3-.6Z"/>
    <path class="st2" d="M99.4,77.3c0-.4.1-.7.3-1,.2-.3.6-.7,1.2-1.1-.3-.4-.6-.8-.7-1s-.2-.5-.2-.8c0-.6.2-1.1.5-1.4s.8-.5,1.4-.5,1,.2,1.3.5c.4.3.5.7.5,1.2s0,.6-.2.9c-.2.3-.4.5-.8.8l-.6.4,1.7,2.1c.2-.5.4-1,.4-1.5h.9c0,.9-.2,1.7-.7,2.3l1.1,1.3h-1.2l-.5-.6c-.3.2-.6.4-.9.5-.4.1-.7.2-1.1.2-.8,0-1.4-.2-1.8-.6s-.7-.9-.7-1.6ZM101.9,78.7c.5,0,1-.2,1.4-.6l-1.9-2.3h-.2c-.6.6-.9,1-.9,1.5s.1.8.4,1c.3.3.6.4,1.1.4ZM101,73.3c0,.3.2.8.6,1.3l.6-.4c.2-.2.4-.3.5-.5,0-.2.1-.3.1-.6s0-.4-.3-.6c-.2-.2-.4-.2-.7-.2s-.5,0-.7.3c-.2.2-.3.4-.3.8Z"/>
    <path class="st2" d="M114.1,75.8h-3.4v2.8h3.9v.8h-5v-7.8h4.9v.8h-3.9v2.5h3.4v.8Z"/>
    <path class="st2" d="M118,75.7l1.3-2.1h1.2l-1.9,2.9,2,2.9h-1.1l-1.3-2.2-1.3,2.2h-1.2l2-2.9-1.9-2.9h1.1l1.3,2.1Z"/>
    <path class="st2" d="M122.7,74.3c.4-.5,1-.8,1.7-.8,1.2,0,1.8.7,1.9,2.1v3.8h-1v-3.8c0-.4,0-.7-.3-.9-.2-.2-.5-.3-.9-.3s-.6,0-.8.3-.4.4-.6.7v4.1h-1v-8.2h1v3.1Z"/>
    <path class="st2" d="M128,72.1c0-.2,0-.3.1-.4s.2-.2.4-.2.3,0,.4.2.2.2.2.4,0,.3-.2.4-.2.2-.4.2-.3,0-.4-.2-.1-.2-.1-.4ZM129,79.4h-1v-5.8h1v5.8Z"/>
    <path class="st2" d="M135.7,76.6c0,.9-.2,1.6-.6,2.1-.4.5-1,.8-1.6.8s-1.3-.3-1.7-.8v.7h-1v-8.2h1v3.1c.4-.5,1-.7,1.7-.7s1.3.3,1.7.8c.4.5.6,1.3.6,2.2h0ZM134.8,76.4c0-.7-.1-1.2-.4-1.6s-.6-.6-1.1-.6-1.1.3-1.4.9v2.5c.3.6.8.9,1.4.9s.8-.2,1.1-.6.4-.9.4-1.7Z"/>
    <path class="st2" d="M137.2,72.1c0-.2,0-.3.1-.4s.2-.2.4-.2.3,0,.4.2.2.2.2.4,0,.3-.2.4-.2.2-.4.2-.3,0-.4-.2-.1-.2-.1-.4ZM138.3,79.4h-1v-5.8h1v5.8Z"/>
    <path class="st2" d="M141.4,72.2v1.4h1.1v.8h-1.1v3.6c0,.2,0,.4.1.5s.3.2.5.2.3,0,.5,0v.8c-.3,0-.5.1-.8.1-.4,0-.8-.1-1-.4-.2-.3-.3-.6-.3-1.1v-3.6h-1.1v-.8h1.1v-1.4h1Z"/>
    <path class="st2" d="M143.9,72.1c0-.2,0-.3.1-.4s.2-.2.4-.2.3,0,.4.2.2.2.2.4,0,.3-.2.4-.2.2-.4.2-.3,0-.4-.2-.1-.2-.1-.4ZM145,79.4h-1v-5.8h1v5.8Z"/>
    <path class="st2" d="M146.5,76.4c0-.6.1-1.1.3-1.5.2-.5.5-.8.9-1.1.4-.2.9-.4,1.4-.4.8,0,1.4.3,1.9.8.5.5.7,1.3.7,2.2h0c0,.6-.1,1.1-.3,1.6-.2.4-.5.8-.9,1-.4.3-.9.4-1.4.4-.8,0-1.4-.3-1.9-.8-.5-.5-.7-1.3-.7-2.2h0ZM147.5,76.6c0,.6.1,1.2.4,1.5.3.4.7.6,1.2.6s.9-.2,1.2-.6c.3-.4.4-.9.4-1.7s-.2-1.2-.5-1.5c-.3-.4-.7-.6-1.2-.6s-.9.2-1.2.6-.5.9-.5,1.7Z"/>
    <path class="st2" d="M154.2,73.6v.7c.5-.6,1.1-.8,1.8-.8,1.2,0,1.8.7,1.9,2.1v3.8h-1v-3.8c0-.4,0-.7-.3-.9-.2-.2-.5-.3-.9-.3s-.6,0-.8.3-.4.4-.6.7v4.1h-1v-5.8h.9Z"/>
    <path class="st2" d="M162.9,77.9c0-.3-.1-.5-.3-.6-.2-.1-.6-.3-1.1-.4-.5-.1-.9-.2-1.2-.4-.3-.2-.5-.3-.7-.5-.1-.2-.2-.5-.2-.7,0-.5.2-.9.6-1.2.4-.3.9-.5,1.5-.5s1.2.2,1.6.5c.4.3.6.8.6,1.3h-1c0-.3-.1-.5-.3-.7-.2-.2-.5-.3-.9-.3s-.6,0-.8.2-.3.4-.3.6,0,.4.3.5.5.2,1,.3c.5.1.9.2,1.2.4.3.2.5.3.7.6.1.2.2.5.2.8,0,.5-.2.9-.6,1.2-.4.3-1,.5-1.6.5s-.9,0-1.2-.2-.6-.4-.8-.7c-.2-.3-.3-.6-.3-1h1c0,.3.2.6.4.8.2.2.6.3,1,.3s.7,0,.9-.2c.2-.2.3-.4.3-.6Z"/>
  </g>
</svg>