<?xml version="1.0" encoding="UTF-8"?>
<svg id="Layer_1" xmlns="http://www.w3.org/2000/svg" version="1.1" viewBox="0 0 180 110">
  <!-- Generator: Adobe Illustrator 29.8.1, SVG Export Plug-In . SVG Version: 2.1.1 Build 2)  -->
  <defs>
    <style>
      .st0 {
        fill: #d11242;
      }
    </style>
  </defs>
  <path class="st0" d="M38.9,69.7h3.6c.7,0,1.5.2,2.1.7.4.4.6.8.5,1.3h0c0,.8-.4,1.5-1.2,1.7.9.1,1.6,1,1.6,2h0c0,1.5-1.2,2.2-3,2.2h-3.7v-7.9ZM43.7,71.9c0-.7-.5-1-1.4-1h-1.9v2.1h1.9c.9,0,1.4-.3,1.4-1.1h0ZM42.5,74.2h-2.2v2.2h2.4c.9,0,1.5-.4,1.5-1.1h0c0-.7-.6-1-1.7-1.1h0ZM63.6,69.7h1.5l1.9,5.9,2-5.9h1.2l2,5.9,1.9-5.9h1.5l-2.8,8h-1.2l-2-5.7-2,5.7h-1.2l-2.8-8ZM81.5,74.6l-3.2-4.9h1.7l2.3,3.6,2.3-3.6h1.6l-3.2,4.8v3.2h-1.5v-3.1h0ZM51.2,74.6l-3.2-4.9h1.7l2.3,3.6,2.3-3.6h1.6l-3.2,4.8v3.2h-1.5v-3.1h0ZM89.6,69.7h1.3l4.3,5.5v-5.5h1.4v8h-1.2l-4.4-5.7v5.7h-1.4v-8ZM101.1,69.7h3c2.2-.1,4.1,1.5,4.2,3.7v.3h0c0,2.2-1.8,4-4,4h-3.3v-8h0ZM102.5,70.9v5.5h1.6c1.5,0,2.7-.9,2.8-2.4v-.3h0c0-1.5-1.1-2.7-2.5-2.7h-1.8ZM111.9,69.7h1.4v3.3h3.9v-3.3h1.4v8h-1.5v-3.3h-3.8v3.3h-1.5v-8ZM125.1,69.7h1.4l3.5,8h-1.5l-.8-2h-3.8l-.8,2h-1.5l3.4-8ZM127.2,74.5l-1.4-3.1-1.4,3.2h2.8ZM133.2,69.7h1.5l2.4,3.8,2.4-3.8h1.5v8h-1.4v-5.7l-2.5,3.8h0l-2.5-3.8v5.7h-1.4v-7.9ZM168.2,38.6c1,0,1.8.8,1.8,1.8s-.8,1.8-1.8,1.8-1.8-.8-1.8-1.8h0c0-1,.8-1.8,1.8-1.8h0ZM168.2,38.9c-.9,0-1.5.7-1.6,1.5,0,.8.7,1.5,1.5,1.6.9,0,1.5-.7,1.6-1.5h0c0-1-.6-1.6-1.5-1.6h0ZM167.7,41.4h-.3v-2.1h.8c.5,0,.7.2.7.6s-.2.6-.5.6h0l.6.9h-.4l-.6-.9h-.3v.9ZM167.7,40.2h.4c.4,0,.5,0,.5-.4s0-.3-.4-.3h-.4v.7h0ZM46.7,38.6l9.4,23h-3.9l-2.8-6.8h-8.4l-2.8,6.8h-3.7l9.6-23h2.6ZM45.3,44.2l-3,7.3h5.9l-2.9-7.3ZM86,39l2.6,22.5h-3.7l-1.5-14.9-6.8,14.9h-2.3l-6.8-14.5-1.6,14.5h-3.5l2.8-22.5h2.5l7.9,17,7.8-17h2.6ZM104.5,38.6l-9.5,23h3.8l2.8-6.9h8.4l2.8,6.9h3.9l-9.5-23h-2.7ZM108.6,51.6h-5.9l3-7.3,2.9,7.3ZM129.9,38.9c-.8,0-2.4,0-4.1.1h-1.7v22.3h.4c1.9.1,3.1.2,4.8.2,2.6,0,5.2-.3,7.8-1.1,3.9-1.5,6.5-5.5,6.5-10.2,0-3.1-1.2-6.1-3.3-8.3-2.5-2-5.9-3.1-10.2-3.1h0ZM127.7,58.2v-16h1.5c2,0,4.1.4,6,1.2,2.8,1.5,4.4,4.3,4.3,7.4,0,2-.7,3.9-1.9,5.3-1.5,1.7-3.6,2.4-7.1,2.4-.9,0-1.8,0-2.7-.3h0ZM158,38.6l-9.5,23h3.8l2.8-6.9h8.4l2.8,6.9h3.8l-9.5-23h-2.5ZM162.1,51.6h-5.8l3-7.3,2.8,7.3ZM22.6,47.7l8.4,12.7-3.8,1.7-9.5-14.7.7-1.6h.1c3.5-.4,5.7-2.6,5.7-5.6s-1.7-4.8-5.9-4.8-3.5,0-4.3,0v26h-4.1v-29h.2c0,0,6.8-.2,8.2-.2,2.7,0,10,0,10,7.6s-4.4,7.2-5.8,7.8h0Z"/>
</svg>