<?xml version="1.0" encoding="UTF-8"?>
<svg id="Layer_1" xmlns="http://www.w3.org/2000/svg" version="1.1" viewBox="0 0 180 110">
  <!-- Generator: Adobe Illustrator 29.8.1, SVG Export Plug-In . SVG Version: 2.1.1 Build 2)  -->
  <defs>
    <style>
      .st0 {
        fill: #14254a;
      }

      .st1 {
        fill: #ca202e;
      }
    </style>
  </defs>
  <g>
    <path class="st1" d="M19.1,71.9c-1.6,0-2.4-.3-3.1-.5-.7-.2-1.3-.4-2.6-.4s-2,0-2.7.1c-.7,0-1.5.1-2.9.1v-1.8c1.4,0,2,0,2.7-.1.7,0,1.5-.1,2.9-.1s2.4.3,3.1.5c.7.2,1.3.4,2.6.4s1.9-.2,2.6-.4c.7-.2,1.5-.5,3.1-.5s2.2,0,2.9.1c.7,0,1.4.1,2.7.1v1.8c-1.5,0-2.2,0-2.9-.1-.7,0-1.4-.1-2.7-.1s-1.9.2-2.6.4c-.7.2-1.5.5-3.1.5Z"/>
    <path class="st1" d="M19.1,68.3c-1.6,0-2.4-.3-3.1-.5-.7-.2-1.3-.4-2.6-.4s-2,0-2.7.1c-.7,0-1.5.1-2.9.1v-1.8c1.4,0,2,0,2.7-.1.7,0,1.5-.1,2.9-.1s2.4.3,3.1.5c.7.2,1.3.4,2.6.4s1.9-.2,2.6-.4c.7-.2,1.5-.5,3.1-.5s2.2,0,2.9.1c.7,0,1.4.1,2.7.1v1.8c-1.5,0-2.2,0-2.9-.1-.7,0-1.4-.1-2.7-.1s-1.9.2-2.6.4c-.7.2-1.5.5-3.1.5Z"/>
  </g>
  <g>
    <path class="st0" d="M27.3,43.5l-3.8,2.9c1.3,1.4,2.2,3.3,2.2,5.3,0,4.3-3.5,7.7-7.7,7.7s-5.3-1.5-6.6-3.8l-3.8,2.9c2.2,3.4,6.1,5.6,10.4,5.6,6.9,0,12.5-5.6,12.5-12.5s-1.2-6-3.1-8.2Z"/>
    <path class="st0" d="M11.4,55.7c1-1.3,1.5-3,1.5-4.8s0-.6,0-.9c-.3-2.7-2-5.1-4.3-6.3l7.4-5.7s5.2,10.5-4.6,17.7Z"/>
  </g>
  <g>
    <path class="st1" d="M125.4,40.9h1.8v16.3h7.2v1.8h-9v-18Z"/>
    <path class="st1" d="M137.9,58.9v-18h1.8v18h-1.8Z"/>
    <path class="st1" d="M145.3,45.8v13.1h-1.7v-18.3l11.8,13.5v-13.2h1.8v18.1c0,0-11.9-13.2-11.9-13.2Z"/>
    <path class="st1" d="M161,58.9v-18h11.5v1.8h-9.7v6.3h9.3v1.8h-9.3v6.4h9.7v1.8h-11.5Z"/>
  </g>
  <g>
    <path class="st0" d="M62,47.8l5.3,11.2h4l-9.3-18.3-9.4,18.3h3.8l5.7-11.2Z"/>
    <path class="st0" d="M80.2,53.5c-1.1-1.5-3.7-1.1-4.3,0v5.4h-3.3v-18.2h7.3c.8,0,1.6.2,2.3.5.7.3,1.3.8,1.9,1.4s.9,1.3,1.3,2c.3.7.5,1.5.5,2.3s0,.9-.2,1.3c-.1.5-.3.9-.5,1.4-.2.4-.5.9-.8,1.3-.3.4-.7.7-1.1,1l3.7,6.9h-3.8l-2.9-5.3ZM79.8,50c.8,0,1.5-.5,2-1,.5-.5.7-1.3.7-2.1s0-.8-.3-1.1c-.2-.4-.4-.7-.7-.9-.3-.3-.6-.5-1-.6-.4-.2-.8-.2-1.1-.2h-3.6v6.6c1.5-1.3,3.5-.6,4-.6Z"/>
    <path class="st0" d="M103.3,55.9c-1,1-2.2,1.7-3.3,2.2-1.2.5-2.4.8-3.6.8s-2.4-.2-3.5-.7c-1.1-.5-2-1.1-2.8-1.9-.8-.8-1.4-1.8-1.9-2.9-.5-1.1-.7-2.3-.7-3.6s.2-2.4.7-3.6c.5-1.1,1.1-2.1,1.9-2.9.8-.8,1.8-1.5,2.8-2,1.1-.5,2.3-.7,3.5-.7s2.6.3,3.6.9c1,.6,2.1,1.3,3.1,2.3l-2.1,2.4c-.7-.6-1.4-1.1-2.2-1.6-.8-.5-1.6-.7-2.4-.7s-1.5.2-2.2.5c-.7.3-1.3.7-1.8,1.3-.5.5-.9,1.1-1.2,1.8-.3.7-.5,1.4-.5,2.2s.2,1.5.5,2.2c.3.7.7,1.3,1.2,1.8.5.5,1.1.9,1.8,1.3.7.3,1.4.5,2.2.5s.8,0,1.3-.2c.4-.1.9-.3,1.3-.5.4-.2.8-.4,1.3-.7.4-.3.8-.6,1.1-.9l2,2.5Z"/>
    <path class="st0" d="M112.5,40.7c1.3,0,2.5.2,3.6.7,1.1.5,2,1.1,2.8,2,.8.8,1.4,1.8,1.9,2.9.5,1.1.7,2.3.7,3.6s-.2,2.5-.7,3.6c-.5,1.1-1.1,2.1-1.9,2.9-.8.8-1.7,1.5-2.8,1.9-1.1.5-2.3.7-3.6.7s-2.5-.2-3.6-.7c-1.1-.5-2.1-1.1-2.9-1.9-.8-.8-1.5-1.8-1.9-2.9-.5-1.1-.7-2.3-.7-3.6s.2-2.4.7-3.6c.5-1.1,1.1-2.1,1.9-2.9.8-.8,1.8-1.5,2.9-2s2.3-.7,3.6-.7ZM112.5,55.6c.8,0,1.5-.2,2.2-.5s1.3-.7,1.8-1.3c.5-.5.9-1.1,1.2-1.8.3-.7.5-1.4.5-2.2s-.2-1.5-.5-2.2c-.3-.7-.7-1.3-1.2-1.8-.5-.5-1.1-.9-1.8-1.3-.7-.3-1.4-.5-2.2-.5s-1.5.2-2.2.5c-.7.3-1.3.7-1.8,1.3s-1,1.1-1.3,1.8-.5,1.4-.5,2.2.2,1.5.5,2.2.7,1.3,1.3,1.8c.5.5,1.1.9,1.8,1.3s1.4.5,2.2.5Z"/>
    <path class="st0" d="M37.3,40.4h8.4c.7,0,1.4.1,2.1.3.7.2,1.3.5,1.8,1,.5.4.9.9,1.2,1.6s.4,1.3.4,2.1,0,1.1-.3,1.6c-.2.5-.5,1-.9,1.4.4.2.7.5,1.1.9.3.4.6.8.9,1.2s.4.9.6,1.4c.1.5.2.9.2,1.3,0,.8-.1,1.5-.4,2.2-.2.7-.6,1.3-1,1.8-.4.5-1,.9-1.6,1.2-.6.3-1.3.5-2.1.5h-10.5v-18.5ZM47.6,45.5c0-.6-.2-1-.5-1.3s-.8-.4-1.4-.4h-5v3.5h5.4c.5,0,.9-.2,1.2-.6.3-.4.4-.8.4-1.2ZM40.6,55.5h6.5c.3,0,.6,0,.9-.2.3-.1.5-.3.7-.6.2-.2.3-.5.4-.8s.1-.6.1-.9,0-.6-.2-.9c-.1-.3-.3-.6-.5-.8-.2-.2-.5-.4-.7-.6-.3-.1-.6-.2-.9-.2h-6.3v4.8Z"/>
  </g>
  <g>
    <path class="st0" d="M41.7,71.1v.7h-4.5v-7.5h.8v6.8h3.7Z"/>
    <path class="st0" d="M43.7,68.1c0-2.1,1.7-3.9,3.9-3.9s3.9,1.7,3.9,3.9-1.7,3.9-3.9,3.9-3.9-1.7-3.9-3.9ZM50.6,68.1c0-1.7-1.3-3.1-3.1-3.1s-3.1,1.4-3.1,3.1,1.4,3.1,3.1,3.1,3.1-1.4,3.1-3.1Z"/>
    <path class="st0" d="M60.7,67.7v2.9c-.8.9-1.9,1.4-3.1,1.4-2.1,0-3.9-1.7-3.9-3.9s1.7-3.9,3.9-3.9,2.2.4,2.9,1.1l-.5.6c-.6-.5-1.4-1-2.4-1-1.8,0-3.1,1.4-3.1,3.1s1.4,3.1,3.1,3.1,1.8-.4,2.4-1v-1.9h-2.1v-.7h2.8Z"/>
    <path class="st0" d="M63.4,64.4h.8v7.5h-.8v-7.5Z"/>
    <path class="st0" d="M66.5,71.1l.4-.6c.6.5,1.2.7,1.8.7s1.6-.6,1.6-1.4c0-1.8-3.5-1.3-3.5-3.7s.9-2,2.2-2,1.3.2,1.8.6l-.4.6c-.5-.3-.9-.4-1.4-.4-.8,0-1.4.5-1.4,1.2,0,1.8,3.5,1.3,3.5,3.7s-.9,2.1-2.4,2.1-1.6-.3-2.3-.9Z"/>
    <path class="st0" d="M78.1,65.1h-2.2v6.8h-.8v-6.8h-2.2v-.7h5.3v.7Z"/>
    <path class="st0" d="M80.2,64.4h.8v7.5h-.8v-7.5Z"/>
    <path class="st0" d="M83.5,68.1c0-2.2,1.7-3.9,3.8-3.9s1.8.3,2.7,1l-.5.6c-.7-.5-1.5-.8-2.2-.8-1.7,0-3.1,1.4-3.1,3.1s1.3,3.1,3.1,3.1,1.6-.3,2.2-.8l.5.6c-.8.7-1.7,1-2.7,1-2.1,0-3.8-1.7-3.8-3.9Z"/>
    <path class="st0" d="M91.8,71.1l.4-.6c.6.5,1.2.7,1.8.7s1.6-.6,1.6-1.4c0-1.8-3.5-1.3-3.5-3.7s.9-2,2.2-2,1.3.2,1.8.6l-.4.6c-.5-.3-.9-.4-1.4-.4-.8,0-1.4.5-1.4,1.2,0,1.8,3.5,1.3,3.5,3.7s-.9,2.1-2.4,2.1-1.6-.3-2.3-.9Z"/>
    <path class="st0" d="M104.1,65.1v2.5h3v.7h-3v2.8h3.5v.7h-4.3v-7.5h4.3v.7h-3.5Z"/>
    <path class="st0" d="M116,72l-4.7-5.7v5.6h-.8v-7.6l4.7,5.7v-5.5h.8v7.6Z"/>
    <path class="st0" d="M124.6,64.4l-3.2,7.6-3.2-7.6h.9l2.3,5.7,2.4-5.7h.8Z"/>
    <path class="st0" d="M126.6,64.4h.8v7.5h-.8v-7.5Z"/>
    <path class="st0" d="M129.6,71.1l.4-.6c.6.5,1.2.7,1.8.7s1.6-.6,1.6-1.4c0-1.8-3.5-1.3-3.5-3.7s.9-2,2.2-2,1.3.2,1.8.6l-.4.6c-.5-.3-.9-.4-1.4-.4-.8,0-1.4.5-1.4,1.2,0,1.8,3.5,1.3,3.5,3.7s-.9,2.1-2.4,2.1-1.6-.3-2.3-.9Z"/>
    <path class="st0" d="M136.6,64.4h.8v7.5h-.8v-7.5Z"/>
    <path class="st0" d="M139.9,68.1c0-2.1,1.7-3.9,3.9-3.9s3.9,1.7,3.9,3.9-1.7,3.9-3.9,3.9-3.9-1.7-3.9-3.9ZM146.9,68.1c0-1.7-1.3-3.1-3.1-3.1s-3.1,1.4-3.1,3.1,1.4,3.1,3.1,3.1,3.1-1.4,3.1-3.1Z"/>
    <path class="st0" d="M155.9,72l-4.7-5.7v5.6h-.8v-7.6l4.7,5.7v-5.5h.8v7.6Z"/>
    <path class="st0" d="M160,65.1v2.5h3v.7h-3v2.8h3.5v.7h-4.3v-7.5h4.3v.7h-3.5Z"/>
    <path class="st0" d="M172.2,68.1c0,2.1-1.5,3.7-3.5,3.7h-2.4v-7.5h2.4c2.1,0,3.5,1.7,3.5,3.7ZM171.4,68.1c0-1.4-1-3-2.9-3h-1.4v6h1.4c1.7,0,2.9-1.4,2.9-3Z"/>
  </g>
</svg>