<?xml version="1.0" encoding="UTF-8"?>
<svg id="Layer_1" xmlns="http://www.w3.org/2000/svg" version="1.1" viewBox="0 0 180 110">
  <!-- Generator: Adobe Illustrator 29.8.1, SVG Export Plug-In . SVG Version: 2.1.1 Build 2)  -->
  <defs>
    <style>
      .st0 {
        fill: #00aae3;
      }

      .st1 {
        fill-rule: evenodd;
      }

      .st1, .st2 {
        fill: #79858d;
      }

      .st3 {
        fill: #006380;
      }
    </style>
  </defs>
  <path class="st3" d="M104.6,33.5c-.4-1-.8-2-1.3-3.1-.9-1.8-7.2-10.8-7.2-10.8-1-1.2-2.8-1.3-3.9-.3-1.2,1-1.3,2.8-.3,3.9h0c.2.2,5.3,7.5,6.4,9.4.5,1,.9,1.9,1.2,2.7.3.8.4,1.4.4,1.7,0,1.1-.2,2.1-.7,3.1-.7,1.4-1.8,2.7-3.4,3.6-1.5.9-3.4,1.5-5.4,1.5s-5.1-1.1-6.9-2.5c-1.8-1.4-4.2-6-1.1-11,1-1.6,13.5-18,14.9-19.8.7-.9,1.3-1.6,1.7-2.2.2-.3.4-.5.5-.6,0,0,0-.1.1-.2h0s0,0,0,0c1-1.2.9-2.9-.3-3.9-1.2-1-2.9-.9-3.9.3,0,0-3.1,3.7-6.3,8.2-1.6,2.3-9.8,13.9-11.4,16.1-1.8,2.7-2.4,5.9-2.5,7.5,0,1.9.4,3.8,1.2,5.5,1.2,2.5,3.1,4.6,5.5,6,2.4,1.4,5.3,2.3,8.3,2.3,4.1,0,7.8-1.5,10.6-3.9,1.4-1.2,2.5-2.7,3.3-4.4.8-1.7,1.2-3.5,1.2-5.5,0-1.2-.3-2.4-.7-3.5"/>
  <path class="st0" d="M109.5,51.6c-1.5-1.5-3.6-2.4-5.9-2.4s-.8,0-1.1.1c-.4,0-.7.1-1.1.2-.7.2-1.4.4-2.2.7-1.5.6-3.2,1.3-4.7,2-1.7.8-3.2,1.5-4.2,2.1-1.1-.5-2.6-1.3-4.2-2.1-1.6-.7-3.2-1.4-4.8-2-.8-.3-1.5-.5-2.2-.7-.4,0-.7-.2-1.1-.2-.4,0-.7-.1-1.1-.1-2.3,0-4.4.9-5.9,2.4-1.5,1.5-2.5,3.6-2.4,5.9,0,2.3.9,4.4,2.4,5.9,1.5,1.5,3.6,2.4,5.9,2.4h0c.4,0,.8,0,1.1,0,.7-.1,1.3-.3,2-.5,1.2-.4,2.5-.9,3.8-1.5,1.4-.6,2.8-1.3,4.1-1.9-2.8-3.4-7.3-2.6-9.1-2.1-.4.2-.9.3-1.2.4-.2,0-.4,0-.5.1,0,0-.1,0-.2,0h0s0,0,0,0c-.8,0-1.5-.3-2-.8-.5-.5-.8-1.2-.8-2,0-.8.3-1.5.8-2,.5-.5,1.2-.8,2-.8s.1,0,.3,0c.3,0,.7.2,1.3.3.9.3,2.1.8,3.3,1.3.2.1,1.2.5,2.4,1.1,1.9.9,4.4,2.1,6.2,2.9,1.8-.8,4.3-2.1,6.2-2.9,1.2-.6,2.1-1,2.4-1.1,1.2-.5,2.4-1,3.3-1.3.5-.2,1-.3,1.3-.3.1,0,.2,0,.3,0,.8,0,1.5.3,2,.8.5.5.8,1.2.8,2s-.3,1.5-.8,2c-.5.5-1.2.8-2,.8h0s0,0-.2,0c-.1,0-.3,0-.5-.1-.3,0-.7-.2-1.2-.4-1.8-.5-6.3-1.3-9.1,2.1,1.2.6,2.7,1.3,4.1,1.9,1.3.6,2.6,1.1,3.8,1.5.7.2,1.3.4,2,.5.4,0,.7,0,1.1,0h0c2.3,0,4.4-.9,5.9-2.4,1.5-1.5,2.4-3.6,2.4-5.9s-.9-4.4-2.4-5.9"/>
  <path class="st0" d="M94.4,36.6c0,2.3-1.9,4.2-4.2,4.2s-4.2-1.9-4.2-4.2,1.9-4.2,4.2-4.2,4.2,1.9,4.2,4.2"/>
  <path class="st2" d="M66.6,74.9h1.3v4.4h0c.4-.8,1.3-1.3,2.4-1.3,1.7,0,3,1.4,3,3.6s-1.6,3.8-3.2,3.8-1.8-.4-2.3-1.3h0v1.2h-1.2c0-.5,0-1.2,0-1.8v-8.5ZM67.9,82.4c0,.2,0,.3,0,.5.2.9,1,1.5,1.9,1.5,1.3,0,2.1-1.1,2.1-2.7s-.7-2.6-2.1-2.6-1.7.6-1.9,1.6c0,.2,0,.3,0,.5v1.3Z"/>
  <path class="st2" d="M80.3,83.3c0,.7,0,1.4,0,1.9h-1.1v-1.1h-.1c-.3.6-1.1,1.3-2.3,1.3s-2.4-.6-2.4-3.1v-4.1h1.3v3.9c0,1.3.4,2.2,1.6,2.2s1.4-.6,1.7-1.2c0-.2.1-.4.1-.7v-4.3h1.3v5.1Z"/>
  <path class="st2" d="M81.9,83.9c.4.2,1.1.5,1.7.5.9,0,1.3-.4,1.3-1s-.4-.9-1.3-1.3c-1.3-.5-1.9-1.1-1.9-2s.9-2.1,2.4-2.1,1.3.2,1.7.4l-.3.9c-.3-.2-.8-.4-1.4-.4s-1.2.4-1.2,1,.4.9,1.3,1.2c1.2.4,1.8,1.1,1.8,2.1s-1,2.1-2.6,2.1-1.5-.2-2-.5l.3-1Z"/>
  <path class="st2" d="M88.1,76.9c-.5,0-.8-.4-.8-.8s.3-.8.8-.8.8.4.8.8-.3.8-.8.8h0ZM87.5,78.2h1.3v7h-1.3v-7Z"/>
  <path class="st2" d="M90.5,80.1c0-.7,0-1.3,0-1.9h1.1v1.1h.1c.3-.7,1.2-1.3,2.3-1.3s2.5.6,2.5,3v4.2h-1.3v-4c0-1.1-.4-2.1-1.6-2.1s-1.5.6-1.7,1.3c0,.2,0,.4,0,.6v4.2h-1.3v-5.1Z"/>
  <path class="st2" d="M98.9,81.9c0,1.7,1.1,2.4,2.4,2.4s1.5-.2,1.9-.3l.2.9c-.4.2-1.2.4-2.3.4-2.1,0-3.4-1.4-3.4-3.5s1.3-3.8,3.3-3.8,2.9,2,2.9,3.3,0,.5,0,.6h-4.9ZM102.6,81c0-.8-.3-2.1-1.8-2.1s-1.9,1.2-2,2.1h3.7Z"/>
  <path class="st2" d="M104.9,83.9c.4.2,1.1.5,1.7.5.9,0,1.3-.4,1.3-1s-.4-.9-1.3-1.3c-1.3-.5-1.9-1.1-1.9-2s.9-2.1,2.4-2.1,1.3.2,1.7.4l-.3.9c-.3-.2-.8-.4-1.4-.4s-1.2.4-1.2,1,.4.9,1.3,1.2c1.2.4,1.8,1.1,1.8,2.1s-1,2.1-2.6,2.1-1.5-.2-2-.5l.3-1Z"/>
  <path class="st2" d="M110.2,83.9c.4.2,1.1.5,1.7.5.9,0,1.3-.4,1.3-1s-.4-.9-1.3-1.3c-1.3-.5-1.9-1.1-1.9-2s.9-2.1,2.4-2.1,1.3.2,1.7.4l-.3.9c-.3-.2-.8-.4-1.4-.4s-1.2.4-1.2,1,.4.9,1.3,1.2c1.2.4,1.8,1.1,1.8,2.1s-1,2.1-2.6,2.1-1.5-.2-2-.5l.3-1Z"/>
  <path class="st1" d="M131.3,97.7c0-1.3-1-2.2-2.3-2.4-.8-.1-1.6,0-2.4,0-.6,0-1.4.2-1.9.4v-2.4h-1.5c-.2,1.5-.4,3.4-.6,4.8,2.4-1.2,4.1-1.4,5.3-1.3,1.2.1,1.8,1,1.7,2.1-2.9-1-5.5-.5-7.3,1.4-1.3,1.4-1.1,3.2.5,4.2,2.4,1.5,5,.6,6.5-.4.8.4,1.5.7,2.1,1.1v-7.6ZM129.6,101.4c0,1-2.6,2.2-4.7,2.5-1.5.1-2-.4-2.2-.9-.3-.6,0-1.3.6-1.7,1.5-1.5,4.1-1.4,5.7-.6.3.1.5.3.6.3v.4Z"/>
  <path class="st1" d="M91.5,91.7c0,2.7,0,7.9,0,10.5,0,2.1,1.7,3.4,3.7,2.9,1.5-.3,2.4-1.4,3-2.8-.7-.4-1.4-.8-2.1-1.2,0,1.8-.9,3.4-1.7,3.3-.3,0-.7-.2-.7-1.3v-10l-2.2-1.4"/>
  <path class="st1" d="M93.6,92.8c0-2.1-.2-3-2.2-3.6v3.7"/>
  <path class="st1" d="M77,97.7c0-1.3-1-2.2-2.3-2.4-.8-.1-1.6,0-2.4,0-.6,0-1.4.2-1.9.4v-2.4h-1.5c-.2,1.5-.4,3.4-.6,4.8,2.4-1.2,4.1-1.4,5.3-1.3,1.2.1,1.8,1,1.7,2.1-2.9-1-5.5-.5-7.3,1.4-1.3,1.4-1.1,3.2.5,4.2,2.4,1.5,5,.6,6.5-.4.8.4,1.4.7,2.1,1.1v-7.6ZM75.4,101.4c0,1-2.6,2.2-4.7,2.5-1.5.1-2-.4-2.2-.9-.2-.6,0-1.3.6-1.7,1.5-1.5,4.1-1.4,5.7-.6.3.1.5.3.6.3v.4Z"/>
  <path class="st1" d="M99.1,93.8v1.1c0,2.8,0,4.7,0,7.5,0,.3-.2,2.9,2.2,2.9v-3.8c0-2.5,1.6-4.5,4-5.1,1.2-.3,2.2.3,2.6,1.5.5,1.7,0,3.2-1,4.6-.5.6-1,1.1-1.5,1.8.7.4,1.6.9,2.2,1.3,2.5-2.1,3.1-5.5,1.2-8.1-.8-1.1-1.8-1.8-3.1-2-1.7-.3-3.1.5-4.3,1.8v-4.9c-.2-2.5-1.4-4.8-4.6-4.6,2.3,2.1,2.3,4.7,2.3,5.2v1Z"/>
  <path class="st1" d="M62.8,93v2.5s0,0,0,0c4.1,1.3,3.7,5.8,1.4,8.1-.1.1-.2.2-.4.3-1.8,1.5-2.8,1.7-4.4-.7,1.7-.3,3.3-1,4.5-2.3,1-1,1.4-2.3.9-3.1-.7-1.1-1.9-1.2-3-1.1-1.8.2-2.9,1.3-3.6,2.8-.2.4-.6,1.8-.8,2.3,0,0-.2,0-.2,0-1.9-.5-1.8-1.8-1.6-2.7.2-.9.9-1.7.9-1.8-1-.7-2.6-.6-3.8.3-1.2.8-1.6,2.1-1.2,3.6.5,2.2,2.3,3.3,3.1,4-2.2-.7-4.2-1.5-5.3-3.6-.8-1.4-.6-3.1.4-4.4,1.5-2,5.5-2,7.9-.8,0,0,1.2-.9,2.9-1.1v-2.4"/>
  <path class="st2" d="M81.1,95.2h-1.8v7.5c0,1.5.6,2.2,2.1,2.5v-3.8c0-2.2.6-4,2.8-4.8,1.7-.7,3.5.2,3.6,2.2,0,1.6-.2,2.7-1.4,3.9-.3.4-.8.8-1.1,1.1.8.5,1.5,1,2.4,1.6.6-1.3,1.4-2.4,1.7-3.7.7-2.3-.2-4.6-2-5.9-1.5-1-3.1-1-5.2.5-.1,0-.5.4-.7.5l-.3-1.6Z"/>
  <path class="st1" d="M120.4,97.6c-.2-1.2-1.6-2.2-3.1-2.3-.6,0-2.3.2-3.7,1.1l-.2-1.2h-1.8v7.5c0,1.5.6,2.2,2.1,2.5v-3.8c0-1.7.1-3,1.4-4.3.3-.3.6-.5,1.1-.7.9-.4,1.9-.4,2.2.3.2.6-.1,1-.8,1.4-.2.2-.5.3-.9.4.5.6,1,1.2,1.5,1.7,1.5-.7,2.4-1.8,2.2-2.8"/>
  <polygon class="st1" points="131.1 93.8 49 93.8 49 92.3 130.5 92.3 131.1 93.8"/>
</svg>