<?xml version="1.0" encoding="UTF-8"?>
<svg id="Layer_1" xmlns="http://www.w3.org/2000/svg" version="1.1" viewBox="0 0 180 110">
  <!-- Generator: Adobe Illustrator 29.8.1, SVG Export Plug-In . SVG Version: 2.1.1 Build 2)  -->
  <defs>
    <style>
      .st0 {
        fill: #3c3c3b;
      }

      .st1 {
        fill: #ec7d23;
      }
    </style>
  </defs>
  <path class="st1" d="M112.8,81.9c0-.8-.1-1.5-.2-2.3-.3-2.5-1.1-4.8-2.2-7.1-.3-.6-.3-1.1,0-1.6,1.5-3.1,2.2-6.4,2.2-9.8,0-11,0-22.1,0-33.1,0-1.1,0-2.3-.2-3.4-1.3-7.7-5.5-13.3-12.5-16.8-3.6-1.8-7.5-2.3-11.6-2-3.3.3-6.5,1-9.4,2.7-7.3,4.3-11.1,10.8-11.3,19.3-.1,6.3,0,12.5,0,18.8,0,2.2-.1,4.3-.3,6.4-.3,2.9-.4,5.7.2,8.6,1.5,7.2,7.5,15.5,17.6,17.3,2.2.4,4.4.7,6.3,1.8.7.4,1.2.9,1.8,1.6,0,0,0,0,.1.1h1.9c-.2-.5-.5-1-.8-1.4-1.1-1.4-2.5-2.3-4.2-2.7-1.9-.5-3.9-.7-5.8-1.2-11.7-3.1-17.8-13.6-15.7-25.2,1-5.3,3.8-9.6,8.2-12.8,3.8-2.8,8-4.1,12.7-4.1,1.1,0,1.4.3,1.4,1,0,.9-.7.7-1.3.8-1.6.2-3.2.3-4.8.7-9.9,2.7-16.6,11.5-14.5,23,1.6,8.5,8.8,14.2,16.6,15.4,2.1.3,4.2.6,6.1,1.5,1.9,1,3.7,2.1,4.4,4.3.1.3.2.6.3.7h1.8c0-.1,0-.3-.1-.5-.4-1.8-1.4-3.3-2.8-4.5-2.3-1.8-5-2.7-7.8-3.2-3.1-.6-6.2-1.4-8.9-3.2-6.6-4.4-9.2-11-7.8-18.1,1.5-7.8,8.8-13.8,18-14.3.5,0,.8.1.9.6,0,.5,0,.9-.6,1-.2,0-.4.1-.7.1-4.4.4-8.3,2-11.6,5-5.3,4.8-6.3,13.2-2.3,19.1,2.9,4.4,7.2,6.7,12.3,7.6,2.7.5,5.5,1,7.9,2.5,2.8,1.7,5,4.2,5.4,7.7h1.7c0,0,0-.2,0-.3,0-.2,0-.5,0-.7,0-.3-.1-.6-.2-.9-1-3.6-3.4-6.1-6.5-7.9-2.3-1.3-4.8-1.7-7.3-2.1-3.9-.7-7.5-2.2-10.2-5.1-3-3.1-4.3-6.8-3.6-11.1.5-3.1,2-5.6,4.4-7.7,3.1-2.7,6.7-4.1,10.7-4.6.7,0,1,.4.9,1-.1.5-.5.7-1,.7-3.2.5-6.1,1.7-8.7,3.7-4.7,3.7-5.8,9.9-2.6,14.8,2,3,4.9,4.9,8.4,5.9,2.1.6,4.4.8,6.5,1.4,4.5,1.3,8.1,3.8,10.2,8.1.6,1.3.8,2.8,1.2,4.2,0,.2,0,.3,0,.4h1.6c0-.2,0-.5,0-.9-.4-3.9-2.2-7.1-5.1-9.7-3.2-2.8-7-4.1-11.1-4.7-3.7-.6-7-2.1-9.6-4.9-2.8-3.1-2.9-7.8-.3-11,2.6-3.2,6.1-4.6,9.9-5.4.2,0,.5.2.6.4.3.8,0,1.3-1,1.5-2.4.5-4.6,1.5-6.5,3-2.4,1.9-3.5,4.2-2.8,7.3.5,2.4,2.1,4.1,4.2,5.3,2.4,1.5,5.1,2.1,7.8,2.5,4.5.8,8.3,2.7,11.4,6.2,2.4,2.7,3.9,5.8,4.1,9.4,0,.5,0,.7,0,.9,0,0,0,.1,0,.1h1.8c0-3.4-.9-6.5-2.7-9.4-3.5-5.6-8.8-8.4-15.3-9.3-2.8-.4-5.5-1.3-7.7-3.2-2.6-2.2-2.8-5.5-.4-7.9,1.8-1.9,4.2-2.7,6.6-3.3.5-.1.7.2.6.6,0,.7-.4,1.1-1.1,1.4-1.6.5-3,1.2-4.3,2.3-1.7,1.6-1.7,4,0,5.6.4.4.9.7,1.4,1,2,1.2,4.2,1.5,6.4,1.9,6,1,10.7,3.9,14.3,8.8,2.4,3.2,3.4,7,3.6,11,0,.1,0,.4,0,.5h1.3c0-.2,0-.4,0-.5M90.1,58.7c-.2.6-.6.8-1.2.6-1.2-.5-2.1-1.2-2.6-2.4-.3-.6-.2-1.3.2-1.8,1.1-1.3,2.6-1.9,4.3-2.3.1,2.1,0,4.1-.7,5.9M90.7,33.2c0,.2-.4.3-.6.3-.2,0-.6,0-.6-.3-.1-.9,0-1.7.6-2.6.6.9.7,1.7.6,2.6M94.2,53.7c0,2-.5,4-.8,6,0,.5-.4.6-.8.6-.4,0-.8-.2-1.2-.3.3-1.3.7-2.5.8-3.7.2-2.4.3-4.9.3-7.3,0-4.5,0-8.9,0-13.4,0-2.1-.3-4.2-1.1-6.2-.3-.6-.4-1.5-1.3-1.5-.9,0-1.1.8-1.3,1.4-.3,1-.5,2.1-.8,3.1,0,.2,0,.6-.2.7-.4.2-.5.1-1.2.3-.5.1-.7.3-.5-.7.3-1.8.5-3.7,1.4-5.4.2-.4.4-.7.6-1,1.2-1.7,2.7-1.6,3.9,0,.9,1.2,1.4,2.7,1.7,4.2.6,3.3.6,6.6.6,9.9,0,1.2,0,2.5,0,3.7,0,3.2,0,6.4,0,9.5M97.6,44.9h0c0,3.5,0,7,0,10.5,0,1.7-.4,3.3-.6,5-.1.8-.6.7-1.2.6-.7-.2-.6-.5-.5-1,.3-1.9.7-3.8.7-4.9.4-5.9.2-11.7.1-17.6,0-3.1,0-6.3-1.2-9.3-.5-1.3-1.2-2.6-2-3.6-1.6-2-3.8-2-5.6-.1-1.3,1.4-2,3.1-2.4,4.9-.3,1.3-.4,2.6-.6,3.9,0,.3-.2.7-.5.9-.2.2-.7.2-1,.2,0,0-.1-.4-.1-.7.4-3.7.8-7.2,2.9-10.2.8-1.2,1.9-2.1,3.4-2.5,1.8-.5,3.4,0,4.7,1.4,2,2,3,4.5,3.5,7.2.7,3.5.4,7,.5,10.6,0,1.6,0,3.3,0,4.9M100.9,56.4c0,1.8-.3,3.5-.6,5.3,0,.2-.4.5-.6.4-.4,0-1.3-.1-1.1-.9,1.1-4.2.6-8.5.7-12.8,0-4.8,0-9.6,0-14.4,0-3.1-.2-6.3-1.6-9.2-.8-1.6-1.8-3-3.2-4.2-2.5-2.3-6.5-2.2-9,.2-2.4,2.3-3.6,5.3-4.2,8.5-.3,1.5-.3,3.1-.3,4.7,0,1-.4,1.4-1.6,1.5,0-.8-.1-1.6,0-2.4,0-2.7.3-5.4,1.3-8,.9-2.4,2.2-4.5,4.2-6.2,3.6-3,8.6-2.6,11.8,1,2.6,2.8,4,6.3,4.2,10.1.2,3.8.2,7.7.2,11.5,0,4.9,0,9.8,0,14.8M104.2,59.2c0,1.5-.2,3-.6,4.4,0,.1-.4.4-.6.4-.7,0-1.2-.6-1.1-1.2.1-1,.3-2.1.4-3.1.2-2.4.3-4.7.5-7.1,0-1.6.1-3.2.1-4.7,0-4.6-.2-9.2-.3-13.8,0-2.4.2-4.8-.5-7.2-1-3.6-2.6-6.8-5.5-9.1-4.8-3.7-11.6-2.7-15.2,2.1-2.2,3-3.5,6.3-3.8,10-.1,1.9-.1,3.9-.2,5.8,0,.7-.2,1.3-.9,1.7-.4.2-.7.1-.7-.4,0-2.4,0-4.7,0-7.1,0-2.1.4-4.2,1.1-6.2,1.1-3.2,2.9-5.9,5.6-7.9,4.7-3.5,12.1-3.5,16.7,1.8,3.2,3.7,4.8,7.9,4.8,12.8,0,4.7,0,9.4,0,14.2s0,9.7,0,14.5M107.5,60.8c0,1.7-.6,3.5-.9,5.2,0,.4-.3.5-.7.3-.6-.3-1-.8-.8-1.5.8-2.5.9-5,.9-7.6,0-9.3,0-18.6,0-27.9,0-6.4-2.7-11.7-8.2-15.3-6.6-4.2-15.7-2-20,4.8-2,3.1-3.2,6.4-3.3,10.2,0,3.2-.1,6.3-.1,9.5,0,1.1-.6,1.7-1.6,2.3,0-.4,0-.6,0-.8,0-3.6,0-7.1,0-10.7.1-4.5,1.3-8.8,4.2-12.3,2.9-3.6,6.6-5.9,11.2-6.4,6.7-.7,12,1.8,15.8,7.3,2.4,3.4,3.6,7.2,3.6,11.3,0,10.6,0,21.1,0,31.7M109.1,69.8c-1.1-.6-1.3-1.1-1-2.2.9-2.7,1.3-5.5,1.3-8.3,0-3.1,0-6.2,0-9.3,0-4.5.1-8.9.1-13.4,0-3.2,0-6.5-.2-9.7-.6-8.7-6.8-16.4-15.6-18-5.3-.9-10.3,0-14.7,3.1-4.2,3.1-6.8,7.3-7.8,12.4-.3,1.5-.4,3.1-.4,4.6,0,4.4,0,8.7,0,13.1,0,1.3-.7,2.3-1.6,3.3,0-.2,0-.5,0-.7,0-5.9-.1-11.8,0-17.8.2-5.9,2.7-10.9,7-14.9,3.3-3,7.1-4.6,11.5-5.1,10.5-1.1,19.8,5.2,22.6,15.6.5,1.9.7,3.8.8,5.8,0,11,0,22.1,0,33.1,0,2.7-.6,5.3-1.7,7.7,0,.2-.2.3-.3.6"/>
  <path class="st1" d="M57.5,92.2c-.2.7-.5,1.2-.9,1.6l1.3,1.2-1.2,1.3-1.4-1.3c-.4.3-.8.4-1.1.5-.5.2-1.1.3-1.8.3-1.5,0-2.7-.4-3.7-1.3-1.2-1.1-1.8-2.6-1.8-4.7s.6-3.6,1.8-4.7c1-.9,2.2-1.3,3.7-1.3s2.7.5,3.7,1.4c1.1,1.1,1.7,2.5,1.7,4.5s-.1,1.9-.4,2.5M53.2,93.7c.1,0,.3-.1.5-.2l-1.1-1.1,1.2-1.3,1.2,1.1c.2-.4.3-.7.4-1,.1-.4.2-.9.2-1.5,0-1.3-.3-2.3-.8-2.9-.5-.7-1.3-1-2.3-1s-1.7.3-2.2,1c-.6.7-.8,1.7-.8,3s.4,2.7,1.2,3.3c.5.4,1.1.7,1.9.7s.5,0,.8-.1"/>
  <path class="st1" d="M59.7,84.2h2.4v7c0,.8,0,1.3.3,1.7.3.6.9,1,1.9,1s1.6-.3,1.9-1c.2-.4.3-.9.3-1.7v-7h2.4v7c0,1.2-.2,2.1-.6,2.8-.7,1.2-2,1.8-4,1.8s-3.3-.6-4-1.8c-.4-.7-.6-1.6-.6-2.8v-7Z"/>
  <rect class="st1" x="70.8" y="84.2" width="2.4" height="11.3"/>
  <path class="st1" d="M76.5,85.3c.9-.9,2.1-1.4,3.5-1.4s3.3.6,4.1,1.9c.5.7.7,1.4.8,2.1h-2.4c-.2-.5-.3-1-.6-1.2-.4-.5-1-.7-1.9-.7s-1.5.3-2,1c-.5.7-.7,1.7-.7,2.9s.3,2.2.8,2.9c.5.6,1.2.9,2,.9s1.4-.3,1.9-.8c.2-.3.4-.7.6-1.3h2.4c-.2,1.2-.7,2.2-1.6,3-.8.8-1.9,1.2-3.2,1.2s-2.9-.5-3.8-1.6c-.9-1.1-1.4-2.5-1.4-4.3s.5-3.5,1.6-4.6"/>
  <polygon class="st1" points="86.8 84.2 89.2 84.2 89.2 88.8 93.5 84.2 96.6 84.2 91.9 88.8 96.8 95.5 93.8 95.5 90.3 90.5 89.2 91.7 89.2 95.5 86.8 95.5 86.8 84.2"/>
  <path class="st1" d="M99.9,92c0,.5.2.9.4,1.2.4.5,1.1.7,2,.7s1,0,1.4-.2c.7-.2,1-.7,1-1.3s-.2-.7-.5-.9c-.3-.2-.9-.4-1.6-.5l-1.2-.3c-1.2-.3-2-.6-2.5-.9-.8-.5-1.1-1.3-1.1-2.5s.4-1.9,1.1-2.5c.7-.7,1.8-1,3.3-1s2.2.3,3.1,1c.9.6,1.3,1.6,1.3,2.8h-2.3c0-.7-.3-1.2-.9-1.5-.4-.2-.8-.3-1.4-.3s-1.1.1-1.5.4c-.4.2-.6.6-.6,1s.2.7.6.9c.2.1.7.3,1.5.5l2,.5c.9.2,1.5.5,2,.8.7.5,1,1.3,1,2.3s-.4,1.9-1.2,2.6c-.8.7-1.9,1-3.4,1s-2.7-.3-3.5-1c-.9-.7-1.3-1.6-1.3-2.8h2.3Z"/>
  <polygon class="st1" points="108.6 95.5 108.6 84.2 111 84.2 111 88.5 115.4 88.5 115.4 84.2 117.8 84.2 117.8 95.5 115.4 95.5 115.4 90.4 111 90.4 111 95.5 108.6 95.5"/>
  <rect class="st1" x="119.8" y="84.2" width="2.4" height="11.3"/>
  <path class="st1" d="M132,90.6c-.7.6-1.6.8-2.8.8h-2.4v4.1h-2.4v-11.3h4.9c1.1,0,2,.3,2.7.9.7.6,1,1.5,1,2.7s-.3,2.3-1,2.8M130.2,86.5c-.3-.3-.7-.4-1.3-.4h-2.1v3.3h2.1c.5,0,1-.1,1.3-.4.3-.3.5-.7.5-1.3s-.2-1-.5-1.3"/>
  <polygon class="st0" points="91.2 98 91.2 98.9 89.6 98.9 89.6 102.9 88.6 102.9 88.6 98.9 87 98.9 87 98 91.2 98"/>
  <path class="st0" d="M93.6,99.4c.3.1.5.3.7.5.2.2.3.5.3.7,0,.2,0,.4,0,.7h-2.7c0,.4.1.6.4.8.2,0,.3.1.5.1s.4,0,.5-.2c0,0,.1-.1.2-.2h1c0,.2-.1.4-.4.7-.3.4-.8.5-1.4.5s-.9-.1-1.3-.4c-.4-.3-.6-.8-.6-1.4s.2-1.1.5-1.4c.3-.3.8-.5,1.3-.5s.6,0,.9.2M92.2,100.2c-.1.1-.2.3-.3.6h1.7c0-.3-.1-.4-.3-.6-.2-.1-.4-.2-.6-.2s-.4,0-.6.2"/>
  <path class="st0" d="M97.4,100.6c0-.1,0-.3-.1-.4-.1-.1-.3-.2-.5-.2-.3,0-.6.2-.7.5,0,.2,0,.4,0,.7s0,.5,0,.6c.1.3.3.4.7.4s.4,0,.5-.2c0-.1.2-.3.2-.5h1c0,.3-.1.6-.3.8-.3.4-.8.6-1.4.6s-1.1-.2-1.3-.5-.4-.8-.4-1.3.2-1.1.5-1.4c.3-.3.8-.5,1.3-.5s.9.1,1.2.3c.3.2.5.6.5,1.1h-1Z"/>
  <path class="st0" d="M101.7,99.3c.2,0,.3.2.5.4.1.1.2.3.2.4,0,.1,0,.4,0,.7v2.1h-1v-2.2c0-.2,0-.4-.1-.5,0-.2-.3-.3-.5-.3s-.5,0-.6.3c-.1.2-.2.4-.2.7v2h-1v-4.9h1v1.7c.1-.2.3-.4.5-.4.2,0,.4-.1.6-.1s.4,0,.6.1"/>
  <path class="st0" d="M106.4,99.5c.2.2.4.5.4,1v2.4h-1v-2.2c0-.2,0-.3,0-.4,0-.2-.3-.3-.5-.3s-.6.1-.7.4c0,.1,0,.3,0,.5v2h-1v-3.6h1v.5c.1-.2.2-.3.4-.4.2-.1.5-.2.8-.2s.7,0,1,.3"/>
  <path class="st0" d="M110.8,102.5c-.3.4-.8.6-1.4.6s-1.1-.2-1.4-.6c-.3-.4-.5-.8-.5-1.4s.2-1,.5-1.4c.3-.4.8-.6,1.4-.6s1.1.2,1.4.6c.3.4.5.8.5,1.4s-.2,1-.5,1.4M110,102c.2-.2.2-.5.2-.8s0-.6-.2-.8c-.2-.2-.4-.3-.7-.3s-.5,0-.7.3c-.2.2-.2.5-.2.8s0,.6.2.8c.2.2.4.3.7.3s.5,0,.7-.3"/>
  <rect class="st0" x="112" y="98" width="1" height="4.9"/>
  <path class="st0" d="M117.1,102.5c-.3.4-.8.6-1.4.6s-1.1-.2-1.4-.6c-.3-.4-.5-.8-.5-1.4s.2-1,.5-1.4c.3-.4.8-.6,1.4-.6s1.1.2,1.4.6c.3.4.5.8.5,1.4s-.2,1-.5,1.4M116.3,102c.2-.2.2-.5.2-.8s0-.6-.2-.8c-.2-.2-.4-.3-.7-.3s-.5,0-.7.3c-.2.2-.2.5-.2.8s0,.6.2.8c.2.2.4.3.7.3s.5,0,.7-.3"/>
  <path class="st0" d="M120.1,99.3c.2,0,.4.3.6.5v-.5h1v3.4c0,.5,0,.8-.2,1.1-.3.4-.8.6-1.6.6s-.9,0-1.2-.3c-.3-.2-.5-.5-.5-.8h1.1c0,.1,0,.2.1.2.1,0,.3.1.5.1s.6-.1.7-.3c0-.1.1-.4.1-.7v-.2c0,.2-.2.3-.3.3-.2.1-.5.2-.8.2-.5,0-.9-.2-1.2-.5-.3-.3-.4-.8-.4-1.3s.1-1,.4-1.4c.3-.4.7-.5,1.2-.5s.4,0,.5,0M120.5,101.9c.2-.2.2-.4.2-.8s0-.6-.2-.8c-.2-.2-.4-.3-.6-.3s-.6.2-.7.5c0,.2-.1.4-.1.6s0,.4.1.6c.1.3.4.5.7.5s.4,0,.6-.2"/>
  <path class="st0" d="M123.6,98.9h-1v-.9h1v.9ZM122.6,99.3h1v3.6h-1v-3.6Z"/>
  <path class="st0" d="M127,99.4c.3.1.5.3.7.5.2.2.3.5.3.7,0,.2,0,.4,0,.7h-2.7c0,.4.1.6.4.8.2,0,.3.1.5.1s.4,0,.5-.2c0,0,.1-.1.2-.2h1c0,.2-.1.4-.4.7-.3.4-.8.5-1.4.5s-.9-.1-1.3-.4c-.4-.3-.6-.8-.6-1.4s.2-1.1.5-1.4c.3-.3.8-.5,1.3-.5s.6,0,.9.2M125.5,100.2c-.1.1-.2.3-.3.6h1.7c0-.3-.1-.4-.3-.6-.2-.1-.4-.2-.6-.2s-.4,0-.6.2"/>
  <path class="st0" d="M129.3,101.8c0,.2,0,.3.1.4.1.1.3.2.7.2s.3,0,.5,0c.1,0,.2-.1.2-.2s0-.2-.1-.2c0,0-.4-.1-1-.3-.4-.1-.7-.2-.9-.4-.2-.1-.3-.4-.3-.6s.1-.6.4-.9c.3-.2.7-.4,1.2-.4s.9,0,1.2.3c.3.2.5.5.5.9h-1c0-.1,0-.2-.1-.3-.1-.1-.3-.2-.6-.2s-.4,0-.5,0c0,0-.1.1-.1.2s0,.2.1.2c0,0,.4.1,1,.3.4,0,.7.2.9.4.2.2.3.4.3.7s-.1.6-.4.9c-.3.2-.7.3-1.3.3s-1-.1-1.3-.4c-.3-.2-.4-.5-.4-.9h1Z"/>
</svg>