<svg width="389" height="404" viewBox="0 0 389 404" fill="none" xmlns="http://www.w3.org/2000/svg">
<path fill-rule="evenodd" clip-rule="evenodd" d="M301.81 144.985L128.389 264.95L123.599 258.588L297.02 139.532L301.81 144.985Z" fill="#F05B28"/>
<path fill-rule="evenodd" clip-rule="evenodd" d="M252.946 4.11806L233.783 102.271L226.118 101.362L239.532 1.3916L252.946 4.11806Z" fill="#F05B28"/>
<path fill-rule="evenodd" clip-rule="evenodd" d="M284.564 12.2978L249.114 106.815L242.406 104.089L272.109 7.75366L284.564 12.2978Z" fill="#F05B28"/>
<path fill-rule="evenodd" clip-rule="evenodd" d="M315.224 25.0215L264.443 113.177L257.736 109.542L303.726 19.5686L315.224 25.0215Z" fill="#F05B28"/>
<path fill-rule="evenodd" clip-rule="evenodd" d="M343.01 42.2889L278.815 122.265L273.067 117.721L332.471 35.0183L343.01 42.2889Z" fill="#F05B28"/>
<path fill-rule="evenodd" clip-rule="evenodd" d="M367.921 64.1002L291.271 132.262L285.522 127.718L358.34 55.012L367.921 64.1002Z" fill="#F05B28"/>
<path fill-rule="evenodd" clip-rule="evenodd" d="M389 88.6386L301.81 144.986L297.02 139.533L381.335 78.6416L389 88.6386Z" fill="#F05B28"/>
<path fill-rule="evenodd" clip-rule="evenodd" d="M381.335 325.841L297.02 264.95L301.81 258.588L389 315.844L381.335 325.841Z" fill="#F05B28"/>
<path fill-rule="evenodd" clip-rule="evenodd" d="M358.34 349.471L285.522 276.765L291.271 271.312L367.921 340.383L358.34 349.471Z" fill="#F05B28"/>
<path fill-rule="evenodd" clip-rule="evenodd" d="M332.471 369.465L273.067 286.762L278.815 282.218L343.01 361.285L332.471 369.465Z" fill="#F05B28"/>
<path fill-rule="evenodd" clip-rule="evenodd" d="M303.726 384.915L257.736 294.942L264.443 291.306L315.224 379.462L303.726 384.915Z" fill="#F05B28"/>
<path fill-rule="evenodd" clip-rule="evenodd" d="M272.109 395.821L242.406 300.395L249.114 297.668L284.564 392.186L272.109 395.821Z" fill="#F05B28"/>
<path fill-rule="evenodd" clip-rule="evenodd" d="M239.532 402.182L226.118 303.12L233.783 302.212L252.946 400.364L239.532 402.182Z" fill="#F05B28"/>
<path fill-rule="evenodd" clip-rule="evenodd" d="M205.998 404L208.872 304.03H216.537L219.412 404H205.998Z" fill="#F05B28"/>
<path fill-rule="evenodd" clip-rule="evenodd" d="M172.463 400.364L192.584 302.212L200.249 303.12L185.877 402.182L172.463 400.364Z" fill="#F05B28"/>
<path fill-rule="evenodd" clip-rule="evenodd" d="M140.845 392.186L176.295 297.668L183.002 300.395L153.3 395.821L140.845 392.186Z" fill="#F05B28"/>
<path fill-rule="evenodd" clip-rule="evenodd" d="M110.185 379.462L160.965 291.306L167.672 294.942L122.64 384.915L110.185 379.462Z" fill="#F05B28"/>
<path fill-rule="evenodd" clip-rule="evenodd" d="M82.3994 361.285L146.594 282.218L153.301 286.762L92.9389 369.465L82.3994 361.285Z" fill="#F05B28"/>
<path fill-rule="evenodd" clip-rule="evenodd" d="M57.4875 340.383L134.138 271.312L139.886 276.765L67.0688 349.471L57.4875 340.383Z" fill="#F05B28"/>
<path fill-rule="evenodd" clip-rule="evenodd" d="M36.4087 315.844L123.598 258.588L128.389 264.95L44.0737 325.841L36.4087 315.844Z" fill="#F05B28"/>
<path fill-rule="evenodd" clip-rule="evenodd" d="M20.1204 287.671L115.933 244.956L118.808 251.318L25.8692 299.486L20.1204 287.671Z" fill="#F05B28"/>
<path fill-rule="evenodd" clip-rule="evenodd" d="M8.62329 258.589L109.227 230.415L112.101 236.777L12.4557 270.403L8.62329 258.589Z" fill="#F05B28"/>
<path fill-rule="evenodd" clip-rule="evenodd" d="M1.91626 227.688L106.352 214.965L107.31 221.326L3.83249 239.503L1.91626 227.688Z" fill="#F05B28"/>
<path fill-rule="evenodd" clip-rule="evenodd" d="M0 195.88L105.394 198.607V205.877L0 208.604V195.88Z" fill="#F05B28"/>
<path fill-rule="evenodd" clip-rule="evenodd" d="M3.83249 164.071L107.31 183.156L106.352 189.518L1.91626 176.794L3.83249 164.071Z" fill="#F05B28"/>
<path fill-rule="evenodd" clip-rule="evenodd" d="M12.4557 134.08L112.101 166.798L109.227 174.068L8.62329 145.895L12.4557 134.08Z" fill="#F05B28"/>
<path fill-rule="evenodd" clip-rule="evenodd" d="M25.8692 104.998L118.808 152.256L115.933 159.527L20.1204 115.903L25.8692 104.998Z" fill="#F05B28"/>
<path fill-rule="evenodd" clip-rule="evenodd" d="M44.0737 78.6416L128.389 139.533L123.598 144.986L36.4087 88.6386L44.0737 78.6416Z" fill="#F05B28"/>
<path fill-rule="evenodd" clip-rule="evenodd" d="M67.0688 55.012L139.886 127.718L134.138 132.262L57.4875 64.1002L67.0688 55.012Z" fill="#F05B28"/>
<path fill-rule="evenodd" clip-rule="evenodd" d="M92.9389 35.0183L153.301 117.721L146.594 122.265L82.3994 42.2889L92.9389 35.0183Z" fill="#F05B28"/>
<path fill-rule="evenodd" clip-rule="evenodd" d="M122.64 19.5686L167.672 109.542L160.965 113.177L110.185 25.0215L122.64 19.5686Z" fill="#F05B28"/>
<path fill-rule="evenodd" clip-rule="evenodd" d="M153.3 7.75366L183.002 104.089L176.295 106.815L140.845 12.2978L153.3 7.75366Z" fill="#F05B28"/>
<path fill-rule="evenodd" clip-rule="evenodd" d="M185.877 1.3916L200.249 101.362L192.584 102.271L172.463 4.11806L185.877 1.3916Z" fill="#F05B28"/>
<path fill-rule="evenodd" clip-rule="evenodd" d="M219.412 0.483154L216.537 100.454H208.872L205.998 0.483154H219.412Z" fill="#F05B28"/>
</svg>
