<svg width="170" height="53" viewBox="0 0 170 53" fill="none" xmlns="http://www.w3.org/2000/svg">
<path d="M6.32765 19.6629C7.22449 17.9661 8.42027 16.6187 9.96482 15.7204C11.5094 14.8221 13.2034 14.323 15.0469 14.323C16.8904 14.323 17.837 14.6224 19.1325 15.2712C20.4279 15.8701 21.4244 16.7185 22.2216 17.7665V7.33618H27.8517V36.581H22.2216V33.3371C21.524 34.4351 20.5774 35.2835 19.3318 35.9322C18.0862 36.581 16.6413 36.9303 15.0469 36.9303C13.4525 36.9303 11.5094 36.4313 10.0146 35.4831C8.47009 34.5349 7.27431 33.1874 6.37748 31.4906C5.48064 29.7439 5.03223 27.7976 5.03223 25.5518C5.03223 23.3061 5.48064 21.3597 6.37748 19.6629H6.32765ZM21.4244 22.2081C20.8763 21.2599 20.1788 20.5113 19.2819 20.0123C18.3851 19.5132 17.4384 19.2637 16.3921 19.2637C15.3458 19.2637 14.3992 19.5132 13.5522 20.0123C12.7051 20.5113 11.9578 21.2599 11.4595 22.2081C10.9115 23.1563 10.6624 24.3042 10.6624 25.6516C10.6624 26.9991 10.9115 28.1469 11.4595 29.0951C12.0076 30.0932 12.7051 30.8418 13.602 31.3908C14.4988 31.9398 15.4455 32.1893 16.442 32.1893C17.4384 32.1893 18.4349 31.9398 19.3318 31.4407C20.2286 30.9416 20.9261 30.1931 21.4742 29.2448C22.0223 28.2966 22.2714 27.1488 22.2714 25.8013C22.2714 24.4539 22.0223 23.3061 21.4742 22.3578L21.4244 22.2081Z" fill="white"/>
<path d="M33.5316 11.179C32.8839 10.5801 32.585 9.78159 32.585 8.88328C32.585 7.98498 32.8839 7.18649 33.5316 6.58762C34.1793 5.98874 34.9765 5.6394 35.973 5.6394C36.9695 5.6394 37.7667 5.93884 38.4144 6.58762C39.0621 7.18649 39.361 7.98498 39.361 8.88328C39.361 9.78159 39.0621 10.5801 38.4144 11.179C37.7667 11.7778 36.9695 12.1272 35.973 12.1272C34.9765 12.1272 34.1793 11.8277 33.5316 11.179ZM38.7133 14.6724V36.581H33.1828V14.6724H38.7133Z" fill="white"/>
<path d="M57.0486 15.3211C58.2942 15.9699 59.2408 16.8183 59.9882 17.8164V14.6723H65.5685V36.7307C65.5685 38.7769 65.1699 40.5735 64.3229 42.1705C63.5257 43.7674 62.2801 45.0151 60.6359 45.9633C58.9917 46.9115 57.0486 47.3607 54.7068 47.3607C52.3651 47.3607 49.0767 46.6121 47.0837 45.1648C45.0908 43.7175 43.9946 41.7213 43.6957 39.226H49.1764C49.4753 40.2241 50.0732 41.0226 51.0697 41.6215C52.0163 42.2204 53.2121 42.5198 54.5574 42.5198C55.9026 42.5198 57.4472 42.0207 58.4437 41.0725C59.4401 40.1243 59.9384 38.677 59.9384 36.6808V33.2872C59.2408 34.3352 58.2444 35.1836 56.9988 35.8823C55.7531 36.581 54.3082 36.9303 52.7139 36.9303C51.1195 36.9303 49.1764 36.4313 47.6816 35.4831C46.1371 34.5349 44.9413 33.1874 44.0445 31.4906C43.1476 29.7439 42.6992 27.7976 42.6992 25.5518C42.6992 23.306 43.1476 21.3597 44.0445 19.6629C44.9413 17.9661 46.1371 16.6187 47.6318 15.7204C49.1265 14.8221 50.8206 14.323 52.7139 14.323C54.6072 14.323 55.803 14.6224 56.9988 15.2712L57.0486 15.3211ZM59.1412 22.2081C58.5931 21.2599 57.8956 20.5113 56.9988 20.0123C56.1019 19.5132 55.1553 19.2637 54.1089 19.2637C53.0626 19.2637 52.116 19.5132 51.269 20.0123C50.422 20.5113 49.6746 21.2599 49.1764 22.2081C48.6283 23.1563 48.3792 24.3042 48.3792 25.6516C48.3792 26.9991 48.6283 28.1469 49.1764 29.0951C49.7244 30.0932 50.422 30.8418 51.3188 31.3908C52.2156 31.9398 53.1623 32.1893 54.1588 32.1893C55.1553 32.1893 56.1517 31.9398 57.0486 31.4407C57.9454 30.9416 58.6429 30.1931 59.191 29.2448C59.7391 28.2966 59.9882 27.1488 59.9882 25.8013C59.9882 24.4539 59.7391 23.306 59.191 22.3578L59.1412 22.2081Z" fill="white"/>
<path d="M71.2982 11.179C70.6505 10.5801 70.3516 9.78159 70.3516 8.88328C70.3516 7.98498 70.6505 7.18649 71.2982 6.58762C71.9459 5.98874 72.7431 5.6394 73.7396 5.6394C74.7361 5.6394 75.5333 5.93884 76.181 6.58762C76.8287 7.18649 77.1276 7.98498 77.1276 8.88328C77.1276 9.78159 76.8287 10.5801 76.181 11.179C75.5333 11.7778 74.7361 12.1272 73.7396 12.1272C72.7431 12.1272 71.9459 11.8277 71.2982 11.179ZM76.4301 14.6724V36.581H70.8996V14.6724H76.4301Z" fill="white"/>
<path d="M100.346 16.8683C101.94 18.5152 102.737 20.8109 102.737 23.7553V36.6311H97.2069V24.5538C97.2069 22.8071 96.7585 21.4597 95.9115 20.5614C95.0645 19.6132 93.8687 19.164 92.374 19.164C90.8793 19.164 89.6337 19.6132 88.7368 20.5614C87.84 21.5096 87.3916 22.857 87.3916 24.5538V36.6311H81.8611V14.6725H87.3916V17.4173C88.1389 16.4691 89.0856 15.7205 90.2315 15.1715C91.3775 14.6226 92.6231 14.373 94.0182 14.373C96.609 14.373 98.7515 15.2214 100.346 16.8683Z" fill="white"/>
<path d="M144.44 36.581L139.956 29.7938L135.97 36.581H130.041L137.166 25.6017L129.941 14.6724H136.169L140.654 21.4596L144.689 14.6724H150.618L143.444 25.6017L150.718 36.581H144.49H144.44Z" fill="white"/>
<path d="M160.135 19.2636V29.8437C160.135 30.5923 160.334 31.0913 160.683 31.4407C161.032 31.79 161.629 31.9397 162.476 31.9397H165.067V36.6309H161.58C156.896 36.6309 154.604 34.3851 154.604 29.8437V19.2636H152.013V14.7222H154.604V9.28247H160.185V14.7222H165.067V19.2636H160.185H160.135Z" fill="white"/>
<path fill-rule="evenodd" clip-rule="evenodd" d="M122.617 22.3578L113.599 28.9454L113.35 28.596L122.368 22.0583L122.617 22.3578Z" fill="#F05B28"/>
<path fill-rule="evenodd" clip-rule="evenodd" d="M120.076 14.6224L119.08 20.0122L118.681 19.9623L119.379 14.4727L120.076 14.6224Z" fill="#F05B28"/>
<path fill-rule="evenodd" clip-rule="evenodd" d="M121.72 15.0716L119.877 20.2618L119.528 20.112L121.073 14.822L121.72 15.0716Z" fill="#F05B28"/>
<path fill-rule="evenodd" clip-rule="evenodd" d="M123.315 15.7704L120.674 20.6112L120.325 20.4116L122.717 15.4709L123.315 15.7704Z" fill="#F05B28"/>
<path fill-rule="evenodd" clip-rule="evenodd" d="M124.76 16.7186L121.421 21.1103L121.123 20.8608L124.212 16.3193L124.76 16.7186Z" fill="#F05B28"/>
<path fill-rule="evenodd" clip-rule="evenodd" d="M126.055 17.9163L122.069 21.6592L121.77 21.4097L125.557 17.4172L126.055 17.9163Z" fill="#F05B28"/>
<path fill-rule="evenodd" clip-rule="evenodd" d="M127.151 19.2638L122.617 22.358L122.368 22.0585L126.753 18.7148L127.151 19.2638Z" fill="#F05B28"/>
<path fill-rule="evenodd" clip-rule="evenodd" d="M126.753 32.2892L122.368 28.9455L122.617 28.5962L127.151 31.7403L126.753 32.2892Z" fill="#F05B28"/>
<path fill-rule="evenodd" clip-rule="evenodd" d="M125.557 33.5866L121.77 29.5941L122.069 29.2947L126.055 33.0875L125.557 33.5866Z" fill="#F05B28"/>
<path fill-rule="evenodd" clip-rule="evenodd" d="M124.212 34.6845L121.123 30.1431L121.421 29.8936L124.76 34.2354L124.212 34.6845Z" fill="#F05B28"/>
<path fill-rule="evenodd" clip-rule="evenodd" d="M122.717 35.5331L120.325 30.5924L120.674 30.3928L123.315 35.2337L122.717 35.5331Z" fill="#F05B28"/>
<path fill-rule="evenodd" clip-rule="evenodd" d="M121.073 36.1318L119.528 30.8917L119.877 30.7419L121.72 35.9322L121.073 36.1318Z" fill="#F05B28"/>
<path fill-rule="evenodd" clip-rule="evenodd" d="M119.379 36.4813L118.681 31.0416L119.08 30.9917L120.076 36.3815L119.379 36.4813Z" fill="#F05B28"/>
<path fill-rule="evenodd" clip-rule="evenodd" d="M117.635 36.581L117.784 31.0913H118.183L118.332 36.581H117.635Z" fill="#F05B28"/>
<path fill-rule="evenodd" clip-rule="evenodd" d="M115.891 36.3815L116.937 30.9917L117.336 31.0416L116.588 36.4813L115.891 36.3815Z" fill="#F05B28"/>
<path fill-rule="evenodd" clip-rule="evenodd" d="M114.247 35.9322L116.09 30.7419L116.439 30.8917L114.895 36.1318L114.247 35.9322Z" fill="#F05B28"/>
<path fill-rule="evenodd" clip-rule="evenodd" d="M112.652 35.2337L115.293 30.3928L115.642 30.5924L113.3 35.5331L112.652 35.2337Z" fill="#F05B28"/>
<path fill-rule="evenodd" clip-rule="evenodd" d="M111.208 34.2354L114.546 29.8936L114.895 30.1431L111.756 34.6845L111.208 34.2354Z" fill="#F05B28"/>
<path fill-rule="evenodd" clip-rule="evenodd" d="M109.912 33.0875L113.898 29.2947L114.197 29.5941L110.41 33.5866L109.912 33.0875Z" fill="#F05B28"/>
<path fill-rule="evenodd" clip-rule="evenodd" d="M108.816 31.7403L113.35 28.5962L113.599 28.9455L109.215 32.2892L108.816 31.7403Z" fill="#F05B28"/>
<path fill-rule="evenodd" clip-rule="evenodd" d="M107.969 30.193L112.951 27.8474L113.101 28.1968L108.268 30.8418L107.969 30.193Z" fill="#F05B28"/>
<path fill-rule="evenodd" clip-rule="evenodd" d="M107.371 28.5962L112.603 27.0491L112.752 27.3984L107.57 29.2449L107.371 28.5962Z" fill="#F05B28"/>
<path fill-rule="evenodd" clip-rule="evenodd" d="M107.022 26.8994L112.453 26.2007L112.503 26.55L107.122 27.5481L107.022 26.8994Z" fill="#F05B28"/>
<path fill-rule="evenodd" clip-rule="evenodd" d="M106.923 25.1526L112.403 25.3023V25.7016L106.923 25.8513V25.1526Z" fill="#F05B28"/>
<path fill-rule="evenodd" clip-rule="evenodd" d="M107.122 23.406L112.503 24.454L112.453 24.8034L107.022 24.1047L107.122 23.406Z" fill="#F05B28"/>
<path fill-rule="evenodd" clip-rule="evenodd" d="M107.57 21.759L112.752 23.5556L112.603 23.9549L107.371 22.4078L107.57 21.759Z" fill="#F05B28"/>
<path fill-rule="evenodd" clip-rule="evenodd" d="M108.268 20.1621L113.101 22.7572L112.951 23.1565L107.969 20.761L108.268 20.1621Z" fill="#F05B28"/>
<path fill-rule="evenodd" clip-rule="evenodd" d="M109.215 18.7148L113.599 22.0585L113.35 22.358L108.816 19.2638L109.215 18.7148Z" fill="#F05B28"/>
<path fill-rule="evenodd" clip-rule="evenodd" d="M110.41 17.4172L114.197 21.4097L113.898 21.6592L109.912 17.9163L110.41 17.4172Z" fill="#F05B28"/>
<path fill-rule="evenodd" clip-rule="evenodd" d="M111.756 16.3193L114.895 20.8608L114.546 21.1103L111.208 16.7186L111.756 16.3193Z" fill="#F05B28"/>
<path fill-rule="evenodd" clip-rule="evenodd" d="M113.3 15.4709L115.642 20.4116L115.293 20.6112L112.652 15.7704L113.3 15.4709Z" fill="#F05B28"/>
<path fill-rule="evenodd" clip-rule="evenodd" d="M114.895 14.822L116.439 20.112L116.09 20.2618L114.247 15.0716L114.895 14.822Z" fill="#F05B28"/>
<path fill-rule="evenodd" clip-rule="evenodd" d="M116.588 14.4727L117.336 19.9623L116.937 20.0122L115.891 14.6224L116.588 14.4727Z" fill="#F05B28"/>
<path fill-rule="evenodd" clip-rule="evenodd" d="M118.332 14.4229L118.183 19.9125H117.784L117.635 14.4229H118.332Z" fill="#F05B28"/>
<path d="M71.5474 39.5752C71.6471 39.4753 71.7467 39.4753 71.8962 39.4753C72.0457 39.4753 72.1951 39.4753 72.245 39.5752C72.2948 39.675 72.3944 39.7748 72.3944 39.8746C72.3944 39.9744 72.3944 40.1241 72.245 40.174C72.0955 40.2239 72.0457 40.2738 71.8962 40.2738C71.7467 40.2738 71.5972 40.2738 71.5474 40.174C71.4976 40.0742 71.3979 39.9744 71.3979 39.8746C71.3979 39.7748 71.398 39.6251 71.5474 39.5752ZM72.2948 41.1721V45.5639H71.5474V41.1721H72.2948Z" fill="white"/>
<path d="M77.3271 41.5715C77.6759 41.9208 77.8253 42.37 77.8253 42.9688V45.514H77.078V43.0187C77.078 42.5696 76.9783 42.2701 76.7292 42.0206C76.4801 41.7711 76.1812 41.6713 75.7826 41.6713C75.384 41.6713 75.0352 41.821 74.7861 42.0705C74.537 42.3201 74.4373 42.7193 74.4373 43.2184V45.5639H73.6899V41.1722H74.4373V42.2202C74.537 41.8709 74.7363 41.5715 75.0352 41.4217C75.3341 41.2221 75.6829 41.1223 76.0815 41.1223C76.4801 41.1223 77.0282 41.272 77.3769 41.6214L77.3271 41.5715Z" fill="white"/>
<path d="M80.9145 44.7653L82.3095 41.1721H83.1067L81.3131 45.5638H80.4162L78.6226 41.1721H79.4197L80.8646 44.7653H80.9145Z" fill="white"/>
<path d="M84.0035 39.5752C84.1031 39.4753 84.2028 39.4753 84.3522 39.4753C84.5017 39.4753 84.6512 39.4753 84.701 39.5752C84.7508 39.675 84.8505 39.7748 84.8505 39.8746C84.8505 39.9744 84.8505 40.1241 84.701 40.174C84.5515 40.2239 84.5017 40.2738 84.3522 40.2738C84.2028 40.2738 84.0533 40.2738 84.0035 40.174C83.9537 40.0742 83.854 39.9744 83.854 39.8746C83.854 39.7748 83.854 39.6251 84.0035 39.5752ZM84.7508 41.1721V45.5639H84.0035V41.1721H84.7508Z" fill="white"/>
<path d="M88.2884 44.9152V45.564H87.7403C87.2919 45.564 86.9431 45.4642 86.694 45.2646C86.4449 45.0649 86.3452 44.7156 86.3452 44.2165V41.871H85.6477V41.2222H86.3452V40.1243H87.0926V41.2222H88.2884V41.871H87.0926V44.2664C87.0926 44.5659 87.1424 44.7655 87.2421 44.8653C87.3417 44.9651 87.541 45.015 87.7901 45.015H88.2386L88.2884 44.9152Z" fill="white"/>
<path d="M93.5198 43.5177H89.8826C89.8826 44.0168 90.0321 44.416 90.331 44.6655C90.63 44.9151 90.9289 45.0648 91.3773 45.0648C91.8258 45.0648 92.0251 44.965 92.2742 44.8152C92.5233 44.6156 92.6728 44.416 92.7226 44.1166H93.5198C93.47 44.416 93.3205 44.7154 93.171 44.9151C92.9717 45.1646 92.7226 45.3642 92.4237 45.464C92.1247 45.5638 91.7759 45.6636 91.3773 45.6636C90.9787 45.6636 90.5303 45.5638 90.2314 45.4141C89.8826 45.2145 89.6335 44.965 89.4342 44.6156C89.2349 44.2663 89.1353 43.867 89.1353 43.4179C89.1353 42.9687 89.2349 42.5695 89.4342 42.2201C89.6335 41.8708 89.8826 41.6213 90.2314 41.4216C90.5802 41.222 90.9787 41.1721 91.3773 41.1721C91.7759 41.1721 92.2244 41.2719 92.5233 41.4216C92.8721 41.6213 93.1212 41.8209 93.2707 42.1702C93.4201 42.4697 93.5198 42.819 93.5198 43.1684C93.5198 43.5177 93.5198 43.4678 93.5198 43.5676V43.5177ZM92.6229 42.3699C92.4735 42.1702 92.324 41.9706 92.1247 41.8708C91.9254 41.771 91.6763 41.7211 91.4272 41.7211C91.0286 41.7211 90.6798 41.8209 90.3809 42.0704C90.0819 42.32 89.9324 42.6693 89.9324 43.1684H92.8222C92.8222 42.819 92.8222 42.5695 92.6728 42.3699H92.6229Z" fill="white"/>
<path d="M97.4061 44.7156V45.564H96.5093V44.7156H97.4061Z" fill="white"/>
<path d="M100.645 39.5752C100.744 39.4753 100.844 39.4753 100.994 39.4753C101.143 39.4753 101.293 39.4753 101.342 39.5752C101.392 39.675 101.492 39.7748 101.492 39.8746C101.492 39.9744 101.492 40.1241 101.342 40.174C101.193 40.2239 101.143 40.2738 100.994 40.2738C100.844 40.2738 100.695 40.2738 100.645 40.174C100.595 40.0742 100.495 39.9744 100.495 39.8746C100.495 39.7748 100.495 39.6251 100.645 39.5752ZM101.392 41.1721V45.5639H100.645V41.1721H101.392Z" fill="white"/>
<path d="M106.424 41.5715C106.773 41.9208 106.923 42.37 106.923 42.9688V45.514H106.175V43.0187C106.175 42.5696 106.075 42.2701 105.826 42.0206C105.577 41.7711 105.278 41.6713 104.88 41.6713C104.481 41.6713 104.132 41.821 103.883 42.0705C103.634 42.3201 103.534 42.7193 103.534 43.2184V45.5639H102.787V41.1722H103.534V42.2202C103.634 41.8709 103.833 41.5715 104.132 41.4217C104.431 41.2221 104.78 41.1223 105.179 41.1223C105.577 41.1223 106.125 41.272 106.474 41.6214L106.424 41.5715Z" fill="white"/>
<path d="M109.414 40.3238C109.264 40.4735 109.165 40.7231 109.165 41.0225V41.1223H110.261V41.7711H109.165V45.514H108.417V41.7711H107.77V41.1223H108.417V40.9227C108.417 39.8747 109.015 39.3756 110.261 39.4255V40.0743C109.862 40.0743 109.563 40.1242 109.414 40.2739V40.3238Z" fill="white"/>
<path d="M114.446 41.3718C114.795 41.5715 115.044 41.821 115.243 42.1703C115.442 42.5197 115.542 42.9189 115.542 43.3681C115.542 43.8172 115.442 44.2165 115.243 44.5658C115.044 44.9152 114.795 45.1647 114.446 45.3643C114.097 45.5639 113.699 45.6138 113.25 45.6138C112.802 45.6138 112.403 45.514 112.054 45.3643C111.706 45.1647 111.456 44.9152 111.257 44.5658C111.058 44.2165 110.958 43.8172 110.958 43.3681C110.958 42.9189 111.058 42.5197 111.257 42.1703C111.456 41.821 111.706 41.5715 112.054 41.3718C112.403 41.1722 112.802 41.1223 113.25 41.1223C113.699 41.1223 114.097 41.2221 114.446 41.3718ZM112.553 41.9208C112.304 42.0206 112.154 42.2202 112.005 42.4698C111.855 42.7193 111.805 43.0187 111.805 43.3681C111.805 43.7174 111.855 44.0169 112.005 44.2664C112.154 44.5159 112.353 44.6656 112.553 44.8153C112.802 44.9152 113.051 45.015 113.3 45.015C113.549 45.015 113.798 44.9651 114.047 44.8153C114.296 44.7155 114.446 44.5159 114.595 44.2664C114.745 44.0169 114.795 43.7174 114.795 43.3681C114.795 43.0187 114.745 42.7193 114.595 42.4698C114.446 42.2202 114.247 42.0705 114.047 41.9208C113.798 41.821 113.549 41.7212 113.3 41.7212C113.051 41.7212 112.802 41.7711 112.553 41.9208Z" fill="white"/>
<path d="M118.083 41.3718C118.382 41.2221 118.731 41.1223 119.129 41.1223V41.9208H118.88C118.432 41.9208 118.083 42.0206 117.834 42.2202C117.585 42.4199 117.435 42.7692 117.435 43.2683V45.5639H116.688V41.1722H117.435V42.0705C117.585 41.7711 117.784 41.5216 118.083 41.3718Z" fill="white"/>
<path d="M126.902 41.5714C127.201 41.9208 127.4 42.3699 127.4 42.9688V45.514H126.653V43.0187C126.653 42.5695 126.553 42.2701 126.304 42.0206C126.055 41.771 125.806 41.6712 125.407 41.6712C125.009 41.6712 124.71 41.821 124.461 42.0705C124.212 42.32 124.112 42.6694 124.112 43.1684V45.514H123.365V43.0187C123.365 42.5695 123.265 42.2701 123.016 42.0206C122.767 41.771 122.518 41.6712 122.119 41.6712C121.72 41.6712 121.372 41.821 121.172 42.0705C120.973 42.32 120.824 42.6694 120.824 43.1684V45.514H120.076V41.1223H120.824V42.1204C120.923 41.7711 121.122 41.5215 121.421 41.3219C121.72 41.1223 122.019 41.0225 122.418 41.0225C122.816 41.0225 123.165 41.1223 123.414 41.3219C123.713 41.5215 123.913 41.7711 124.012 42.1703C124.162 41.821 124.361 41.5215 124.66 41.3219C124.959 41.1223 125.308 41.0225 125.656 41.0225C126.005 41.0225 126.603 41.1722 126.952 41.5215L126.902 41.5714Z" fill="white"/>
<path d="M131.486 44.7156V45.564H130.589V44.7156H131.486Z" fill="white"/>
<path d="M134.675 39.5752C134.774 39.4753 134.874 39.4753 135.023 39.4753C135.173 39.4753 135.322 39.4753 135.372 39.5752C135.422 39.675 135.522 39.7748 135.522 39.8746C135.522 39.9744 135.522 40.1241 135.372 40.174C135.223 40.2239 135.173 40.2738 135.023 40.2738C134.874 40.2738 134.724 40.2738 134.675 40.174C134.625 40.0742 134.525 39.9744 134.525 39.8746C134.525 39.7748 134.525 39.6251 134.675 39.5752ZM135.422 41.1721V45.5639H134.675V41.1721H135.422Z" fill="white"/>
<path d="M140.454 41.5715C140.803 41.9208 140.953 42.37 140.953 42.9688V45.514H140.205V43.0187C140.205 42.5696 140.106 42.2701 139.856 42.0206C139.607 41.7711 139.308 41.6713 138.91 41.6713C138.511 41.6713 138.162 41.821 137.913 42.0705C137.664 42.3201 137.565 42.7193 137.565 43.2184V45.5639H136.817V41.1722H137.565V42.2202C137.664 41.8709 137.863 41.5715 138.162 41.4217C138.461 41.2221 138.81 41.1223 139.209 41.1223C139.607 41.1223 140.155 41.272 140.504 41.6214L140.454 41.5715Z" fill="white"/>
<path d="M144.042 44.7653L145.437 41.1721H146.234L144.44 45.5638H143.543L141.75 41.1721H142.547L143.992 44.7653H144.042Z" fill="white"/>
<path d="M150.369 41.3718C150.718 41.5715 150.967 41.821 151.166 42.1703C151.366 42.5197 151.465 42.9189 151.465 43.3681C151.465 43.8172 151.366 44.2165 151.166 44.5658C150.967 44.9152 150.718 45.1647 150.369 45.3643C150.021 45.5639 149.622 45.6138 149.174 45.6138C148.725 45.6138 148.326 45.514 147.978 45.3643C147.629 45.1647 147.38 44.9152 147.181 44.5658C146.981 44.2165 146.882 43.8172 146.882 43.3681C146.882 42.9189 146.981 42.5197 147.181 42.1703C147.38 41.821 147.629 41.5715 147.978 41.3718C148.326 41.1722 148.725 41.1223 149.174 41.1223C149.622 41.1223 150.021 41.2221 150.369 41.3718ZM148.476 41.9208C148.227 42.0206 148.077 42.2202 147.928 42.4698C147.778 42.7193 147.729 43.0187 147.729 43.3681C147.729 43.7174 147.778 44.0169 147.928 44.2664C148.077 44.5159 148.277 44.6656 148.476 44.8153C148.725 44.9152 148.974 45.015 149.223 45.015C149.472 45.015 149.722 44.9651 149.971 44.8153C150.22 44.7155 150.369 44.5159 150.519 44.2664C150.668 44.0169 150.718 43.7174 150.718 43.3681C150.718 43.0187 150.668 42.7193 150.519 42.4698C150.369 42.2202 150.17 42.0705 149.971 41.9208C149.722 41.821 149.472 41.7212 149.223 41.7212C148.974 41.7212 148.725 41.7711 148.476 41.9208Z" fill="white"/>
<path d="M153.359 39.6252V45.5141H152.611V39.6252H153.359Z" fill="white"/>
<path d="M156.497 44.7653L157.893 41.1721H158.69L156.896 45.5638H155.999L154.206 41.1721H155.003L156.448 44.7653H156.497Z" fill="white"/>
<path d="M163.772 43.5177H160.135C160.135 44.0168 160.284 44.416 160.583 44.6655C160.882 44.9151 161.181 45.0648 161.63 45.0648C162.078 45.0648 162.277 44.965 162.526 44.8152C162.776 44.6156 162.925 44.416 162.975 44.1166H163.772C163.722 44.416 163.573 44.7154 163.423 44.9151C163.224 45.1646 162.975 45.3642 162.676 45.464C162.377 45.5638 162.028 45.6636 161.63 45.6636C161.231 45.6636 160.783 45.5638 160.484 45.4141C160.135 45.2145 159.886 44.965 159.686 44.6156C159.487 44.2663 159.387 43.867 159.387 43.4179C159.387 42.9687 159.487 42.5695 159.686 42.2201C159.886 41.8708 160.135 41.6213 160.484 41.4216C160.832 41.222 161.231 41.1721 161.63 41.1721C162.028 41.1721 162.477 41.2719 162.776 41.4216C163.124 41.6213 163.373 41.8209 163.523 42.1702C163.672 42.4697 163.772 42.819 163.772 43.1684C163.772 43.5177 163.772 43.4678 163.772 43.5676V43.5177ZM162.875 42.3699C162.726 42.1702 162.576 41.9706 162.377 41.8708C162.178 41.771 161.928 41.7211 161.679 41.7211C161.281 41.7211 160.932 41.8209 160.633 42.0704C160.334 42.32 160.185 42.6693 160.185 43.1684H163.074C163.074 42.819 163.074 42.5695 162.925 42.3699H162.875Z" fill="white"/>
</svg>
