<svg width="161" height="42" viewBox="0 0 161 42" fill="none" xmlns="http://www.w3.org/2000/svg">
<path d="M1.29543 14.0235C2.19226 12.3267 3.38804 10.9793 4.93259 10.081C6.47714 9.18265 8.17116 8.6836 10.0147 8.6836C11.8581 8.6836 12.8048 8.98303 14.1002 9.63181C15.3957 10.2307 16.3921 11.0791 17.1893 12.1271V1.69678H22.8195V30.9416H17.1893V27.6977C16.4918 28.7957 15.5451 29.644 14.2995 30.2928C13.0539 30.9416 11.609 31.2909 10.0147 31.2909C8.42028 31.2909 6.47714 30.7919 4.98241 29.8437C3.43787 28.8955 2.24209 27.548 1.34525 25.8512C0.448417 24.1045 0 22.1582 0 19.9124C0 17.6666 0.448417 15.7203 1.34525 14.0235H1.29543ZM16.3921 16.5687C15.8441 15.6205 15.1465 14.8719 14.2497 14.3729C13.3529 13.8738 12.4062 13.6243 11.3599 13.6243C10.3136 13.6243 9.36694 13.8738 8.51993 14.3729C7.67292 14.8719 6.92556 15.6205 6.42731 16.5687C5.87925 17.5169 5.63013 18.6648 5.63013 20.0122C5.63013 21.3597 5.87925 22.5075 6.42731 23.4557C6.97538 24.4538 7.67292 25.2024 8.56975 25.7514C9.46659 26.3004 10.4132 26.5499 11.4097 26.5499C12.4062 26.5499 13.4027 26.3004 14.2995 25.8013C15.1964 25.3022 15.8939 24.5537 16.442 23.6054C16.99 22.6572 17.2392 21.5094 17.2392 20.1619C17.2392 18.8145 16.99 17.6666 16.442 16.7184L16.3921 16.5687Z" fill="black"/>
<path d="M28.4994 5.53955C27.8517 4.94068 27.5527 4.14218 27.5527 3.24388C27.5527 2.34557 27.8517 1.54708 28.4994 0.948211C29.1471 0.349341 29.9443 0 30.9408 0C31.9373 0 32.7344 0.299435 33.3822 0.948211C34.0299 1.54708 34.3288 2.34557 34.3288 3.24388C34.3288 4.14218 34.0299 4.94068 33.3822 5.53955C32.7344 6.13842 31.9373 6.48776 30.9408 6.48776C29.9443 6.48776 29.1471 6.18832 28.4994 5.53955ZM33.6811 9.03296V30.9416H28.1506V9.03296H33.6811Z" fill="black"/>
<path d="M52.0163 9.68171C53.262 10.3305 54.2086 11.1789 54.956 12.177V9.03293H60.5363V31.0913C60.5363 33.1375 60.1377 34.9341 59.2907 36.5311C58.4935 38.128 57.2479 39.3757 55.6037 40.3239C53.9595 41.2721 52.0163 41.7213 49.6746 41.7213C47.3329 41.7213 44.0445 40.9727 42.0515 39.5254C40.0586 38.0781 38.9624 36.0819 38.6635 33.5866H44.1441C44.4431 34.5847 45.041 35.3832 46.0374 35.9821C46.9841 36.581 48.1799 36.8804 49.5251 36.8804C50.8704 36.8804 52.4149 36.3813 53.4114 35.4331C54.4079 34.4849 54.9061 33.0376 54.9061 31.0414V27.6478C54.2086 28.6958 53.2121 29.5442 51.9665 30.2429C50.7209 30.9416 49.276 31.2909 47.6816 31.2909C46.0873 31.2909 44.1441 30.7919 42.6494 29.8437C41.1049 28.8955 39.9091 27.548 39.0122 25.8512C38.1154 24.1045 37.667 22.1582 37.667 19.9124C37.667 17.6666 38.1154 15.7203 39.0122 14.0235C39.9091 12.3267 41.1049 10.9793 42.5996 10.081C44.0943 9.18265 45.7883 8.68359 47.6816 8.68359C49.575 8.68359 50.7707 8.98303 51.9665 9.6318L52.0163 9.68171ZM54.109 16.5687C53.5609 15.6205 52.8634 14.8719 51.9665 14.3729C51.0697 13.8738 50.123 13.6243 49.0767 13.6243C48.0304 13.6243 47.0838 13.8738 46.2367 14.3729C45.3897 14.8719 44.6424 15.6205 44.1441 16.5687C43.5961 17.5169 43.3469 18.6648 43.3469 20.0122C43.3469 21.3597 43.5961 22.5075 44.1441 23.4557C44.6922 24.4538 45.3897 25.2024 46.2866 25.7514C47.1834 26.3004 48.1301 26.5499 49.1265 26.5499C50.123 26.5499 51.1195 26.3004 52.0163 25.8013C52.9132 25.3022 53.6107 24.5537 54.1588 23.6054C54.7069 22.6572 54.956 21.5094 54.956 20.1619C54.956 18.8145 54.7069 17.6666 54.1588 16.7184L54.109 16.5687Z" fill="black"/>
<path d="M66.266 5.53955C65.6183 4.94068 65.3193 4.14218 65.3193 3.24388C65.3193 2.34557 65.6183 1.54708 66.266 0.948211C66.9137 0.349341 67.7109 0 68.7074 0C69.7039 0 70.501 0.299435 71.1488 0.948211C71.7965 1.54708 72.0954 2.34557 72.0954 3.24388C72.0954 4.14218 71.7965 4.94068 71.1488 5.53955C70.501 6.13842 69.7039 6.48776 68.7074 6.48776C67.7109 6.48776 66.9137 6.18832 66.266 5.53955ZM71.3979 9.03296V30.9416H65.8674V9.03296H71.3979Z" fill="black"/>
<path d="M95.3136 11.2289C96.908 12.8758 97.7052 15.1715 97.7052 18.1159V30.9916H92.1747V18.9144C92.1747 17.1677 91.7263 15.8203 90.8793 14.922C90.0323 13.9738 88.8365 13.5246 87.3417 13.5246C85.847 13.5246 84.6014 13.9738 83.7046 14.922C82.8078 15.8702 82.3593 17.2176 82.3593 18.9144V30.9916H76.8289V9.03308H82.3593V11.7779C83.1067 10.8297 84.0534 10.0811 85.1993 9.53214C86.3453 8.98317 87.5909 8.73364 88.9859 8.73364C91.5768 8.73364 93.7192 9.58204 95.3136 11.2289Z" fill="black"/>
<path d="M139.408 30.9416L134.924 24.1544L130.938 30.9416H125.009L132.134 19.9623L124.909 9.03296H131.137L135.621 15.8202L139.657 9.03296H145.586L138.412 19.9623L145.686 30.9416H139.458H139.408Z" fill="black"/>
<path d="M155.103 13.6242V24.2043C155.103 24.9529 155.302 25.4519 155.651 25.8013C155.999 26.1506 156.597 26.3003 157.444 26.3003H160.035V30.9915H156.547C151.864 30.9915 149.572 28.7457 149.572 24.2043V13.6242H146.981V9.0828H149.572V3.64307H155.152V9.0828H160.035V13.6242H155.152H155.103Z" fill="black"/>
<path fill-rule="evenodd" clip-rule="evenodd" d="M117.585 16.7184L108.567 23.306L108.318 22.9566L117.336 16.4189L117.585 16.7184Z" fill="#F05B28"/>
<path fill-rule="evenodd" clip-rule="evenodd" d="M115.044 8.98297L114.048 14.3728L113.649 14.3229L114.346 8.83325L115.044 8.98297Z" fill="#F05B28"/>
<path fill-rule="evenodd" clip-rule="evenodd" d="M116.688 9.43215L114.845 14.6224L114.496 14.4726L116.04 9.18262L116.688 9.43215Z" fill="#F05B28"/>
<path fill-rule="evenodd" clip-rule="evenodd" d="M118.282 10.131L115.642 14.9718L115.293 14.7722L117.685 9.83154L118.282 10.131Z" fill="#F05B28"/>
<path fill-rule="evenodd" clip-rule="evenodd" d="M119.727 11.0792L116.389 15.4709L116.09 15.2214L119.179 10.6799L119.727 11.0792Z" fill="#F05B28"/>
<path fill-rule="evenodd" clip-rule="evenodd" d="M121.023 12.2769L117.037 16.0198L116.738 15.7703L120.525 11.7778L121.023 12.2769Z" fill="#F05B28"/>
<path fill-rule="evenodd" clip-rule="evenodd" d="M122.119 13.6244L117.585 16.7186L117.336 16.4191L121.72 13.0754L122.119 13.6244Z" fill="#F05B28"/>
<path fill-rule="evenodd" clip-rule="evenodd" d="M121.72 26.6498L117.336 23.3061L117.585 22.9568L122.119 26.1009L121.72 26.6498Z" fill="#F05B28"/>
<path fill-rule="evenodd" clip-rule="evenodd" d="M120.525 27.9472L116.738 23.9547L117.037 23.6553L121.023 27.4481L120.525 27.9472Z" fill="#F05B28"/>
<path fill-rule="evenodd" clip-rule="evenodd" d="M119.179 29.0451L116.09 24.5037L116.389 24.2542L119.727 28.596L119.179 29.0451Z" fill="#F05B28"/>
<path fill-rule="evenodd" clip-rule="evenodd" d="M117.685 29.8937L115.293 24.953L115.642 24.7534L118.282 29.5943L117.685 29.8937Z" fill="#F05B28"/>
<path fill-rule="evenodd" clip-rule="evenodd" d="M116.04 30.4924L114.496 25.2523L114.845 25.1025L116.688 30.2927L116.04 30.4924Z" fill="#F05B28"/>
<path fill-rule="evenodd" clip-rule="evenodd" d="M114.346 30.8419L113.649 25.4022L114.048 25.3523L115.044 30.7421L114.346 30.8419Z" fill="#F05B28"/>
<path fill-rule="evenodd" clip-rule="evenodd" d="M112.603 30.9415L112.752 25.4519H113.151L113.3 30.9415H112.603Z" fill="#F05B28"/>
<path fill-rule="evenodd" clip-rule="evenodd" d="M110.859 30.7421L111.905 25.3523L112.304 25.4022L111.556 30.8419L110.859 30.7421Z" fill="#F05B28"/>
<path fill-rule="evenodd" clip-rule="evenodd" d="M109.215 30.2927L111.058 25.1025L111.407 25.2523L109.862 30.4924L109.215 30.2927Z" fill="#F05B28"/>
<path fill-rule="evenodd" clip-rule="evenodd" d="M107.62 29.5943L110.261 24.7534L110.61 24.953L108.268 29.8937L107.62 29.5943Z" fill="#F05B28"/>
<path fill-rule="evenodd" clip-rule="evenodd" d="M106.175 28.596L109.514 24.2542L109.862 24.5037L106.723 29.0451L106.175 28.596Z" fill="#F05B28"/>
<path fill-rule="evenodd" clip-rule="evenodd" d="M104.88 27.4481L108.866 23.6553L109.165 23.9547L105.378 27.9472L104.88 27.4481Z" fill="#F05B28"/>
<path fill-rule="evenodd" clip-rule="evenodd" d="M103.784 26.1009L108.318 22.9568L108.567 23.3061L104.182 26.6498L103.784 26.1009Z" fill="#F05B28"/>
<path fill-rule="evenodd" clip-rule="evenodd" d="M102.937 24.5536L107.919 22.208L108.069 22.5573L103.236 25.2024L102.937 24.5536Z" fill="#F05B28"/>
<path fill-rule="evenodd" clip-rule="evenodd" d="M102.339 22.9567L107.57 21.4097L107.72 21.759L102.538 23.6055L102.339 22.9567Z" fill="#F05B28"/>
<path fill-rule="evenodd" clip-rule="evenodd" d="M101.99 21.26L107.421 20.5613L107.471 20.9106L102.09 21.9087L101.99 21.26Z" fill="#F05B28"/>
<path fill-rule="evenodd" clip-rule="evenodd" d="M101.89 19.5132L107.371 19.6629V20.0621L101.89 20.2119V19.5132Z" fill="#F05B28"/>
<path fill-rule="evenodd" clip-rule="evenodd" d="M102.09 17.7666L107.471 18.8146L107.421 19.164L101.99 18.4653L102.09 17.7666Z" fill="#F05B28"/>
<path fill-rule="evenodd" clip-rule="evenodd" d="M102.538 16.1196L107.72 17.9162L107.57 18.3155L102.339 16.7684L102.538 16.1196Z" fill="#F05B28"/>
<path fill-rule="evenodd" clip-rule="evenodd" d="M103.236 14.5227L108.069 17.1178L107.919 17.5171L102.937 15.1216L103.236 14.5227Z" fill="#F05B28"/>
<path fill-rule="evenodd" clip-rule="evenodd" d="M104.182 13.0754L108.567 16.4191L108.318 16.7186L103.784 13.6244L104.182 13.0754Z" fill="#F05B28"/>
<path fill-rule="evenodd" clip-rule="evenodd" d="M105.378 11.7778L109.165 15.7703L108.866 16.0198L104.88 12.2769L105.378 11.7778Z" fill="#F05B28"/>
<path fill-rule="evenodd" clip-rule="evenodd" d="M106.723 10.6799L109.862 15.2214L109.514 15.4709L106.175 11.0792L106.723 10.6799Z" fill="#F05B28"/>
<path fill-rule="evenodd" clip-rule="evenodd" d="M108.268 9.83154L110.61 14.7722L110.261 14.9718L107.62 10.131L108.268 9.83154Z" fill="#F05B28"/>
<path fill-rule="evenodd" clip-rule="evenodd" d="M109.862 9.18262L111.407 14.4726L111.058 14.6224L109.215 9.43215L109.862 9.18262Z" fill="#F05B28"/>
<path fill-rule="evenodd" clip-rule="evenodd" d="M111.556 8.83325L112.304 14.3229L111.905 14.3728L110.859 8.98297L111.556 8.83325Z" fill="#F05B28"/>
<path fill-rule="evenodd" clip-rule="evenodd" d="M113.3 8.78345L113.151 14.2731H112.752L112.603 8.78345H113.3Z" fill="#F05B28"/>
<path d="M66.5152 33.9358C66.6148 33.8359 66.7145 33.8359 66.864 33.8359C67.0134 33.8359 67.1629 33.8359 67.2127 33.9358C67.2626 34.0356 67.3622 34.1354 67.3622 34.2352C67.3622 34.335 67.3622 34.4847 67.2127 34.5346C67.0633 34.5845 67.0134 34.6344 66.864 34.6344C66.7145 34.6344 66.565 34.6344 66.5152 34.5346C66.4654 34.4348 66.3657 34.335 66.3657 34.2352C66.3657 34.1354 66.3657 33.9857 66.5152 33.9358ZM67.2626 35.5327V39.9245H66.5152V35.5327H67.2626Z" fill="black"/>
<path d="M72.2949 35.9321C72.6436 36.2814 72.7931 36.7306 72.7931 37.3294V39.8746H72.0458V37.3793C72.0458 36.9302 71.9461 36.6307 71.697 36.3812C71.4479 36.1317 71.1489 36.0319 70.7503 36.0319C70.3517 36.0319 70.003 36.1816 69.7539 36.4311C69.5047 36.6807 69.4051 37.0799 69.4051 37.579V39.9245H68.6577V35.5328H69.4051V36.5808C69.5047 36.2315 69.704 35.9321 70.003 35.7823C70.3019 35.5827 70.6507 35.4829 71.0493 35.4829C71.4479 35.4829 71.9959 35.6326 72.3447 35.982L72.2949 35.9321Z" fill="black"/>
<path d="M75.8822 39.1259L77.2773 35.5327H78.0745L76.2808 39.9244H75.384L73.5903 35.5327H74.3875L75.8324 39.1259H75.8822Z" fill="black"/>
<path d="M78.9713 33.9358C79.0709 33.8359 79.1705 33.8359 79.32 33.8359C79.4695 33.8359 79.619 33.8359 79.6688 33.9358C79.7186 34.0356 79.8183 34.1354 79.8183 34.2352C79.8183 34.335 79.8183 34.4847 79.6688 34.5346C79.5193 34.5845 79.4695 34.6344 79.32 34.6344C79.1705 34.6344 79.0211 34.6344 78.9713 34.5346C78.9214 34.4348 78.8218 34.335 78.8218 34.2352C78.8218 34.1354 78.8218 33.9857 78.9713 33.9358ZM79.7186 35.5327V39.9245H78.9713V35.5327H79.7186Z" fill="black"/>
<path d="M83.2562 39.2758V39.9246H82.7081C82.2597 39.9246 81.9109 39.8248 81.6618 39.6252C81.4127 39.4255 81.313 39.0762 81.313 38.5771V36.2316H80.6155V35.5828H81.313V34.4849H82.0604V35.5828H83.2562V36.2316H82.0604V38.627C82.0604 38.9265 82.1102 39.1261 82.2099 39.2259C82.3095 39.3257 82.5088 39.3756 82.7579 39.3756H83.2063L83.2562 39.2758Z" fill="black"/>
<path d="M88.4876 37.8783H84.8504C84.8504 38.3773 84.9999 38.7766 85.2988 39.0261C85.5978 39.2757 85.8967 39.4254 86.3451 39.4254C86.7935 39.4254 86.9928 39.3256 87.242 39.1758C87.4911 38.9762 87.6405 38.7766 87.6904 38.4772H88.4876C88.4377 38.7766 88.2883 39.076 88.1388 39.2757C87.9395 39.5252 87.6904 39.7248 87.3914 39.8246C87.0925 39.9244 86.7437 40.0242 86.3451 40.0242C85.9465 40.0242 85.4981 39.9244 85.1992 39.7747C84.8504 39.5751 84.6013 39.3256 84.402 38.9762C84.2027 38.6269 84.103 38.2276 84.103 37.7785C84.103 37.3293 84.2027 36.9301 84.402 36.5807C84.6013 36.2314 84.8504 35.9819 85.1992 35.7822C85.5479 35.5826 85.9465 35.5327 86.3451 35.5327C86.7437 35.5327 87.1921 35.6325 87.4911 35.7822C87.8398 35.9819 88.089 36.1815 88.2384 36.5308C88.3879 36.8303 88.4876 37.1796 88.4876 37.5289C88.4876 37.8783 88.4876 37.8284 88.4876 37.9282V37.8783ZM87.5907 36.7305C87.4412 36.5308 87.2918 36.3312 87.0925 36.2314C86.8932 36.1316 86.6441 36.0817 86.3949 36.0817C85.9963 36.0817 85.6476 36.1815 85.3486 36.431C85.0497 36.6806 84.9002 37.0299 84.9002 37.5289H87.79C87.79 37.1796 87.79 36.9301 87.6405 36.7305H87.5907Z" fill="black"/>
<path d="M92.3739 39.0762V39.9246H91.4771V39.0762H92.3739Z" fill="black"/>
<path d="M95.6126 33.9358C95.7123 33.8359 95.8119 33.8359 95.9614 33.8359C96.1108 33.8359 96.2603 33.8359 96.3101 33.9358C96.36 34.0356 96.4596 34.1354 96.4596 34.2352C96.4596 34.335 96.4596 34.4847 96.3101 34.5346C96.1607 34.5845 96.1108 34.6344 95.9614 34.6344C95.8119 34.6344 95.6624 34.6344 95.6126 34.5346C95.5628 34.4348 95.4631 34.335 95.4631 34.2352C95.4631 34.1354 95.4631 33.9857 95.6126 33.9358ZM96.36 35.5327V39.9245H95.6126V35.5327H96.36Z" fill="black"/>
<path d="M101.392 35.9321C101.741 36.2814 101.89 36.7306 101.89 37.3294V39.8746H101.143V37.3793C101.143 36.9302 101.043 36.6307 100.794 36.3812C100.545 36.1317 100.246 36.0319 99.8475 36.0319C99.4489 36.0319 99.1001 36.1816 98.851 36.4311C98.6019 36.6807 98.5022 37.0799 98.5022 37.579V39.9245H97.7549V35.5328H98.5022V36.5808C98.6019 36.2315 98.8012 35.9321 99.1001 35.7823C99.3991 35.5827 99.7479 35.4829 100.146 35.4829C100.545 35.4829 101.093 35.6326 101.442 35.982L101.392 35.9321Z" fill="black"/>
<path d="M104.382 34.6844C104.232 34.8341 104.132 35.0837 104.132 35.3831V35.4829H105.229V36.1317H104.132V39.8746H103.385V36.1317H102.737V35.4829H103.385V35.2833C103.385 34.2353 103.983 33.7362 105.229 33.7861V34.4349C104.83 34.4349 104.531 34.4848 104.382 34.6345V34.6844Z" fill="black"/>
<path d="M109.414 35.7324C109.762 35.9321 110.012 36.1816 110.211 36.5309C110.41 36.8803 110.51 37.2795 110.51 37.7287C110.51 38.1778 110.41 38.5771 110.211 38.9264C110.012 39.2758 109.762 39.5253 109.414 39.7249C109.065 39.9245 108.666 39.9744 108.218 39.9744C107.77 39.9744 107.371 39.8746 107.022 39.7249C106.673 39.5253 106.424 39.2758 106.225 38.9264C106.026 38.5771 105.926 38.1778 105.926 37.7287C105.926 37.2795 106.026 36.8803 106.225 36.5309C106.424 36.1816 106.673 35.9321 107.022 35.7324C107.371 35.5328 107.77 35.4829 108.218 35.4829C108.666 35.4829 109.065 35.5827 109.414 35.7324ZM107.52 36.2814C107.271 36.3812 107.122 36.5808 106.972 36.8304C106.823 37.0799 106.773 37.3793 106.773 37.7287C106.773 38.078 106.823 38.3774 106.972 38.627C107.122 38.8765 107.321 39.0262 107.52 39.1759C107.77 39.2758 108.019 39.3756 108.268 39.3756C108.517 39.3756 108.766 39.3257 109.015 39.1759C109.264 39.0761 109.414 38.8765 109.563 38.627C109.713 38.3774 109.762 38.078 109.762 37.7287C109.762 37.3793 109.713 37.0799 109.563 36.8304C109.414 36.5808 109.214 36.4311 109.015 36.2814C108.766 36.1816 108.517 36.0818 108.268 36.0818C108.019 36.0818 107.77 36.1317 107.52 36.2814Z" fill="black"/>
<path d="M113.051 35.7324C113.35 35.5827 113.699 35.4829 114.097 35.4829V36.2814H113.848C113.4 36.2814 113.051 36.3812 112.802 36.5808C112.553 36.7805 112.403 37.1298 112.403 37.6289V39.9245H111.656V35.5328H112.403V36.4311C112.553 36.1317 112.752 35.8822 113.051 35.7324Z" fill="black"/>
<path d="M121.87 35.932C122.169 36.2814 122.368 36.7305 122.368 37.3294V39.8746H121.621V37.3793C121.621 36.9301 121.521 36.6307 121.272 36.3812C121.023 36.1316 120.774 36.0318 120.375 36.0318C119.977 36.0318 119.678 36.1816 119.428 36.4311C119.179 36.6806 119.08 37.03 119.08 37.529V39.8746H118.332V37.3793C118.332 36.9301 118.233 36.6307 117.984 36.3812C117.734 36.1316 117.485 36.0318 117.087 36.0318C116.688 36.0318 116.339 36.1816 116.14 36.4311C115.941 36.6806 115.791 37.03 115.791 37.529V39.8746H115.044V35.4829H115.791V36.481C115.891 36.1316 116.09 35.8821 116.389 35.6825C116.688 35.4829 116.987 35.3831 117.386 35.3831C117.784 35.3831 118.133 35.4829 118.382 35.6825C118.681 35.8821 118.88 36.1316 118.98 36.5309C119.13 36.1816 119.329 35.8821 119.628 35.6825C119.927 35.4829 120.275 35.3831 120.624 35.3831C120.973 35.3831 121.571 35.5328 121.92 35.8821L121.87 35.932Z" fill="black"/>
<path d="M126.454 39.0762V39.9246H125.557V39.0762H126.454Z" fill="black"/>
<path d="M129.642 33.9358C129.742 33.8359 129.842 33.8359 129.991 33.8359C130.141 33.8359 130.29 33.8359 130.34 33.9358C130.39 34.0356 130.489 34.1354 130.489 34.2352C130.489 34.335 130.489 34.4847 130.34 34.5346C130.19 34.5845 130.141 34.6344 129.991 34.6344C129.842 34.6344 129.692 34.6344 129.642 34.5346C129.593 34.4348 129.493 34.335 129.493 34.2352C129.493 34.1354 129.493 33.9857 129.642 33.9358ZM130.39 35.5327V39.9245H129.642V35.5327H130.39Z" fill="black"/>
<path d="M135.422 35.9321C135.771 36.2814 135.92 36.7306 135.92 37.3294V39.8746H135.173V37.3793C135.173 36.9302 135.073 36.6307 134.824 36.3812C134.575 36.1317 134.276 36.0319 133.878 36.0319C133.479 36.0319 133.13 36.1816 132.881 36.4311C132.632 36.6807 132.532 37.0799 132.532 37.579V39.9245H131.785V35.5328H132.532V36.5808C132.632 36.2315 132.831 35.9321 133.13 35.7823C133.429 35.5827 133.778 35.4829 134.176 35.4829C134.575 35.4829 135.123 35.6326 135.472 35.982L135.422 35.9321Z" fill="black"/>
<path d="M139.009 39.1259L140.405 35.5327H141.202L139.408 39.9244H138.511L136.718 35.5327H137.515L138.96 39.1259H139.009Z" fill="black"/>
<path d="M145.337 35.7324C145.686 35.9321 145.935 36.1816 146.134 36.5309C146.334 36.8803 146.433 37.2795 146.433 37.7287C146.433 38.1778 146.334 38.5771 146.134 38.9264C145.935 39.2758 145.686 39.5253 145.337 39.7249C144.988 39.9245 144.59 39.9744 144.141 39.9744C143.693 39.9744 143.294 39.8746 142.946 39.7249C142.597 39.5253 142.348 39.2758 142.148 38.9264C141.949 38.5771 141.849 38.1778 141.849 37.7287C141.849 37.2795 141.949 36.8803 142.148 36.5309C142.348 36.1816 142.597 35.9321 142.946 35.7324C143.294 35.5328 143.693 35.4829 144.141 35.4829C144.59 35.4829 144.988 35.5827 145.337 35.7324ZM143.444 36.2814C143.195 36.3812 143.045 36.5808 142.896 36.8304C142.746 37.0799 142.696 37.3793 142.696 37.7287C142.696 38.078 142.746 38.3774 142.896 38.627C143.045 38.8765 143.244 39.0262 143.444 39.1759C143.693 39.2758 143.942 39.3756 144.191 39.3756C144.44 39.3756 144.689 39.3257 144.938 39.1759C145.188 39.0761 145.337 38.8765 145.487 38.627C145.636 38.3774 145.686 38.078 145.686 37.7287C145.686 37.3793 145.636 37.0799 145.487 36.8304C145.337 36.5808 145.138 36.4311 144.938 36.2814C144.689 36.1816 144.44 36.0818 144.191 36.0818C143.942 36.0818 143.693 36.1317 143.444 36.2814Z" fill="black"/>
<path d="M148.326 33.9858V39.8747H147.579V33.9858H148.326Z" fill="black"/>
<path d="M151.465 39.1259L152.86 35.5327H153.658L151.864 39.9244H150.967L149.173 35.5327H149.971L151.415 39.1259H151.465Z" fill="black"/>
<path d="M158.74 37.8783H155.103C155.103 38.3773 155.252 38.7766 155.551 39.0261C155.85 39.2757 156.149 39.4254 156.597 39.4254C157.046 39.4254 157.245 39.3256 157.494 39.1758C157.743 38.9762 157.893 38.7766 157.943 38.4772H158.74C158.69 38.7766 158.54 39.076 158.391 39.2757C158.192 39.5252 157.943 39.7248 157.644 39.8246C157.345 39.9244 156.996 40.0242 156.597 40.0242C156.199 40.0242 155.75 39.9244 155.451 39.7747C155.103 39.5751 154.853 39.3256 154.654 38.9762C154.455 38.6269 154.355 38.2276 154.355 37.7785C154.355 37.3293 154.455 36.9301 154.654 36.5807C154.853 36.2314 155.103 35.9819 155.451 35.7822C155.8 35.5826 156.199 35.5327 156.597 35.5327C156.996 35.5327 157.444 35.6325 157.743 35.7822C158.092 35.9819 158.341 36.1815 158.491 36.5308C158.64 36.8303 158.74 37.1796 158.74 37.5289C158.74 37.8783 158.74 37.8284 158.74 37.9282V37.8783ZM157.843 36.7305C157.693 36.5308 157.544 36.3312 157.345 36.2314C157.145 36.1316 156.896 36.0817 156.647 36.0817C156.249 36.0817 155.9 36.1815 155.601 36.431C155.302 36.6806 155.152 37.0299 155.152 37.5289H158.042C158.042 37.1796 158.042 36.9301 157.893 36.7305H157.843Z" fill="black"/>
</svg>
